<?xml version="1.0" encoding="UTF-8" standalone="no"?>
<svg
   xmlns:dc="http://purl.org/dc/elements/1.1/"
   xmlns:cc="http://creativecommons.org/ns#"
   xmlns:rdf="http://www.w3.org/1999/02/22-rdf-syntax-ns#"
   xmlns:svg="http://www.w3.org/2000/svg"
   xmlns="http://www.w3.org/2000/svg"
   viewBox="0 0 640 352"
   height="352"
   width="640"
   version="1.1"
   id="svg5226">
  <metadata
     id="metadata5232">
    <rdf:RDF>
      <cc:Work
         rdf:about="">
        <dc:format>image/svg+xml</dc:format>
        <dc:type
           rdf:resource="http://purl.org/dc/dcmitype/StillImage" />
        <dc:title></dc:title>
      </cc:Work>
    </rdf:RDF>
  </metadata>
  <defs
     id="defs5230">
    <clipPath
       id="clipPath5238"
       clipPathUnits="userSpaceOnUse">
      <rect
         y="35.155579"
         x="354.40533"
         height="301.09308"
         width="109.65361"
         id="rect5240"
         style="color:#000000;clip-rule:nonzero;display:inline;overflow:visible;visibility:visible;opacity:1;isolation:auto;mix-blend-mode:normal;color-interpolation:sRGB;color-interpolation-filters:linearRGB;solid-color:#000000;solid-opacity:1;fill:#ffb380;fill-opacity:1;fill-rule:evenodd;stroke:none;stroke-width:50;stroke-linecap:round;stroke-linejoin:bevel;stroke-miterlimit:4;stroke-dasharray:none;stroke-dashoffset:0;stroke-opacity:1;color-rendering:auto;image-rendering:auto;shape-rendering:auto;text-rendering:auto;enable-background:accumulate" />
    </clipPath>
  </defs>
  <path
     style="fill:#fdfdfd"
     d="m 296.61181,157.58971 7.04936,-69.511737 32.26662,-83.6033082 38.32482,78.1509182 -1.81747,89.142647 -12.72224,46.12936 -20.75601,-6.66403 -28.30725,-1.35234 -4.44863,-31.92889 z"
     id="path5970" />
  <path
     style="fill:#cdb09a"
     d="m 344.61577,342.56511 c 0.009,-3.92852 0.84911,-16.14277 1.86882,-27.14277 1.01971,-11 1.57684,-21.6875 1.23806,-23.75 -0.9577,-5.83094 -4.37163,-55.15503 -4.37163,-63.16179 0,-4.92434 -0.60147,-7.65628 -1.92798,-8.75718 -4.30545,-3.57321 -4.75487,0.087 -5.30791,43.22883 -0.53661,41.8601 -0.52994,41.99605 2.20415,44.90635 2.63939,2.8095 2.7235,3.68645 2.23985,23.35146 l -0.50254,20.43233 -9.91529,-0.11375 c -19.40608,-0.22257 -28.0161,-0.71089 -28.57848,-1.62085 -0.55189,-0.89298 0.88756,-6.21442 5.02533,-18.57794 3.66663,-10.95571 4.32945,-19.47436 4.96984,-63.87224 l 0.63731,-44.18474 -3.22028,-5.49498 c -4.24683,-7.24663 -2.86062,-10.5105 4.46396,-10.5105 4.556,0 4.88509,-0.2147 3.70601,-2.41783 -0.71169,-1.3298 -1.29397,-5.29524 -1.29397,-8.81207 0,-6.13422 -2.68664,-13.7701 -4.84493,-13.7701 -0.56689,0 -1.39819,5.17698 -1.84732,11.50442 -0.44914,6.32744 -1.28845,11.97628 -1.86515,12.55298 -2.43688,2.43687 -4.0621,-3.3264 -4.7951,-17.00402 -0.6987,-13.03765 -1.06675,-14.74633 -3.71157,-17.231 -1.61476,-1.517 -2.93593,-3.25108 -2.93593,-3.85352 0,-0.60245 -1.79899,-5.64786 -3.99774,-11.21204 l -3.99775,-10.11667 2.29776,-10.13258 c 1.26378,-5.57291 2.64089,-16.07526 3.06025,-23.33854 0.67549,-11.69933 1.23095,-14.099645 4.86873,-21.039233 5.86891,-11.1958 9.01738,-20.050784 9.01812,-25.363116 3.4e-4,-2.534574 -1.12044,-9.284574 -2.49061,-15 -3.11308,-12.985481 -3.14666,-19.135189 -0.15039,-27.532293 1.29711,-3.635165 3.05473,-9.270577 3.9058,-12.523138 0.85109,-3.2525617 2.18044,-6.4193842 2.95413,-7.037383 0.77368,-0.618 7.98008,-3.3895712 16.01422,-6.1590487 l 14.60753,-5.0354113 4.5816,2.4555913 c 9.98815,5.3533237 17.09423,11.6415562 19.56703,17.3149987 2.42835,5.571464 8.49577,36.145583 8.506,42.862298 0.002,1.918013 -1.16603,5.78334 -2.5977,8.589613 l -2.603,5.102317 4.72323,6.857915 4.72322,6.85792 0.7549,17.1243 c 0.70052,15.89025 1.06028,17.81914 4.99225,26.76629 l 4.23734,9.64198 -2.27111,6.53619 c -1.24911,3.5949 -3.60833,8.89035 -5.24269,11.76768 -3.10324,5.46331 -4.0896,14.24458 -2.33425,20.78116 0.79936,2.97662 0.522,3.62284 -1.81756,4.23464 -2.08434,0.54507 -2.5872,1.36897 -2.05215,3.36233 0.38979,1.4522 0.71639,3.06224 0.72577,3.57787 0.0344,1.88753 2.34913,0.87243 2.8504,-1.25 0.39442,-1.66994 0.73533,-1.40842 1.44087,1.10533 0.63892,2.27642 0.16897,4.78444 -1.52245,8.125 -1.34567,2.65769 -2.83272,6.62143 -3.30455,8.80829 -0.47185,2.18688 -1.67243,4.65213 -2.66797,5.47835 -1.3732,1.13965 -1.46771,1.91474 -0.3916,3.21138 1.60754,1.93696 -0.49747,5.45915 -3.26263,5.45915 -4.51313,0 -4.6684,2.84832 -1.99069,36.51608 1.43735,18.0724 2.96251,39.32767 3.38925,47.23392 0.73427,13.60426 1.09572,15.11222 6.74155,28.125 26.41519,29.61761 -32.53962,31.21957 -32.50036,12.14277 z m -16.51688,-31.19044 c 0.57878,-3.75857 -2.9024,-5.99991 -6.65984,-4.28791 -2.40355,1.09513 -3.08798,2.34998 -3.08798,5.66148 l 0,4.2545 4.6875,-1.60348 c 2.94913,-1.00884 4.82576,-2.50135 5.06032,-4.02459 z m 33.30825,0.46789 c 1.57886,-2.5335 -0.99154,-4.74361 -4.93107,-4.23989 -2.60705,0.33335 -3.94518,4.50434 -2.58349,8.05284 0.65099,1.69644 1.06482,1.71015 3.46741,0.11488 1.50053,-0.9963 3.32174,-2.76383 4.04715,-3.92783 z M 343.86813,205.8386 c -1.80628,-3.49294 -1.79288,-4.78645 0.1578,-15.24156 1.17236,-6.28359 2.5614,-12.5497 3.08674,-13.9247 0.8719,-2.2821 1.03378,-2.20038 1.85728,0.9375 0.89645,3.41582 3.13112,4.80196 3.13112,1.94218 0,-0.82242 1.40378,-3.52098 3.11953,-5.99681 4.10827,-5.92821 6.01457,-23.369 2.75373,-25.19386 -1.11069,-0.62158 -1.71791,-1.91586 -1.3494,-2.8762 0.36852,-0.96035 -0.35796,-2.26064 -1.61441,-2.88953 -2.81362,-1.40831 -34.14302,-1.23291 -36.46412,0.20415 -2.64725,1.63899 -0.39935,24.33754 3.75682,37.93507 2.0221,6.61561 4.79135,5.18398 4.83586,-2.5 0.0406,-7.02167 1.45992,-6.29985 3.07225,1.5625 0.49344,2.40625 2.31566,7.96951 4.04937,12.36281 2.63613,6.68005 2.94093,8.67624 1.8617,12.19266 -1.21825,3.96943 -1.10451,4.24565 2.03159,4.93401 1.82714,0.40107 3.88458,0.88533 4.57208,1.07618 2.64046,0.73295 3.04073,-0.85276 1.14206,-4.5244 z m 26.98294,-12.29126 c 0,-0.6875 -0.5625,-1.25 -1.25,-1.25 -0.6875,0 -1.25,0.5625 -1.25,1.25 0,0.6875 0.5625,1.25 1.25,1.25 0.6875,0 1.25,-0.5625 1.25,-1.25 z m -65.43709,-37.02169 c 6.60829,-3.23314 8.45746,-6.12741 4.80929,-7.52735 -4.50777,-1.72979 -11.25202,2.26777 -12.54984,7.43875 -1.04164,4.15019 -0.57203,4.15556 7.74055,0.0886 z m 70.43011,-1.41581 c -0.0241,-3.2477 -2.86627,-10.3125 -4.14865,-10.3125 -0.84596,0 -2.82027,0.89806 -4.38736,1.9957 -4.04025,2.82988 -3.16058,7.13381 1.66799,8.16086 5.50201,1.17031 6.8758,1.2015 6.86802,0.15594 z m -61.90176,-44.00792 c 0.40634,-0.65747 1.51216,-0.89863 2.45739,-0.53591 0.94523,0.36271 4.25017,-0.20001 7.34433,-1.2505 3.83115,-1.30071 6.80127,-1.57285 9.31084,-0.85311 3.08944,0.88604 15.61428,-0.6893 24.89616,-3.13138 0.81125,-0.21343 1.85949,-2.95207 2.32944,-6.085871 0.46994,-3.1338 1.27989,-5.697812 1.79988,-5.697812 0.51998,0 1.6101,3.378437 2.42247,7.507653 1.43309,7.28422 1.57743,7.48367 4.85014,6.70217 1.8552,-0.44301 3.79496,-1.04215 4.31059,-1.33142 1.27777,-0.71684 1.16887,-7.552566 -0.20519,-12.878403 -0.6208,-2.40625 -1.46841,-6.385825 -1.88358,-8.8435 -0.41517,-2.457663 -1.9288,-5.728584 -3.36363,-7.268699 -2.38433,-2.559269 -2.79478,-2.631889 -4.77038,-0.844004 -1.18886,1.075912 -3.28486,1.956203 -4.65776,1.956203 -1.3729,0 -3.85985,1.454575 -5.52658,3.232387 -1.66671,1.777813 -6.02401,4.650313 -9.68287,6.38335 l -6.6525,3.150963 -3.02395,-2.840863 c -1.66318,-1.562462 -4.2041,-5.278725 -5.64651,-8.258337 -2.16744,-4.477329 -3.23049,-5.4175 -6.12555,-5.4175 -2.69403,0 -3.68412,0.721666 -4.2873,3.125 -0.96902,3.860837 -4.2144,4.078875 -5.58449,0.375189 -1.00203,-2.708748 -1.05275,-2.695585 -3.39655,0.881506 -3.04709,4.650455 -5.25343,10.586343 -7.43139,19.993305 -2.42836,10.488453 -2.36154,11.019153 1.29925,10.319333 1.71795,-0.3284 4.10858,0.15064 5.3125,1.06453 2.60744,1.97929 4.88894,2.19012 5.90524,0.54572 z"
     id="path5964" />
  <path
     style="fill:#abc478"
     d="m 344.61577,342.56511 c 0.009,-3.92852 0.84911,-16.14277 1.86882,-27.14277 1.01971,-11 1.57684,-21.6875 1.23806,-23.75 -0.9577,-5.83094 -4.37163,-55.15503 -4.37163,-63.16179 0,-4.92434 -0.60147,-7.65628 -1.92798,-8.75718 -4.30545,-3.57321 -4.75487,0.087 -5.30791,43.22883 -0.53661,41.8601 -0.52994,41.99605 2.20415,44.90635 2.63942,2.80955 2.7235,3.68614 2.2394,23.35146 l -0.50298,20.43233 -9.28983,-0.2318 c -19.19984,-0.47909 -28.47984,-1.04137 -29.20813,-1.76973 -0.41329,-0.41334 0.0989,-2.38209 1.13821,-4.375 1.03932,-1.99291 1.89313,-5.18841 1.89737,-7.10112 0.004,-1.9127 0.92605,-5.56895 2.04848,-8.125 3.54124,-8.0642 4.26222,-17.24214 4.91619,-62.58209 l 0.63731,-44.18474 -3.22028,-5.49499 c -2.5605,-4.36916 -2.94837,-6.00308 -1.89309,-7.97487 1.12835,-2.10834 2.16557,-2.36496 6.92314,-1.71286 5.12072,0.70187 5.59595,0.54027 5.59595,-1.9029 0,-2.14849 0.79338,-2.69883 4.0625,-2.818 2.23437,-0.0815 4.74798,-0.0609 5.58581,0.0457 0.83781,0.10662 2.23875,-0.9517 3.11317,-2.35189 2.59069,-4.14835 3.87997,-2.92259 3.07825,2.92661 l -0.75008,5.4724 5.12205,0.81905 c 6.10562,0.97633 6.87853,0.44954 5.09233,-3.47075 -1.30256,-2.85881 -1.00258,-7.25979 1.71548,-25.16811 0.70905,-4.67169 1.12624,-5.52113 1.65204,-3.36373 0.90112,3.69734 2.55855,4.03273 4.31721,0.87362 0.76244,-1.36957 2.58205,-4.00163 4.04359,-5.84903 3.58728,-4.53435 5.46711,-22.03077 2.59281,-24.13251 -1.03523,-0.75698 -2.07751,-2.76053 -2.31619,-4.45234 l -0.43397,-3.07597 -19.03057,-0.34489 -19.03055,-0.34489 -0.8147,3.24603 c -0.44808,1.78531 -0.48548,5.64791 -0.0831,8.58355 0.83115,6.06388 -0.80185,8.78567 -4.1849,6.97512 -1.43391,-0.7674 -2.91146,-0.57229 -4.496,0.59371 -2.31199,1.7013 -2.31215,1.85984 -0.009,7.76407 2.63599,6.75597 2.66299,7.54725 0.8242,24.1523 -1.65645,14.95833 -2.02305,16.06353 -4.50508,13.58151 -1.3303,-1.3303 -2.0854,-6.02454 -2.64312,-16.43164 -0.70398,-13.13592 -1.06964,-14.84067 -3.71674,-17.32749 -1.6145,-1.517 -2.93567,-3.25108 -2.93567,-3.85352 0,-0.60245 -1.79899,-5.64786 -3.99774,-11.21204 l -3.99775,-10.11667 2.29776,-10.13258 c 1.26378,-5.57291 2.64089,-16.07526 3.06025,-23.33854 0.67549,-11.69933 1.23095,-14.099645 4.86873,-21.039233 5.86891,-11.1958 9.01738,-20.050784 9.01812,-25.363116 3.4e-4,-2.534574 -1.12044,-9.284574 -2.49061,-15 -3.11308,-12.985481 -3.14666,-19.135189 -0.15039,-27.532293 1.29711,-3.635165 3.06178,-9.295756 3.92148,-12.579092 0.8597,-3.2833365 2.18905,-6.3725315 2.95411,-6.8648802 2.08919,-1.3444575 8.96036,-3.8472275 20.49571,-7.4653875 11.94084,-3.7453438 12.89209,-3.5276563 25.27033,5.7829737 8.64002,6.49883 10.53872,10.784621 14.4611,32.641995 3.6919,20.57305 3.7211,22.51238 0.43588,28.951911 l -2.603,5.102317 4.72323,6.857915 4.72322,6.85792 0.7549,17.1243 c 0.70052,15.89025 1.06028,17.81914 4.99225,26.76629 l 4.23734,9.64198 -2.27111,6.53619 c -1.24911,3.5949 -3.60833,8.89035 -5.24269,11.76768 -3.10324,5.46331 -4.0896,14.24458 -2.33425,20.78116 0.79936,2.97662 0.522,3.62284 -1.81756,4.23464 -2.08434,0.54507 -2.5872,1.36897 -2.05215,3.36233 0.38979,1.4522 0.71639,3.06224 0.72577,3.57787 0.0344,1.88753 2.34913,0.87243 2.8504,-1.25 0.39442,-1.66994 0.73533,-1.40842 1.44087,1.10533 0.63892,2.27642 0.16897,4.78444 -1.52245,8.125 -1.34567,2.65769 -2.83272,6.62143 -3.30455,8.80829 -0.47185,2.18688 -1.67243,4.65213 -2.66797,5.47835 -1.3732,1.13965 -1.46771,1.91474 -0.3916,3.21138 1.60754,1.93696 -0.49747,5.45915 -3.26263,5.45915 -4.51313,0 -4.6684,2.84832 -1.99069,36.51608 1.43735,18.0724 2.96251,39.32767 3.38925,47.23392 0.73427,13.60426 1.09572,15.11222 6.74155,28.125 26.41474,29.61757 -32.53939,31.21956 -32.50013,12.14282 z M 325.34219,315.2815 c 3.71168,-0.93158 4.05706,-5.3981 0.65546,-8.4765 -1.92172,-1.73914 -2.16703,-2.97843 -1.33737,-6.75624 1.32131,-6.01651 3.57546,-38.38927 3.87381,-55.63335 0.21251,-12.28284 -0.007,-13.74795 -2.42599,-16.16659 -3.32827,-3.32827 -3.14432,-3.93486 -5.88315,19.40114 -2.18793,18.64216 -1.90868,40.87716 0.66248,52.74899 0.81634,3.76932 0.63942,5.46102 -0.72928,6.97342 -0.9939,1.09825 -1.80708,3.84083 -1.80708,6.09463 0,3.23516 0.41916,3.93696 1.99112,3.33374 1.09513,-0.42024 3.34513,-1.10389 5,-1.51924 z m 33.98074,0.07 c 3.48466,-2.44075 3.57885,-6.28764 0.19824,-8.09689 -3.4047,-1.82214 -6.1701,0.41323 -6.1701,4.98749 0,5.39162 1.55648,6.20205 5.97186,3.1094 z m 0.2814,-33.36663 c 0.002,-15.17933 -0.58333,-24.15276 -1.97828,-30.3125 -2.51718,-11.11517 -3.96503,-14.7141 -5.5303,-13.74671 -1.91042,1.1807 -1.4953,12.5511 1.31697,36.07194 3.37453,28.22361 3.59871,29.54977 4.99498,29.54977 0.71158,0 1.19469,-8.70541 1.19663,-21.5625 z m 8.12174,-77.18753 c 0.4249,-0.6875 0.17685,-1.25 -0.55123,-1.25 -0.72807,0 -1.32377,0.5625 -1.32377,1.25 0,0.6875 0.24805,1.25 0.55122,1.25 0.30318,0 0.89888,-0.5625 1.32378,-1.25 z m -6.84407,-5.70638 c 0.67049,-1.7635 1.21907,-5.04152 1.21907,-7.28449 0,-2.24296 1.40625,-7.53892 3.125,-11.76878 3.29392,-8.1064 4.06611,-15.76118 1.73525,-17.20173 -1.98274,-1.22539 -3.3206,1.52064 -4.27594,8.7766 -1.15606,8.78054 -4.70421,16.32293 -8.90489,18.92939 -4.83789,3.00182 -6.67942,5.44712 -6.67942,8.8693 0,2.63186 0.55325,2.88609 6.28093,2.88609 5.59202,0 6.41465,-0.35169 7.5,-3.20638 z m 9.96907,-5.54362 c 0,-0.6875 -0.5625,-1.25 -1.25,-1.25 -0.6875,0 -1.25,0.5625 -1.25,1.25 0,0.6875 0.5625,1.25 1.25,1.25 0.6875,0 1.25,-0.5625 1.25,-1.25 z m -57.5,-41.19712 c 0,-0.63862 -1.20687,-2.00645 -2.68192,-3.03961 -2.4179,-1.69356 -3.14162,-1.64395 -7.3519,0.50398 -4.5091,2.30037 -7.26762,7.27021 -5.56472,10.02556 0.83795,1.35584 15.59854,-5.73174 15.59854,-7.48993 z m 61.90063,-0.98086 c -1.10857,-5.90919 -1.54031,-6.57202 -4.28067,-6.57202 -2.40964,0 -5.50838,3.01941 -6.78415,6.61048 -0.90848,2.55723 2.5289,4.43098 8.3658,4.56028 3.46337,0.0768 3.54882,-0.0689 2.69902,-4.59874 z m -61.22297,-39.15724 c 0.45387,-0.73437 1.6477,-1.0196 2.65296,-0.63385 1.00525,0.38575 3.55805,-0.19341 5.67289,-1.28703 2.77504,-1.43503 5.62297,-1.77734 10.23331,-1.23 4.05989,0.482 8.89389,0.0764 13.26318,-1.11292 3.78125,-1.02922 8.39638,-1.87798 10.25586,-1.88615 2.86999,-0.0126 3.50487,-0.67591 4.20161,-4.38983 0.45141,-2.406253 1.26048,-4.375003 1.7979,-4.375003 1.30954,0 2.49463,3.279533 2.49463,6.903463 0,3.71989 0.86347,4.20254 6.09613,3.40754 l 4.22114,-0.64132 -0.68244,-7.022346 c -1.0997,-11.316075 -3.33768,-19.625325 -6.07807,-22.566782 -2.41126,-2.588183 -2.68719,-2.623744 -4.89001,-0.63022 -1.30604,1.181954 -3.42883,1.826581 -4.81838,1.463204 -1.69327,-0.442802 -3.10106,0.292475 -4.42309,2.310148 -2.21951,3.3874 -14.59315,9.659525 -17.86411,9.055213 -1.2024,-0.22215 -3.87367,-3.636675 -5.93617,-7.587838 -3.35267,-6.422742 -4.1661,-7.184312 -7.67699,-7.187498 -3.14773,-0.0029 -4.08264,0.616552 -4.71131,3.121436 -0.97104,3.868925 -3.69187,4.050125 -5.34039,0.355651 -1.23064,-2.757965 -1.24555,-2.754341 -3.62785,0.881506 -3.05954,4.669468 -5.26376,10.595243 -7.44419,20.012843 -2.3866,10.308113 -2.33374,10.625003 1.77268,10.625003 1.97831,0 4.29718,0.84375 5.15305,1.875 1.81696,2.1893 4.50052,2.44443 5.67766,0.53978 z m 32.42739,-45.227283 c 3.4108,-2.234375 6.9117,-5.46875 7.77977,-7.1875 3.39513,-6.722174 0.80494,-16.25 -4.41764,-16.25 -2.25978,0 -6.46246,-3.571894 -6.47861,-5.506235 -0.006,-0.75282 -1.3748,-4.181265 -3.04115,-7.618765 -2.52354,-5.205807 -3.16514,-5.832323 -3.84026,-3.75 -2.37109,7.313225 -3.1162,8.290602 -5.6961,7.471771 -2.33739,-0.741856 -2.42173,-0.579916 -0.9365,1.798298 1.9467,3.117168 0.46439,6.207487 -3.72,7.75539 -2.18035,0.806567 -3.16963,0.37812 -4.77138,-2.066462 -1.11138,-1.696198 -2.54197,-3.083997 -3.17907,-3.083997 -1.72904,0 0.17612,18.88677 2.23727,22.179323 1.79293,2.86405 14.55869,10.151901 17.97292,10.260553 1.03911,0.03306 4.67995,-1.768001 8.09075,-4.002376 z m -20.52688,121.976563 -2.9781,-2.08594 2.83556,-1.04895 c 2.3643,-0.87461 2.75088,-1.77441 2.32597,-5.41406 -0.28028,-2.40081 -0.32738,-4.36511 -0.10463,-4.36511 0.69546,0 2.45531,5.41782 3.34975,10.3125 0.97633,5.34272 -0.50287,6.05161 -5.42851,2.60156 z"
     id="path5962" />
  <path
     style="fill:#9b986a;fill-opacity:1"
     d="m 346.03802,342.29256 c -0.24093,-3.77862 0.2714,-14.87169 1.13848,-24.65126 1.24044,-13.99025 1.26159,-21.87984 0.0993,-37.0069 -0.81252,-10.57423 -1.83681,-28.35704 -2.27617,-39.51736 -0.58854,-14.94929 -1.2633,-20.75595 -2.56295,-22.0556 -0.97025,-0.97027 -2.14579,-1.75549 -2.61231,-1.74497 -3.63497,0.082 -3.91134,2.79942 -4.51632,44.40425 l -0.61722,42.44664 3.20314,4.62213 c 3.07723,4.44046 3.17075,5.10381 2.37918,16.87748 -0.45316,6.74045 -0.88187,15.28255 -0.95268,18.98245 l -0.12877,6.72708 -9.93677,-0.68108 c -5.46523,-0.3746 -10.5481,-1.29241 -11.29528,-2.03958 -1.89351,-1.89352 -6.17638,-1.69383 -10.37347,0.48365 -4.73173,2.45485 -5.76264,1.03518 -3.61924,-4.984 0.97596,-2.74073 1.79918,-6.40487 1.82935,-8.14252 0.0301,-1.73766 1.02594,-4.54577 2.21281,-6.24027 2.73272,-3.9015 2.73558,-3.94515 3.92487,-59.97536 l 0.99496,-46.875 -2.93438,-5.25755 c -2.87577,-5.15254 -2.88567,-5.28363 -0.49606,-6.5625 1.34106,-0.71773 4.79089,-1.30495 7.66628,-1.30495 4.56263,0 5.14708,-0.3093 4.59241,-2.43039 -0.49518,-1.89351 0.17424,-2.60824 3.0304,-3.23556 3.8359,-0.8425 7.31357,0.96931 7.31357,3.81027 0,2.13188 2.32854,2.89684 11.57822,3.80361 6.02267,0.59043 8.36565,0.3226 10.29678,-1.17703 2.45318,-1.90504 2.44148,-1.9425 -0.625,-2.00029 -3.54631,-0.0669 -4.86161,-0.84395 -7.43971,-4.39561 -1.12827,-1.55434 -1.19864,-1.95569 -0.18602,-1.06103 1.0063,0.88909 2.89835,1.07483 4.95123,0.48608 3.97178,-1.1391 8.28618,0.23352 9.3364,2.97035 0.4619,1.20371 2.24479,1.9796 4.54888,1.9796 2.08407,0 3.78922,0.65883 3.78922,1.46407 0,0.80524 0.89424,2.45219 1.98719,3.65989 1.84185,2.03521 1.71051,2.33889 -1.79574,4.15204 -2.0806,1.07592 -4.0871,2.44838 -4.45886,3.04992 -0.37177,0.60154 0.17056,11.15241 1.2052,23.44639 1.03463,12.29397 2.41968,31.07144 3.07789,41.72769 1.77159,28.68155 2.34329,31.85243 8.09801,44.91536 18.02716,25.40746 -28.50788,24.71876 -30.42682,11.32986 z m -20.69542,1.15805 c 2.5491,-2.11556 1.64298,-2.57227 -5.95681,-3.00245 -6.90716,-0.39096 -9.78472,0.80071 -9.78472,4.05211 0,1.5547 1.25557,1.76724 6.96133,1.17835 3.82873,-0.39516 7.77983,-1.39776 8.7802,-2.22801 z m 40.86808,-0.17591 c 6.0119,-2.27683 3.24719,-4.13879 -5.46483,-3.6804 -8.63956,0.45456 -10.65613,1.41602 -9.46738,4.51385 0.59582,1.5527 1.9102,1.81814 6.10347,1.23255 2.93928,-0.41046 6.9122,-1.34016 8.82874,-2.066 z m -41.60961,-10.97736 c 1.66666,-1.07709 1.66666,-1.21172 0,-1.21172 -1.03125,0 -2.71875,0.54527 -3.75,1.21172 -1.66667,1.07708 -1.66667,1.21171 0,1.21171 1.03125,0 2.71875,-0.54526 3.75,-1.21171 z m 35.44383,0.52155 c 2.55207,-0.97932 1.14349,-4.27155 -1.82757,-4.27155 -1.53293,0 -2.36626,0.88043 -2.36626,2.5 0,2.59726 0.97205,3.00786 4.19383,1.77155 z m -36.06883,-10.52155 c 0.4249,-0.6875 0.21003,-1.25 -0.47747,-1.25 -0.6875,0 -1.59763,0.5625 -2.02253,1.25 -0.4249,0.6875 -0.21004,1.25 0.47746,1.25 0.6875,0 1.59764,-0.5625 2.02254,-1.25 z m 34.375,-4.375 c 0.85586,-1.03125 2.89348,-1.875 4.52805,-1.875 2.55206,0 2.97195,-0.60622 2.97195,-4.29077 0,-3.26685 -0.62909,-4.49043 -2.63622,-5.12747 -2.58362,-0.82001 -2.62977,-1.3516 -2.3131,-26.64673 0.34018,-27.17282 -1.05198,-58.93503 -2.58317,-58.93503 -0.49776,0 -2.5222,-0.32219 -4.49876,-0.71598 l -3.59375,-0.71597 -0.30029,16.02847 c -0.16629,8.87659 0.50217,21.88484 1.49814,29.15348 0.98912,7.21875 2.45362,19.25446 3.25443,26.74603 1.30325,12.19189 1.24443,13.73945 -0.56063,14.74962 -2.04203,1.14277 -2.75072,7.63693 -1.25792,11.52711 0.95687,2.49354 3.46787,2.54029 5.49127,0.10225 z m -32.1875,-1.50874 c 2.85882,-0.54059 3.4375,-1.29345 3.4375,-4.47221 0,-2.10222 -0.90688,-4.82429 -2.01529,-6.04908 -1.85139,-2.04576 -1.8541,-4.08697 -0.0333,-25.09842 1.09009,-12.57935 2.35965,-31.16843 2.82122,-41.30905 l 0.83925,-18.4375 -4.4993,0 c -5.04283,0 -5.01948,-0.059 -6.43415,16.25 -0.38762,4.46875 -1.25332,12.625 -1.92377,18.125 -0.79899,6.55432 -0.78693,16.84911 0.035,29.87745 1.07639,17.06188 0.9906,20.1685 -0.60564,21.93233 -1.30266,1.43942 -1.62981,3.47132 -1.09225,6.78388 0.66729,4.11206 1.11089,4.61931 3.40031,3.8883 1.4481,-0.46238 4.17979,-1.13319 6.07042,-1.4907 z M 304.0852,200.91564 c -0.35985,-1.64632 -0.81286,-8.41974 -1.0067,-15.05205 -0.27417,-9.38099 -0.8382,-12.59495 -2.53993,-14.47343 -2.82414,-3.11744 -2.7849,-6.91471 0.0984,-9.52409 3.2766,-2.96528 5.21408,-2.55428 5.21408,1.10607 0,1.74613 1.16778,5.46385 2.59507,8.26157 2.13508,4.18508 2.34934,5.68005 1.20879,8.4336 -0.76248,1.84075 -1.56675,7.43455 -1.7873,12.43065 -0.41624,9.42903 -2.55766,14.42115 -3.78243,8.81768 z m 45.84324,-11.9814 c 1.16221,-1.1622 2.46408,-1.76213 2.89304,-1.33317 1.23022,1.23024 -0.65836,3.44627 -2.93704,3.44627 -1.9081,0 -1.90467,-0.16442 0.044,-2.1131 z m 21.37291,-12.02747 c -2.5717,-1.28223 -2.606,-1.56501 -0.89066,-7.34117 2.21748,-7.46705 0.85801,-10.99038 -3.89036,-10.08266 -2.33521,0.4464 -3.16926,0.074 -3.16926,-1.41488 0,-2.68057 1.87088,-2.54829 8.35535,0.59079 5.61408,2.71772 6.42867,4.51667 3.88763,8.58552 -1.2303,1.97002 -1.11553,2.8457 0.625,4.76897 4.6048,5.08825 1.55654,8.12146 -4.9177,4.89343 z m -57.95028,-19.60943 c 0,-0.6875 0.5625,-1.25 1.25,-1.25 0.6875,0 1.25,0.5625 1.25,1.25 0,0.6875 -0.5625,1.25 -1.25,1.25 -0.6875,0 -1.25,-0.5625 -1.25,-1.25 z m -22.37772,-5.18653 c -1.98873,-5.70489 -1.69985,-11.16306 1.13164,-21.38082 1.84605,-6.66172 2.30683,-11.00908 1.75376,-16.54668 -0.5953,-5.96047 -0.19233,-8.9898 1.952,-14.674711 3.70379,-9.819187 5.71219,-10.778725 4.3694,-2.087537 -0.57368,3.713198 -0.89798,11.061898 -0.72066,16.330448 0.25265,7.50661 -0.42066,12.05519 -3.112,21.02301 -3.32527,11.08015 -3.36557,11.56037 -1.26824,15.11089 1.1914,2.01688 1.81925,4.2284 1.39523,4.91449 -1.52171,2.46219 -4.15393,1.17549 -5.50113,-2.68909 z m 86.79952,-2.22296 c -1.17632,-2.27475 -1.65662,-5.08689 -1.18782,-6.95473 1.08692,-4.33058 -1.53548,-4.09446 -8.208,0.73909 -5.67695,4.11236 -7.46548,3.59616 -7.50685,-2.16659 -0.0125,-1.6594 -1.02395,-2.92947 -2.67922,-3.36233 -2.2019,-0.57582 -2.51481,-1.30068 -1.81665,-4.20829 0.4639,-1.93196 1.14905,-8.01266 1.52257,-13.51266 0.64869,-9.55193 2.57232,-16.875 4.43272,-16.875 1.73802,0 2.61032,12.06283 1.87053,25.86713 -0.87367,16.30239 -0.1672,17.2069 7.13047,9.12927 5.19273,-5.74774 5.10372,-5.44418 2.68062,-9.14229 -1.62605,-2.48166 -1.60231,-4.10145 0.20434,-13.94059 1.75666,-9.56691 1.82087,-12.46149 0.4566,-20.580748 -0.87315,-5.19645 -2.439,-11.57605 -3.47965,-14.1769 -2.14706,-5.366036 -5.8653,-8.06465 -8.3129,-6.03332 -0.8589,0.712823 -3.54294,0.97452 -5.96453,0.58155 -4.033,-0.654466 -4.53956,-0.384509 -6.0299,3.213474 -3.46332,8.361196 -10.93243,8.636284 -19.20746,0.707421 -4.58137,-4.389735 -6.7945,-5.625 -10.07784,-5.625 -3.156,0 -4.37061,0.624668 -4.86102,2.5 -0.75975,2.905299 -3.38781,3.390136 -3.38781,0.625 0,-2.506584 -2.3623,-2.370533 -5.42603,0.3125 -2.40231,2.103802 -2.45772,2.091846 -1.44831,-0.3125 2.04931,-4.88127 2.11585,-13.43848 0.15879,-20.420388 -4.79444,-17.104342 -4.91479,-19.948421 -1.33109,-31.454612 5.08615,-16.3300825 6.21636,-18.4073575 11.4414,-21.0286225 6.25609,-3.138515 21.47774,-7.9922575 25.13697,-8.0154525 1.59872,-0.010125 6.88412,2.6991925 11.74534,6.020725 7.31076,4.9952163 9.3322,7.1552388 11.69401,12.495719 1.57047,3.551111 3.22517,8.638181 3.6771,11.304598 0.45194,2.666419 1.91997,10.795232 3.26229,18.064029 l 2.44058,13.215997 -2.55053,5.950135 c -3.36265,7.844748 -3.27049,8.699947 1.62915,15.116808 4.15915,5.447064 4.18331,5.558839 4.91864,22.752147 0.67282,15.73172 1.08189,18.0425 4.57032,25.81758 4.35333,9.70274 4.48583,11.52145 1.46477,20.10457 -2.64002,7.50053 -4.36385,8.31577 -6.9616,3.29228 z M 339.65168,78.312264 c 4.81015,-3.556299 4.68761,-4.887069 -0.36311,-3.943381 -5.02902,0.939633 -6.48898,2.188367 -5.51772,4.719433 0.97798,2.548546 1.47229,2.483321 5.88083,-0.776052 z m 9.26955,-12.224412 c 7.39152,-5.460446 8.4063,-7.838674 7.92579,-18.57485 -0.3144,-7.024652 -1.80772,-9.437986 -3.72267,-6.016162 -1.52091,2.717723 -2.9881,2.585688 -6.12498,-0.551202 -2.45949,-2.459483 -2.48537,-2.73025 -0.4734,-4.953443 1.2366,-1.366425 1.78851,-3.237215 1.3173,-4.465173 -0.75024,-1.95511 -0.93468,-1.944293 -2.46197,0.144413 -2.29388,3.137079 -3.97835,1.639012 -5.65813,-5.032062 -1.6701,-6.632535 -3.30582,-6.393215 -4.4971,0.657964 -0.90588,5.36185 -2.2424,6.943021 -4.62438,5.470876 -2.42289,-1.497428 -7.25062,-1.304444 -7.25062,0.289836 0,0.807548 1.40625,1.821214 3.125,2.252593 3.53432,0.88706 4.19753,4.540454 1.26591,6.973484 -2.21033,1.83441 -5.64091,0.819084 -5.64091,-1.669502 0,-2.936068 -3.18252,-4.882227 -4.7989,-2.934603 -1.65997,2.000132 -0.0619,18.9561 2.18165,23.148236 1.80352,3.369913 14.50241,10.077477 19.23312,10.158956 2.17448,0.03745 6.02248,-1.810076 10.20429,-4.899361 z m -40.91036,79.868488 c -5.64353,-4.65188 -6.14818,-8.32169 -1.2223,-8.88848 3.33406,-0.38362 3.47511,-0.71497 4.6875,-11.01129 0.95315,-8.09475 1.72588,-10.70552 3.2539,-10.99378 1.6683,-0.31474 2.14473,1.48762 2.84485,10.7618 0.50918,6.7451 0.33505,12.47045 -0.4414,14.51267 -0.70529,1.85505 -1.28235,4.74245 -1.28235,6.41645 0,4.06148 -2.2194,3.83575 -7.8402,-0.79737 z"
     id="path5958" />
  <path
     style="fill:#666358"
     d="m 311.78857,73.932103 c -1.70033,-0.441561 -2.1875,-1.90332 -2.1875,-6.563581 0,-3.297528 -1.10849,-9.465385 -2.46332,-13.70635 -4.61396,-14.442959 -4.60516,-18.809204 0.0621,-30.807786 5.31545,-13.6648915 10.91245,-19.219049 23.2148,-23.03705775 5.12423,-1.59029255 10.10385,-2.37247875 12.40325,-1.94827125 6.65005,1.2268375 15.24735,7.6828812 19.88465,14.932156 3.79734,5.936176 4.78383,9.263121 7.66224,25.840748 l 3.30375,19.027361 -2.65871,5.472446 c -1.46234,3.009846 -2.65876,6.5824 -2.65876,7.939008 0,1.815104 -0.9079,2.512707 -3.4375,2.641282 -6.4322,0.326938 -13.43123,-0.434495 -15.8586,-1.725277 -2.24614,-1.194402 -2.04562,-1.61401 2.77443,-5.805945 6.19824,-5.390532 7.77167,-9.175797 7.77167,-18.69674 0,-10.375269 -4.84407,-16.55742 -7.5,-9.571759 -1.32373,3.481652 -5,4.272275 -5,1.075304 0,-1.127334 0.88608,-2.697625 1.9691,-3.489535 1.78765,-1.307168 1.77515,-1.924555 -0.13573,-6.700304 -2.07242,-5.179506 -4.33337,-6.984369 -4.33337,-3.459236 0,3.895082 -2.37888,2.970381 -3.80027,-1.477218 -2.31523,-7.244453 -3.48298,-7.637776 -5.72566,-1.928506 -1.90304,4.844684 -2.26584,5.109402 -6.14066,4.480605 -3.64369,-0.591289 -4.35024,-0.219422 -6.13288,3.227805 -1.1081,2.142846 -2.82425,3.896085 -3.81366,3.896085 -3.3573,0 -4.65292,4.837927 -3.80095,14.192901 1.06354,11.677948 2.55425,15.22631 7.74434,18.43396 5.14405,3.179197 4.8404,5.21744 -0.93293,6.262356 -2.34978,0.425288 -5.11608,1.063586 -6.14733,1.418439 -1.03125,0.354853 -2.85938,0.389553 -4.0625,0.07711 z m 11.66001,-33.392275 c -1.76234,-2.123477 -0.82501,-4.492491 1.77749,-4.492491 2.70653,0 3.60532,2.555394 1.60302,4.557688 -1.59037,1.590377 -2.01327,1.582222 -3.38051,-0.0652 z"
     id="path5952" />
  <path
     style="fill:#534b33"
     d="m 355.85107,72.625865 c -6.92967,-0.802684 -7.22332,-2.314001 -1.47984,-7.616348 5.54441,-5.11857 5.99719,-7.113985 5.24791,-23.127863 -0.30262,-6.468042 -4.57017,-13.644945 -7.55101,-12.698861 -1.72415,0.547223 -2.57805,-0.3092 -3.70109,-3.712059 -1.4425,-4.370803 -4.29045,-5.891427 -5.35812,-2.860897 -0.30277,0.859375 -1.46285,-0.587358 -2.57797,-3.214961 -2.10968,-4.971133 -4.00013,-5.132525 -5.7182,-0.488175 -0.59272,1.602301 -2.84242,3.130511 -5.8499,3.973817 -3.31783,0.930331 -5.41033,2.461321 -6.5175,4.768545 -0.89688,1.86905 -2.42931,3.398274 -3.4054,3.398274 -3.61716,0 -5.82106,7.136462 -4.9552,16.045464 1.19372,12.282305 2.67434,15.977478 7.62903,19.039643 6.09514,3.767009 4.81786,5.539893 -3.99123,5.539893 -6.72025,0 -7.3534,-0.228568 -6.92521,-2.5 0.42226,-2.239928 0.49058,-7.968121 0.16771,-14.0625 -0.0637,-1.203125 0.24235,-3.949013 0.68022,-6.101973 0.94271,-4.635401 -1.48245,-6.992607 -3.85543,-3.747377 -1.39021,1.901224 -1.60241,1.832145 -2.2933,-0.74653 -3.92031,-14.632229 8.94826,-39.51213 22.44561,-43.3959887 11.12525,-3.20129 16.23158,-3.1172251 22.17362,0.3650425 10.72535,6.2854712 16.54692,15.9612602 18.37497,30.5402662 0.66728,5.321629 1.77508,11.634734 2.46178,14.029123 0.6867,2.394387 1.24855,6.315024 1.24855,8.712527 0,5.324393 -4.87612,17.53241 -7.00279,17.53241 -0.84851,0 -2.29188,0.187942 -3.20748,0.417649 -0.91561,0.229707 -3.63348,0.189602 -6.03973,-0.08912 z m -32.5,-33.453528 c 0,-1.03125 0.84375,-1.875 1.875,-1.875 1.03125,0 1.875,0.84375 1.875,1.875 0,1.03125 -0.84375,1.875 -1.875,1.875 -1.03125,0 -1.875,-0.84375 -1.875,-1.875 z m 23.75,0.153056 c 0,-0.25957 0.84375,-1.172195 1.875,-2.028056 1.53563,-1.274464 1.875,-1.189044 1.875,0.471944 0,1.115431 -0.84375,2.028056 -1.875,2.028056 -1.03125,0 -1.875,-0.212375 -1.875,-0.471944 z"
     id="path5950" />
</svg>
