<?xml version="1.0" encoding="UTF-8" standalone="no"?>
<!-- Created with Inkscape (http://www.inkscape.org/) -->

<svg
   xmlns:dc="http://purl.org/dc/elements/1.1/"
   xmlns:cc="http://creativecommons.org/ns#"
   xmlns:rdf="http://www.w3.org/1999/02/22-rdf-syntax-ns#"
   xmlns:svg="http://www.w3.org/2000/svg"
   xmlns="http://www.w3.org/2000/svg"
   xmlns:sodipodi="http://sodipodi.sourceforge.net/DTD/sodipodi-0.dtd"
   xmlns:inkscape="http://www.inkscape.org/namespaces/inkscape"
   id="svg4206"
   version="1.1"
   inkscape:version="0.91 r13725"
   width="1920"
   height="1031"
   viewBox="0 0 1920 1031"
   sodipodi:docname="chrome.svg">
  <metadata
     id="metadata4212">
    <rdf:RDF>
      <cc:Work
         rdf:about="">
        <dc:format>image/svg+xml</dc:format>
        <dc:type
           rdf:resource="http://purl.org/dc/dcmitype/StillImage" />
        <dc:title></dc:title>
      </cc:Work>
    </rdf:RDF>
  </metadata>
  <defs
     id="defs4210" />
  <sodipodi:namedview
     pagecolor="#ffffff"
     bordercolor="#666666"
     borderopacity="1"
     objecttolerance="10"
     gridtolerance="10"
     guidetolerance="10"
     inkscape:pageopacity="0"
     inkscape:pageshadow="2"
     inkscape:window-width="1920"
     inkscape:window-height="1005"
     id="namedview4208"
     showgrid="false"
     inkscape:zoom="0.778125"
     inkscape:cx="960"
     inkscape:cy="515.5"
     inkscape:window-x="0"
     inkscape:window-y="0"
     inkscape:window-maximized="1"
     inkscape:current-layer="svg4206" />
  <g
     id="g4216">
    <path
       style="fill:#fdfdfd"
       d="M 0,515.5 C 0,343.66667 0,171.83333 0,0 c 640,0 1280,0 1920,0 0,343.66667 0,687.33333 0,1031 -640,0 -1280,0 -1920,0 C 0,859.16667 0,687.33333 0,515.5 Z"
       id="path4220"
       inkscape:connector-curvature="0" />
    <path
       style="fill:#d9d9d9"
       d="m 86.726314,1018.25 c -39.035198,6.1919 -84.175441,-14.3738 -22.16314,-13.3021 10.3677,-3.1917 52.238516,4.5949 22.16314,13.3021 z m 1652.573386,0.3499 c -53.152,3.6316 -36.6621,-26.214 7.8291,-10.8709 0.1815,3.5536 -1.7211,15.8057 -7.8291,10.8709 z m 136.5992,-0.3902 c -65.9741,0.6045 -11.56,-28.07899 15.1011,-6.7873 0.9906,5.2452 -11.8435,10.4552 -15.1011,6.7873 z M 124.3551,1015.483 c 0.61182,-30.37366 97.61987,4.8449 26.18176,1.2835 -8.72924,-0.227 -17.52637,0.1782 -26.18176,-1.2835 z M 1782,1016 c -18.7649,-30.5412 74.84,9.0205 0,0 l 0,0 z M 1106.5934,707.15119 c -29.5539,-31.00647 28.753,-13.08337 0,0 z m 0.8366,-9.03788 c 3.061,-15.77503 -6.0793,5.30644 0,0 z M 864.72398,485.29541 c -82.6129,-17.41173 65.05466,-12.62768 0,0 z m 167.07222,0.0722 c -75.80633,7.66231 -6.1708,-36.20729 7.6324,0.0609 l -3.8039,1.50812 -3.8285,-1.56902 0,-5e-5 z m 41.3865,-0.006 c -74.53677,2.81441 12.0951,-31.87221 4.8043,0.75465 l -2.5867,0.96917 -2.2176,-1.72382 0,0 z m -185.38651,-2.48789 c 3.04541,-31.46537 80.5481,6.18611 13.14505,0.83598 l -13.14505,-0.83592 0,-6e-5 z m 84.23899,-0.8083 c 11.212,-25.32895 26.45976,9.14627 0,0 l 0,0 z M 676.75,429.9199 c 61.11455,-5.74321 141.48949,-1.26707 209.74814,-2.89452 124.16496,0.23019 248.34866,-0.62425 372.50186,0.93944 -151.1081,6.49479 -306.04956,1.49085 -458.59387,2.86258 -41.21655,-0.2682 -82.45014,0.0906 -123.65613,-0.9075 z M 1229,415.14831 c -19.0719,-35.5365 28.3479,-14.70567 0,0 z m -226.0997,-63.13927 c -29.58836,-24.42806 60.0297,-8.0993 -6.03614,-24.66976 -22.06034,-53.63158 62.42034,-48.25632 37.63584,4.67629 2.6707,16.24956 -17.4584,27.06667 -31.5997,19.99347 z m 17.4836,-31.66566 c 15.9793,-50.5989 -50.19584,4.17954 0,0 z m -167.16693,13.50388 c -85.32831,-21.7497 32.6859,-104.16937 18.99254,-54.81135 -82.25668,-12.27415 13.2636,76.94046 -2.95951,26.74792 -39.48932,-18.43799 68.67852,-11.3385 7.03364,24.28734 l -10.98627,3.70546 -12.0804,0.0706 0,0 z m 57.14985,-0.27416 c -59.66895,-38.41861 58.12643,-68.46761 24.09587,-6.17341 -6.17666,5.86831 -15.79014,9.54904 -24.09587,6.17341 z m 12.54199,-12.02594 c 23.19179,-48.58599 -49.37558,-2.94982 0,0 z m 37.80869,12.34577 c -66.97319,-49.86965 75.526,-55.18942 11.0124,-0.35201 l -11.0124,0.35201 0,0 z m 11.57525,-12.90857 c 20.05167,-54.05016 -53.15793,4.30491 0,0 z m 97.06545,13.10919 c -48.0023,-15.35804 15.5589,-75.77454 24.1512,-27.51936 -67.2574,18.19056 41.0774,12.19939 -24.1512,27.51936 l 0,0 z m 8.4519,-31.50202 c 1.1435,-15.71604 -24.9303,15.2339 0,0 z M 1039,299.5 c -8.1803,-36.71761 18.288,-43.92699 11,-2.98976 8.7603,30.60871 -15.9988,54.02197 -11,10.33812 l 0,-4.3586 0,-2.98976 z m 829.5,-186.3411 c -45.6758,-68.958364 76.323,-9.11551 0,0 z M 1822.4,104.6 c -10.448,-51.977494 47.9371,12.10723 0,0 z m 9.0442,-6.509758 c 0.4514,-12.005651 -6.7817,5.022558 0,0 z m -55.0069,6.606868 c -5.9807,-45.581558 45.7081,9.46601 0,0 z m -42.5525,-1.24091 c -69.5783,-7.02693 56.6245,-20.109683 7.0774,0.0893 l -3.4007,1.39816 -3.6767,-1.48746 0,-2e-5 z M 24.452507,100.92315 c 20.226393,-28.175119 56.644903,13.41243 0,5e-5 l 0,-5e-5 z m 53.70642,-0.28783 c 16.788103,-26.69826 51.963893,13.33676 0,0 z m 1595.537773,0.72805 c 4.7912,-28.29017 46.9312,10.93412 0,-2e-5 l 0,2e-5 z M 0,33 C -12.03265,-6.0142056 19.107648,-1.8554628 47.944665,0 671.96311,0 1295.9816,0 1920,0 c -6.531,19.827566 14.3306,67.047856 -13.0758,66 C 1271.2828,66 635.64139,66 0,66 0,55 0,44 0,33 Z M 1848.8,57.8 C 1833.7622,7.3731923 1725.3678,49.136006 1673.7441,35.374607 1147.5642,34.943811 621.37316,34.043072 95.2,36.2 108.44792,87.284594 218.58403,44.608808 269.71002,58.731556 796.07063,58.648163 1322.451,60.15243 1848.8,57.8 Z M 269.2,56.8 C 252.26948,43.230843 163.94651,65.490727 191.1733,42.346837 220.13351,50.131072 234.48012,37.609433 265,46 286.99438,40.58469 326.77401,42.27657 346.82033,49.15646 324.94068,60.356507 290.50345,49.49055 269.2,56.8 Z M 324,48 c -2.55494,-3.587453 -2.55494,3.587453 0,0 z m -150.51869,5.81189 c -7.3487,-40.903867 11.39044,5.82198 0,0 z m 1659.51109,0.354777 c -11.9765,-32.017032 34.9949,-1.567778 0,0 z M 101.57143,52.428571 c -6.120805,-27.750833 24.92437,3.385367 0,0 z m 18.53517,0.686791 c 2.02754,-30.046465 79.29705,5.993306 15.1434,-0.08566 -5.13538,-1.909021 -10.0773,1.407224 -15.1434,0.08566 z M 141,48 c -2.55494,-3.587453 -2.55494,3.587453 0,0 z M 37.984687,13.75 c 0.215636,-22.2803774 -5.226687,10.406892 0,0 z M 1817.4442,11.090242 c -1.0665,-11.11048077 -3.9814,4.902362 0,0 z M 1825,10.059017 c -1.4733,-8.2485319 -3.3733,7.086704 0,0 z"
       id="path4218"
       inkscape:connector-curvature="0" />
  </g>
</svg>
