<?xml version="1.0" encoding="UTF-8" standalone="no"?>
<!-- Created with Inkscape (http://www.inkscape.org/) -->

<svg
   xmlns:dc="http://purl.org/dc/elements/1.1/"
   xmlns:cc="http://creativecommons.org/ns#"
   xmlns:rdf="http://www.w3.org/1999/02/22-rdf-syntax-ns#"
   xmlns:svg="http://www.w3.org/2000/svg"
   xmlns="http://www.w3.org/2000/svg"
   xmlns:sodipodi="http://sodipodi.sourceforge.net/DTD/sodipodi-0.dtd"
   xmlns:inkscape="http://www.inkscape.org/namespaces/inkscape"
   id="svg4523"
   version="1.1"
   inkscape:version="0.91 r13725"
   width="1676.2031"
   height="1026.2373"
   viewBox="0 0 1676.2031 1026.2373"
   sodipodi:docname="mononoke2.svg"
   inkscape:export-filename="/home/jon/Pictures/gimp/mononoke/mononoke2bg.png"
   inkscape:export-xdpi="103.09013"
   inkscape:export-ydpi="103.09013">
  <metadata
     id="metadata4529">
    <rdf:RDF>
      <cc:Work
         rdf:about="">
        <dc:format>image/svg+xml</dc:format>
        <dc:type
           rdf:resource="http://purl.org/dc/dcmitype/StillImage" />
        <dc:title></dc:title>
      </cc:Work>
    </rdf:RDF>
  </metadata>
  <defs
     id="defs4527">
    <clipPath
       clipPathUnits="userSpaceOnUse"
       id="clipPath4537">
      <rect
         style="color:#000000;clip-rule:nonzero;display:inline;overflow:visible;visibility:visible;opacity:1;isolation:auto;mix-blend-mode:normal;color-interpolation:sRGB;color-interpolation-filters:linearRGB;solid-color:#000000;solid-opacity:1;fill:#ba613e;fill-opacity:1;fill-rule:evenodd;stroke:#ff0000;stroke-width:0;stroke-linecap:round;stroke-linejoin:miter;stroke-miterlimit:4;stroke-dasharray:none;stroke-dashoffset:0;stroke-opacity:1;color-rendering:auto;image-rendering:auto;shape-rendering:auto;text-rendering:auto;enable-background:accumulate"
         id="rect4539"
         width="1326.3087"
         height="1128.1879"
         x="349.46307"
         y="-46.402683" />
    </clipPath>
    <clipPath
       clipPathUnits="userSpaceOnUse"
       id="clipPath4543">
      <path
         style="fill:none;fill-rule:evenodd;stroke:#000000;stroke-width:1px;stroke-linecap:butt;stroke-linejoin:miter;stroke-opacity:1"
         d="M 504.91695,1021.0814 439.735,973.41102 413.46764,716.57465 l 0,-152.73981 -25.29449,-74.91061 25.29449,-113.82521 -1.94573,-58.3719 40.86033,-37.94174 -37.94174,-44.75179 88.53072,-184.844355 166.35992,-68.100552 584.69186,0 -16.5387,223.758957 7.7829,562.31599 400.8204,0 1.9458,295.75097 z"
         id="path4545"
         inkscape:connector-curvature="0" />
    </clipPath>
  </defs>
  <sodipodi:namedview
     pagecolor="#ffffff"
     bordercolor="#666666"
     borderopacity="1"
     objecttolerance="10"
     gridtolerance="10"
     guidetolerance="10"
     inkscape:pageopacity="0"
     inkscape:pageshadow="2"
     inkscape:window-width="1920"
     inkscape:window-height="1005"
     id="namedview4525"
     showgrid="false"
     showborder="true"
     inkscape:object-paths="true"
     inkscape:snap-intersection-paths="true"
     inkscape:object-nodes="true"
     inkscape:snap-smooth-nodes="true"
     inkscape:snap-midpoints="true"
     inkscape:zoom="0.5139459"
     inkscape:cx="1116.1802"
     inkscape:cy="483.68075"
     inkscape:window-x="0"
     inkscape:window-y="0"
     inkscape:window-maximized="1"
     inkscape:current-layer="svg4523"
     showguides="true"
     inkscape:guide-bbox="true"
     fit-margin-top="0"
     fit-margin-left="0"
     fit-margin-right="0"
     fit-margin-bottom="0">
    <sodipodi:guide
       position="1151.0542,1025.4153"
       orientation="0,1"
       id="guide4614" />
    <sodipodi:guide
       position="723.85059,-2.8828906e-05"
       orientation="0,1"
       id="guide4616" />
    <sodipodi:guide
       position="0,908.65619"
       orientation="1,0"
       id="guide4618" />
    <sodipodi:guide
       position="1676.2022,-6.8461288"
       orientation="1,0"
       id="guide4620" />
  </sodipodi:namedview>
  <path
     style="fill:#515151"
     d="m 1141.0488,0.00458961 c -5.3375,0.0652 -11.1676,0.82521 -17.3105,2.23241999 -41.0848,-4.09717 -37.4466,0.4913 -33.1114,25.0800804 4.2089,2.23074 37.1288,24.29877 72.9961,36.91015 l 1.1211,0.01 0.6953,-4.25 2.5313,-17.9082 c 10.079,-29.60077 -3.7926,-42.35684039 -26.9219,-42.07422039 z M 1090.6269,27.31709 c -0.6184,-0.32777 -0.6355,-0.24151 0.068,0.38086 -0.025,-0.14091 -0.044,-0.24125 -0.068,-0.38086 z M 883.29685,0.65106961 C 871.64908,0.54881961 863.13761,3.5454796 864.70896,16.31318 855.22043,33.43035 816.95461,17.41459 797.41404,22.61006 833.71317,3.3587196 767.13147,14.16776 788.49998,2.3991196 525.6667,2.3451196 262.8333,2.2909096 0,2.2370096 L 0,1026.237 l 396.3183,0 c 109.1308,7e-4 218.3638,-2e-4 327.5332,0 48.6661,0 68.80372,-10e-5 65.59769,-26 -15.88658,-70.19591 -13.08725,-141.90811 -16.33398,-213.02341 0.27508,-50.5256 24.38933,-99.2033 24.80469,-150.9766 -7.24259,-42.0199 32.88401,-44.609 59.27343,-20.707 28.32416,43.6056 -26.86146,106.595 -23.02343,156.6836 3.04438,84.6959 4.10313,169.4381 -1.63868,254.02341 602.75128,-0.1031 -4.86385,0 843.67188,0 -255.6269,-2.2656 -479.7195,-568.66891 -487.5293,-834.99999 -10.2592,-21.48728 11.09,-41.46062 -12.6055,-49.54688 -2.789,-25.84386 -22.5598,-75.37242 -56.3164,-53.92187 9.7985,-18.31936 -40.3105,12.38662 -36.1816,-5.14258 -15.1418,0.0166 -38.6644,32.80219 -22.5703,1.61133 -34.957,27.54815 -68.39373,63.79576 -88.32034,102.88281 -16.63434,11.75998 -21.63443,19.1911 -5.41797,27.24805 5.02985,19.40503 -50.52274,28.44265 -17.1875,21.86914 32.26604,1.53419 19.34433,49.4158 3.70899,64.25586 -18.65072,24.34442 -48.97089,-3.05636 -38.71094,-27.41211 19.02843,-39.47783 -12.21293,4.2188 -2.52344,22.67773 23.43533,22.38052 19.32722,35.83417 1.95118,58.5586 5.48812,5.70539 -24.12964,19.86673 -45.25,2.48632 12.82182,23.79774 22.14814,9.95498 27.63085,12.99805 36.82294,62.8411 20.16328,-11.24345 70.11915,-19.38281 52.72532,-35.96942 21.14907,29.82234 51.52342,39.18555 26.7112,-2.10649 49.9014,78.68489 49.5879,23.7832 14.9474,6.39789 10.2222,-25.50882 13.5937,-41.8457 15.3184,-31.21054 27.0723,-15.98032 -3.6347,-46.30274 0.8751,-26.61863 55.2166,-50.98298 61.9336,-17.34961 -10.827,22.62902 8.0965,44.90256 4.9863,70.26367 3.1445,-21.65783 -4.2831,71.66537 -11.625,27.58594 -3.2382,-16.36278 -13.7353,87.32513 -16.7734,49.00193 -0.4958,2.4484 -10.0248,16.2945 -18.4766,19.125 20.7411,15.1445 23.3046,49.3412 41.5723,67.7383 35.0238,42.5877 -9.6551,12.5758 2.4316,36.0762 16.6755,26.9886 0.4828,54.1402 -31.1328,41.457 -36.408,1.8695 -74.8543,-26.2754 -82.3125,-62.8984 -2.7653,-42.1136 40.7478,-9.4261 53.873,6.6445 11.4111,14.7776 -74.9682,-95.2894 -18.3613,-78.7168 12.8609,16.3742 56.4947,91.8381 25.4922,29.0703 -24.7437,-22.9584 18.0765,-31.1273 -8.8242,-31.0039 -25.986,-15.4632 -36.8443,-0.1523 -65.1133,-12.3535 -10.5424,-21.9587 -39.18526,-8.6676 -53.08202,-27.8574 -22.65523,-16.5639 -1.80162,-10.30559 -22.13281,4.2148 -34.50516,-11.18606 -64.92361,-44.59797 -104.91407,-34.52928 -46.09626,-0.0792 -11.16635,12.61548 -49.24414,26.16211 -12.23118,12.11737 12.64796,11.81027 -10.64844,33.62107 13.22274,16.4423 -30.70372,78.7641 -33.21872,60.7461 1.8685,-28.0273 -26.3067,30.1701 -41.8399,27.0606 11.066,-53.5258 -21.8227,21.9503 -38.7383,31.9804 6.972,-36.7002 -16.9503,-4.6067 -35.9218,-2.9121 14.1359,-44.483 -16.9325,1.4213 0.2304,-36.5273 34.7186,-45.2439 -23.7319,10.6268 6.2149,-31.7324 14.034,-25.5817 7.8608,-31.9554 38.6094,-64.1485 -42.959,30.0333 6.8583,-19.65269 23.0644,-26.89646 61.50076,-24.81414 -34.9794,-1.29609 16.3223,-20.67383 -48.7315,23.00362 99.72912,-39.25667 53.42576,-34.65039 C 747.94639,385.4249 712.972,409.98711 682,416.30927 c -20.5024,-0.34123 -93.0052,44.58972 -43.3809,2.99805 34.1986,-42.21921 -11.2587,2.57085 -4.8984,-22.48437 44.9874,-59.14908 -40.0749,13.90165 -33.5684,-13.81055 15.8167,-14.33379 21.8074,-40.44661 37.1445,-52.75195 -85.3761,23.72071 9.5045,-18.70215 34.0059,-34.52344 34.0891,-26.28957 36.2978,-46.27705 61.7422,-74 24.92147,-21.06469 18.71589,-38.77123 42.51562,-60.27344 -51.46982,23.8743 5.86443,-34.80327 26.93946,-35.84961 10.96257,-9.23009 25.92375,-37.28518 17.0957,-34.57226 -20.95153,-7.76648 41.59006,-26.67527 52.74023,-39.50586 -7.29858,-12.82875 3.92577,-16.2293 38.12305,-16.45703 22.68226,2.84905 47.28732,-5.62921 65.54102,-9.37305 5.96825,4.95771 50.79322,20.27739 26.85742,-11.46875 C 989.13991,-5.2748104 955.21481,4.3375396 929.02146,2.2370096 918.43307,6.0371296 898.27255,0.78253961 883.29685,0.65106961 Z M 1098.1152,473.86589 c -2.9256,-2.1361 -6.2111,-3.8956 -9.9551,-5.1758 2.4478,5.462 6.0889,6.4706 9.9551,5.1758 z M 1076.5,24.27802 c -0.4484,0 -0.8969,0.32025 0,0.95899 0.8968,-0.63874 0.4484,-0.95899 0,-0.95899 z m 95.1582,42.60157 c -3.2165,-0.14857 1.2667,8.97288 17.9922,21.35742 l 1.3496,0 0,-1.36328 c -9.6812,-14.15572 -16.8401,-19.87859 -19.3418,-19.99414 z m 24.0078,40.24414 c -4.3887,0.0556 -5.5205,4.61897 9.1738,15.11328 4.9571,-9.44909 -4.2,-15.17629 -9.1738,-15.11328 z m -0.8731,24.60351 c -2.6077,0.0611 -10.7241,11.473 -1.9609,9.29493 3.1938,-7.00435 3.1463,-9.32268 1.9609,-9.29493 z m -940.8066,18.04297 c 0.3433,-0.0191 0.7434,0.0486 1.2012,0.20117 7.7311,1.22071 13.3265,2.74512 16.7851,4.57618 3.4587,1.83105 5.1875,3.35742 5.1875,4.57812 0,0.8138 -0.4069,1.93327 -1.2207,3.35742 -0.8138,1.42416 -1.6276,2.95052 -2.4414,4.57813 -1.9328,7.04447 -3.6636,13.35046 -5.1894,18.91992 1.5258,0.17802 3.0522,0.38245 4.5781,0.61133 5.6966,0.8138 10.6807,2.03255 14.9531,3.66015 4.2725,1.62761 6.4102,3.25521 6.4102,4.88282 0,1.6276 -0.6114,2.74707 -1.8321,3.35742 -1.2207,0.61035 -3.0507,0.91601 -5.4921,0.91601 -1.2207,0 -3.4597,-0.71256 -6.7149,-2.13671 -3.2552,-1.42416 -6.9173,-2.84734 -10.9863,-4.27149 -0.8138,-0.27974 -1.6646,-0.5601 -2.5547,-0.83984 -0.3815,1.47501 -0.7514,2.87483 -1.1074,4.19726 -2.0345,7.73112 -3.5609,16.27409 -4.5781,25.63281 -0.2289,2.1871 -0.445,4.23523 -0.6485,6.14258 6.5104,0.78837 12.9332,1.18164 19.2656,1.18164 0.8138,0 1.7289,-0.20247 2.7461,-0.60937 1.0173,-0.4069 1.9323,-0.60938 2.7461,-0.60938 1.2207,0 2.9496,0.71062 5.1875,2.13477 2.238,1.42415 3.3574,2.74609 3.3574,3.9668 0,1.2207 -2.4414,2.0345 -7.3242,2.4414 l -7.9336,0 c -6.3832,0 -12.588,-0.53344 -18.6152,-1.60156 -0.2035,2.89917 -0.3066,5.26465 -0.3066,7.0957 0,12.20703 2.8483,21.36328 8.5449,27.4668 5.6966,6.10352 14.4459,9.1543 26.2461,9.1543 8.138,0 15.1566,-2.13575 21.0566,-6.40821 5.9001,-4.27246 8.8496,-11.08854 8.8496,-20.44726 0,-7.32422 -1.0163,-13.52897 -3.0508,-18.61524 -2.0345,-5.08626 -4.8828,-10.27474 -8.5449,-15.56445 -1.2207,-1.6276 -1.5263,-2.64583 -0.916,-3.05273 0.6104,-0.4069 1.7298,-0.20248 3.3574,0.61132 6.1035,5.28972 10.4782,10.98633 13.1231,17.08985 2.6448,6.10351 3.9668,12.4095 3.9668,18.91992 0,10.98633 -3.4597,19.12435 -10.377,24.41406 -6.9173,5.28972 -16.0716,7.93555 -27.4648,7.93555 -13.4278,0 -23.7035,-3.76335 -30.8242,-11.29102 -7.1208,-7.52767 -10.6797,-17.59895 -10.6797,-30.21289 0.2034,-2.21252 0.4565,-5.02189 0.7617,-8.42968 -7.8837,-1.93278 -15.461,-4.82003 -22.7344,-8.66016 -0.4069,-1.2207 -0.4069,-2.13574 0,-2.74609 0.4069,-0.61036 1.2207,-0.50912 2.4414,0.30468 7.0191,1.98365 13.9734,3.52169 20.8653,4.61524 0.1525,-1.83106 0.318,-3.776 0.496,-5.83594 0.8138,-9.35872 2.4415,-19.12435 4.8829,-29.29687 l 0.3828,-1.60157 c -1.5768,-0.30517 -3.2297,-0.58553 -4.959,-0.83984 -5.4932,-0.8138 -10.0723,-1.42513 -13.7344,-1.83203 -2.0345,-0.4069 -3.0508,-1.01628 -3.0508,-1.83008 0,-0.8138 0.8138,-1.2207 2.4414,-1.2207 l 6.7129,0 c 0.8138,0 3.8666,0.10123 9.1563,0.30468 1.5259,0.0509 3.0775,0.14043 4.6543,0.26758 1.7293,-7.68026 3.2284,-14.9928 4.5,-21.93554 0.4069,-2.44141 -0.4069,-4.57715 -2.4414,-6.40821 -2.0345,-1.83105 -4.8828,-3.35547 -8.545,-4.57617 -1.6276,-0.4069 -2.2369,-1.01823 -1.83,-1.83203 0.2543,-0.50863 0.668,-0.77876 1.2402,-0.81055 z m 907.3125,10.0293 c 3.468,0.0583 9.1665,7.13091 5.2012,18.0625 l -1,0.33008 c -8.5846,-13.03548 -7.2612,-18.444 -4.2012,-18.39258 z m -18.0684,0.0469 c 6.134,0.26213 21.1494,26.60509 15.8086,45.39063 23.2994,-37.2354 17.8341,16.29329 -4.4629,27.98437 -13.6968,-9.38261 -6.2486,-32.87893 -9.4726,-47.48437 -5.8614,-19.0099 -5.0861,-26.02793 -1.8731,-25.89063 z m -32.5,12.39063 c 22.5355,23.14805 -11.191,61.92261 -39.2304,58.37695 -7.7516,2.25389 -14.9411,-3.92078 -22.0938,-5.09961 -36.1835,-18.91427 1.4979,-40.54247 21.0332,-13.28906 30.3935,7.83495 29.6163,-32.34869 40.291,-39.98828 z m 16.4004,5.67578 c 15.2759,14.46523 3.4685,47.56173 16.295,64.27344 -11.2939,-3.78521 -26.7021,-3.80232 -39.9258,-4.44922 17.9741,-10.93518 25.4695,-29.59071 23.6308,-59.82422 z m 58.8242,18.73633 c 1.3854,-0.10851 2.8685,0.89515 0.295,3.33789 -2.9679,-2.0087 -1.6803,-3.22938 -0.295,-3.33789 z m -9.2871,28.22461 c 7.7038,-0.26279 -0.2068,39.57158 -15.4961,41.36328 -8.3618,-3.09861 8.531,-26.49841 7.5665,-33.81445 3.5421,-5.29166 6.1518,-7.48819 7.9296,-7.54883 z m -143.414,4.14062 c 3.2977,0.13056 6.9073,2.50262 10.3144,8.33399 -2.62,15.25828 1.2651,0.10344 8.4278,2.89843 -12.634,-5.13337 35.8281,-5.91835 48.1328,-1.99218 -14.6051,14.21127 -42.2285,16.05021 -63.1504,18.73828 l -3.5215,0.92969 c -19.7634,-1.24924 -11.9807,-29.37448 -0.2031,-28.90821 z m 12.2461,8.26367 c 0.4484,0 0.8968,0.32025 0,0.95899 -0.8969,-0.63874 -0.4485,-0.95899 0,-0.95899 z m -114.85549,6.14454 c -2.08391,0.0672 -4.62499,1.72217 -3.33399,5.81445 7.93778,-3.36241 6.01329,-5.90093 3.33399,-5.81445 z m 193.07809,1.50976 c 22.1624,-0.30216 44.7753,23.09085 24.2949,42.30469 -4.521,-3.57712 0.5234,-10.5523 -4.4316,-14.30078 -27.3378,-29.70598 -72.9596,10.36017 -107.5273,5.98633 -29.9861,-15.59083 62.2623,-15.71841 71.5254,-28.67969 4.8695,-3.61797 10.4894,-5.23353 16.1386,-5.31055 z m -55.9883,41.77735 c 13.3578,-0.10246 21.7778,6.29449 4.375,20.96093 -15.4867,16.58097 21.8799,42.19453 4.1133,46.71289 -22.5199,-0.73236 -45.495,-20.59668 -42.5351,-44.85937 -2.5735,-14.23425 18.9081,-22.69834 34.0468,-22.81445 z m -76.23432,5.56835 c 0.44843,0 0.89686,0.32025 0,0.95899 -0.89687,-0.63874 -0.44844,-0.95899 0,-0.95899 z m 2.3496,5.36133 c 4.78956,0.51292 32.51452,41.86721 39.15042,47.47656 -22.3473,-5.06978 -27.1488,-14.68098 -33.26174,-28.3789 -6.35206,-14.12514 -7.62107,-19.28318 -5.88868,-19.09766 z m 128.89842,4.62696 c -11.8997,-0.18315 -32.5527,25.05939 -15.043,31.94531 10.6653,-2.05096 17.6291,-10.64488 22.2989,-19.69531 0.2063,-8.7905 -2.9517,-12.18376 -7.2559,-12.25 z m -835.5176,18.60351 c 9.3588,0 18.5131,1.72884 27.4649,5.1875 8.9518,3.45866 16.7861,9.15527 23.5,17.08985 6.7139,7.93457 10.0703,17.59895 10.0703,28.99218 0,17.08985 -6.0023,30.72005 -18.0059,40.89258 -12.0035,10.17253 -25.1256,16.07357 -39.3671,17.70117 -3.6622,0.8138 -5.5954,0.60938 -5.7989,-0.61133 -0.2034,-1.2207 1.3229,-2.0345 4.5781,-2.4414 13.8347,-4.06901 25.5336,-10.57943 35.0958,-19.53125 9.5621,-8.95182 14.3417,-20.95443 14.3418,-36.00977 0,-10.17252 -2.9496,-19.12435 -8.8497,-26.85547 -5.9,-7.73112 -12.6129,-13.02278 -20.1406,-15.87109 -6.2052,-2.36511 -12.4879,-3.74935 -18.8457,-4.15625 -1.6785,20.57393 -4.4508,37.72607 -8.3164,51.45898 -4.069,14.44499 -9.46,25.43132 -16.1738,32.95899 -6.7139,7.52767 -13.53,11.29297 -20.4473,11.29297 -8.138,0 -14.3428,-3.25521 -18.6152,-9.76563 -4.2725,-6.51041 -6.4082,-14.03906 -6.4082,-22.58398 0,-14.24154 2.9495,-26.24414 8.8496,-36.00977 5.9,-9.76562 13.8356,-17.4987 23.8047,-23.19531 9.969,-5.69661 21.0566,-8.54297 33.2636,-8.54297 z m -5.1503,4.46289 c -10.0708,0.8138 -18.9331,4.00476 -26.5879,9.57422 -8.9519,6.51042 -15.4623,14.03906 -19.5313,22.58398 -4.069,8.54493 -6.1035,18.91993 -6.1035,31.12696 0,6.91732 1.4232,13.02083 4.2715,18.31054 2.8483,5.28972 7.1217,7.9336 12.8183,7.9336 5.6967,0 11.292,-3.86458 16.7852,-11.5957 5.4932,-7.73112 9.5622,-18.20931 12.207,-31.4336 2.4923,-12.48677 4.5385,-27.986 6.1407,-46.5 z m 833.0859,18.59766 c -1.4601,-0.058 -5.2829,0.75388 -1.9746,1.29101 2.8762,-0.90813 2.8506,-1.25621 1.9746,-1.29101 z m -269.08985,8.46289 c -5.09627,0.1739 -7.92227,1.90958 4.12695,5.80469 12.73074,-3.6701 2.42539,-6.02828 -4.12695,-5.80469 z m -45.83008,2.4707 c -4.75223,-0.077 -6.17416,1.60131 5.64258,6.80664 19.4491,-1.67475 2.27779,-6.67839 -5.64258,-6.80664 z m -25.32617,9.64453 c -1.07876,0.01 -2.13119,0.26278 0.0801,0.72852 2.10378,-0.5056 0.99868,-0.73848 -0.0801,-0.72852 z m 224.64258,33.76758 c -1.64347,0.0249 -2.43436,2.99722 -1.92969,10.20508 -7.56467,27.97923 9.17781,45.19501 35.11721,50.67381 -2.9479,-5.751 -26.0659,-60.98692 -33.18752,-60.87889 z m -63.51954,12.38086 c -1.55862,-0.004 -2.4241,1.18484 2.08008,3.58008 1.7303,-2.37802 -0.52146,-3.57578 -2.08008,-3.58008 z m -58.48828,13.38086 c 13.97159,-0.16642 28.45939,5.45761 39.11524,15.96087 20.15561,26.8577 45.2697,89.3845 0.33008,106.0762 -27.914,-34.6778 -37.04025,28.093 -42.47852,48.9727 -17.54123,-11.0568 -42.74654,-19.7147 -64.91406,-23.3926 9.50497,-40.9933 -0.0896,-87.555 28.76562,-123.418 8.17657,-16.38518 23.34717,-24.01056 39.18164,-24.19917 z m 196.28714,22.33977 c -1.9055,0 -0.3404,6.6239 7.7929,11.8594 -3.5607,-8.7623 -6.4892,-11.8605 -7.7929,-11.8594 z m -33.3418,16.9004 c -0.4485,0 -0.8969,0.3203 0,0.959 0.8968,-0.6387 0.4484,-0.959 0,-0.959 z m -38.9649,0.8418 c 2.4378,0.052 5.2091,0.4625 8.3496,1.2735 12.6418,33.0895 5.687,75.985 -13.68355,103.8437 l -0.86914,0 c 8.07459,-25.7955 -30.36373,-105.8967 6.20309,-105.1172 z m -714.3047,13 c 9.3588,0 18.5131,1.7289 27.4649,5.1875 8.9518,3.4587 16.7861,9.1553 23.5,17.0899 6.7139,7.9345 10.0703,17.5989 10.0703,28.9922 0,17.0898 -6.0023,30.72 -18.0059,40.8925 -12.0035,10.1726 -25.1256,16.0736 -39.3671,17.7012 -3.6622,0.8138 -5.5954,0.6094 -5.7989,-0.6113 -0.2034,-1.2207 1.3229,-2.0345 4.5781,-2.4414 13.8347,-4.069 25.5336,-10.5794 35.0958,-19.5313 9.5621,-8.9518 14.3417,-20.9544 14.3418,-36.0097 0,-10.1726 -2.9496,-19.1244 -8.8497,-26.8555 -5.9,-7.7311 -12.6129,-13.0228 -20.1406,-15.8711 -6.2052,-2.3651 -12.4879,-3.7493 -18.8457,-4.1563 -1.6785,20.574 -4.4508,37.7261 -8.3164,51.459 -4.069,14.445 -9.46,25.4313 -16.1738,32.959 -6.7139,7.5277 -13.53,11.293 -20.4473,11.293 -8.138,0 -14.3428,-3.2552 -18.6152,-9.7656 -4.2725,-6.5105 -6.4082,-14.0391 -6.4082,-22.584 0,-14.2416 2.9495,-26.2442 8.8496,-36.0098 5.9,-9.7656 13.8356,-17.4987 23.8047,-23.1953 9.969,-5.6966 21.0566,-8.543 33.2636,-8.543 z m -5.1503,4.4629 c -10.0708,0.8138 -18.9331,4.0048 -26.5879,9.5742 -8.9519,6.5105 -15.4623,14.0391 -19.5313,22.584 -4.069,8.5449 -6.1035,18.9199 -6.1035,31.127 0,6.9173 1.4232,13.0208 4.2715,18.3105 2.8483,5.2897 7.1217,7.9336 12.8183,7.9336 5.6967,0 11.292,-3.8646 16.7852,-11.5957 5.4932,-7.7311 9.5622,-18.2093 12.207,-31.4336 2.4923,-12.4868 4.5385,-27.986 6.1407,-46.5 z m 749.5878,17.5449 c 0.2883,-0.073 0.419,0.338 -0,1.7754 -2.0299,0.893 -0.6322,-1.6148 0,-1.7754 z m 61.545,79.8243 c -2.3272,0.1459 0.1472,3.5291 15.2773,13.0097 5.8164,-4.5032 -11.3988,-13.2529 -15.2773,-13.0097 z m -794.0801,39.1582 c 6.9173,1.2207 12.5127,2.8483 16.7851,4.8828 4.2725,2.0345 6.4082,3.8665 6.4082,5.4941 0,1.2207 -0.4069,2.7451 -1.2207,4.5762 -0.8138,1.831 -1.1194,5.4932 -0.916,10.9863 0.1272,3.6113 0.2167,8.6596 0.2676,15.1446 5.9764,-1.3733 12.0916,-3.0652 18.3477,-5.0743 4.4759,0.4069 7.7311,1.4252 9.7656,3.0528 2.4414,2.0345 2.4414,3.4576 0,4.2715 -1.6276,1.2207 -7.4255,2.5445 -17.3945,3.9687 -3.713,0.5341 -7.2739,0.9916 -10.6817,1.373 l 0,3.8145 0,21.9727 c 0,16.276 -3.3564,28.7887 -10.0703,37.5371 -6.7139,8.7483 -17.8014,14.9531 -33.2637,18.6152 -1.6276,0.4069 -2.747,0.2044 -3.3574,-0.6094 -0.6103,-0.8138 -0.1022,-1.4251 1.5254,-1.832 14.2415,-5.2897 23.9059,-12.0026 28.9922,-20.1406 5.0863,-8.1381 7.6289,-19.3288 7.6289,-33.5703 l 0,-21.9727 0,-2.9375 c -2.5431,0.2035 -4.9845,0.3689 -7.3242,0.4961 -7.7311,0.4069 -14.0371,0.6094 -18.9199,0.6094 -3.6622,0 -6.7149,-0.3037 -9.1563,-0.9141 -2.4414,-0.6103 -5.2897,-2.3392 -8.5449,-5.1875 -0.8138,-1.2207 -0.9151,-2.1377 -0.3047,-2.748 0.6103,-0.6104 1.7298,-0.5072 3.3574,0.3066 3.2552,1.6276 5.6966,2.6439 7.3242,3.0508 1.6276,0.4069 4.069,0.6094 7.3243,0.6094 8.3669,-0.2035 17.1026,-1.1692 26.207,-2.8985 -0.1272,-16.4795 -0.6236,-26.0932 -1.4883,-28.8398 -1.0172,-3.2552 -2.4404,-5.6966 -4.2715,-7.3242 -1.831,-1.6276 -4.3756,-3.0508 -7.6308,-4.2715 -0.8138,-0.4069 -1.1195,-0.9151 -0.9161,-1.5254 0.2035,-0.6104 0.7136,-0.916 1.5274,-0.916 z m -59.7442,0.8203 c 0.7153,0.064 1.7089,0.6038 2.9805,1.6211 6.5104,4.4759 9.9701,7.9355 10.377,10.3769 0.4069,2.4414 0.2024,4.2715 -0.6114,5.4922 -1.2207,2.4414 -3.5589,7.8324 -7.0175,16.1738 -3.4587,8.3415 -6.0033,18.2103 -7.6309,29.6036 -1.6276,11.3932 -1.3219,21.1588 0.916,29.2968 2.238,8.1381 4.1712,12.2071 5.7988,12.2071 0.8138,0 1.6277,-0.6114 2.4415,-1.8321 l 7.9335,-20.7519 c 0.8138,-2.0345 1.5264,-2.7471 2.1368,-2.1367 0.6103,0.6103 0.5091,1.7298 -0.3047,3.3574 l -4.8828,20.7519 c -0.8138,3.6621 -1.2207,6.7129 -1.2207,9.1543 0,2.4414 0.2024,5.2917 0.6093,8.5469 0.8138,3.2552 0,5.5934 -2.4414,7.0176 -2.4414,1.4241 -5.0853,-0.1003 -7.9336,-4.5762 -2.8483,-5.2897 -5.7998,-13.7334 -8.8515,-25.3301 -3.0518,-11.5966 -3.3555,-24.2106 -0.9141,-37.8418 2.4414,-13.6311 5.1865,-24.8219 8.2383,-33.5703 3.0518,-8.7483 4.3756,-14.3437 3.9687,-16.7851 -0.4069,-2.4414 -1.4251,-4.6784 -3.0527,-6.7129 -1.6276,-1.6276 -2.1357,-2.8483 -1.5254,-3.6621 0.2289,-0.3052 0.5572,-0.4386 0.9863,-0.4004 z m 915.9493,27.6523 c 19.7336,12.7559 -9.1836,47.9634 5.6211,67.4766 4.3136,46.147 15.6827,89.5811 37.7988,129.4472 43.7452,17.0797 35.7563,60.8838 -11.2578,41.1485 -31.1013,-15.9522 -59.5498,7.9319 -82.752,26.1289 -32.2799,22.9825 -55.9801,62.2482 -98.9414,66.4473 -11.71714,-16.6344 -25.03506,-36.2481 -37.9453,-53.3438 -1.58705,-17.6277 -25.65794,-68.0286 4.48828,-60.1113 34.69232,4.4054 -20.95765,-24.0027 -4.29101,-40.1426 34.45393,4.1032 35.64473,-8.3783 13.94141,-38.6836 6.96761,-24.9124 -3.43416,-49.1238 17.61718,-71.7793 9.82364,-36.5254 38.26234,-54.2276 66.21874,-55.2285 28.4629,-9.9324 57.9641,-11.1579 89.502,-11.3594 z m -11.9903,92.7403 c -5.5668,2.4571 -20.2622,37.2899 -25.4863,57.8808 17.6258,8.7343 11.0877,34.5771 29.6875,44.0332 18.2631,-8.7538 30.609,3.392 6.5684,-16 -8.8836,8.8889 -11.9966,-18.0011 -10.0469,-18.5 3.9595,10.1288 1.338,-46.2327 -0.7227,-67.414 z m -897.3164,30.7656 13.4278,3.0508 c 0,2.8483 -2.0345,4.4759 -6.1036,4.8828 l -8.7832,35.4004 13.6661,0 7.3242,-9.1543 12.207,9.1543 c 0,2.4414 -1.4232,3.6621 -4.2715,3.6621 l -2.7051,0 c -2.6929,18.671 -7.582,35.0083 -14.6699,49.0097 10.7486,4.5945 16.1543,10.0249 16.1543,16.2989 0,3.2552 -1.832,4.8828 -5.4941,4.8828 -3.6307,-5.2646 -8.4845,-9.9592 -14.5449,-14.0899 -8.968,15.0667 -20.8018,27.0885 -35.5039,36.0625 l -2.4415,-3.0527 c 12.9476,-10.543 23.3648,-22.9001 31.2676,-37.0586 -6.1926,-3.3607 -13.349,-6.2709 -21.5019,-8.7168 l 10.541,-43.3359 -14.8125,0 0,-3.6621 15.7031,0 10.541,-43.334 z m 95.8262,3.6601 9.7656,7.9356 c 0,2.4414 -1.2207,3.6621 -3.6621,3.6621 l -28.0762,0 0,32.959 17.0899,0 3.6621,-5.4942 10.9863,7.3243 c -1.2207,2.4414 -3.0527,3.8665 -5.4941,4.2734 l 0,40.8945 -8.5449,2.4414 0,-9.7656 -17.6993,0 0,34.7891 20.1407,0 6.1035,-7.9336 10.3769,8.5429 c 0,2.0345 -1.6276,3.0528 -4.8828,3.0528 l -62.2558,0 0,10.3769 -8.545,2.4414 0,-131.8359 10.9864,4.2715 44.5547,0 5.4941,-7.9356 z m -52.4902,11.5977 0,32.959 21.9726,0 0,-32.959 -21.9726,0 z m 846.1328,14.9316 c 0.4484,0 0.8968,0.3203 0,0.959 -0.8969,-0.6387 -0.4485,-0.959 0,-0.959 z m 2.6875,2.6778 c 0.9917,-0.082 1.8942,1.3092 0.4785,5.2812 -3.1755,-2.6325 -1.7536,-5.1754 -0.4785,-5.2812 z m -894.5235,14.1289 -10.4492,42.1133 c 5.792,1.267 10.9025,2.641 15.4063,4.1093 6.8061,-13.8028 11.3754,-29.2088 13.7011,-46.2226 l -18.6582,0 z m 909.336,3.2363 c -0.8969,0 -1.7938,0.6386 0,1.916 1.7937,-1.2774 0.8968,-1.916 0,-1.916 z m -863.6328,1.6465 0,32.3476 48.2168,0 0,-32.3476 -48.2168,0 z m 862.3867,6.2344 c 0.6105,0.047 0.9274,0.8435 -0.1953,3.0351 -2.6554,-1.1072 -0.8222,-3.1131 0.1953,-3.0351 z m -862.3867,29.7773 0,34.7891 21.9726,0 0,-34.7891 -21.9726,0 z"
     id="path4551"
     inkscape:connector-curvature="0" />
</svg>
