<?xml version="1.0" encoding="UTF-8" standalone="no"?>
<!-- Created with Inkscape (http://www.inkscape.org/) -->

<svg
   xmlns:dc="http://purl.org/dc/elements/1.1/"
   xmlns:cc="http://creativecommons.org/ns#"
   xmlns:rdf="http://www.w3.org/1999/02/22-rdf-syntax-ns#"
   xmlns:svg="http://www.w3.org/2000/svg"
   xmlns="http://www.w3.org/2000/svg"
   xmlns:sodipodi="http://sodipodi.sourceforge.net/DTD/sodipodi-0.dtd"
   xmlns:inkscape="http://www.inkscape.org/namespaces/inkscape"
   width="318.7836mm"
   height="335.83502mm"
   viewBox="0 0 1129.5482 1189.9666"
   id="svg5528"
   version="1.1"
   inkscape:version="0.91 r13725"
   sodipodi:docname="rubikscubedistorted.svg">
  <defs
     id="defs5530" />
  <sodipodi:namedview
     id="base"
     pagecolor="#ffffff"
     bordercolor="#666666"
     borderopacity="1.0"
     inkscape:pageopacity="0.0"
     inkscape:pageshadow="2"
     inkscape:zoom="0.49497475"
     inkscape:cx="316.15609"
     inkscape:cy="707.06348"
     inkscape:document-units="px"
     inkscape:current-layer="layer1"
     showgrid="false"
     fit-margin-top="0"
     fit-margin-left="0"
     fit-margin-right="0"
     fit-margin-bottom="0"
     inkscape:window-width="1920"
     inkscape:window-height="1005"
     inkscape:window-x="0"
     inkscape:window-y="0"
     inkscape:window-maximized="1" />
  <metadata
     id="metadata5533">
    <rdf:RDF>
      <cc:Work
         rdf:about="">
        <dc:format>image/svg+xml</dc:format>
        <dc:type
           rdf:resource="http://purl.org/dc/dcmitype/StillImage" />
        <dc:title></dc:title>
      </cc:Work>
    </rdf:RDF>
  </metadata>
  <g
     inkscape:label="Layer 1"
     inkscape:groupmode="layer"
     id="layer1"
     transform="translate(-53.129623,-49.459047)">
    <g
       id="g5617"
       transform="translate(477.14281,580)">
      <path
         style="fill:#cbcbcb"
         d="M 193.01395,658.05038 C 53.628731,575.97797 -88.747307,499.1216 -228.2354,417.22735 c -68.0648,-64.59486 -66.14869,-165.70242 -101.172,-247.33776 -27.4629,-89.613309 -54.95867,-179.510648 -92.50121,-265.534925 -16.84555,-79.617465 71.46708,-114.093495 121.21389,-153.590705 53.12614,-17.25561 146.5007,46.02099 156.52774,-44.44133 27.0864,-73.78864 103.967333,-101.52775 166.595027,-136.79247 57.928513,-23.68827 91.358303,-90.08984 154.994253,-99.25639 61.65559,-4.21077 108.91875,43.83183 145.68977,86.82456 125.67997,110.91758 251.50168,221.70747 374.9368,335.06851 28.73904,69.752411 -32.7272,127.852916 -58.59832,187.121703 C 593.77524,172.82026 564.58244,283.33713 478.1619,349.05467 433.05051,382.04519 361.18026,405.74848 360.94415,472.13064 367.88943,556.572 289.53281,612.02403 225.0159,649.75869 c -9.74028,5.31809 -20.77435,8.95779 -32.00195,8.29169 z"
         id="path5645"
         inkscape:connector-curvature="0" />
      <path
         style="fill:#f2f222"
         d="M 199.5,659.42568 C 56.127459,577.4734 -88.582084,497.83423 -230.51517,413.38338 -296.57558,347.62687 -293.7931,247.52454 -329.51389,166.5068 c -28.29206,-94.451739 -61.22773,-187.415291 -93.89523,-280.417 2.76153,-76.17313 82.65896,-111.50229 143.84663,-135.41136 54.30498,2.51225 153.19555,18.9512 145.6183,-68.34044 40.099977,-73.78386 133.3465909,-84.20174 193.49402,-135.42194 48.96067,-38.03651 113.32142,-106.88426 179.06213,-63.69017 60.12739,35.54549 96.91553,98.90894 155.7242,136.36788 97.92639,87.64389 195.42511,176.30864 294.40835,262.39814 C 737.16109,-47.322621 662.58226,22.167822 636.90842,85.816119 589.03763,185.72623 555.54684,307.91202 452.6203,366.0088 c -44.06519,24.33063 -93.91946,58.84365 -93.30857,114.99765 -0.13395,75.9268 -56.29003,122.00193 -116.69823,154.44966 -13.47464,9.45601 -27.70563,18.03257 -43.1135,23.96957 z M 11.8,542.87648 C 6.005876,470.77282 -17.987879,391.72617 -88.464919,359.55464 -160.80852,332.85369 -154.64103,460.064 -97.932201,476.2625 -68.465955,508.17968 -29.10164,529.40753 11.8,542.87648 Z M 76.0802,231.92662 C 57.466255,167.79169 62.554566,84.22261 -1.2894308,44.255952 -40.928658,-30.555195 -152.33505,58.910891 -85.589108,113.31555 -61.255317,180.99185 8.6223799,219.85121 76.0802,231.92662 Z"
         id="path5643"
         inkscape:connector-curvature="0" />
      <path
         style="fill:#acacac"
         d="M 199.5,659.42568 C 56.127459,577.4734 -88.582084,497.83423 -230.51517,413.38338 -296.57558,347.62687 -293.7931,247.52454 -329.51389,166.5068 c -28.29206,-94.451739 -61.22773,-187.415291 -93.89523,-280.417 2.76153,-76.17313 82.65896,-111.50229 143.84663,-135.41136 54.30498,2.51225 153.19555,18.9512 145.6183,-68.34044 40.099977,-73.78386 133.3465909,-84.20174 193.49402,-135.42194 48.96067,-38.03651 113.32142,-106.88426 179.06213,-63.69017 60.12739,35.54549 96.91553,98.90894 155.7242,136.36788 97.92639,87.64389 195.42511,176.30864 294.40835,262.39814 C 737.16109,-47.322621 662.58226,22.167822 636.90842,85.816119 589.03763,185.72623 555.54684,307.91202 452.6203,366.0088 c -44.06519,24.33063 -93.91946,58.84365 -93.30857,114.99765 -0.13395,75.9268 -56.29003,122.00193 -116.69823,154.44966 -13.47464,9.45601 -27.70563,18.03257 -43.1135,23.96957 z m 28.14951,-25.6308 c 57.35484,-41.41262 135.62037,-89.06887 123.5065,-171.50525 -9.66836,-77.53728 -105.59197,-78.87024 -137.25069,-16.83689 -42.46222,52.8003 -39.67357,140.87447 10.33166,187.05698 l 3.07383,1.1576 0.3387,0.12756 0,0 z M 11.8,542.87648 C 6.005876,470.77282 -17.987879,391.72617 -88.464919,359.55464 -160.80852,332.85369 -154.64103,460.064 -97.932201,476.2625 -68.465955,508.17968 -29.10164,529.40753 11.8,542.87648 Z M 76.0802,231.92662 C 57.466255,167.79169 62.554566,84.22261 -1.2894308,44.255952 -40.928658,-30.555195 -152.33505,58.910891 -85.589108,113.31555 -61.255317,180.99185 8.6223799,219.85121 76.0802,231.92662 Z M 573.535,-0.92352 c 44.10529,-24.26144 124.67512,-70.649878 87.57734,-130.24949 -41.73929,-50.35062 -114.67595,-112.63429 -180.95535,-64.91652 -75.244,50.3164 -18.72486,138.855837 44.42351,165.379524 14.71268,12.259706 30.90961,23.0884419 48.9545,29.786486 z m -705.05254,-48.53745 c 41.40208,-27.522164 157.926895,-69.50975 88.619382,-128.93826 -58.367302,-28.70674 -135.123382,-4.00764 -179.615942,39.18377 -54.96103,64.150671 44.30541,85.100083 90.99656,89.75449 l 0,0 z m 406.28793,-320.14269 c 81.99285,-19.2154 27.36376,-133.21727 -34.81321,-141.93462 -64.38641,-29.49219 -190.985754,29.69399 -134.65607,108.34214 34.55562,42.7762 128.45249,96.99206 169.46928,33.59248 z"
         id="path5641"
         inkscape:connector-curvature="0" />
      <path
         style="fill:#335ce3"
         d="M 195.5,657.30468 C 52.868017,572.92646 -94.713679,497.01437 -234.83104,408.37614 c -60.68135,-63.61012 -57.21425,-158.00561 -92.20972,-234.35139 -27.06183,-94.260998 -58.14686,-187.744155 -94.92049,-278.3866 -2.48238,-77.0132 85.27397,-120.89583 143.553,-150.03362 55.96695,9.19344 142.75788,30.20472 139.91691,-55.48249 34.60175,-71.72643 122.112207,-83.38775 178.761228,-131.17267 58.397341,-33.2848 114.371892,-110.09495 189.545662,-79.65364 63.41522,33.30243 102.36333,99.21559 161.06554,140.22955 67.56347,56.07149 134.46531,113.27174 194.851,177.00815 43.73818,37.20094 111.88202,65.8163 116.55571,130.227208 -7.20415,67.8811237 -52.56643,123.170348 -79.18718,184.279372 -37.96999,71.43267 -56.90721,156.46667 -116.84902,213.85613 -50.92004,44.37002 -135.41602,67.51587 -146.55553,143.69773 -3.96157,82.97894 -60.52867,140.66448 -130.46787,175.40069 -9.94581,6.99107 -21.40138,12.49529 -33.7282,13.31012 z m 32.14951,-23.5098 c 57.35484,-41.41262 135.62037,-89.06887 123.5065,-171.50525 -9.66836,-77.53728 -105.59197,-78.87024 -137.25069,-16.83689 -42.46222,52.8003 -39.67357,140.87447 10.33166,187.05698 l 3.07383,1.1576 0.3387,0.12756 0,0 z M 13.4433,542.85398 C 4.8804046,476.93431 -10.299796,395.4781 -78.812642,366.4615 c -57.036458,-62.03582 -99.868528,66.75056 -36.686328,89.79634 29.625579,44.28494 78.179635,73.05986 128.94227,86.59614 z M 429.52425,223.49495 C 472.94976,193.69147 535.01618,149.2808 513.64194,88.362404 452.10383,120.84417 393.62229,172.62095 378.38138,243.34451 c 13.99415,36.35149 33.96159,-16.20768 51.14287,-19.84956 z m 98.21115,5.22479 c 45.73652,-26.9355 96.38798,-73.6305 84.30593,-132.313675 -57.28175,36.990975 -116.9963,85.442655 -131.00108,155.920885 20.68511,20.16983 28.20163,-23.01713 46.69515,-23.60721 z M 114.86552,264.3523 c 3.17235,-15.28699 -11.4278,9.17933 0,0 z M 76.42857,233.50505 C 61.197595,166.32416 61.712963,81.045903 -4.5422974,40.853873 -46.053371,-34.756295 -153.19101,61.817309 -86.718127,114.07948 -62.114753,182.36448 8.4421926,221.21094 76.42857,233.50505 Z m 315.52575,-80.87353 c 3.03315,-16.02249 -10.77198,8.52204 0,0 z M 54.42857,51.50505 c 5.034783,-14.693724 -12.509074,7.504914 0,0 z M 567.8223,17.65814 c -4.60981,-16.5082976 -5.38689,12.71432 0,0 z m 5.7127,-18.58166 c 44.10529,-24.26144 124.67512,-70.649878 87.57734,-130.24949 -41.73929,-50.35062 -114.67595,-112.63429 -180.95535,-64.91652 -75.244,50.3164 -18.72486,138.855837 44.42351,165.379524 14.71268,12.259706 30.90961,23.0884419 48.9545,29.786486 z m -696.31766,-23.57766 c 0.11849,-18.214079 -10.53714,12.189975 0,0 z m -8.73488,-24.95979 c 41.40208,-27.522164 157.926895,-69.50975 88.619382,-128.93826 -58.927862,-28.45422 -138.935042,-4.47262 -181.392692,42.20532 -48.92826,71.09559 47.75986,77.440742 92.77331,86.73294 z m -151.05389,-40.03398 c 4.94382,-15.27903 -11.67267,6.794306 0,0 z M 382.8,-144.12352 c 8.55683,-20.63908 -17.62064,8.95753 0,0 z M 32.94981,-181.36305 c 4.271064,-16.26368 -11.128848,7.95639 0,0 z m 174.08608,-126.62753 c -0.46332,-16.34473 -8.50512,10.35686 0,0 z m 67.7345,-61.61308 c 81.99285,-19.2154 27.36376,-133.21727 -34.81321,-141.93462 -64.38641,-29.49219 -190.985754,29.69399 -134.65607,108.34214 34.55562,42.7762 128.45249,96.99206 169.46928,33.59248 z"
         id="path5639"
         inkscape:connector-curvature="0" />
      <path
         style="fill:#acac18"
         d="M 195.5,657.30468 C 52.868017,572.92646 -94.713679,497.01437 -234.83104,408.37614 c -60.68135,-63.61012 -57.21425,-158.00561 -92.20972,-234.35139 -27.06183,-94.260998 -58.14686,-187.744155 -94.92049,-278.3866 -2.48238,-77.0132 85.27397,-120.89583 143.553,-150.03362 55.96695,9.19344 142.75788,30.20472 139.91691,-55.48249 34.60175,-71.72643 122.112207,-83.38775 178.761228,-131.17267 58.397341,-33.2848 114.371892,-110.09495 189.545662,-79.65364 63.41522,33.30243 102.36333,99.21559 161.06554,140.22955 67.56347,56.07149 134.46531,113.27174 194.851,177.00815 43.73818,37.20094 111.88202,65.8163 116.55571,130.227208 -7.20415,67.8811237 -52.56643,123.170348 -79.18718,184.279372 -37.96999,71.43267 -56.90721,156.46667 -116.84902,213.85613 -50.92004,44.37002 -135.41602,67.51587 -146.55553,143.69773 -3.96157,82.97894 -60.52867,140.66448 -130.46787,175.40069 -9.94581,6.99107 -21.40138,12.49529 -33.7282,13.31012 z m 32.14951,-23.5098 c 57.35484,-41.41262 135.62037,-89.06887 123.5065,-171.50525 -9.66836,-77.53728 -105.59197,-78.87024 -137.25069,-16.83689 -42.46222,52.8003 -39.67357,140.87447 10.33166,187.05698 l 3.07383,1.1576 0.3387,0.12756 0,0 z M 13.4433,542.85398 C 4.8804046,476.93431 -10.299796,395.4781 -78.812642,366.4615 c -57.036458,-62.03582 -99.868528,66.75056 -36.686328,89.79634 29.625579,44.28494 78.179635,73.05986 128.94227,86.59614 z M 429.52425,223.49495 C 472.94976,193.69147 535.01618,149.2808 513.64194,88.362404 452.10383,120.84417 393.62229,172.62095 378.38138,243.34451 c 13.99415,36.35149 33.96159,-16.20768 51.14287,-19.84956 z m 98.21115,5.22479 c 45.73652,-26.9355 96.38798,-73.6305 84.30593,-132.313675 -57.28175,36.990975 -116.9963,85.442655 -131.00108,155.920885 20.68511,20.16983 28.20163,-23.01713 46.69515,-23.60721 z M 114.86552,264.3523 c 3.17235,-15.28699 -11.4278,9.17933 0,0 z M 76.42857,233.50505 C 61.197595,166.32416 61.712963,81.045903 -4.5422974,40.853873 -46.053371,-34.756295 -153.19101,61.817309 -86.718127,114.07948 -62.114753,182.36448 8.4421926,221.21094 76.42857,233.50505 Z m 315.52575,-80.87353 c 3.03315,-16.02249 -10.77198,8.52204 0,0 z M 54.42857,51.50505 c 5.034783,-14.693724 -12.509074,7.504914 0,0 z M 56.60183,22.84393 C 91.787677,-9.1814286 200.45267,-34.985311 152.07981,-98.102657 93.856563,-152.27246 4.3041805,-124.3146 -50.964118,-80.080238 -104.85187,-17.319829 -0.5669369,41.953125 56.60183,22.84393 l 0,0 z M 567.8223,17.65814 c -4.60981,-16.5082976 -5.38689,12.71432 0,0 z m 5.7127,-18.58166 c 44.10529,-24.26144 124.67512,-70.649878 87.57734,-130.24949 -41.73929,-50.35062 -114.67595,-112.63429 -180.95535,-64.91652 -75.244,50.3164 -18.72486,138.855837 44.42351,165.379524 14.71268,12.259706 30.90961,23.0884419 48.9545,29.786486 z m -696.31766,-23.57766 c 0.11849,-18.214079 -10.53714,12.189975 0,0 z m -8.73488,-24.95979 c 41.40208,-27.522164 157.926895,-69.50975 88.619382,-128.93826 -58.927862,-28.45422 -138.935042,-4.47262 -181.392692,42.20532 -48.92826,71.09559 47.75986,77.440742 92.77331,86.73294 z m -151.05389,-40.03398 c 4.94382,-15.27903 -11.67267,6.794306 0,0 z M 382.8,-144.12352 c 8.55683,-20.63908 -17.62064,8.95753 0,0 z M 32.94981,-181.36305 c 4.271064,-16.26368 -11.128848,7.95639 0,0 z m 174.08608,-126.62753 c -0.46332,-16.34473 -8.50512,10.35686 0,0 z m 67.7345,-61.61308 c 81.99285,-19.2154 27.36376,-133.21727 -34.81321,-141.93462 -64.38641,-29.49219 -190.985754,29.69399 -134.65607,108.34214 34.55562,42.7762 128.45249,96.99206 169.46928,33.59248 z"
         id="path5637"
         inkscape:connector-curvature="0" />
      <path
         style="fill:#ca4b25"
         d="M 195.5,657.30468 C 52.868017,572.92646 -94.713679,497.01437 -234.83104,408.37614 c -60.68135,-63.61012 -57.21425,-158.00561 -92.20972,-234.35139 -27.06183,-94.260998 -58.14686,-187.744155 -94.92049,-278.3866 -2.48238,-77.0132 85.27397,-120.89583 143.553,-150.03362 55.96695,9.19344 142.75788,30.20472 139.91691,-55.48249 34.60175,-71.72643 122.112207,-83.38775 178.761228,-131.17267 58.397341,-33.2848 114.371892,-110.09495 189.545662,-79.65364 63.41522,33.30243 102.36333,99.21559 161.06554,140.22955 67.56347,56.07149 134.46531,113.27174 194.851,177.00815 43.73818,37.20094 111.88202,65.8163 116.55571,130.227208 -7.20415,67.8811237 -52.56643,123.170348 -79.18718,184.279372 -37.96999,71.43267 -56.90721,156.46667 -116.84902,213.85613 -50.92004,44.37002 -135.41602,67.51587 -146.55553,143.69773 -3.96157,82.97894 -60.52867,140.66448 -130.46787,175.40069 -9.94581,6.99107 -21.40138,12.49529 -33.7282,13.31012 z m 33.41622,-22.3085 c 53.83242,-39.20583 128.80649,-82.91804 123.75401,-159.62962 8.93754,-74.04613 -90.12956,-107.16516 -128.22276,-43.11916 -56.22788,49.00626 -50.13967,142.80074 -8.67659,198.23379 3.27684,3.77177 8.8484,2.8951 13.14534,4.51499 z M 13.4433,542.85398 C 4.8804046,476.93431 -10.299796,395.4781 -78.812642,366.4615 c -57.035978,-62.03569 -99.868448,66.74962 -36.687118,89.79582 29.62552,44.28481 78.180599,73.0603 128.94306,86.59666 z m -150.41836,-87.5275 c -6.06837,-74.33749 -40.58251,-160.02561 -118.09678,-183.61571 -60.20575,27.15326 -14.44402,99.32177 19.05556,129.86972 27.03152,26.47122 61.23352,47.6303 99.04122,53.74599 z m 508.61645,-35.39476 c 67.09323,0.88036 21.95904,-124.54395 -17.8475,-47.21464 -15.31089,17.78583 -20.63172,78.59667 17.8475,47.21464 z m 12.06829,-77.23517 c 48.70058,-29.2004 82.84221,-81.36449 90.13334,-137.67618 -53.52744,43.65963 -131.95652,76.4691 -142.61968,153.27554 8.26557,35.44026 41.49191,-4.53144 52.48634,-15.59936 z m 45.81457,-119.2016 C 472.9462,193.69259 535.02337,149.28246 513.63344,88.366376 452.09541,120.90199 393.40784,172.66644 378.4398,243.55062 c 14.24878,36.33201 33.6923,-16.71525 51.08445,-20.05567 z m 98.21115,5.22479 c 45.73652,-26.9355 96.38798,-73.6305 84.30593,-132.313675 -57.28175,36.990985 -116.99631,85.442655 -131.00108,155.920895 21.49573,19.44561 27.8081,-22.85705 46.69515,-23.60722 z M 114.86552,264.3523 c 3.17235,-15.28699 -11.4278,9.17933 0,0 z M 76.42857,233.50505 C 61.197595,166.32416 61.712963,81.045903 -4.5422974,40.853873 -46.053371,-34.756295 -153.19101,61.817309 -86.718127,114.07948 -62.114753,182.36448 8.4421926,221.21094 76.42857,233.50505 Z m 315.52575,-80.87353 c 3.03315,-16.02249 -10.77198,8.52204 0,0 z M 54.42857,51.50505 c 5.034783,-14.693724 -12.509074,7.504914 0,0 z M 56.60183,22.84393 C 91.787677,-9.1814286 200.45267,-34.985311 152.07981,-98.102657 93.856563,-152.27246 4.3041805,-124.3146 -50.964118,-80.080238 -104.85187,-17.319829 -0.5669369,41.953125 56.60183,22.84393 l 0,0 z M 567.8223,17.65814 c -4.60981,-16.5082976 -5.38689,12.71432 0,0 z m 5.732,-17.45382 c 60.28506,-25.752244 143.8665,-98.299813 66.97987,-156.48612 -42.98129,-59.09906 -137.5876,-77.79081 -186.3758,-16.50198 -44.61643,76.664805 47.18484,128.115353 101.01317,163.0845907 l 8.98192,5.2760122 9.40084,4.6274971 0,0 z m -696.33696,-24.7055 c 0.11849,-18.214079 -10.53714,12.189975 0,0 z m -2.19972,-26.09308 c 47.193404,-24.436685 164.303915,-89.03702 70.737221,-135.11299 -63.413211,-17.84862 -145.690791,8.90822 -182.237941,63.16635 -21.98504,68.675765 68.52442,66.847007 111.50072,71.94664 z m -157.58905,-38.90069 c 4.94382,-15.27903 -11.67267,6.794306 0,0 z M 382.8,-144.12352 c 8.55683,-20.63908 -17.62064,8.95753 0,0 z M 32.94981,-181.36305 c 4.271064,-16.26368 -11.128848,7.95639 0,0 z m 174.08608,-126.62753 c -0.46332,-16.34473 -8.50512,10.35686 0,0 z m 68.14055,-60.35063 c 68.03859,-13.33612 42.1194,-101.49763 -1.01226,-129.39207 -57.9011,-40.71953 -160.11179,-26.89606 -184.651651,46.38437 2.45141,68.18043 82.697381,116.69124 145.111021,111.99819 16.49637,-4.10503 31.68339,-14.3264 40.55289,-28.99049 z"
         id="path5635"
         inkscape:connector-curvature="0" />
      <path
         style="fill:#df2b2c"
         d="M 195.5,657.30468 C 52.868017,572.92646 -94.713679,497.01437 -234.83104,408.37614 c -60.68135,-63.61012 -57.21425,-158.00561 -92.20972,-234.35139 -27.06183,-94.260998 -58.14686,-187.744155 -94.92049,-278.3866 -2.48238,-77.0132 85.27397,-120.89583 143.553,-150.03362 55.96695,9.19344 142.75788,30.20472 139.91691,-55.48249 34.60175,-71.72643 122.112207,-83.38775 178.761228,-131.17267 58.397341,-33.2848 114.371892,-110.09495 189.545662,-79.65364 63.41522,33.30243 102.36333,99.21559 161.06554,140.22955 67.56347,56.07149 134.46531,113.27174 194.851,177.00815 43.73818,37.20094 111.88202,65.8163 116.55571,130.227208 -7.20415,67.8811237 -52.56643,123.170348 -79.18718,184.279372 -37.96999,71.43267 -56.90721,156.46667 -116.84902,213.85613 -50.92004,44.37002 -135.41602,67.51587 -146.55553,143.69773 -3.96157,82.97894 -60.52867,140.66448 -130.46787,175.40069 -9.94581,6.99107 -21.40138,12.49529 -33.7282,13.31012 z m 33.41622,-22.3085 c 53.83242,-39.20583 128.80649,-82.91804 123.75401,-159.62962 8.93754,-74.04613 -90.12956,-107.16516 -128.22276,-43.11916 -56.22788,49.00626 -50.13967,142.80074 -8.67659,198.23379 3.27684,3.77177 8.8484,2.8951 13.14534,4.51499 z M 13.4433,542.85398 C 4.8804046,476.93431 -10.299796,395.4781 -78.812642,366.4615 c -57.035978,-62.03569 -99.868448,66.74962 -36.687118,89.79582 29.62552,44.28481 78.180599,73.0603 128.94306,86.59666 z m -150.41836,-87.5275 c -6.06837,-74.33749 -40.58251,-160.02561 -118.09678,-183.61571 -60.20575,27.15326 -14.44402,99.32177 19.05556,129.86972 27.03152,26.47122 61.23352,47.6303 99.04122,53.74599 z m 508.61645,-35.39476 c 67.09323,0.88036 21.95904,-124.54395 -17.8475,-47.21464 -15.31089,17.78583 -20.63172,78.59667 17.8475,47.21464 z m 12.06829,-77.23517 c 48.70058,-29.2004 82.84221,-81.36449 90.13334,-137.67618 -53.52744,43.65963 -131.95652,76.4691 -142.61968,153.27554 8.26557,35.44026 41.49191,-4.53144 52.48634,-15.59936 z m 86.49732,-2.19931 c 36.29891,-5.35454 107.11856,-91.57651 50.83261,-95.27109 -34.87761,19.3584 -101.42056,83.62514 -68.57024,108.35993 4.86361,-5.49968 10.32303,-11.19706 17.73763,-13.08884 z M -37.93426,358.0413 c -8.182033,-67.48971 -19.377476,-151.33923 -88.28953,-184.11447 -62.79063,-54.86432 -95.31552,75.46488 -36.60115,100.36604 28.85407,42.8011 76.268494,69.49952 124.89068,83.74843 z M 429.52425,223.49495 C 472.94976,193.69147 535.01618,149.2808 513.64194,88.362404 452.10383,120.84417 393.62229,172.62095 378.38138,243.34451 c 13.99415,36.35149 33.96159,-16.20768 51.14287,-19.84956 z m 98.21115,5.22479 c 45.73652,-26.9355 96.38798,-73.6305 84.30593,-132.313675 -57.28175,36.990975 -116.9963,85.442655 -131.00108,155.920885 20.68511,20.16983 28.20163,-23.01713 46.69515,-23.60721 z M 114.86552,264.3523 c 3.17235,-15.28699 -11.4278,9.17933 0,0 z M 76.42857,233.50505 C 61.197595,166.32416 61.712963,81.045903 -4.5422974,40.853873 -46.053371,-34.756295 -153.19101,61.817309 -86.718127,114.07948 -62.114753,182.36448 8.4421926,221.21094 76.42857,233.50505 Z m 315.52575,-80.87353 c 3.03315,-16.02249 -10.77198,8.52204 0,0 z M 54.42857,51.50505 c 5.034783,-14.693724 -12.509074,7.504914 0,0 z M 56.60183,22.84393 C 91.787677,-9.1814286 200.45267,-34.985311 152.07981,-98.102657 93.856563,-152.27246 4.3041805,-124.3146 -50.964118,-80.080238 -104.85187,-17.319829 -0.5669369,41.953125 56.60183,22.84393 l 0,0 z M 567.8223,17.65814 c -4.60981,-16.5082976 -5.38689,12.71432 0,0 z m 5.732,-17.45382 c 60.28506,-25.752244 143.8665,-98.299813 66.97987,-156.48612 -42.98129,-59.09906 -137.5876,-77.79081 -186.3758,-16.50198 -44.61643,76.664805 47.18484,128.115353 101.01317,163.0845907 l 8.98192,5.2760122 9.40084,4.6274971 0,0 z m -696.33696,-24.7055 c 0.11849,-18.214079 -10.53714,12.189975 0,0 z m -2.19972,-26.09308 c 47.193404,-24.436685 164.303915,-89.03702 70.737221,-135.11299 -63.413211,-17.84862 -145.690791,8.90822 -182.237941,63.16635 -21.98504,68.675765 68.52442,66.847007 111.50072,71.94664 z m -157.58905,-38.90069 c 4.94382,-15.27903 -11.67267,6.794306 0,0 z M 382.8,-144.12352 c 8.55683,-20.63908 -17.62064,8.95753 0,0 z M 32.94981,-181.36305 c 4.271064,-16.26368 -11.128848,7.95639 0,0 z m 174.08608,-126.62753 c -0.46332,-16.34473 -8.50512,10.35686 0,0 z m 68.14055,-60.35063 c 68.03859,-13.33612 42.1194,-101.49763 -1.01226,-129.39207 -57.9011,-40.71953 -160.11179,-26.89606 -184.651651,46.38437 2.45141,68.18043 82.697381,116.69124 145.111021,111.99819 16.49637,-4.10503 31.68339,-14.3264 40.55289,-28.99049 z"
         id="path5633"
         inkscape:connector-curvature="0" />
      <path
         style="fill:#28c249"
         d="M 195.5,657.30468 C 52.868017,572.92646 -94.713679,497.01437 -234.83104,408.37614 c -60.68135,-63.61012 -57.21425,-158.00561 -92.20972,-234.35139 -27.06183,-94.260998 -58.14686,-187.744155 -94.92049,-278.3866 -2.48238,-77.0132 85.27397,-120.89583 143.553,-150.03362 55.96695,9.19344 142.75788,30.20472 139.91691,-55.48249 34.60175,-71.72643 122.112207,-83.38775 178.761228,-131.17267 58.397341,-33.2848 114.371892,-110.09495 189.545662,-79.65364 63.41522,33.30243 102.36333,99.21559 161.06554,140.22955 67.56347,56.07149 134.46531,113.27174 194.851,177.00815 43.73818,37.20094 111.88202,65.8163 116.55571,130.227208 -7.20415,67.8811237 -52.56643,123.170348 -79.18718,184.279372 -37.96999,71.43267 -56.90721,156.46667 -116.84902,213.85613 -50.92004,44.37002 -135.41602,67.51587 -146.55553,143.69773 -3.96157,82.97894 -60.52867,140.66448 -130.46787,175.40069 -9.94581,6.99107 -21.40138,12.49529 -33.7282,13.31012 z m 33.41622,-22.3085 c 53.83242,-39.20583 128.80649,-82.91804 123.75401,-159.62962 8.93754,-74.04613 -90.12956,-107.16516 -128.22276,-43.11916 -56.22788,49.00626 -50.13967,142.80074 -8.67659,198.23379 3.27684,3.77177 8.8484,2.8951 13.14534,4.51499 z M 13.4433,542.85398 C 4.8804046,476.93431 -10.299796,395.4781 -78.812642,366.4615 c -57.035978,-62.03569 -99.868448,66.74962 -36.687118,89.79582 29.62552,44.28481 78.180599,73.0603 128.94306,86.59666 z m -150.41836,-87.5275 c -6.06837,-74.33749 -40.58251,-160.02561 -118.09678,-183.61571 -60.20575,27.15326 -14.44402,99.32177 19.05556,129.86972 27.03152,26.47122 61.23352,47.6303 99.04122,53.74599 z m 508.61645,-35.39476 c 67.09323,0.88036 21.95904,-124.54395 -17.8475,-47.21464 -15.31089,17.78583 -20.63172,78.59667 17.8475,47.21464 z m 12.06829,-77.23517 c 48.70058,-29.2004 82.84221,-81.36449 90.13334,-137.67618 -53.52744,43.65963 -131.95652,76.4691 -142.61968,153.27554 8.26557,35.44026 41.49191,-4.53144 52.48634,-15.59936 z m 86.49732,-2.19931 c 36.29891,-5.35454 107.11856,-91.57651 50.83261,-95.27109 -34.87761,19.3584 -101.42056,83.62514 -68.57024,108.35993 4.86361,-5.49968 10.32303,-11.19706 17.73763,-13.08884 z M -37.93426,358.0413 c -8.182033,-67.48971 -19.377476,-151.33923 -88.28953,-184.11447 -62.79063,-54.86432 -95.31552,75.46488 -36.60115,100.36604 28.85407,42.8011 76.268494,69.49952 124.89068,83.74843 z M 429.52425,223.49495 C 472.94976,193.69147 535.01618,149.2808 513.64194,88.362404 452.10383,120.84417 393.62229,172.62095 378.38138,243.34451 c 13.99415,36.35149 33.96159,-16.20768 51.14287,-19.84956 z m 98.21115,5.22479 c 45.73652,-26.9355 96.38798,-73.6305 84.30593,-132.313675 -57.28175,36.990975 -116.9963,85.442655 -131.00108,155.920885 20.68511,20.16983 28.20163,-23.01713 46.69515,-23.60721 z M 114.86552,264.3523 c 3.17235,-15.28699 -11.4278,9.17933 0,0 z m 13.53526,-33.73644 C 180.55802,192.90675 255.81156,157.58652 258.299,83.884571 269.04006,18.81677 199.03478,-50.483726 138.10018,-3.7626596 82.860574,34.459554 61.209273,106.7467 85.367465,169.88401 c 7.886387,23.12757 14.105739,55.80819 43.033315,60.73185 z m -51.97221,2.88919 C 61.197595,166.32416 61.712963,81.045903 -4.5422974,40.853873 -46.053371,-34.756295 -153.19101,61.817309 -86.718127,114.07948 -62.086164,182.39301 8.4118962,221.1885 76.42857,233.50505 Z m 315.52575,-80.87353 c 3.03315,-16.02249 -10.77198,8.52204 0,0 z M 54.42857,51.50505 c 5.034783,-14.693724 -12.509074,7.504914 0,0 z M 56.60183,22.84393 C 91.787677,-9.1814286 200.45267,-34.985311 152.07981,-98.102657 93.856563,-152.27246 4.3041805,-124.3146 -50.964118,-80.080238 -104.85187,-17.319829 -0.5669369,41.953125 56.60183,22.84393 l 0,0 z M 567.8223,17.65814 c -4.60981,-16.5082976 -5.38689,12.71432 0,0 z m 5.732,-17.45382 c 60.28506,-25.752244 143.8665,-98.299813 66.97987,-156.48612 -42.98129,-59.09906 -137.5876,-77.79081 -186.3758,-16.50198 -44.61643,76.664805 47.18484,128.115353 101.01317,163.0845907 l 8.98192,5.2760122 9.40084,4.6274971 0,0 z m -696.33696,-24.7055 c 0.11849,-18.214079 -10.53714,12.189975 0,0 z m -2.19972,-26.09308 c 47.193404,-24.436685 164.303915,-89.03702 70.737221,-135.11299 -63.413211,-17.84862 -145.690791,8.90822 -182.237941,63.16635 -21.98504,68.675765 68.52442,66.847007 111.50072,71.94664 z m -157.58905,-38.90069 c 4.94382,-15.27903 -11.67267,6.794306 0,0 z m -4.5333,-28.37514 c 40.59337,-21.32886 153.41166,-76.05977 75.93513,-120.42402 -65.87894,-16.67593 -150.87173,15.15027 -173.5805,82.74434 19.5582,35.08986 65.23783,26.80432 97.64537,37.67968 z M 382.8,-144.12352 c 8.55683,-20.63908 -17.62064,8.95753 0,0 z M 32.94981,-181.36305 c 4.271064,-16.26368 -11.128848,7.95639 0,0 z m 174.08608,-126.62753 c -0.46332,-16.34473 -8.50512,10.35686 0,0 z m 68.14055,-60.35063 c 68.03859,-13.33612 42.1194,-101.49763 -1.01226,-129.39207 -57.9011,-40.71953 -160.11179,-26.89606 -184.651651,46.38437 2.45141,68.18043 82.697381,116.69124 145.111021,111.99819 16.49637,-4.10503 31.68339,-14.3264 40.55289,-28.99049 z"
         id="path5631"
         inkscape:connector-curvature="0" />
      <path
         style="fill:#2849b5"
         d="M 195.5,657.30468 C 52.868017,572.92646 -94.713679,497.01437 -234.83104,408.37614 c -60.68135,-63.61012 -57.21425,-158.00561 -92.20972,-234.35139 -27.06183,-94.260998 -58.14686,-187.744155 -94.92049,-278.3866 -2.48238,-77.0132 85.27397,-120.89583 143.553,-150.03362 55.96695,9.19344 142.75788,30.20472 139.91691,-55.48249 34.60175,-71.72643 122.112207,-83.38775 178.761228,-131.17267 58.397341,-33.2848 114.371892,-110.09495 189.545662,-79.65364 63.41522,33.30243 102.36333,99.21559 161.06554,140.22955 67.56347,56.07149 134.46531,113.27174 194.851,177.00815 43.73818,37.20094 111.88202,65.8163 116.55571,130.227208 -7.20415,67.8811237 -52.56643,123.170348 -79.18718,184.279372 -37.96999,71.43267 -56.90721,156.46667 -116.84902,213.85613 -50.92004,44.37002 -135.41602,67.51587 -146.55553,143.69773 -3.96157,82.97894 -60.52867,140.66448 -130.46787,175.40069 -9.94581,6.99107 -21.40138,12.49529 -33.7282,13.31012 z m 33.41622,-22.3085 c 53.83242,-39.20583 128.80649,-82.91804 123.75401,-159.62962 8.93754,-74.04613 -90.12956,-107.16516 -128.22276,-43.11916 -56.22788,49.00626 -50.13967,142.80074 -8.67659,198.23379 3.27684,3.77177 8.8484,2.8951 13.14534,4.51499 z M 13.4433,542.85398 C 4.8804046,476.93431 -10.299796,395.4781 -78.812642,366.4615 c -57.035978,-62.03569 -99.868448,66.74962 -36.687118,89.79582 29.62552,44.28481 78.180599,73.0603 128.94306,86.59666 z m -150.41836,-87.5275 c -6.06837,-74.33749 -40.58251,-160.02561 -118.09678,-183.61571 -60.20575,27.15326 -14.44402,99.32177 19.05556,129.86972 27.03152,26.47122 61.23352,47.6303 99.04122,53.74599 z m 508.61645,-35.39476 c 67.09323,0.88036 21.95904,-124.54395 -17.8475,-47.21464 -15.31089,17.78583 -20.63172,78.59667 17.8475,47.21464 z m 12.06829,-77.23517 c 48.70058,-29.2004 82.84221,-81.36449 90.13334,-137.67618 -53.52744,43.65963 -131.95652,76.4691 -142.61968,153.27554 8.26557,35.44026 41.49191,-4.53144 52.48634,-15.59936 z m 86.49732,-2.19931 c 36.29891,-5.35454 107.11856,-91.57651 50.83261,-95.27109 -34.87761,19.3584 -101.42056,83.62514 -68.57024,108.35993 4.86361,-5.49968 10.32303,-11.19706 17.73763,-13.08884 z M -37.93426,358.0413 c -8.182033,-67.48971 -19.377476,-151.33923 -88.28953,-184.11447 -62.79063,-54.86432 -95.31552,75.46488 -36.60115,100.36604 28.85407,42.8011 76.268494,69.49952 124.89068,83.74843 z M 429.52425,223.49495 C 472.94976,193.69147 535.01618,149.2808 513.64194,88.362404 452.10383,120.84417 393.62229,172.62095 378.38138,243.34451 c 13.99415,36.35149 33.96159,-16.20768 51.14287,-19.84956 z m 98.21115,5.22479 c 45.73652,-26.9355 96.38798,-73.6305 84.30593,-132.313675 -57.28175,36.990975 -116.9963,85.442655 -131.00108,155.920885 20.68511,20.16983 28.20163,-23.01713 46.69515,-23.60721 z M 114.86552,264.3523 c 3.17235,-15.28699 -11.4278,9.17933 0,0 z m 13.53526,-33.73644 C 180.55802,192.90675 255.81156,157.58652 258.299,83.884571 269.04006,18.81677 199.03478,-50.483726 138.10018,-3.7626596 82.860574,34.459554 61.209273,106.7467 85.367465,169.88401 c 7.886387,23.12757 14.105739,55.80819 43.033315,60.73185 z m -51.97221,2.88919 C 61.197595,166.32416 61.712963,81.045903 -4.5422974,40.853873 -46.053371,-34.756295 -153.19101,61.817309 -86.718127,114.07948 -62.086164,182.39301 8.4118962,221.1885 76.42857,233.50505 Z m 315.52575,-80.87353 c 3.03315,-16.02249 -10.77198,8.52204 0,0 z m 23.76753,-27.24203 C 459.16769,98.868233 538.30578,52.243055 502.01533,-7.8045639 462.15982,-59.702439 387.16793,-119.31934 322.6155,-69.874247 265.18617,-34.482056 269.93809,55.702379 335.50981,78.315674 358.53843,98.89751 381.99989,126.0201 415.72185,125.38949 Z M 54.42857,51.50505 c 5.034783,-14.693724 -12.509074,7.504914 0,0 z M 56.60183,22.84393 C 91.787677,-9.1814286 200.45267,-34.985311 152.07981,-98.102657 93.856563,-152.27246 4.3041805,-124.3146 -50.964118,-80.080238 -104.85187,-17.319829 -0.5669369,41.953125 56.60183,22.84393 l 0,0 z M 567.8223,17.65814 c -4.60981,-16.5082976 -5.38689,12.71432 0,0 z m 5.732,-17.45382 c 60.28506,-25.752244 143.8665,-98.299813 66.97987,-156.48612 -42.98129,-59.09906 -137.5876,-77.79081 -186.3758,-16.50198 -44.61643,76.664805 47.18484,128.115353 101.01317,163.0845907 l 8.98192,5.2760122 9.40084,4.6274971 0,0 z m -696.33696,-24.7055 c 0.11849,-18.214079 -10.53714,12.189975 0,0 z m -2.19972,-26.09308 c 47.193404,-24.436685 164.303915,-89.03702 70.737221,-135.11299 -63.413211,-17.84862 -145.690791,8.90822 -182.237941,63.16635 -21.98504,68.675765 68.52442,66.847007 111.50072,71.94664 z m 420.25467,-46.64126 c 73.79281,-35.47035 4.76482,-128.68545 -49.85065,-145.37464 -60.77501,-25.10764 -156.958676,10.3679 -153.584164,85.38568 41.058874,58.607477 121.010244,85.435905 189.255854,75.616358 6.18822,-3.971907 10.07425,-9.687375 14.17896,-15.627398 z m -577.84372,7.74057 c 4.94382,-15.27903 -11.67267,6.794306 0,0 z m -4.5333,-28.37514 c 40.59337,-21.32886 153.41166,-76.05977 75.93513,-120.42402 -65.87894,-16.67593 -150.87173,15.15027 -173.5805,82.74434 19.5582,35.08986 65.23783,26.80432 97.64537,37.67968 z M 382.8,-144.12352 c 8.55683,-20.63908 -17.62064,8.95753 0,0 z m 11.73613,-22.75727 c 58.44269,-20.74799 139.85322,-98.58417 63.28272,-150.73254 -44.63747,-51.43001 -139.63655,-65.89958 -178.97462,-1.79477 -30.80426,74.72671 51.98154,120.58658 106.40383,149.77718 l 9.28807,2.75013 0,0 z M 32.94981,-181.36305 c 4.271064,-16.26368 -11.128848,7.95639 0,0 z m 73.38539,-69.98264 c 73.00272,-14.34348 42.46337,-117.2146 -10.810201,-138.7401 -59.579813,-35.24219 -156.851714,-17.61685 -178.068586,55.10463 9.88803,63.15145 79.7568927,114.07709 140.784038,114.85226 19.222846,-3.78488 36.766675,-15.25264 48.094749,-31.21679 z m 100.70069,-56.64489 c -0.46332,-16.34473 -8.50512,10.35686 0,0 z m 68.14055,-60.35063 c 68.03859,-13.33612 42.1194,-101.49763 -1.01226,-129.39207 -57.9011,-40.71953 -160.11179,-26.89606 -184.651651,46.38437 2.45141,68.18043 82.697381,116.69124 145.111021,111.99819 16.49637,-4.10503 31.68339,-14.3264 40.55289,-28.99049 z"
         id="path5629"
         inkscape:connector-curvature="0" />
      <path
         style="fill:#25b043"
         d="M 195.5,657.30468 C 52.868017,572.92646 -94.713679,497.01437 -234.83104,408.37614 c -60.68135,-63.61012 -57.21425,-158.00561 -92.20972,-234.35139 -27.06183,-94.260998 -58.14686,-187.744155 -94.92049,-278.3866 -2.48238,-77.0132 85.27397,-120.89583 143.553,-150.03362 55.96695,9.19344 142.75788,30.20472 139.91691,-55.48249 34.60175,-71.72643 122.112207,-83.38775 178.761228,-131.17267 58.397341,-33.2848 114.371892,-110.09495 189.545662,-79.65364 63.41522,33.30243 102.36333,99.21559 161.06554,140.22955 67.56347,56.07149 134.46531,113.27174 194.851,177.00815 43.73818,37.20094 111.88202,65.8163 116.55571,130.227208 -7.20415,67.8811237 -52.56643,123.170348 -79.18718,184.279372 -37.96999,71.43267 -56.90721,156.46667 -116.84902,213.85613 -50.92004,44.37002 -135.41602,67.51587 -146.55553,143.69773 -3.96157,82.97894 -60.52867,140.66448 -130.46787,175.40069 -9.94581,6.99107 -21.40138,12.49529 -33.7282,13.31012 z m -10.36078,-17.1419 C 183.64877,570.91851 165.75169,484.61969 93.585844,456.36072 30.999734,390.46732 -13.835996,532.37 55.007515,555.99967 c 32.033097,42.26666 81.519405,66.29815 130.131705,84.16311 z m 43.777,-5.1666 c 53.83242,-39.20583 128.80649,-82.91804 123.75401,-159.62962 8.93754,-74.04613 -90.12956,-107.16516 -128.22276,-43.11916 -56.22788,49.00626 -50.13967,142.80074 -8.67659,198.23379 3.27684,3.77177 8.8484,2.8951 13.14534,4.51499 z M 13.4433,542.85398 C 4.8804046,476.93431 -10.299796,395.4781 -78.812642,366.4615 c -57.035978,-62.03569 -99.868448,66.74962 -36.687118,89.79582 29.62552,44.28481 78.180599,73.0603 128.94306,86.59666 z m -150.41836,-87.5275 c -6.06837,-74.33749 -40.58251,-160.02561 -118.09678,-183.61571 -60.20575,27.15326 -14.44402,99.32177 19.05556,129.86972 27.03152,26.47122 61.23352,47.6303 99.04122,53.74599 z m 508.61645,-35.39476 c 67.09323,0.88036 21.95904,-124.54395 -17.8475,-47.21464 -15.31089,17.78583 -20.63172,78.59667 17.8475,47.21464 z m 12.06829,-77.23517 c 48.70058,-29.2004 82.84221,-81.36449 90.13334,-137.67618 -53.52744,43.65963 -131.95652,76.4691 -142.61968,153.27554 8.26557,35.44026 41.49191,-4.53144 52.48634,-15.59936 z m 86.49732,-2.19931 c 36.29891,-5.35454 107.11856,-91.57651 50.83261,-95.27109 -34.87761,19.3584 -101.42056,83.62514 -68.57024,108.35993 4.86361,-5.49968 10.32303,-11.19706 17.73763,-13.08884 z M -37.93426,358.0413 c -8.182033,-67.48971 -19.377476,-151.33923 -88.28953,-184.11447 -62.79063,-54.86432 -95.31552,75.46488 -36.60115,100.36604 28.85407,42.8011 76.268494,69.49952 124.89068,83.74843 z m -159.94337,-83.61227 c -13.88316,-68.94925 -22.7591,-155.3699 -95.41794,-188.434031 -80.35354,-25.178454 -51.5014,104.962011 -6.37804,131.397971 25.36316,30.54625 61.79075,53.17106 101.79598,57.03606 z M 429.52425,223.49495 C 472.94976,193.69147 535.01618,149.2808 513.64194,88.362404 452.10383,120.84417 393.6223,172.62096 378.38138,243.34451 c 13.99415,36.35149 33.96159,-16.20768 51.14287,-19.84956 z m 98.21115,5.22479 c 45.73652,-26.9355 96.38798,-73.6305 84.30593,-132.313675 -57.28175,36.990985 -116.99631,85.442655 -131.00108,155.920895 21.34812,19.42226 27.94634,-22.79821 46.69515,-23.60722 z M 114.86552,264.3523 c 3.17235,-15.28699 -11.4278,9.17933 0,0 z m 13.53526,-33.73644 C 180.55802,192.90675 255.81156,157.58652 258.299,83.884571 269.04006,18.81677 199.03478,-50.483726 138.10018,-3.7626596 82.860574,34.459554 61.209273,106.7467 85.367465,169.88401 c 7.886387,23.12757 14.105739,55.80819 43.033315,60.73185 z m -51.97221,2.88919 C 61.197595,166.32416 61.712963,81.045903 -4.5422974,40.853873 -46.053371,-34.756295 -153.19101,61.817309 -86.718127,114.07948 -62.086164,182.39301 8.4118962,221.1885 76.42857,233.50505 Z M -96.82874,156.42149 C -111.75557,91.801881 -115.95865,10.548269 -180.759,-25.849901 c -57.28826,-71.918098 -123.25701,58.230061 -53.99995,92.434756 28.56991,49.296025 81.49337,83.180685 137.93021,89.836635 z m 488.78306,-3.78997 c 3.03315,-16.02249 -10.77198,8.52204 0,0 z m 23.76753,-27.24203 C 459.16769,98.868233 538.30578,52.243055 502.01533,-7.8045639 462.15982,-59.702439 387.16793,-119.31934 322.6155,-69.874247 265.18617,-34.482056 269.93809,55.702379 335.50981,78.315674 358.53843,98.89751 381.99989,126.0201 415.72185,125.38949 Z M 54.42857,51.50505 c 5.034783,-14.693724 -12.509074,7.504914 0,0 z M 56.5,24.67698 C 95.881219,-7.5795291 217.1877,-44.604018 145.56494,-107.30642 86.444298,-144.63305 0.76599051,-129.32256 -49.081023,-83.176968 -114.50234,-13.631953 -0.23727848,33.066672 56.5,24.67698 Z m 511.3223,-7.01884 c -4.60981,-16.5082976 -5.38689,12.71432 0,0 z m 5.732,-17.45382 c 60.28506,-25.752244 143.8665,-98.299813 66.97987,-156.48612 -42.98129,-59.09906 -137.5876,-77.79081 -186.3758,-16.50198 -44.61643,76.664805 47.18484,128.115353 101.01317,163.0845907 l 8.98192,5.2760122 9.40084,4.6274971 0,0 z m -696.33696,-24.7055 c 0.11849,-18.214079 -10.53714,12.189975 0,0 z m -2.19972,-26.09308 c 47.193404,-24.436685 164.303915,-89.03702 70.737221,-135.11299 -63.413211,-17.84862 -145.690791,8.90822 -182.237941,63.16635 -21.98504,68.675765 68.52442,66.847007 111.50072,71.94664 z m 420.25467,-46.64126 c 73.79281,-35.47035 4.76482,-128.68545 -49.85065,-145.37464 -60.77501,-25.10764 -156.958676,10.3679 -153.584164,85.38568 41.058874,58.607477 121.010244,85.435905 189.255854,75.616358 6.18822,-3.971907 10.07425,-9.687375 14.17896,-15.627398 z m -577.84372,7.74057 c 4.94382,-15.27903 -11.67267,6.794306 0,0 z m -4.5333,-28.37514 c 40.59337,-21.32886 153.41166,-76.05977 75.93513,-120.42402 -65.87894,-16.67593 -150.87173,15.15027 -173.5805,82.74434 19.5582,35.08986 65.23783,26.80432 97.64537,37.67968 z M 382.8,-144.12352 c 8.55683,-20.63908 -17.62064,8.95753 0,0 z m 11.73613,-22.75727 c 58.44269,-20.74799 139.85322,-98.58417 63.28272,-150.73254 -44.63747,-51.43001 -139.63655,-65.89958 -178.97462,-1.79477 -30.80426,74.72671 51.98154,120.58658 106.40383,149.77718 l 9.28807,2.75013 0,0 z M 32.94981,-181.36305 c 4.271064,-16.26368 -11.128848,7.95639 0,0 z m 73.38539,-69.98264 c 73.00272,-14.34348 42.46337,-117.2146 -10.810201,-138.7401 -59.579813,-35.24219 -156.851714,-17.61685 -178.068586,55.10463 9.88803,63.15145 79.7568927,114.07709 140.784038,114.85226 19.222846,-3.78488 36.766675,-15.25264 48.094749,-31.21679 z m 100.70069,-56.64489 c -0.46332,-16.34473 -8.50512,10.35686 0,0 z m 68.14055,-60.35063 c 68.03859,-13.33612 42.1194,-101.49763 -1.01226,-129.39207 -57.9011,-40.71953 -160.11179,-26.89606 -184.651651,46.38437 2.45141,68.18043 82.697381,116.69124 145.111021,111.99819 16.49637,-4.10503 31.68339,-14.3264 40.55289,-28.99049 z"
         id="path5627"
         inkscape:connector-curvature="0" />
      <path
         style="fill:#5c5c5c"
         d="M 195.5,657.30468 C 52.868017,572.92646 -94.713679,497.01437 -234.83104,408.37614 c -60.68135,-63.61012 -57.21425,-158.00561 -92.20972,-234.35139 -27.06183,-94.260998 -58.14686,-187.744155 -94.92049,-278.3866 -2.48238,-77.0132 85.27397,-120.89583 143.553,-150.03362 55.96695,9.19344 142.75788,30.20472 139.91691,-55.48249 34.60175,-71.72643 122.112207,-83.38775 178.761228,-131.17267 58.397341,-33.2848 114.371892,-110.09495 189.545662,-79.65364 63.41522,33.30243 102.36333,99.21559 161.06554,140.22955 67.56347,56.07149 134.46531,113.27174 194.851,177.00815 43.73818,37.20094 111.88202,65.8163 116.55571,130.227208 -7.20415,67.8811237 -52.56643,123.170348 -79.18718,184.279372 -37.96999,71.43267 -56.90721,156.46667 -116.84902,213.85613 -50.92004,44.37002 -135.41602,67.51587 -146.55553,143.69773 -3.96157,82.97894 -60.52867,140.66448 -130.46787,175.40069 -9.94581,6.99107 -21.40138,12.49529 -33.7282,13.31012 z m -10.36078,-17.1419 C 183.64877,570.91851 165.75169,484.61969 93.585844,456.36072 30.999734,390.46732 -13.835996,532.37 55.007515,555.99967 c 32.033097,42.26666 81.519405,66.29815 130.131705,84.16311 z m 43.777,-5.1666 c 53.83242,-39.20583 128.80649,-82.91804 123.75401,-159.62962 8.93754,-74.04613 -90.12956,-107.16516 -128.22276,-43.11916 -56.22788,49.00626 -50.13967,142.80074 -8.67659,198.23379 3.27684,3.77177 8.8484,2.8951 13.14534,4.51499 z M 13.4433,542.85398 C 4.8804046,476.93431 -10.299796,395.4781 -78.812642,366.4615 c -57.035978,-62.03569 -99.868448,66.74962 -36.687118,89.79582 29.62552,44.28481 78.180599,73.0603 128.94306,86.59666 z m -150.41836,-87.5275 c -6.06837,-74.33749 -40.58251,-160.02561 -118.09678,-183.61571 -60.20575,27.15326 -14.44402,99.32177 19.05556,129.86972 27.03152,26.47122 61.23352,47.6303 99.04122,53.74599 z m 508.61645,-35.39476 c 67.09323,0.88036 21.95904,-124.54395 -17.8475,-47.21464 -15.31089,17.78583 -20.63172,78.59667 17.8475,47.21464 z M 179.31046,437.68358 C 238.64482,398.68411 317.83869,352.06337 307.12099,269.13929 306.12021,190.77046 204.94256,166.67662 167.73977,234.01364 119.70336,291.89395 124.4838,385.80538 179.31046,437.68358 Z m 204.39922,-94.98703 c 48.70058,-29.2004 82.84221,-81.36449 90.13334,-137.67618 -53.60597,43.52137 -131.76408,76.51387 -142.52647,153.2155 9.43711,34.51873 40.94109,-3.5637 52.39313,-15.53932 z m 86.49732,-2.19931 c 36.29889,-5.35453 107.11855,-91.57649 50.83264,-95.27106 -34.87791,19.35816 -101.42061,83.6258 -68.57027,108.35985 4.86329,-5.49995 10.3227,-11.19771 17.73763,-13.08879 z M -37.93426,358.0413 c -8.182033,-67.48971 -19.377476,-151.33923 -88.28953,-184.11447 -62.79063,-54.86432 -95.31552,75.46488 -36.60115,100.36604 28.85407,42.8011 76.268494,69.49952 124.89068,83.74843 z m -159.94337,-83.61227 c -13.88316,-68.94925 -22.7591,-155.3699 -95.41794,-188.434031 -80.35354,-25.178454 -51.5014,104.962011 -6.37804,131.397971 25.36316,30.54625 61.79075,53.17106 101.79598,57.03606 z M 429.52425,223.49495 C 472.94976,193.69147 535.01618,149.2808 513.64194,88.362404 452.10383,120.84417 393.6223,172.62096 378.38138,243.34451 c 13.99415,36.35149 33.96159,-16.20768 51.14287,-19.84956 z m 98.21115,5.22479 c 45.73652,-26.9355 96.38798,-73.6305 84.30593,-132.313675 -57.28175,36.990985 -116.99631,85.442655 -131.00108,155.920895 21.34812,19.42226 27.94634,-22.79821 46.69515,-23.60722 z M 114.86552,264.3523 c 3.17235,-15.28699 -11.4278,9.17933 0,0 z m 13.53526,-33.73644 C 180.55802,192.90675 255.81156,157.58652 258.299,83.884571 269.04006,18.81677 199.03478,-50.483726 138.10018,-3.7626596 82.860574,34.459554 61.209273,106.7467 85.367465,169.88401 c 7.886387,23.12757 14.105739,55.80819 43.033315,60.73185 z m -51.97221,2.88919 C 61.197595,166.32416 61.712963,81.045903 -4.5422974,40.853873 -46.053371,-34.756295 -153.19101,61.817309 -86.718127,114.07948 -62.086164,182.39301 8.4118962,221.1885 76.42857,233.50505 Z M -96.82874,156.42149 C -111.75557,91.801881 -115.95865,10.548269 -180.759,-25.849901 c -57.28826,-71.918098 -123.25701,58.230061 -53.99995,92.434756 28.56991,49.296025 81.49337,83.180685 137.93021,89.836635 z m 488.78306,-3.78997 c 3.03315,-16.02249 -10.77198,8.52204 0,0 z m 16.24731,-20.9768 C 450.71018,96.952836 552.37169,52.623361 495.56551,-13.502121 461.1014,-68.890283 381.90473,-113.1291 321.90438,-70.354215 c -46.38207,31.093007 -58.34149,117.604318 1.10582,141.253762 30.26668,16.413218 53.48148,45.392163 85.19143,60.755173 z M 54.42857,51.50505 c 5.034783,-14.693724 -12.509074,7.504914 0,0 z M 56.5,24.67698 C 95.881219,-7.5795291 217.1877,-44.604018 145.56494,-107.30642 86.444298,-144.63305 0.76599051,-129.32256 -49.081023,-83.176968 -114.50234,-13.631953 -0.23727848,33.066672 56.5,24.67698 Z m 511.3223,-7.01884 c -4.60981,-16.5082976 -5.38689,12.71432 0,0 z m 5.732,-17.45382 c 60.28506,-25.752244 143.8665,-98.299813 66.97987,-156.48612 -42.98129,-59.09906 -137.5876,-77.79081 -186.3758,-16.50198 -44.61643,76.664805 47.18484,128.115353 101.01317,163.0845907 l 8.98192,5.2760122 9.40084,4.6274971 0,0 z m -696.33696,-24.7055 c 0.11849,-18.214079 -10.53714,12.189975 0,0 z m -2.19972,-26.09308 c 47.193404,-24.436685 164.303915,-89.03702 70.737221,-135.11299 -63.413211,-17.84862 -145.690791,8.90822 -182.237941,63.16635 -21.98504,68.675765 68.52442,66.847007 111.50072,71.94664 z m 420.62489,-45.96718 c 68.59293,-28.44009 15.89763,-114.35046 -30.36633,-138.04276 -58.96853,-38.33842 -158.16727,-10.0173 -174.282183,61.65908 7.131625,60.89617 85.306763,69.06821 129.780493,94.962052 25.91349,7.330584 57.18764,3.830021 74.86802,-18.578372 z m -578.21394,7.06649 c 4.94382,-15.27903 -11.67267,6.794306 0,0 z m -4.5333,-28.37514 c 40.59337,-21.32886 153.41166,-76.05977 75.93513,-120.42402 -65.87894,-16.67593 -150.87173,15.15027 -173.5805,82.74434 19.5582,35.08986 65.23783,26.80432 97.64537,37.67968 z M 382.8,-144.12352 c 8.55683,-20.63908 -17.62064,8.95753 0,0 z m 16.35637,-24.81617 c 61.90901,-15.95892 132.0118,-103.88989 59.80074,-152.34199 -46.2428,-47.57709 -139.11539,-61.68573 -179.58456,0.0927 -43.03176,64.32873 36.49081,93.68721 70.82987,132.64188 12.89366,12.63905 30.30611,22.32221 48.95395,19.60744 z M 32.94981,-181.36305 c 4.271064,-16.26368 -11.128848,7.95639 0,0 z m 11.4016,-26.93394 c 54.42287,-25.59662 150.08694,-89.22817 77.70241,-151.24556 -46.422856,-57.62991 -132.863883,-61.04965 -186.666506,-13.96283 -37.907634,46.67316 2.780077,118.17973 55.0004594,132.75597 16.268884,13.3457 34.1259856,25.14155 53.9636366,32.45242 z m 162.68448,-99.69359 c -0.46332,-16.34473 -8.50512,10.35686 0,0 z m 68.14055,-60.35063 c 68.03859,-13.33612 42.1194,-101.49763 -1.01226,-129.39207 -57.91709,-40.73473 -160.15086,-26.87787 -184.676968,46.42689 3.132992,67.78637 83.129058,116.68678 145.314588,112.5441 16.55227,-4.219 31.75181,-14.6564 40.37464,-29.57892 z"
         id="path5625"
         inkscape:connector-curvature="0" />
      <path
         style="fill:#ba2524"
         d="m 198.5,657.17908 c -28.50674,-12.89844 -83.89874,-51.35788 -97.94603,-49.83443 51.21486,47.34219 117.99067,-31.79652 65.45701,-76.10619 -24.1548,-48.60684 -83.031928,-117.06349 -142.027102,-81.31896 3.964483,34.75494 40.040865,132.98931 -31.304572,95.49641 -20.193907,-20.1209 -87.17235,-43.87171 -26.322625,-16.09225 79.719748,-2.51522 31.645186,-106.89457 -5.907171,-137.22287 -27.204494,-46.57862 -129.23667,-66.3986 -94.43582,12.86922 12.8073,77.81582 -67.35217,43.35084 -94.83248,7.1907 -64.11119,-65.06846 -66.13439,-161.59719 -98.31837,-242.33812 -24.96455,-81.396226 -49.40634,-163.4187959 -85.08727,-240.68514 -33.46889,-82.33689 44.07829,-147.88026 115.43925,-168.97989 55.33835,-29.48716 148.03334,39.09247 161.62296,-51.83271 2.83014,-72.9845 74.346471,-84.33729 123.993689,-116.14597 55.020615,-30.32975 105.61722,-67.84109 154.306141,-107.15179 73.21736,-42.60834 136.60901,27.77062 180.43444,77.94555 82.02646,74.1047 171.40039,140.0102 248.21618,219.82465 45.70207,45.25557 125.57725,74.72117 130.97752,146.986313 -9.3179,66.6232634 -55.65872,120.388102 -80.12994,181.970247 -32.98541,64.91815 -58.78252,134.49957 -99.72684,194.77618 -50.92282,57.05879 -140.22753,77.21494 -168.42741,154.29824 10.36638,76.3479 -46.46404,146.83361 -116.25081,170.75867 -12.82004,9.07787 -24.07217,21.39333 -39.73075,25.59214 z m 31.13605,-22.0785 c 54.60957,-39.09686 129.1981,-84.25741 124.03651,-161.31785 7.51671,-76.16636 -92.07931,-104.4226 -130.86229,-41.62208 -56.62717,49.89138 -51.35418,158.87029 0.7546,204.21562 l 6.07118,-1.27569 z M 162.75,472.78728 c 10.88872,-36.04422 -29.47403,12.70851 0,0 z m -301.36464,-14.8405 c 1.93252,-81.36226 -46.05848,-169.88599 -128.26736,-192.1595 -51.96171,64.02042 24.20922,139.04654 78.77674,170.64616 15.64475,8.95461 32.30701,16.09052 49.49062,21.51334 z M 372.5,420.39339 c 68.74894,-0.32942 22.05928,-127.93864 -18.59158,-47.74655 -17.37935,19.87201 -25.46777,90.31717 18.59158,47.74655 z m -193.18954,17.29019 c 59.33429,-38.99949 138.52808,-85.62 127.81054,-168.54405 -1.00064,-78.36756 -102.17535,-102.46098 -139.38077,-35.12858 -48.03104,57.92624 -43.28121,151.75023 11.57023,203.67263 z M -9.94412,393.23231 c 15.1114665,-32.94175 -31.086357,8.48383 0,0 z m 392.17499,-48.21906 c 41.2888,-18.35023 108.19954,-103.61458 69.39979,-123.10341 -46.28661,30.30097 -108.56995,62.11007 -112.76776,124.18597 -2.83579,42.16943 29.13993,19.11317 43.36797,-1.08256 z m 87.97613,-4.51601 c 36.29891,-5.35454 107.11856,-91.57651 50.83261,-95.27109 -34.87761,19.3584 -101.42056,83.62514 -68.57024,108.35993 4.86361,-5.49968 10.32303,-11.19706 17.73763,-13.08884 z M -37.93426,358.0413 c -8.182033,-67.48971 -19.377476,-151.33923 -88.28953,-184.11447 -62.79063,-54.86432 -95.31552,75.46488 -36.60115,100.36604 28.85407,42.8011 76.268494,69.49952 124.89068,83.74843 z M -163.4726,308.0462 c 2.19655,-17.00839 -11.38159,9.96611 0,0 z m -33.98185,-33.65813 c -12.79663,-70.16426 -24.53343,-158.72026 -98.12788,-191.447179 -85.32946,-14.047763 -41.86825,113.715549 1.55843,141.799949 24.92965,27.18548 59.3416,46.90912 96.56945,49.64723 z M 118.478,269.82648 c 18.18581,-41.72703 -36.389583,12.54662 0,0 z M 429.52425,225.49621 C 472.08796,202.43936 552.2758,123.73589 509.75694,86.890502 448.43556,122.37178 390.37356,175.86377 375.19137,247.84286 c 12.95889,37.2751 37.25533,-20.54583 54.33288,-22.34665 z m 99.21396,4.47567 C 572.25804,202.63137 630.56619,156.27987 607.97776,97.931003 548.96574,134.4452 488.11487,186.59615 480.03413,259.97161 c 22.43149,3.53842 30.29177,-23.68729 48.70408,-29.99973 z m -168.23709,22.53696 c 32.92149,-14.61985 1.00482,-59.54591 -2.63433,-13.91144 -3.5293,0.32245 -7.70453,20.3288 2.63433,13.91144 z M 76.13281,236.07648 C 66.622956,164.29152 60.674139,74.846014 -10.245488,35.27109 -57.243933,-35.878623 -149.62389,60.689169 -89.742157,112.36368 -70.623244,187.04205 7.4740264,221.50295 76.13281,236.07648 Z m 52.26797,-5.46062 C 180.55802,192.90675 255.81156,157.58652 258.299,83.884571 269.04006,18.81677 199.03478,-50.483726 138.10018,-3.7626596 82.860574,34.459554 61.209273,106.7467 85.367465,169.88401 c 7.886387,23.12757 14.105739,55.80819 43.033315,60.73185 z m 266.64519,-73.28938 c 18.62137,-41.13713 -35.29931,12.09288 0,0 z m -491.6174,-0.82143 C -111.03605,91.231928 -116.3702,9.3042906 -181.91278,-26.845096 c -59.56435,-70.635425 -121.80515,62.084871 -52.13939,94.951929 28.90069,48.508607 81.16802,82.668997 137.48074,88.398217 z M 408.20163,131.65472 C 450.71018,96.952836 552.37169,52.623361 495.56551,-13.502121 461.1014,-68.890283 381.90473,-113.1291 321.90438,-70.354215 c -46.38207,31.093007 -58.34149,117.604318 1.10582,141.253762 30.26668,16.413218 53.48148,45.392163 85.19143,60.755173 z M -219.63486,120.0039 c 15.5062,-37.916668 -33.90115,11.27671 0,0 z m 562.3735,-11.20355 c -15.95926,-39.888269 -39.30345,-5.54069 0,0 z M 55.31574,57.95944 c 29.937064,-33.90546 -39.316716,2.872772 0,0 z M 51.20078,26.94522 C 93.432063,-4.8598 222.48257,-46.37402 141.65617,-109.65345 76.634908,-153.60181 -5.5580184,-120.51317 -59.806017,-76.830379 -97.995187,3.4506188 -5.6129337,22.367984 51.20078,26.94522 Z M 568.9088,25.62364 c 22.99869,-37.609768 -35.75003,8.38438 0,0 z M -30.44113,13.54468 c 1.47479,-22.020007 -10.975649,5.946648 0,0 z M 576.3261,-0.11556 c 45.07331,-24.250117 120.34467,-70.019866 88.47425,-130.06032 -42.24581,-51.25288 -113.53545,-113.19705 -182.27223,-68.23141 -70.037,38.28176 -34.34903,133.223778 26.97268,160.635408 21.99587,13.047899 40.71365,32.308177 66.8253,37.656322 z m -697.67919,-17.7343 c 25.950296,-36.918318 -39.36383,5.29498 0,0 z M 510.59513,-29.1257 c -11.3223,-34.666423 -49.23694,-18.330453 0,0 z M -127.7164,-48.54325 c 36.37349,-32.095951 142.112038,-56.22148 98.911979,-121.20193 -54.779752,-43.75808 -135.423579,-18.30579 -186.207449,20.51722 -68.6035,37.72657 9.70659,110.298808 64.45527,100.304447 7.62228,1.158167 15.25209,-0.873148 22.8402,0.380263 z m 423.35891,-48.01819 c 68.59293,-28.44009 15.89763,-114.35046 -30.36633,-138.04276 -58.96853,-38.33842 -158.16727,-10.0173 -174.282183,61.65908 7.131625,60.89617 85.306763,69.06821 129.780493,94.962052 25.91349,7.330584 57.18764,3.830021 74.86802,-18.578372 z m -574.76981,11.54189 c 17.81314,-39.37434 -35.51123,13.787376 0,0 z m -7.97743,-32.85054 c 40.59893,-21.31937 153.4223,-76.08424 75.91953,-120.42285 -65.93846,-16.71686 -150.68224,15.24547 -173.70211,82.66759 19.62412,35.06258 65.31175,26.92839 97.78258,37.75526 z M 387.25,-140.93681 c 9.73256,-43.3812 -32.38533,18.1727 0,0 z m 11.90637,-28.00288 c 61.90901,-15.95892 132.0118,-103.88989 59.80074,-152.34199 -46.2428,-47.57709 -139.11539,-61.68573 -179.58456,0.0927 -43.03176,64.32873 36.49081,93.68722 70.82987,132.64188 12.8682,12.62967 30.34311,22.33181 48.95395,19.60744 z m -49.2787,-1.50464 c -13.54003,-15.75127 -78.51312,-83.18476 -69.49427,-51.29258 20.40538,20.40494 43.0661,39.21678 69.49427,51.29258 z m -316.47624,-4.87356 c 31.285892,-30.20217 -37.4021711,0.91698 0,0 z m 10.94998,-32.9791 c 54.42287,-25.59662 150.08694,-89.22817 77.70241,-151.24556 -46.422856,-57.62991 -132.863883,-61.04965 -186.666506,-13.96283 -37.907634,46.67316 2.780077,118.17973 55.0004594,132.75597 16.268884,13.3457 34.1259856,25.14155 53.9636366,32.45242 z m -85.38277,-38.16432 c 3.715756,-15.22916 -11.830831,1.78893 0,0 z m 249.05138,-54.97256 c 24.76151,-36.49194 -36.54212,5.95884 0,0 z m 65.90731,-65.44122 c 74.974,-11.75571 43.45994,-116.91047 -11.02219,-136.6844 -57.66625,-32.17422 -149.20951,-16.0969 -175.182994,49.21409 -4.732467,61.2901 65.242774,94.96463 112.966964,115.73638 27.1592,6.38763 58.75168,-3.28158 73.23822,-28.26607 z"
         id="path5623"
         inkscape:connector-curvature="0" />
      <path
         style="fill:#1f9438"
         d="m 198.5,657.17908 c -28.50674,-12.89844 -83.89874,-51.35788 -97.94603,-49.83443 51.21486,47.34219 117.99067,-31.79652 65.45701,-76.10619 -24.1548,-48.60684 -83.031928,-117.06349 -142.027102,-81.31896 3.964483,34.75494 40.040865,132.98931 -31.304572,95.49641 -20.193907,-20.1209 -87.17235,-43.87171 -26.322625,-16.09225 79.719748,-2.51522 31.645186,-106.89457 -5.907171,-137.22287 -27.204494,-46.57862 -129.23667,-66.3986 -94.43582,12.86922 12.8073,77.81582 -67.35217,43.35084 -94.83248,7.1907 -64.11119,-65.06846 -66.13439,-161.59719 -98.31837,-242.33812 -24.96455,-81.396226 -49.40634,-163.4187959 -85.08727,-240.68514 -33.46889,-82.33689 44.07829,-147.88026 115.43925,-168.97989 55.33835,-29.48716 148.03334,39.09247 161.62296,-51.83271 2.83014,-72.9845 74.346471,-84.33729 123.993689,-116.14597 55.020615,-30.32975 105.61722,-67.84109 154.306141,-107.15179 73.21736,-42.60834 136.60901,27.77062 180.43444,77.94555 82.02646,74.1047 171.40039,140.0102 248.21618,219.82465 45.70207,45.25557 125.57725,74.72117 130.97752,146.986313 -9.3179,66.6232634 -55.65872,120.388102 -80.12994,181.970247 -32.98541,64.91815 -58.78252,134.49957 -99.72684,194.77618 -50.92282,57.05879 -140.22753,77.21494 -168.42741,154.29824 10.36638,76.3479 -46.46404,146.83361 -116.25081,170.75867 -12.82004,9.07787 -24.07217,21.39333 -39.73075,25.59214 z m 31.13605,-22.0785 c 54.60957,-39.09686 129.1981,-84.25741 124.03651,-161.31785 7.51671,-76.16636 -92.07931,-104.4226 -130.86229,-41.62208 -56.62717,49.89138 -51.35418,158.87029 0.7546,204.21562 l 6.07118,-1.27569 z M 162.75,472.78728 c 10.88872,-36.04422 -29.47403,12.70851 0,0 z m -301.36464,-14.8405 c 1.93252,-81.36226 -46.05848,-169.88599 -128.26736,-192.1595 -51.96171,64.02042 24.20922,139.04654 78.77674,170.64616 15.64475,8.95461 32.30701,16.09052 49.49062,21.51334 z m 280.39791,-12.9746 C 126.90163,381.0392 126.62304,298.81518 61.914184,262.24104 14.688946,185.55604 -82.650279,292.41753 -14.448034,342.51018 14.233645,401.65 77.939179,437.92621 141.78327,444.97218 Z M 372.5,420.39339 c 68.74894,-0.32942 22.05928,-127.93864 -18.59158,-47.74655 -17.37935,19.87201 -25.46777,90.31717 18.59158,47.74655 z m -193.18954,17.29019 c 59.33429,-38.99949 138.52808,-85.62 127.81054,-168.54405 -1.00064,-78.36756 -102.17535,-102.46098 -139.38077,-35.12858 -48.03104,57.92624 -43.28121,151.75023 11.57023,203.67263 z M -9.94412,393.23231 c 15.1114665,-32.94175 -31.086357,8.48383 0,0 z m 392.17499,-48.21906 c 41.2888,-18.35023 108.19954,-103.61458 69.39979,-123.10341 -46.28661,30.30097 -108.56995,62.11007 -112.76776,124.18597 -2.83579,42.16943 29.13993,19.11317 43.36797,-1.08256 z m 87.78369,-1.42731 c 44.8721,-24.89731 87.79754,-68.60492 86.49812,-123.34117 -60.87374,33.23757 -117.74018,84.17021 -136.35104,153.29835 21.95211,1.50454 31.92805,-22.15342 49.85292,-29.95718 z m -505.887,14.8353 c -9.882159,-67.32011 -18.889937,-152.49447 -88.92444,-184.75875 -62.35815,-59.45818 -103.16853,72.45789 -40.46263,98.78369 28.62102,45.10021 77.296115,75.8523 129.38707,85.97506 z M -163.4726,308.0462 c 2.19655,-17.00839 -11.38159,9.96611 0,0 z m -33.98185,-33.65813 c -12.79663,-70.16426 -24.53343,-158.72026 -98.12788,-191.447179 -85.32946,-14.047763 -41.86825,113.715549 1.55843,141.799949 24.92965,27.18548 59.3416,46.90912 96.56945,49.64723 z M 118.478,269.82648 c 18.18581,-41.72703 -36.389583,12.54662 0,0 z M 429.52425,225.49621 C 472.08796,202.43936 552.2758,123.73589 509.75694,86.890502 448.43556,122.37178 390.37356,175.86377 375.19137,247.84286 c 12.95889,37.2751 37.25533,-20.54583 54.33288,-22.34665 z m 99.21396,4.47567 C 572.25804,202.63137 630.56619,156.27987 607.97776,97.931003 548.96574,134.4452 488.11487,186.59615 480.03413,259.97161 c 22.43149,3.53842 30.29177,-23.68729 48.70408,-29.99973 z m -168.23709,22.53696 c 32.92149,-14.61985 1.00482,-59.54591 -2.63433,-13.91144 -3.5293,0.32245 -7.70453,20.3288 2.63433,13.91144 z M 122.5,236.64316 C 172.13136,196.05247 251.57382,169.31941 258.27129,95.879706 272.32136,32.576507 211.18436,-53.813888 144.30845,-8.4015697 98.039002,22.571721 63.042469,75.122478 74.337804,133.20918 80.768248,170.20027 93.98391,211.10908 122.5,236.64316 Z M 76.13281,236.07648 C 66.622956,164.29152 60.674139,74.846014 -10.245488,35.27109 -57.243933,-35.878623 -149.62389,60.689169 -89.742157,112.36368 -70.623244,187.04205 7.4740264,221.50295 76.13281,236.07648 Z m 318.91316,-78.75 c 18.62137,-41.13713 -35.29931,12.09288 0,0 z m -491.6174,-0.82143 C -111.03605,91.231928 -116.3702,9.3042906 -181.91278,-26.845096 c -59.56435,-70.635425 -121.80515,62.084871 -52.13939,94.951929 28.90069,48.508607 81.16802,82.668997 137.48074,88.398217 z M 408.20163,131.65472 C 450.71018,96.952836 552.37169,52.623361 495.56551,-13.502121 461.1014,-68.890283 381.90473,-113.1291 321.90438,-70.354215 c -46.38207,31.093007 -58.34149,117.604318 1.10582,141.253762 30.26668,16.413218 53.48148,45.392163 85.19143,60.755173 z M -219.63486,120.0039 c 15.5062,-37.916668 -33.90115,11.27671 0,0 z m 562.3735,-11.20355 c -15.95926,-39.888269 -39.30345,-5.54069 0,0 z M 55.31574,57.95944 c 29.937064,-33.90546 -39.316716,2.872772 0,0 z M 51.20078,26.94522 C 93.432063,-4.8598 222.48257,-46.37402 141.65617,-109.65345 76.634908,-153.60181 -5.5580184,-120.51317 -59.806017,-76.830379 -97.995187,3.4506188 -5.6129337,22.367984 51.20078,26.94522 Z M 568.9088,25.62364 c 22.99869,-37.609768 -35.75003,8.38438 0,0 z M -30.44113,13.54468 c 1.47479,-22.020007 -10.975649,5.946648 0,0 z M 576.3261,-0.11556 c 45.07331,-24.250117 120.34467,-70.019866 88.47425,-130.06032 -42.24581,-51.25288 -113.53545,-113.19705 -182.27223,-68.23141 -70.037,38.28176 -34.34903,133.223778 26.97268,160.635408 21.99587,13.047899 40.71365,32.308177 66.8253,37.656322 z m -697.67919,-17.7343 c 25.950296,-36.918318 -39.36383,5.29498 0,0 z M 510.59513,-29.1257 c -11.3223,-34.666423 -49.23694,-18.330453 0,0 z M -127.7164,-48.54325 c 36.37349,-32.095951 142.112038,-56.22148 98.911979,-121.20193 -54.779752,-43.75808 -135.423579,-18.30579 -186.207449,20.51722 -68.6035,37.72657 9.70659,110.298808 64.45527,100.304447 7.62228,1.158167 15.25209,-0.873148 22.8402,0.380263 z m 423.35891,-48.01819 c 68.59293,-28.44009 15.89763,-114.35046 -30.36633,-138.04276 -58.96853,-38.33842 -158.16727,-10.0173 -174.282183,61.65908 7.131625,60.89617 85.306763,69.06821 129.780493,94.962052 25.91349,7.330584 57.18764,3.830021 74.86802,-18.578372 z m -574.76981,11.54189 c 17.81314,-39.37434 -35.51123,13.787376 0,0 z m -9.34336,-30.35178 c 39.89079,-24.62394 158.02326,-73.04911 80.90976,-122.89068 -65.30967,-23.23967 -137.44369,14.97273 -177.9207,66.2295 -10.31621,54.84157 65.51888,42.07629 97.01094,56.66118 z M 387.25,-140.93681 c 9.73256,-43.3812 -32.38533,18.1727 0,0 z m 11.90637,-28.00288 c 61.90901,-15.95892 132.0118,-103.88989 59.80074,-152.34199 -46.2428,-47.57709 -139.11539,-61.68573 -179.58456,0.0927 -43.03176,64.32873 36.49081,93.68722 70.82987,132.64188 12.8682,12.62967 30.34311,22.33181 48.95395,19.60744 z m -49.2787,-1.50464 c -13.54003,-15.75127 -78.51312,-83.18476 -69.49427,-51.29258 20.40538,20.40494 43.0661,39.21678 69.49427,51.29258 z m -316.47624,-4.87356 c 31.285892,-30.20217 -37.4021711,0.91698 0,0 z m 10.94998,-32.9791 c 54.42287,-25.59662 150.08694,-89.22817 77.70241,-151.24556 -46.422856,-57.62991 -132.863883,-61.04965 -186.666506,-13.96283 -37.907634,46.67316 2.780077,118.17973 55.0004594,132.75597 16.268884,13.3457 34.1259856,25.14155 53.9636366,32.45242 z m -85.38277,-38.16432 c 3.715756,-15.22916 -11.830831,1.78893 0,0 z m 249.05138,-54.97256 c 24.76151,-36.49194 -36.54212,5.95884 0,0 z m 65.90731,-65.44122 c 74.974,-11.75571 43.45994,-116.91047 -11.02219,-136.6844 -57.66625,-32.17422 -149.20951,-16.0969 -175.182994,49.21409 -4.732467,61.2901 65.242774,94.96463 112.966964,115.73638 27.1592,6.38763 58.75168,-3.28158 73.23822,-28.26607 z"
         id="path5621"
         inkscape:connector-curvature="0" />
      <path
         style="fill:#050504"
         d="m 198.5,657.17908 c -28.50674,-12.89844 -83.89874,-51.35788 -97.94603,-49.83443 51.21486,47.34219 117.99067,-31.79652 65.45701,-76.10619 -24.1548,-48.60684 -83.031928,-117.06349 -142.027102,-81.31896 3.964483,34.75494 40.040865,132.98931 -31.304572,95.49641 -20.193907,-20.1209 -87.17235,-43.87171 -26.322625,-16.09225 79.719748,-2.51522 31.645186,-106.89457 -5.907171,-137.22287 -27.204494,-46.57862 -129.23667,-66.3986 -94.43582,12.86922 12.8073,77.81582 -67.35217,43.35084 -94.83248,7.1907 -64.11119,-65.06846 -66.13439,-161.59719 -98.31837,-242.33812 -24.96455,-81.396226 -49.40634,-163.4187959 -85.08727,-240.68514 -33.46889,-82.33689 44.07829,-147.88026 115.43925,-168.97989 55.33835,-29.48716 148.03334,39.09247 161.62296,-51.83271 2.83014,-72.9845 74.346471,-84.33729 123.993689,-116.14597 55.020615,-30.32975 105.61722,-67.84109 154.306141,-107.15179 73.21736,-42.60834 136.60901,27.77062 180.43444,77.94555 82.02646,74.1047 171.40039,140.0102 248.21618,219.82465 45.70207,45.25557 125.57725,74.72117 130.97752,146.986313 -9.3179,66.6232634 -55.65872,120.388102 -80.12994,181.970247 -32.98541,64.91815 -58.78252,134.49957 -99.72684,194.77618 -50.92282,57.05879 -140.22753,77.21494 -168.42741,154.29824 10.36638,76.3479 -46.46404,146.83361 -116.25081,170.75867 -12.82004,9.07787 -24.07217,21.39333 -39.73075,25.59214 z m 31.13605,-22.0785 c 54.60957,-39.09686 129.1981,-84.25741 124.03651,-161.31785 7.51671,-76.16636 -92.07931,-104.4226 -130.86229,-41.62208 -56.62717,49.89138 -51.35418,158.87029 0.7546,204.21562 l 6.07118,-1.27569 z M 162.75,472.78728 c 10.88872,-36.04422 -29.47403,12.70851 0,0 z m -301.36464,-14.8405 c 1.93252,-81.36226 -46.05848,-169.88599 -128.26736,-192.1595 -51.96171,64.02042 24.20922,139.04654 78.77674,170.64616 15.64475,8.95461 32.30701,16.09052 49.49062,21.51334 z m 280.39791,-12.9746 c -14.88164,-63.93298 -15.16023,-146.157 -79.869086,-182.73114 -47.225238,-76.685 -144.564463,30.17649 -76.362218,80.26914 28.681679,59.13982 92.387213,95.41603 156.231304,102.462 z m 41.70356,-6.64 c 56.066,-38.25081 131.88849,-83.06553 127.11846,-161.14449 10.30641,-74.98028 -97.26201,-118.96163 -137.53868,-51.78317 -57.58211,53.98776 -54.91919,160.71051 5.53884,210.51878 l 2.94546,1.45354 1.93592,0.95534 0,0 z M 372.5,420.39339 c 68.74894,-0.32942 22.05928,-127.93864 -18.59158,-47.74655 -17.37935,19.87201 -25.46777,90.31717 18.59158,47.74655 z M -9.94412,393.23231 c 15.1114665,-32.94175 -31.086357,8.48383 0,0 z m 392.17499,-48.21906 c 41.2888,-18.35023 108.19954,-103.61458 69.39979,-123.10341 -46.28661,30.30097 -108.56995,62.11007 -112.76776,124.18597 -2.83579,42.16943 29.13993,19.11317 43.36797,-1.08256 z m 87.78369,-1.42731 c 44.8721,-24.89731 87.79754,-68.60492 86.49812,-123.34117 -60.87374,33.23757 -117.74018,84.17021 -136.35104,153.29835 21.95211,1.50454 31.92805,-22.15342 49.85292,-29.95718 z m -505.887,14.8353 c -9.882159,-67.32011 -18.889937,-152.49447 -88.92444,-184.75875 -62.35815,-59.45818 -103.16853,72.45789 -40.46263,98.78369 28.62102,45.10021 77.296115,75.8523 129.38707,85.97506 z M -163.4726,308.0462 c 2.19655,-17.00839 -11.38159,9.96611 0,0 z m -33.98185,-33.65813 c -12.79663,-70.16426 -24.53343,-158.72026 -98.12788,-191.447179 -85.32946,-14.047763 -41.86825,113.715549 1.55843,141.799949 24.92965,27.18548 59.3416,46.90912 96.56945,49.64723 z M 118.478,269.82648 c 18.18581,-41.72703 -36.389583,12.54662 0,0 z M 429.52425,225.49621 C 472.08796,202.43936 552.2758,123.73589 509.75694,86.890502 448.43556,122.37178 390.37356,175.86377 375.19137,247.84286 c 12.95889,37.2751 37.25533,-20.54583 54.33288,-22.34665 z m 99.21396,4.47567 C 572.25804,202.63137 630.56619,156.27987 607.97776,97.931003 548.96574,134.4452 488.11487,186.59615 480.03413,259.97161 c 22.43149,3.53842 30.29177,-23.68729 48.70408,-29.99973 z m -168.23709,22.53696 c 32.92149,-14.61985 1.00482,-59.54591 -2.63433,-13.91144 -3.5293,0.32245 -7.70453,20.3288 2.63433,13.91144 z M 122.5,236.64316 C 172.13136,196.05247 251.57382,169.31941 258.27129,95.879706 272.32136,32.576507 211.18436,-53.813888 144.30845,-8.4015697 98.039002,22.571721 63.042469,75.122478 74.337804,133.20918 80.768248,170.20027 93.98391,211.10908 122.5,236.64316 Z M 76.13281,236.07648 C 66.622956,164.29152 60.674139,74.846014 -10.245488,35.27109 -57.243933,-35.878623 -149.62389,60.689169 -89.742157,112.36368 -70.623244,187.04205 7.4740264,221.50295 76.13281,236.07648 Z m 318.91316,-78.75 c 18.62137,-41.13713 -35.29931,12.09288 0,0 z m -491.6174,-0.82143 C -111.03605,91.231928 -116.3702,9.3042906 -181.91278,-26.845096 c -59.56435,-70.635425 -121.80515,62.084871 -52.13939,94.951929 28.90069,48.508607 81.16802,82.668997 137.48074,88.398217 z M 587,103.97348 C 632.74363,73.750099 690.62809,24.689518 670.72362,-36.986023 616.83418,-7.597081 530.01056,63.686187 558.58932,125.56142 571.27883,124.71073 579.51923,112.68767 587,103.97348 Z M 407.03188,133.72541 C 448.39594,97.818799 553.09799,57.72472 498.66639,-10.031422 465.47738,-64.791392 389.02338,-116.89253 327.2845,-75.277478 280.30229,-47.849489 255.93997,31.73185 310.09368,64.522525 c 37.39091,15.450855 61.36395,50.846735 96.9382,69.202885 z M -219.63486,120.0039 c 15.5062,-37.916668 -33.90115,11.27671 0,0 z m 562.3735,-11.20355 c -15.95926,-39.888269 -39.30345,-5.54069 0,0 z M -258.9198,72.92662 c -12.38416,-69.6317514 -29.3847,-156.949891 -105.22003,-183.54236 -81.6596,-3.78599 -36.9169,114.6855056 8.80352,141.387628 25.48508,25.142542 60.14975,42.305392 96.41651,42.154732 z M 55.31574,57.95944 c 29.937064,-33.90546 -39.316716,2.872772 0,0 z M 51.20078,26.94522 C 93.432063,-4.8598 222.48257,-46.37402 141.65617,-109.65345 76.634908,-153.60181 -5.5580184,-120.51317 -59.806017,-76.830379 -97.995187,3.4506188 -5.6129337,22.367984 51.20078,26.94522 Z M 568.9088,25.62364 c 22.99869,-37.609768 -35.75003,8.38438 0,0 z M -30.44113,13.54468 c 1.47479,-22.020007 -10.975649,5.946648 0,0 z M 576.3261,-0.11556 c 45.07331,-24.250117 120.34467,-70.019866 88.47425,-130.06032 -42.24581,-51.25288 -113.53545,-113.19705 -182.27223,-68.23141 -70.037,38.28176 -34.34903,133.223778 26.97268,160.635408 21.99587,13.047899 40.71365,32.308177 66.8253,37.656322 z m -697.67919,-17.7343 c 25.950296,-36.918318 -39.36383,5.29498 0,0 z M 510.59513,-29.1257 c -11.3223,-34.666423 -49.23694,-18.330453 0,0 z M -127.7164,-48.54325 c 36.37349,-32.095951 142.112038,-56.22148 98.911979,-121.20193 -54.779752,-43.75808 -135.423579,-18.30579 -186.207449,20.51722 -68.6035,37.72657 9.70659,110.298808 64.45527,100.304447 7.62228,1.158167 15.25209,-0.873148 22.8402,0.380263 z m 423.1618,-45.98286 c 72.71342,-27.49493 17.67668,-118.8795 -31.19678,-142.02023 -57.743,-35.22587 -150.04261,-12.48703 -173.49505,53.69692 -4.205542,83.997918 108.9156,92.599803 168.81059,110.998407 14.80705,-1.052336 28.18573,-10.187074 35.88124,-22.675097 z m -574.5727,9.50656 c 17.81314,-39.37434 -35.51123,13.787376 0,0 z m -9.34336,-30.35178 c 39.89079,-24.62394 158.02326,-73.04911 80.90976,-122.89068 -65.30967,-23.23967 -137.44369,14.97273 -177.9207,66.2295 -10.31621,54.84157 65.51888,42.07629 97.01094,56.66118 z M 387.25,-140.93681 c 9.73256,-43.3812 -32.38533,18.1727 0,0 z m 7.57246,-23.48194 c 50.1787,-20.65345 137.53388,-85.02826 75.92838,-140.07157 -36.06279,-52.67311 -112.80549,-83.92186 -168.73613,-42.3685 -70.08933,47.83358 -13.1798,134.63892 47.71211,158.22556 13.99954,9.76343 28.63408,19.18075 45.09564,24.21451 z m -44.94479,-6.02558 c -13.54003,-15.75127 -78.51312,-83.18476 -69.49427,-51.29258 20.40538,20.40494 43.0661,39.21678 69.49427,51.29258 z m -316.47624,-4.87356 c 31.285892,-30.20217 -37.4021711,0.91698 0,0 z m 8.90575,-30.6675 c 49.556319,-27.13596 148.55304,-78.20583 89.43366,-144.29528 -43.05052,-62.53005 -143.948732,-82.85053 -197.022006,-21.95302 -53.987234,53.3633 19.753236,106.67224 60.6020474,137.13783 14.8688156,10.90835 30.5161026,20.79525 46.9862986,29.11047 z m -83.33854,-40.47592 c 3.715756,-15.22916 -11.830831,1.78893 0,0 z m 249.05138,-54.97256 c 24.76151,-36.49194 -36.54212,5.95884 0,0 z m 65.90731,-65.44122 c 74.974,-11.75571 43.45994,-116.91047 -11.02219,-136.6844 -57.66625,-32.17422 -149.20951,-16.0969 -175.182994,49.21409 -4.732467,61.2901 65.242774,94.96463 112.966964,115.73638 27.1592,6.38763 58.75168,-3.28158 73.23822,-28.26607 z"
         id="path5619"
         inkscape:connector-curvature="0" />
    </g>
  </g>
</svg>
