<?xml version="1.0" encoding="UTF-8" standalone="no"?>
<!-- Created with Inkscape (http://www.inkscape.org/) -->

<svg
   xmlns:dc="http://purl.org/dc/elements/1.1/"
   xmlns:cc="http://creativecommons.org/ns#"
   xmlns:rdf="http://www.w3.org/1999/02/22-rdf-syntax-ns#"
   xmlns:svg="http://www.w3.org/2000/svg"
   xmlns="http://www.w3.org/2000/svg"
   xmlns:sodipodi="http://sodipodi.sourceforge.net/DTD/sodipodi-0.dtd"
   xmlns:inkscape="http://www.inkscape.org/namespaces/inkscape"
   width="581.03833mm"
   height="184.73692mm"
   viewBox="0 0 2058.7972 654.57965"
   id="svg4371"
   version="1.1"
   inkscape:version="0.91 r13725"
   sodipodi:docname="totorobrokenup.svg">
  <defs
     id="defs4373" />
  <sodipodi:namedview
     id="base"
     pagecolor="#ffffff"
     bordercolor="#666666"
     borderopacity="1.0"
     inkscape:pageopacity="0.0"
     inkscape:pageshadow="2"
     inkscape:zoom="0.35"
     inkscape:cx="1601.5955"
     inkscape:cy="197.55566"
     inkscape:document-units="px"
     inkscape:current-layer="layer1"
     showgrid="false"
     inkscape:window-width="1920"
     inkscape:window-height="1005"
     inkscape:window-x="0"
     inkscape:window-y="0"
     inkscape:window-maximized="1"
     fit-margin-top="0"
     fit-margin-left="0"
     fit-margin-right="0"
     fit-margin-bottom="0" />
  <metadata
     id="metadata4376">
    <rdf:RDF>
      <cc:Work
         rdf:about="">
        <dc:format>image/svg+xml</dc:format>
        <dc:type
           rdf:resource="http://purl.org/dc/dcmitype/StillImage" />
        <dc:title></dc:title>
      </cc:Work>
    </rdf:RDF>
  </metadata>
  <g
     inkscape:label="Layer 1"
     inkscape:groupmode="layer"
     id="layer1"
     transform="translate(1169.6024,-201.99276)">
    <path
       inkscape:connector-curvature="0"
       id="path4452"
       d="m -1035.8905,856.19909 c -9.8593,-2.44019 -23.625,-11.74688 -30.6629,-20.73063 -2.9485,-3.76359 -5.7173,-6.84289 -6.1531,-6.84289 -0.4357,0 -1.3057,-1.22883 -1.9332,-2.73074 -1.7468,-4.18071 -16.9189,-18.30964 -19.6615,-18.30964 -2.3514,0 -3.7981,-2.08613 -5.8923,-8.49708 -2.3055,-7.05777 -3.0484,-8.49708 -4.3859,-8.49708 -2.2115,0 -3.7234,-3.1872 -6.7188,-14.16438 -1.7956,-6.58056 -3.5143,-11.36924 -4.1015,-11.42801 -0.5559,-0.0557 -1.3354,-0.14667 -1.7321,-0.20231 -1.4334,-0.201 -3.3249,-6.71296 -3.3249,-11.44697 0,-4.08914 -0.2219,-4.8391 -1.4317,-4.8391 -2.9349,0 -7.0588,-9.33278 -7.0623,-15.9826 0,-7.81778 -0.6157,-7.39473 -2.3401,1.61849 -3.2565,17.02159 -8.317,15.22567 -8.0584,-2.85987 0.1248,-8.72691 0.1248,-8.72691 -4.0462,-12.6884 -6.0867,-5.78096 -12.4938,-18.93196 -16.1919,-33.235 -1.5573,-6.02307 -3.7267,-13.32925 -4.8207,-16.23595 -6.3733,-16.93233 -6.8851,-36.15192 -1.5171,-56.97454 0.4589,-1.78034 0.8427,-5.96819 0.8527,-9.30633 0.049,-16.17407 2.6094,-28.06548 9.023,-41.9001 0.8824,-1.90352 1.6044,-4.53761 1.6044,-5.85354 0,-9.69036 12.0549,-37.8874 20.2358,-47.33271 0.771,-0.89017 1.6122,-3.51076 1.8692,-5.82353 0.7928,-7.13353 9.7541,-19.34903 20.2393,-27.58904 3.4819,-2.73635 6.2062,-5.71352 7.748,-8.46732 3.6587,-6.53454 4.5229,-7.50121 11.3587,-12.70483 11.6255,-8.84976 18.4357,-16.96931 13.2019,-15.74015 -0.7789,0.18292 -7.9711,0.87721 -15.9826,1.54287 -18.4745,1.53501 -30.9039,3.07055 -42.3697,5.23439 -9.4511,1.78362 -10.6359,1.70096 -10.6359,-0.7421 0,-3.99558 14.7181,-7.03774 64.2323,-13.27654 11.5798,-1.45906 11.3634,-1.27123 11.7107,-10.1621 0.3203,-8.19669 0.3803,-8.13554 -7.9986,-8.1562 -2.4658,-0.006 -6.4832,-0.53199 -8.9276,-1.16868 -2.4445,-0.6367 -10.4367,-1.57288 -17.7605,-2.0804 -7.3238,-0.50753 -15.1416,-1.26935 -17.3729,-1.69292 -2.2313,-0.42359 -9.138,-0.94514 -15.3483,-1.15902 -11.6133,-0.39996 -12.9401,-0.75529 -12.4439,-3.33271 0.6571,-3.41399 47.0267,-2.26998 69.9385,1.72551 12.3834,2.15948 13.3584,1.97021 17.668,-3.42996 6.8377,-8.56794 0.012,-10.75327 -53.7556,-17.20923 -15.9809,-1.91886 -15.7583,-1.86603 -16.0351,-3.80743 -0.4333,-3.03866 6.5189,-3.79196 20.486,-2.21971 5.7861,0.65133 16.893,1.88194 24.682,2.73467 7.7889,0.85274 14.708,1.76223 15.3756,2.02109 1.8468,0.71607 16.2817,3.71188 17.8852,3.71188 0.7955,0 2.4073,-1.596 3.6987,-3.6623 1.2589,-2.01426 3.318,-5.28173 4.5759,-7.26103 1.5425,-2.42725 2.1135,-4.14533 1.754,-5.27784 -0.6213,-1.95766 1.3985,-4.85333 9.0235,-12.93622 3.5577,-3.77132 4.9551,-5.83658 4.6903,-6.93211 -0.6598,-2.73003 5.3044,-7.7648 16.2949,-13.75572 7.7646,-4.23247 7.5037,-3.88136 4.6851,-6.30579 -2.6363,-2.26768 -1.9549,-4.0017 2.8929,-7.36125 4.3143,-2.98979 4.1962,-4.24862 -0.4643,-4.9475 -4.5049,-0.67556 -7.1617,-2.95863 -6.3754,-5.47871 1.4671,-4.70203 1.3102,-5.4934 -2.7062,-13.64599 -5.1008,-10.35377 -6.3245,-16.52773 -5.0573,-25.51548 5.5481,-39.35124 10.1194,-53.78324 20.1332,-63.5614 12.64249,-12.34503 28.81167,-4.11629 33.83663,17.21997 1.20546,5.11847 3.64018,12.76584 5.41048,16.99415 5.62717,13.4403 7.11175,28.36176 4.12729,41.48339 -1.30191,5.72407 -1.29719,5.80476 0.40463,6.93473 2.2854,1.51746 2.17578,3.80249 -0.30124,6.27953 -2.44041,2.44039 -2.57171,3.56803 -0.41549,3.56803 1.67095,0 4.48447,5.12776 3.59933,6.55993 -0.69634,1.12671 0.84916,0.86437 5.34307,-0.90697 14.38228,-5.66896 55.94012,-7.01492 78.06236,-2.52823 16.74444,3.39598 17.80341,3.30699 17.80341,-1.4961 0,-3.35713 0.359,-4.49007 1.78999,-5.64881 1.76815,-1.43176 1.77081,-1.46682 0.21814,-2.87196 -3.05883,-2.7682 -2.82165,-11.35606 0.58071,-21.02683 0.62635,-1.78034 1.86934,-5.96819 2.76218,-9.30632 9.41836,-35.213 28.12794,-65.68491 38.27417,-62.33636 24.35237,8.03702 21.53897,104.25314 -3.05357,104.42952 -2.96522,0.0213 -4.05085,1.15213 -2.99678,3.12168 0.50669,0.94677 1.19791,1.7214 1.53603,1.7214 0.3381,0 2.52138,1.76203 4.85171,3.91564 4.39886,4.06528 4.98854,6.60455 1.53371,6.60455 -5.3623,0 -8.93795,3.45054 -5.44658,5.256 1.33089,0.68822 3.16578,2.60942 4.07754,4.26932 2.86591,5.21753 5.02288,8.57624 7.65483,11.91969 1.40147,1.78034 3.76884,5.05778 5.2608,7.28321 1.49197,2.22542 3.91716,5.40405 5.3893,7.06361 3.76734,4.24695 8.85973,14.75523 10.02788,20.69279 0.54298,2.75993 1.15108,5.01804 1.35134,5.01804 0.38093,0 8.90707,-3.01989 20.27879,-7.18258 15.48572,-5.66865 39.83995,-9.78679 39.83995,-6.73668 0,1.89041 -2.80719,4.20832 -5.09665,4.20832 -0.82475,0 -6.47925,1.59953 -12.56555,3.55452 -6.08632,1.95498 -14.67049,4.54063 -19.07595,5.74587 -11.19839,3.06365 -20.15182,8.06641 -17.43809,9.74359 0.46886,0.28977 1.67708,2.2231 2.68494,4.29629 1.14036,2.34576 2.27021,3.65851 2.99145,3.47571 0.63744,-0.16156 7.53179,-0.39485 15.32078,-0.51843 7.78899,-0.12357 15.67829,-0.48815 17.53177,-0.81015 1.85348,-0.32201 7.68005,-0.19084 12.94792,0.2915 5.26789,0.48234 12.37216,1.09857 15.78729,1.36942 9.81477,0.77837 9.64747,4.36731 -0.22206,4.76395 -7.52821,0.30255 -31.33032,1.88811 -43.72675,2.91283 -5.17873,0.42809 -10.57348,0.54682 -11.98835,0.26385 -2.57247,-0.51449 -2.57247,-0.51449 -2.31817,3.03635 0.18106,2.5283 0.57983,3.48117 1.38475,3.3089 0.62176,-0.13308 3.71712,0.1366 6.87859,0.59926 3.16147,0.46266 11.02845,1.59131 17.48219,2.50811 6.45373,0.91679 13.91902,2.23794 16.58953,2.93589 9.48815,2.47973 20.21518,6.06147 20.7512,6.92878 1.01921,1.64911 -0.28296,3.0502 -2.83207,3.0472 -4.05254,-0.005 -31.05437,-3.68492 -44.21961,-6.0268 -13.12362,-2.33449 -14.40043,-1.68372 -8.42341,4.29331 2.04341,2.04341 5.50347,5.96253 7.68904,8.70918 2.18557,2.74663 6.06714,6.94446 8.62572,9.32848 9.072,8.45309 19.75086,24.1764 22.45539,33.0628 0.33865,1.11271 2.03186,3.57025 3.76268,5.46119 9.80445,10.71141 23.4179,38.4322 30.70082,62.51544 3.23158,10.68618 4.32901,15.57866 6.80702,30.34671 0.67215,4.00576 1.81541,8.87955 2.54056,10.83062 0.99756,2.68401 1.20792,5.14608 0.86429,10.11557 -0.34672,5.01398 -0.0681,8.19579 1.17776,13.44674 3.39174,14.29614 0.71168,32.84379 -7.60064,52.60097 -1.77896,4.2283 -4.97913,11.69359 -7.1115,16.58953 -2.13238,4.89594 -4.67242,11.81499 -5.64453,15.37567 -2.73795,10.02856 -6.70078,17.5523 -12.48585,23.70525 -5.10306,5.42759 -5.10306,5.42759 -4.72117,9.92323 0.76824,9.04372 -3.47178,19.2416 -7.57229,18.21243 -1.49016,-0.374 -1.8343,-0.009 -2.29154,2.42793 -0.95724,5.10249 -4.45537,4.44979 -4.48259,-0.83639 -0.0124,-2.40548 -0.0124,-2.40548 -1.27215,-0.60694 -0.69286,0.98921 -1.78534,1.79856 -2.42773,1.79856 -0.6424,0 -1.16799,0.20336 -1.16799,0.45192 0,3.62099 -2.32858,13.01498 -4.50582,18.17741 -1.85533,4.39915 -2.77739,7.86715 -2.77739,10.44617 0,4.68535 -2.89586,9.12614 -7.95308,12.19602 -3.04778,1.85009 -3.33469,2.31467 -3.35459,5.43206 -0.0249,3.90636 -2.71908,11.72529 -4.56921,13.26076 -0.68714,0.57027 -2.27184,3.06242 -3.52156,5.53808 -20.79593,41.19651 -83.52267,52.62967 -99.32877,18.10458 -2.5434,-5.55551 -2.97551,-5.73454 -6.9751,-2.88982 -3.59008,2.55345 -11.41744,3.74349 -25.32777,3.85071 -3.83472,0.0295 -6.2513,0.44393 -7.2038,1.23524 -3.10302,2.57792 -36.34718,0.71164 -42.0828,-2.36247 -2.22522,-1.19265 -3.96514,-1.52338 -6.37183,-1.21118 -3.26164,0.42311 -22.04608,-1.5625 -22.90472,-2.42114 -0.24255,-0.24255 -3.39842,2.29113 -7.01304,5.63041 -5.99236,5.5359 -9.37065,7.64343 -19.13666,11.93837 -1.56951,0.69024 -5.75736,1.64976 -9.30632,2.13226 -8.8469,1.20276 -14.6371,2.23889 -17.6612,3.1604 -3.7027,1.12831 -11.8727,1.66945 -14.6873,0.97282 z M -720.1534,740.2155 c -0.22449,-0.55636 -0.40818,-0.10116 -0.40818,1.01155 0,1.11272 0.18368,1.56792 0.40818,1.01156 0.2245,-0.55636 0.2245,-1.46676 0,-2.02311 z m -399.2575,-5.65002 c 0.2038,-2.10607 0.052,-3.63226 -0.3376,-3.39154 -0.3895,0.24073 -0.6794,2.32804 -0.6443,4.63847 0.073,4.7947 0.4427,4.32508 0.9819,-1.24693 z M -824.74078,396.9717 c 21.03022,-8.78699 12.10746,-42.39119 -9.53426,-35.90717 -12.82185,3.84152 -15.94217,30.78588 -4.15985,35.92086 3.22509,1.40556 10.31434,1.39847 13.69411,-0.0137 z m -14.79155,-11.43456 c -4.95622,-4.17037 -5.07903,-8.65078 -0.41278,-15.06053 4.22109,-5.79825 9.44119,-5.69913 14.46787,0.27473 6.80691,8.08955 -6.00076,21.56308 -14.05509,14.7858 z m -138.09249,6.96379 c 14.32618,-7.95707 12.86946,-25.99322 -2.45927,-30.44941 -13.11078,-3.8114 -25.45971,3.17863 -25.45971,14.41133 0,14.91932 14.71455,23.37212 27.91898,16.03808 z m -14.08509,-6.1877 c -6.98866,-5.88056 -3.79158,-17.24942 5.23128,-18.60248 8.1846,-1.22736 15.32859,9.10158 10.37051,14.99391 -4.68982,5.57353 -11.41734,7.12956 -15.60179,3.60857 z"
       style="fill:#dfd99b"
       sodipodi:nodetypes="ssssssssccssssssssssssssssssssssscssssssssssssssssssssssssssssssssssssssssscssssssssssssssssssssssssssscsssscsssssssssscsssssscsssssssssssscssssssssscsscccsccssssssssssssssss" />
    <path
       inkscape:connector-curvature="0"
       id="path4450"
       d="m -514.52267,855.38561 c -3.17776,-0.77135 -12.41196,-5.41988 -18.30896,-9.21677 -4.61267,-2.96996 -20.0842,-19.87724 -20.0842,-21.94801 0,-2.06348 -18.24018,-18.20466 -20.0401,-17.73397 -2.01265,0.52633 -2.50161,-0.28565 -5.42468,-9.00848 -2.40818,-7.18635 -3.22591,-8.51048 -5.25575,-8.51048 -1.8638,0 -2.64249,-1.93086 -5.80646,-14.39778 -2.47511,-9.75268 -2.85438,-10.63717 -4.65494,-10.85562 -4.10384,-0.49791 -4.62356,-5.85295 -3.04685,-31.39379 0.0811,-1.31433 -0.30037,-2.02311 -1.08898,-2.02311 -0.99424,0 -1.23573,1.53733 -1.33472,8.49708 -0.1442,10.13731 -1.0515,10.84988 -4.70844,3.69785 -2.06406,-4.03678 -2.45391,-5.7294 -2.45391,-10.65423 0,-10.51678 -1.5804,-9.37069 -4.13412,2.99803 -3.1097,15.06164 -7.7602,10.62403 -6.31207,-6.02311 0.5515,-6.33986 0.5515,-6.33986 -3.54696,-9.9251 -6.03999,-5.28363 -12.83699,-18.99545 -16.62089,-33.52988 -1.56806,-6.02307 -3.74616,-13.32925 -4.84024,-16.23595 -6.37361,-16.93311 -6.88432,-36.05147 -1.52197,-56.97454 0.45628,-1.78034 0.85642,-6.33235 0.88919,-10.11557 0.11826,-13.64893 1.9541,-23.82935 6.12915,-33.98832 2.10355,-5.11848 4.10164,-11.12712 4.44019,-13.35255 2.29709,-15.09935 10.00705,-33.05948 19.8015,-46.127 1.08862,-1.45241 2.02254,-4.17204 2.32468,-6.76956 0.81692,-7.02332 10.62171,-20.18334 19.87165,-26.6718 3.49598,-2.4523 5.43765,-4.67555 8.21109,-9.40189 3.12804,-5.33062 4.90516,-7.2092 12.79889,-13.52959 12.05097,-9.64903 16.71805,-15.98616 11.38438,-15.45812 -1.06603,0.10553 -8.31104,0.72547 -16.10003,1.37762 -18.1564,1.5202 -32.20628,3.2561 -42.85577,5.29493 -9.28629,1.77785 -11.41878,1.32808 -8.33315,-1.75757 2.10225,-2.10223 28.19909,-6.60209 61.60047,-10.62172 12.59058,-1.51518 12.56571,-1.49327 12.92843,-11.39091 0.31455,-8.58315 0.31196,-8.58548 -9.53708,-8.58548 -2.53409,0 -6.40329,-0.5258 -8.59823,-1.16846 -2.19494,-0.64265 -9.81737,-1.56483 -16.93873,-2.04927 -7.12136,-0.48445 -15.28941,-1.25065 -18.15122,-1.70267 -2.86181,-0.45202 -9.59878,-0.96992 -14.97105,-1.15088 -5.37225,-0.18096 -10.22295,-0.34559 -10.7793,-0.36585 -0.55636,-0.0202 -1.01156,-0.74397 -1.01156,-1.60825 0,-1.51813 0.76147,-1.57119 22.45657,-1.5648 22.21967,0.006 30.01946,0.59152 46.63762,3.49781 12.67784,2.21719 13.54345,2.04476 18.27483,-3.64059 7.80656,-9.38051 2.94229,-11.1889 -47.71599,-17.73922 -21.90109,-2.8319 -21.445,-2.74537 -21.445,-4.06839 0,-2.02198 7.73484,-2.46179 19.82651,-1.12736 32.152,3.5483 38.82382,4.39862 42.89002,5.46634 9.77785,2.56751 15.20133,3.28709 16.52089,2.19194 2.61367,-2.16915 9.47328,-14.65726 8.95247,-16.2982 -0.59492,-1.8744 5.84656,-10.31742 11.08049,-14.52352 2.74796,-2.20833 3.12395,-2.88705 2.69108,-4.85787 -0.64972,-2.95818 5.87462,-8.32639 17.78511,-14.63355 8.01179,-4.24261 8.05394,-4.28063 5.48268,-4.94692 -3.71876,-0.96362 -4.82294,-3.39709 -2.44762,-5.39424 1.0132,-0.85189 2.90461,-2.4392 4.20313,-3.52733 3.04928,-2.55524 2.38207,-4.33286 -1.89769,-5.05592 -4.98239,-0.84177 -7.13722,-2.89468 -5.89656,-5.61764 1.50536,-3.3039 1.2674,-4.32058 -2.99786,-12.80831 -4.97981,-9.90966 -6.27229,-16.49991 -5.00222,-25.50602 5.60072,-39.7152 10.5894,-55.19771 20.52607,-63.70312 12.82265,-10.97571 26.93705,-2.888 32.10738,18.39791 1.37735,5.67045 3.95406,13.65257 5.72602,17.73802 5.65922,13.04796 6.788,25.43536 3.58773,39.37196 -1.52051,6.62159 -1.48613,7.22684 0.44554,7.83993 2.31772,0.73561 2.00031,2.766 -0.90022,5.75858 -2.61536,2.69837 -2.56342,4.35699 0.13642,4.35699 1.99166,0 4.10239,4.62012 3.05011,6.67627 -0.9567,1.86939 -0.25889,1.79429 5.65438,-0.60848 10.80882,-4.39202 40.56106,-6.92936 61.67938,-5.26016 5.54984,0.43866 13.55014,1.52055 17.77845,2.4042 14.22817,2.97344 21.3388,3.07499 18.5284,0.26461 -0.92499,-0.925 -0.25865,-7.51145 0.76231,-7.53506 2.365,-0.0547 2.56216,-1.52944 0.59252,-4.43188 -2.77139,-4.08386 -2.32744,-11.88181 1.20547,-21.17405 0.45626,-1.20007 1.56401,-4.93986 2.46164,-8.31064 3.87696,-14.55869 11.65878,-33.65539 17.38797,-42.67035 1.74106,-2.73959 4.15836,-6.82108 5.37177,-9.06999 13.78037,-25.54027 32.46664,0.84934 31.15118,43.99315 -0.83105,27.25632 -9.75595,48.95936 -20.13346,48.95936 -2.14854,0 -3.91759,1.34137 -3.91759,2.97047 0,0.56556 2.36704,2.92512 5.26009,5.24346 5.78943,4.63937 6.82189,7.16174 2.93145,7.16174 -1.28076,0 -2.78199,0.54624 -3.33607,1.21386 -0.55408,0.66763 -2.14636,1.2302 -3.53838,1.25014 -2.53096,0.0362 -2.53096,0.0362 1.31957,3.4889 2.11778,1.89894 5.75939,6.39128 8.09245,9.98297 4.67997,7.20471 6.96824,10.4442 13.4788,19.08188 6.32326,8.38918 10.32695,16.27866 11.48965,22.64099 1.23214,6.74226 -1.25987,6.9338 22.3812,-1.72018 14.7422,-5.39648 39.45723,-9.79164 38.9039,-6.91842 -0.16145,0.83834 -1.20041,1.77725 -2.3088,2.08646 -1.10838,0.30921 -7.29557,2.18781 -13.74931,4.17467 -6.45373,1.98686 -15.25867,4.57709 -19.56652,5.75607 -6.26652,1.71503 -14.54958,5.23128 -19.43363,8.24979 -0.33665,0.20806 0.47121,1.87376 1.79525,3.70154 1.32404,1.82779 2.40734,3.78884 2.40734,4.35789 0,2.6227 2.12055,3.32691 7.81262,2.59448 3.04697,-0.39207 7.90698,-0.50083 10.80003,-0.2417 2.89305,0.25914 8.9017,0.063 13.35255,-0.43573 5.99382,-0.67171 10.92562,-0.66937 19.01728,0.009 18.54597,1.55482 19.42189,1.68424 19.42189,2.8695 0,1.23957 -2.80283,2.38326 -4.0109,1.63664 -0.43362,-0.268 -4.53367,-0.11533 -9.11125,0.33926 -10.16804,1.00975 -38.61231,2.73972 -46.34037,2.81838 -5.6477,0.0575 -5.6477,0.0575 -5.38596,3.6986 0.25134,3.49649 1.3189,5.20392 2.71443,4.34143 0.36287,-0.22426 3.29354,-0.0216 6.5126,0.45034 3.21907,0.47196 11.13317,1.61201 17.58691,2.53345 18.08693,2.58239 36.01143,7.62068 36.01143,10.12224 0,0.86367 -0.36417,1.5652 -0.80925,1.55894 -3.70905,-0.0521 -39.72458,-5.25191 -47.60492,-6.87301 -14.66493,-3.01678 -14.25618,-2.02514 9.63128,23.36624 11.37535,12.09155 23.0026,29.57843 23.0026,34.59493 0,0.54404 1.75557,2.93034 3.90127,5.3029 7.47249,8.26254 12.95652,17.81487 20.93303,36.46208 7.97946,18.65407 12.51205,34.27486 16.03163,55.2502 0.67215,4.00576 1.8154,8.87955 2.54056,10.83062 0.99613,2.68018 1.20844,5.15271 0.8684,10.11372 -0.34391,5.01756 -0.063,8.18913 1.19129,13.44674 1.96595,8.24109 1.7416,22.25083 -0.49247,30.75319 -3.10737,11.82597 -4.189,14.8529 -10.98848,30.75133 -3.90229,9.12424 -7.89737,19.50282 -8.87796,23.0635 -2.65259,9.63196 -6.56032,17.08183 -12.23698,23.32915 -5.02101,5.52577 -5.02101,5.52577 -5.11581,12.54331 -0.0773,5.72188 -0.46574,7.76462 -2.10384,11.06378 -2.76966,5.57812 -4.52336,5.43479 -4.16327,-0.34029 0.31679,-5.08068 -0.47839,-11.39377 -1.43513,-11.39377 -0.3618,0 -0.81883,4.0968 -1.01559,9.10401 -0.43065,10.95843 -3.82302,18.446 -3.87974,8.56327 -0.0153,-2.6711 -0.76072,-4.71935 -1.71746,-4.71935 -0.39746,0 -0.72266,1.09248 -0.72266,2.42773 0,1.86364 -0.36497,2.42774 -1.57073,2.42774 -2.10258,0 -2.3204,0.48369 -3.28696,7.29879 -0.46327,3.26647 -2.08257,8.75369 -3.65203,12.37533 -1.7985,4.15017 -2.81972,7.78855 -2.81972,10.04602 0,5.31314 -3.91303,11.03763 -9.50864,13.91049 -1.47329,0.75641 -1.8208,1.6186 -1.8208,4.5176 0,3.9345 -2.63466,11.84713 -4.445,13.34958 -0.6308,0.52351 -2.48009,3.37894 -4.10953,6.34538 -7.19494,13.09859 -20.34116,25.89331 -33.30546,32.41496 -3.97439,1.99932 -18.27532,3.72708 -29.75824,3.59525 -15.60676,-0.17919 -28.20284,-6.92231 -33.77882,-18.08301 -3.52147,-7.04844 -4.2702,-7.40002 -8.89894,-4.17874 -3.71611,2.58615 -11.07618,3.6892 -25.05255,3.75461 -3.86485,0.018 -6.61279,0.41294 -7.24275,1.0407 -2.43497,2.42648 -35.58009,0.61802 -41.19758,-2.24781 -2.46038,-1.2552 -4.16387,-1.5941 -6.14475,-1.22249 -2.81687,0.52845 -17.23239,-0.77331 -21.94994,-1.98213 -2.46341,-0.63122 -2.94464,-0.38805 -6.92597,3.49976 -9.05505,8.84234 -18.9886,14.3588 -27.93633,15.51405 -6.42332,0.82933 -18.22911,2.94691 -20.35141,3.65039 -3.09322,1.02531 -11.43547,1.52647 -14.2078,0.85352 z m 141.06774,-65.672 c 12.51906,-4.75553 12.6321,-4.77129 11.95012,-1.66626 -0.85471,3.89151 4.38338,3.49591 16.56509,-1.25108 6.77421,-2.63978 7.56788,-3.40494 9.76548,-9.41473 3.55863,-9.73181 8.60341,-19.62695 12.3435,-24.21132 2.08278,-2.55295 3.78688,-5.10964 3.78688,-5.68154 0,-5.50346 19.26985,-22.67984 25.80248,-22.9993 2.95193,-0.14436 4.946,-0.71949 6.08586,-1.75528 3.864,-3.51123 7.66225,-4.18434 13.58993,-2.40837 2.69233,0.80664 3.53515,0.74355 5.48958,-0.41095 5.37055,-3.17247 13.9814,-2.15224 23.70561,2.80868 4.56058,2.32664 7.66253,0.15005 14.86292,-10.4291 0.73445,-1.07909 1.16396,-1.1584 2.09385,-0.38666 1.90855,1.58396 4.22489,-1.76476 7.15113,-10.33832 3.11948,-9.1398 3.46634,-9.62901 5.51352,-7.77634 1.77582,1.6071 1.59396,1.78046 7.10149,-6.7697 5.41609,-8.4082 5.42547,-8.44296 5.58172,-20.65614 0.0797,-6.23119 0.40206,-13.33232 0.71631,-15.78029 0.31731,-2.47178 0.17287,-6.91725 -0.32485,-9.99769 -0.64912,-4.0175 -0.65208,-5.84102 -0.0107,-6.61381 1.01295,-1.22054 0.44549,-8.588 -1.24492,-16.16295 -0.59595,-2.67051 -1.31131,-6.85835 -1.5897,-9.30632 -0.27839,-2.44797 -1.05646,-6.59626 -1.72905,-9.21842 -0.68616,-2.67507 -1.00979,-6.04928 -0.73735,-7.68784 0.33654,-2.02417 -0.12463,-4.70652 -1.50291,-8.74149 -1.09364,-3.20168 -1.81145,-6.49804 -1.59513,-7.32525 1.11644,-4.26928 -13.50247,-26.32311 -18.17151,-27.41323 -1.19674,-0.2794 -3.63253,-1.85104 -5.41287,-3.49252 -1.78034,-1.64148 -4.60258,-3.98187 -6.27165,-5.20087 -1.68557,-1.23105 -3.03467,-2.90789 -3.03467,-3.77191 0,-2.47874 -12.853,-15.64973 -15.95554,-16.3503 -1.80104,-0.40667 -5.11022,-3.07356 -10.67298,-8.60143 -4.50746,-4.47919 -9.66872,-8.78951 -11.70513,-9.77532 -2.0034,-0.96983 -5.03168,-2.8843 -6.72951,-4.2544 -6.90513,-5.5722 -17.93618,-9.24656 -32.38543,-10.78733 -2.76161,-0.29448 -5.4298,-1.02785 -5.92931,-1.62973 -1.10788,-1.33492 -6.33341,-3.01733 -14.94544,-4.81183 -3.56068,-0.74194 -7.93061,-1.66495 -9.71095,-2.05113 -9.22314,-2.00063 -16.30187,-1.16451 -21.56993,2.54778 -2.70275,1.90457 -3.33216,1.89252 -10.99317,-0.2102 -8.12302,-2.22953 -36.92393,-0.28602 -49.5892,3.34634 -1.54429,0.44289 -4.45904,0.80526 -6.47722,0.80526 -2.53118,0 -4.05604,0.45155 -4.9158,1.45568 -0.92943,1.08549 -3.45222,1.71208 -9.92048,2.46396 -4.77075,0.55456 -14.21418,2.4621 -20.98541,4.23897 -6.77121,1.77687 -14.40521,3.64564 -16.96445,4.15284 -3.97604,0.78797 -4.65316,1.18136 -4.65316,2.70335 0,2.41902 -6.73523,6.05671 -22.25426,12.01949 -3.98172,1.52987 -6.1428,2.94349 -5.66982,3.70878 0.24467,0.39589 -1.0055,2.06169 -2.77813,3.7018 -2.11192,1.95401 -3.69123,4.41189 -4.58126,7.12976 -0.74704,2.28126 -2.76413,6.72794 -4.48241,9.8815 -3.69421,6.77998 -3.69899,6.80955 -1.10105,6.80955 2.43019,0 2.4697,0.295 0.47491,3.54609 -6.32656,10.31099 -9.10786,22.07554 -5.12807,21.69107 3.47605,-0.3358 3.40458,-0.0608 -2.07961,7.999 -10.30547,15.14553 -19.17183,59.1075 -10.08912,50.0248 1.89605,-1.89606 2.66034,0.27759 2.68097,7.62462 0.0357,12.71097 2.01749,28.90745 6.25717,51.13702 1.39873,7.33387 11.97349,31.15596 13.83031,31.15596 0.91794,0 1.74127,-1.97257 1.74127,-4.17175 0,-3.11062 2.62563,-1.16669 4.26842,3.16019 1.61305,4.24854 1.61305,4.24854 5.53549,4.24854 3.5013,0 3.97655,0.21562 4.42647,2.00827 0.44986,1.79238 4.01536,3.63143 7.08023,3.65193 6.85368,0.0458 32.0996,14.82023 32.0996,18.7853 0,1.58365 1.37422,3.08782 6.19337,6.77898 8.07994,6.18874 11.32978,10.43421 17.24339,22.5262 5.40929,11.06079 5.57468,11.26533 10.11108,12.50405 3.19919,0.87358 3.8,0.63164 4.76716,-1.91971 0.16872,-0.44509 1.17609,-0.0139 2.23858,0.9582 6.92329,6.33423 24.21417,10.5946 24.84929,6.1227 0.3091,-2.17649 0.92922,-2.21608 7.56618,-0.48309 16.1523,4.21756 19.82281,4.24377 30.42277,0.21724 z m -180.22138,-185.9718 c -0.66133,-1.23571 0.044,-2.89684 3.69411,-8.69939 2.48134,-3.94462 5.35696,-8.83341 6.39027,-10.86396 1.03331,-2.03056 3.5178,-5.49008 5.5211,-7.68783 2.00329,-2.19776 4.21678,-4.6332 4.91886,-5.4121 3.75405,-4.16479 19.77475,1.20404 28.18393,9.44496 7.79224,7.63632 -0.35401,14.18743 -13.28831,10.68627 -5.78349,-1.56551 -7.70801,-1.20255 -12.33462,2.32633 -1.45812,1.11217 -3.1859,2.02212 -3.83952,2.02212 -0.65361,0 -2.25796,1.13938 -3.56522,2.53195 -6.36062,6.77573 -13.66923,9.40993 -15.6806,5.65165 z m 302.36691,-10.59096 c -2.08781,-1.32405 -5.34551,-3.80353 -7.23933,-5.50996 -9.73986,-8.77605 -11.64894,-9.20416 -29.47409,-6.60957 -14.53177,2.11521 -13.14346,-4.16403 2.60278,-11.77229 15.5259,-7.50178 25.6638,-6.62804 33.83309,2.91594 12.51351,14.61923 12.70187,28.85516 0.27755,20.97588 z m -222.57012,-10.27082 c -3.58605,-3.58605 18.5897,-24.97465 27.65752,-26.67579 14.61231,-2.74128 39.6972,13.17817 30.69784,19.48157 -2.54869,1.78517 -19.40217,1.75262 -25.82625,-0.0498 -4.66748,-1.30963 -4.66748,-1.30963 -14.61951,3.23767 -9.52609,4.35268 -16.09408,5.82196 -17.9096,4.00642 z m 82.43768,-9.13884 c -3.79551,-4.194 9.44262,-17.4705 21.01088,-21.07177 1.78034,-0.55423 4.56629,-1.73829 6.191,-2.63125 1.91705,-1.05364 3.76353,-1.46576 5.2601,-1.17401 7.01433,1.36741 11.07736,2.66944 17.19232,5.50942 19.6415,9.12211 22.67528,19.12727 4.53564,14.95814 -13.08746,-3.00797 -22.20404,-2.10017 -40.12655,3.99567 -7.25618,2.46799 -12.07603,2.60981 -14.06339,0.4138 z m -143.23565,-18.3259 c -1.43583,-1.43585 -1.05209,-3.69703 1.09255,-6.43772 5.08612,-6.49968 16.59059,-17.8239 21.41515,-21.07962 3.18206,-2.14732 7.73596,-5.32189 10.11978,-7.05459 5.58509,-4.05956 11.15404,-4.03463 19.70252,0.0882 2.96931,1.43207 5.62376,2.60377 5.89877,2.60377 1.1619,0 10.15304,6.63807 10.91204,8.05625 2.58947,4.83849 -1.38074,5.66919 -19.00768,3.97702 -9.43039,-0.90531 -9.82919,-0.87857 -13.35255,0.89536 -6.31327,3.17855 -15.6219,9.12706 -19.86287,12.69298 -7.21046,6.06276 -14.43916,8.73685 -16.91771,6.25832 z m 250.8358,-22.59208 c -12.23735,-5.55774 -17.23123,-5.9018 -28.52743,-1.96545 -16.95648,5.90879 -18.33438,-0.25568 -3.10556,-13.89375 12.16553,-10.89477 14.49299,-11.31661 24.57773,-4.45458 26.03612,17.71594 30.66204,31.03506 7.05526,20.31378 z m -144.17686,-2.7761 c -5.81484,-2.46676 -0.45517,-10.65698 15.7794,-24.11284 8.97512,-7.43894 17.8905,-5.88974 35.73884,6.2102 19.45433,13.1887 14.6749,22.3125 -6.87858,13.13102 -11.10424,-4.73025 -19.75684,-3.93859 -33.4818,3.06336 -3.85306,1.96568 -8.77479,2.7192 -11.15786,1.70826 z m 71.06769,-70.1056 c 3.88985,-1.15459 4.18509,-21.80578 0.57999,-40.56956 -1.01034,-5.25859 -0.76808,-5.19809 -21.48608,-5.36595 -17.15314,-0.13898 -15.42826,-3.91828 -14.70015,32.20879 0.27651,13.71956 0.27651,13.71956 2.29962,14.29139 2.13845,0.60444 31.01737,0.11483 33.30662,-0.56467 z m -38.05102,-7.01283 c 1.92996,-10.61654 0.73232,-38.64829 -1.65058,-38.63339 -2.07133,0.0129 -20.90475,2.33481 -28.2841,3.48698 -10.26019,1.60197 -10.9864,3.0581 -11.83763,23.73583 -0.53801,13.06911 -0.53801,13.06911 2.96052,13.58412 1.92419,0.28326 5.6835,0.86732 8.35401,1.29793 24.65026,3.97469 29.19839,3.45631 30.45778,-3.47147 z m 53.30482,3.16019 c 19.40276,-5.35709 23.67918,-10.01676 19.86401,-21.64422 -4.53666,-13.82637 -4.84017,-14.24361 -10.82231,-14.87744 -2.5281,-0.26787 -8.18179,-1.40901 -12.56378,-2.53588 -9.08113,-2.33532 -10.67586,-2.16003 -9.86167,1.08392 1.32247,5.26915 2.85787,21.56505 2.85787,30.33182 0,11.19937 -0.65002,10.72745 10.52588,7.6418 z m -97.78207,-6.19486 c 0.30082,-2.00288 0.58992,-7.82945 0.64245,-12.94793 0.087,-8.4815 0.50162,-10.86201 2.87035,-16.48168 0.59651,-1.41516 0.28369,-1.48007 -4.94848,-1.02669 -3.07188,0.26617 -9.48881,0.71558 -14.25984,0.99868 -10.75523,0.63819 -10.87925,0.73069 -12.37025,9.22648 -2.35516,13.41979 -1.70768,15.00191 7.28768,17.80744 1.78034,0.55527 5.05778,1.84808 7.28321,2.87293 9.97748,4.59481 12.75116,4.50248 13.49488,-0.44923 z m 129.75235,-8.57217 c 10.8984,-5.89266 11.71854,-7.14964 9.34911,-14.32907 -1.3301,-4.03023 -2.12485,-4.32157 -13.60841,-4.98856 -11.55997,-0.67143 -11.52041,-0.71179 -7.90561,8.06328 1.10008,2.67051 2.01083,5.76588 2.02388,6.87859 0.0998,8.51193 1.42983,9.08582 10.14103,4.37576 z m -161.95481,-2.15033 c 0.47254,-2.52668 2.11804,-15.44768 2.11804,-16.63154 0,-2.8134 -23.55324,-0.44343 -24.11221,2.42622 -0.37189,1.90913 8.58154,9.56899 14.13951,12.09667 2.7491,1.25025 5.22868,2.64583 5.51017,3.10131 0.86394,1.39787 1.98628,0.92267 2.34449,-0.99266 z m 182.64041,-9.89694 c 7.87521,-5.09444 7.52282,-5.92145 -2.48834,-5.83994 -4.45085,0.0362 -8.09246,0.21284 -8.09246,0.39246 0,8.32717 3.41297,10.08433 10.5808,5.44748 z m -13.10027,-31.93472 c 20.29764,-10.35508 11.82887,-42.61795 -9.99751,-38.0868 -15.08637,3.13191 -20.49877,28.15162 -8.00757,37.01629 4.33437,3.07599 13.05741,3.59463 18.00509,1.07051 z m -15.18935,-11.88662 c -8.46252,-5.92739 -0.36436,-21.97197 8.74442,-17.32501 3.49596,1.7835 5.72742,5.11159 5.72742,8.54208 0,6.5283 -9.47821,12.2806 -14.47184,8.78293 z m -143.9968,10.19502 c 20.31471,-5.64232 21.07954,-30.36413 1.07786,-34.84031 -9.06896,-2.02955 -21.12249,2.15802 -24.50361,8.51291 -7.91239,14.87155 6.47097,31.03651 23.42575,26.3274 z m -7.5661,-8.90501 c -9.43645,-5.50623 -2.16822,-21.69918 8.11627,-18.08233 2.60571,0.91639 7.39879,7.11514 7.39879,9.56864 0,5.5423 -10.62011,11.36994 -15.51506,8.51369 z"
       style="fill:#a49f59"
       sodipodi:nodetypes="cssssssscssssssssssssssssssssssssssssscscsssssssssssssssssssssssssssssssssssssssssscsssssssssssssscsscssscssscsssssssscssssssssscsssssssssssssscssssssscccsssssssssssssssssscsssssssssssssssssssssssssssssssssssssssssssssssssssssccssssssssssssssssscsscsccsssssssscsssssssssccsssssssssssssssssscssssssssssssssssssssssssssssssscssssscssccssssssssssss" />
    <path
       inkscape:connector-curvature="0"
       id="path4448"
       d="m 5.5753309,854.75323 c -10.3877497,-3.70909 -22.2722999,-11.97224 -28.3635499,-19.72071 -2.82809,-3.59752 -5.79685,-6.89142 -6.59725,-7.31978 -0.80041,-0.42836 -1.45529,-1.5002 -1.45529,-2.38185 0,-2.66305 -18.42624,-20.2673 -20.63371,-19.71326 -1.41193,0.35438 -1.95399,-0.0264 -2.61318,-1.83545 -0.45744,-1.25541 -1.89106,-5.19586 -3.18582,-8.75654 -1.78309,-4.90364 -2.69931,-6.44523 -3.77728,-6.35552 -2.24036,0.18646 -3.48867,-2.58604 -6.24747,-13.87562 -1.41394,-5.7861 -2.70337,-10.98433 -2.86541,-11.55162 -0.18579,-0.65045 -1.0037,-0.85347 -2.21429,-0.54963 -3.3146,0.83191 -4.20792,-4.53332 -3.22025,-19.34074 0.66723,-10.00349 0.61754,-12.47409 -0.27023,-13.43645 -2.17335,-2.35596 -3.1174,0.33782 -3.12001,8.90282 -0.002,9.00168 -0.55381,9.54226 -3.62798,3.55894 -1.56981,-3.05537 -2.05754,-5.27636 -2.11889,-9.64887 -0.10758,-7.66711 -0.11606,-7.70305 -1.81924,-7.70305 -1.25353,0 -1.80992,1.50574 -3.4534,9.34578 -1.0775,5.14017 -2.31692,9.37821 -2.75425,9.41783 -2.07057,0.18767 -2.90627,-3.90546 -2.55596,-12.51872 0.3549,-8.72615 0.3549,-8.72615 -4.00136,-12.88377 -5.682911,-5.42378 -12.329821,-18.21716 -15.285151,-29.41947 -1.16738,-4.42505 -3.70826,-12.9617 -5.64641,-18.97035 -7.27924,-22.56712 -7.54953,-34.69225 -1.33851,-60.04455 0.40325,-1.64601 0.56998,-4.55929 0.37052,-6.47397 -1.17122,-11.24254 2.35945,-27.64397 9.22191,-42.83975 1.13288,-2.50854 1.83148,-4.93034 1.55248,-5.38178 -0.43457,-0.70314 1.64937,-9.80385 4.2405,-18.51862 1.48251,-4.98615 12.130361,-24.14043 16.079761,-28.92569 1.14978,-1.39312 1.78126,-2.98994 1.54289,-3.90147 -1.3305,-5.08787 9.35272,-20.76316 19.0658,-27.97491 5.38895,-4.00118 6.36334,-5.11118 9.69575,-11.04519 1.68679,-3.00365 4.37634,-6.15278 7.14296,-8.3635 19.51837,-15.59655 23.35213,-20.98398 14.35071,-20.16648 -38.58389,3.50417 -44.23474,4.14529 -55.05777,6.24666 -9.695331,1.88242 -11.098071,1.95706 -11.098071,0.59054 0,-2.88511 18.930581,-6.42071 64.738271,-12.09096 10.30348,-1.27541 11.2866,-2.39959 10.91752,-12.48394 -0.27859,-7.61145 0.0188,-7.35098 -9.09646,-7.96881 -4.33896,-0.29409 -8.98149,-0.90179 -10.31675,-1.35044 -1.33525,-0.44865 -7.36425,-1.13793 -13.39777,-1.53173 -6.03352,-0.39379 -15.24722,-1.27669 -20.47489,-1.96197 -5.22769,-0.68529 -13.28842,-1.24598 -17.912751,-1.24598 -7.66519,0 -10.50356,-0.69732 -8.99182,-2.20906 2.18089,-2.18089 49.008191,-0.3532 66.389021,2.59119 15.93599,2.69964 15.35694,2.7529 19.55087,-1.79831 11.01688,-11.95538 4.03125,-14.42276 -61.91798,-21.86996 -6.3452,-0.71651 -7.35615,-2.2667 -2.00185,-3.06963 6.46805,-0.96994 47.82532,3.60572 63.03454,6.97399 11.68651,2.58811 11.53762,2.60712 14.4714002,-1.8478 7.46844,-11.34079 7.80593,-11.98043 7.32722,-13.88775 -0.50072,-1.99502 6.3987797,-10.99272 11.5155797,-15.01761 1.5767001,-1.24023 2.2449001,-2.50958 2.2646001,-4.30179 0.037,-3.32775 6.0209,-8.22663 17.3542,-14.20649 8.7323,-4.60749 9.6293,-5.55912 5.6166,-5.95841 -3.7534,-0.37349 -4.8907,-2.74023 -2.307,-4.80097 7.4599,-5.95004 7.8906,-7.07239 3.1736,-8.27024 -7.4543,-1.89292 -8.3146,-2.91154 -6.2627,-7.41494 0.8566,-1.88005 0.5146,-2.96779 -3.2562,-10.35595 -6.474,-12.68473 -6.9795,-17.76684 -3.7592,-37.79274 1.1094,-6.89881 2.3992,-15.42681 2.8661,-18.95111 5.3369,-40.27971 38.2366,-50.28688 47.3419,-14.40005 1.4608,5.75753 4.0873,13.88713 5.8367,18.06579 5.3705,12.82821 6.4806,27.13046 3.0847,39.74159 -1.3824,5.13392 -1.1184,6.74608 1.2043,7.35348 2.2896,0.59875 1.9216,2.03603 -1.2699,4.95929 -3.4106,3.124 -3.5669,4.31029 -0.6129,4.6511 2.9046,0.3351 4.9667,4.19003 3.4987,6.54056 -1.5874,2.54195 -0.3558,2.60934 5.002696,0.27372 16.158803,-7.04318 54.286103,-8.18146 85.375803,-2.54887 13.9779,2.5324 19.5995,1.90331 13.9873,-1.56523 -1.9235,-1.1888 0.6407,-6.98251 3.5144,-7.94039 0.4928,-0.16426 -0.137,-1.50734 -1.4239,-3.03674 -2.1642,-2.5721 -2.2846,-3.09651 -1.9408,-8.45366 0.7625,-11.88258 14.6052,-51.97041 21.3938,-61.95561 1.3464,-1.98042 3.647,-5.87204 5.1125,-8.64803 7.2681,-13.76737 16.1504,-15.99985 22.2497,-5.59224 17.0579,29.10705 10.5306,91.24722 -10.0528,95.70431 -3.7494,0.81186 -4.0819,1.05398 -4.0819,2.97235 0,1.37242 1.4803,3.0895 5.3071,6.15612 5.3036,4.25006 6.1978,6.13254 2.9338,6.17653 -0.953,0.0129 -2.1774,0.46804 -2.7209,1.01156 -0.5435,0.54351 -2.1899,0.9882 -3.6587,0.9882 -3.7037,0 -3.4605,1.84531 0.6342,4.81153 1.9054,1.38022 4.6945,4.72345 6.5866,7.89522 1.805,3.0257 4.4396,6.95791 5.8547,8.73825 1.415,1.78035 3.7975,5.05779 5.2943,7.28321 1.4968,2.22543 3.8852,5.42502 5.3074,7.11019 3.9758,4.7108 8.9987,15.15214 9.6624,20.08547 0.9056,6.73203 0.915,6.73458 11.188,3.03986 4.9745,-1.78909 11.4295,-4.08815 14.3445,-5.10903 5.4215,-1.89864 24.8736,-6.3831 31.6512,-7.29681 6.021,-0.81171 5.9089,1.94583 -0.1306,3.21387 -1.5578,0.32707 -7.0202,1.96336 -12.1386,3.63621 -5.1185,1.67284 -12.948,4.01237 -17.3988,5.19895 -8.1522,2.17333 -21.445,8.16708 -21.445,9.66955 0,0.44534 0.7214,1.57767 1.6032,2.5163 0.8818,0.93862 2.1056,3.14705 2.7196,4.90763 1.056,3.02769 1.2869,3.19417 4.2638,3.07417 13.1068,-0.52834 53.09,-0.39093 58.9854,0.20271 7.7076,0.77614 9.7522,2.21225 3.6416,2.55786 -2.0029,0.11328 -10.1965,0.73769 -18.208,1.38759 -8.0116,0.6499 -21.0667,1.42237 -29.0114,1.71658 -14.4449,0.53496 -14.4449,0.53496 -13.9595,2.96211 0.267,1.33493 0.4855,3.2383 0.4855,4.22972 0,1.6852 0.461,1.83795 7.0809,2.34585 23.833,1.8286 58.857,10.09635 55.7848,13.16854 -0.5622,0.56225 -18.6755,-1.75159 -36.7291,-4.69188 -28.3802,-4.62213 -28.349,-5.01936 -1.8094,23.06667 11.1995,11.85205 18.7778,23.09754 21.7476,32.27128 0.5378,1.66158 2.055,4.02862 3.3714,5.26009 10.1084,9.45614 23.9336,38.25107 32.5466,67.78792 1.5575,5.34102 3.4392,13.35255 4.1816,17.8034 0.7423,4.45085 1.917,10.4595 2.6103,13.35255 0.6932,2.89305 1.515,9.99418 1.826,15.78029 0.3111,5.7861 1.2108,12.88723 1.9993,15.78029 3.5321,12.95919 -0.3903,31.16532 -13.0761,60.69341 -3.5375,8.23408 -7.2515,17.88433 -8.2532,21.44501 -2.7638,9.82379 -6.0921,16.08117 -11.7603,22.10993 -5.0811,5.40442 -5.0811,5.40442 -5.0881,11.06914 -0.01,7.86279 -2.6148,16.58953 -4.9521,16.58953 -0.3607,0 -0.6558,-3.28958 -0.6558,-7.31018 0,-7.51746 -0.9126,-10.17405 -2.8347,-8.25191 -0.6038,0.60383 -0.8877,3.46793 -0.784,7.91064 0.1761,7.54893 -0.4568,12.50693 -1.5965,12.50693 -0.3956,0 -0.7192,-0.85606 -0.7192,-1.90236 0,-2.99648 -1.6651,-6.99934 -2.9116,-6.99934 -0.7892,0 -1.1347,1.01184 -1.1347,3.32356 0,2.54611 -0.2701,3.21991 -1.1547,2.88046 -1.8183,-0.69778 -2.6527,1.02655 -3.6545,7.55315 -0.5125,3.33814 -2.1895,8.99837 -3.7267,12.57831 -1.8156,4.22826 -2.751,7.63133 -2.6694,9.71213 0.1981,5.05633 -2.9572,9.70384 -9.2281,13.59224 -1.9323,1.19816 -2.2254,1.89705 -2.2254,5.30576 0,4.7163 -1.724,9.93789 -4.2867,12.98347 -1.0333,1.22797 -2.842,4.19911 -4.0195,6.60252 -8.5606,17.47402 -29.4646,33.41371 -45.104,34.39269 -4.2283,0.26469 -8.8293,0.76901 -10.2243,1.1207 -14.3929,3.62866 -35.0985,-6.24875 -41.4998,-19.797 -2.846,-6.02364 -3.6083,-6.28891 -8.4324,-2.9342 -3.7481,2.60639 -12.3117,3.81241 -25.3591,3.5713 -5.054,-0.0934 -6.7183,0.14909 -7.0555,1.02796 -0.9194,2.39595 -35.1789,0.8928 -40.2969,-1.76804 -1.8412,-0.95729 -4.961303,-1.45362 -9.963903,-1.58501 -4.0057,-0.10521 -10.531396,-0.57563 -14.501396,-1.04539 -7.2181,-0.8541 -7.2181,-0.8541 -12.2629,3.86501 -9.7421,9.11327 -17.7318,13.30403 -27.8598,14.613 -4.7381,0.61238 -11.4076,1.84514 -21.8496,4.03858 -3.9318,0.8259 -10.9846001,0.97527 -12.9479001,0.27423 z M 142.33783,833.86943 c 0,-2.38447 0.3804,-2.42823 6.2575,-0.71972 3.8374,1.11556 5.6046,1.17015 12.2632,0.37885 4.2789,-0.5085 9.1197,-1.05694 10.7574,-1.21875 1.6378,-0.16181 4.369,-1.319 6.0694,-2.57154 1.7004,-1.25253 3.2362,-2.37598 3.413,-2.49656 0.1768,-0.12057 -0.4605,-2.60103 -1.4162,-5.51213 -3.0096,-9.16808 -1.6126,-24.7428 3.1213,-34.79639 1.2574,-2.67051 3.6405,-8.315 5.2957,-12.54331 4.6655,-11.91839 10.7824,-22.61747 14.1049,-24.67089 0.455,-0.28118 0.8272,-1.03958 0.8272,-1.68534 0,-1.46294 8.8602,-12.46576 13.5967,-16.88468 4.9146,-4.58516 8.0265,-6.12307 12.3897,-6.12307 2.4231,0 4.131,-0.45004 4.8092,-1.26723 2.8041,-3.37878 8.013,-4.39111 13.75,-2.67227 2.641,0.79127 3.5424,0.68111 6.621,-0.80925 6.6105,-3.20006 24.6026,1.36925 29.733,7.55106 0.731,0.88079 1.794,1.16172 3.2149,0.84962 3.9711,-0.87219 8.4162,5.92618 9.782,14.96072 0.37,2.44797 1.2388,6.42053 1.9305,8.82791 2.807,9.76932 3.303,17.34491 1.3938,21.28884 -0.9514,1.96532 -1.7417,4.2777 -1.7562,5.13862 -0.015,0.86092 -0.7164,3.56429 -1.5597,6.00751 -1.6644,4.82211 -1.5786,5.67387 0.406,4.02681 2.2415,-1.86025 3.8595,-5.92056 3.7294,-9.35883 -0.087,-2.2959 0.7579,-5.23664 2.7307,-9.50657 2.0217,-4.37558 3.1457,-8.34651 3.846,-13.58748 0.7947,-5.94727 1.3082,-7.58132 2.608,-8.30016 0.8902,-0.49228 1.8006,-1.0161 2.0231,-1.16406 0.2226,-0.14796 0.6247,-2.87916 0.8935,-6.06934 0.4924,-5.84134 1.3118,-13.6175 3.5532,-33.7193 2.0986,-18.82086 3.1743,-31.77136 3.0922,-37.2253 -0.043,-2.89305 0.2495,-9.55651 0.6512,-14.80768 0.4808,-6.28641 0.4408,-11.35981 -0.1173,-14.85316 -0.6069,-3.79894 -0.5961,-5.60856 0.038,-6.37255 1.0226,-1.23224 0.4835,-8.54597 -1.2212,-16.56757 -2.6802,-12.61139 -4.4349,-24.20924 -3.9954,-26.40713 0.3044,-1.52177 -0.253,-4.46175 -1.5495,-8.17263 -1.1138,-3.18772 -1.8426,-6.49342 -1.6196,-7.346 1.3213,-5.0528 -14.9987,-28.4786 -19.8402,-28.4786 -0.7581,0 -2.6167,-1.31291 -4.1302,-2.91758 -1.5136,-1.60467 -4.1015,-3.81069 -5.751,-4.90227 -1.8454,-1.22122 -3.1685,-2.83179 -3.4395,-4.18683 -0.7739,-3.86938 -12.8834,-16.01139 -16.5538,-16.59833 -2.4929,-0.39863 -3.7922,-1.33661 -6.5532,-4.73067 -4.0824,-5.01854 -11.5019,-11.42817 -15.5149,-13.40325 -1.577,-0.77615 -4.3699,-2.60203 -6.2064,-4.05751 -7.2405,-5.73843 -18.2591,-9.45641 -32.9761,-11.12707 -2.6535,-0.30122 -5.2026,-1.01703 -5.6647,-1.5907 -1.4952,-1.85606 -15.9864,-5.56492 -30.2353,-7.7384 -5.8156,-0.88709 -12.4858,0.50131 -16.6674,3.4693 -2.3632,1.67732 -2.3632,1.67732 -10.0559,-0.17722 -9.6846,-2.33473 -36.4009,-0.62586 -50.217399,3.21209 -1.6018,0.44496 -4.5277,0.81105 -6.5019,0.81352 -2.3546,0.003 -4.1641,0.52193 -5.26,1.50855 -1.2,1.08025 -4.057,1.78331 -10.1398,2.49519 -4.658,0.54514 -14.1262,2.45938 -21.0404,4.25386 -6.9142,1.7945 -14.3921,3.63776 -16.6175,4.09614 -4.8428,0.99751 -6.0277,1.79684 -5.5233,3.72589 0.3555,1.35951 -19.8766001,11.43924 -22.96090009,11.43924 -1.26235001,0 -14.80703991,9.09017 -16.75962991,11.24776 -1.51342,1.6723 -1.51271,1.70017 0.0435,1.70017 1.56716,0 3.52426,1.402 3.52426,2.52466 0,0.32035 -2.5004,2.4011 -5.55645,4.62388 -9.56284,6.95543 -14.24367,12.1326 -12.60578,13.94244 1.26924,1.40251 1.25948,1.61886 -0.15478,3.42862 -0.83023,1.06241 -4.12593,5.41212 -7.32377,9.66604 -3.19785,4.25392 -6.20218,7.97412 -6.67628,8.26714 -1.3453,0.83144 -1.01759,1.89728 0.75648,2.46035 2.23051,0.70793 2.03027,2.34686 -0.787,6.44163 -4.21515,6.12651 -7.81469,14.30961 -10.8712,24.71432 -1.75421,5.97154 -5.08342,14.42536 -8.1266,20.63576 -5.92058,12.08251 -6.32293,14.12915 -7.71594,39.24841 -1.73941,31.36561 -1.74518,31.42471 -3.69463,37.83223 -0.41858,1.37578 -0.22801,1.8208 0.77967,1.8208 1.95072,0 2.33052,1.78814 1.40756,6.62689 -1.94475,10.19568 -1.9628,14.23473 -0.0663,14.83665 1.90394,0.60429 1.90394,0.66075 -0.002,15.76176 -0.85089,6.74284 -1.12509,21.04038 -0.40353,21.04038 0.25433,0 1.02124,-0.5588 1.70422,-1.2418 1.93043,-1.93041 3.3191,-0.11346 3.93026,5.14235 0.51149,4.39878 1.12429,7.07042 3.96039,17.26625 1.0812,3.88695 1.51378,4.51435 2.86825,4.16015 1.79071,-0.46828 1.68731,-0.66086 5.95411,11.0891 2.15911,5.9458 3.16358,7.74446 4.43283,7.93772 0.90262,0.13743 3.5829,2.59121 5.95617,5.45284 4.1972,5.06087 5.5289,6.11488 5.5289,4.37601 0,-0.79504 -5.25213,-15.59131 -7.74274,-21.81279 -3.48111,-8.69576 -3.66427,-22.25687 -0.39398,-29.17187 1.3109,-2.77191 2.6239,-7.08349 2.91779,-9.5813 0.87873,-7.46868 13.36039,-22.88429 20.736,-25.61024 9.67183,-3.5746 12.54734,-4.3566 19.1981502,-5.22101 8.2177697,-1.06806 9.7932697,-0.82226 9.7932697,1.52786 0,1.61788 0.6522,1.95696 5.6647001,2.94529 12.2496,2.41526 33.0884,14.21029 33.1534,18.7652 0.018,1.27191 1.8757,3.25752 6.2974,6.73164 17.2634,13.56378 31.7069,52.10391 26.3705,70.36576 -1.2496,4.2765 -1.3872,7.80805 -0.3297,8.46166 1.5135,0.93537 19.103096,2.85985 21.694896,2.37363 1.8658,-0.35001 3.946903,0.0487 6.903903,1.32262 8.2086,3.53651 37.8166,4.47183 37.8166,1.19464 z M -31.648379,602.62751 c 8.1e-4,-1.00144 1.67848,-4.36993 3.72797,-7.48552 2.04949,-3.1156 4.60738,-7.40111 5.68419,-9.52336 1.07682,-2.12226 3.78618,-5.94594 6.0208,-8.49708 2.23462,-2.55114 4.42445,-5.09364 4.86628,-5.64999 2.9270802,-3.68579 18.8053699,1.71594 26.43307,8.99241 7.8445,7.48333 0.9373,13.25196 -11.9061001,9.94343 -5.9771997,-1.53977 -7.3392897,-1.29748 -12.5376597,2.23023 -1.7017802,1.15485 -3.6341902,2.09974 -4.2942602,2.09974 -0.66008,0 -3.53586,2.18496 -6.39064,4.85547 -5.9083,5.52691 -11.60721,7.01733 -11.60365,3.03467 z M 270.19863,592.46364 c -2.0029,-1.28526 -4.37,-3.17589 -5.2601,-4.20138 -6.5964,-7.59916 -17.1428,-11.23264 -25.7033,-8.85533 -16.7326,4.64678 -18.8675,-1.7276 -3.1388,-9.3717 16.4896,-8.0139 26.2337,-6.67516 34.6602,4.76197 10.4421,14.17284 10.1154,24.51559 -0.558,17.66644 z M 48.195531,582.05918 c -4.9126,-4.91263 21.0167,-24.95609 32.2685,-24.94362 13.949996,0.0155 32.764699,13.85623 24.701699,18.17144 -2.5318,1.355 -19.895799,1.03047 -25.250299,-0.47191 -4.6675,-1.30963 -4.6675,-1.30963 -14.6195,3.23767 -9.4086,4.29901 -15.4033,5.70349 -17.1004,4.00642 z m 82.165399,-8.52405 c -3.4918,-3.49188 9.963,-16.64666 20.5233,-20.06556 1.7532,-0.5676 4.6049,-1.74479 6.3371,-2.61598 3.3371,-1.67838 4.3784,-1.63289 12.2262,0.53423 21.9045,6.04872 35.1301,21.50447 14.6826,17.15834 -14.0393,-2.98405 -23.3753,-2.06002 -40.4244,4.00101 -5.9457,2.11374 -11.7866,2.54616 -13.3448,0.98796 z M -12.989109,554.73784 c -2.53285,-3.0519 11.5472002,-18.50297 26.25224,-28.8085 12.602,-8.83168 15.0775,-9.17695 26.571,-3.70599 22.4729,10.69724 21.4099,15.07414 -3.0408,12.52022 -6.9784,-0.72892 -9.4367,-0.70742 -11.6753,0.10205 -4.1517,1.50127 -16.8322001,9.32887 -21.9705001,13.56226 -7.3389697,6.04652 -14.1533899,8.71963 -16.1366399,6.32996 z M 238.23343,532.2449 c -11.9995,-5.65191 -18.201,-6.12854 -29.3802,-2.25806 -15.9501,5.52227 -17.1409,0.5734 -2.934,-12.1938 13.9073,-12.49797 14.8667,-12.41377 33.9327,2.97844 17.1994,13.88527 16.346,19.93495 -1.6185,11.47342 z M 93.967427,529.15662 c -4.8806,-1.96023 0.2567,-10.62377 11.145003,-18.79493 2.448,-1.83713 5.4658,-4.41424 6.7063,-5.72691 7.6518,-8.09727 43.4499,9.22183 43.464,21.02782 0.01,4.24292 -5.4967,3.86087 -17.3958,-1.20796 -11.4532,-4.8789 -16.1385,-4.41348 -34.7975,3.45668 -5.265203,2.22078 -6.331003,2.36628 -9.122003,1.2453 z M 253.14573,803.81821 c 1.8758,-2.38468 2.3684,-5.11799 0.6657,-3.69378 -1.6014,1.33949 -4.0189,5.82603 -3.1392,5.82603 0.4379,0 1.551,-0.95952 2.4735,-2.13225 z m -27.513,-3.93709 c 0,-0.44509 -0.5204,0.10115 -1.1565,1.21386 -0.6361,1.11272 -1.1565,2.38728 -1.1565,2.83236 0,0.44509 0.5204,-0.10115 1.1565,-1.21386 0.6361,-1.11272 1.1565,-2.38728 1.1565,-2.83236 z M 18.915531,788.63043 c -1.0322,-4.93368 -2.5373,-8.3191 -3.341,-7.51535 -0.1597,0.15969 0.6541,3.29098 1.8084,6.95841 2.5006,7.94473 3.1259,8.17195 1.5326,0.55694 z m 25.4343,-7.36196 c 0.032,-2.89565 -0.1786,-3.70105 -0.74,-2.83236 -0.4314,0.66763 -0.7644,3.21675 -0.74,5.66472 0.057,5.7006 1.4147,3.10215 1.48,-2.83236 z M 164.18743,460.09825 c 1.1693,-0.53666 2.4308,-2.11981 2.989,-3.75137 0.9011,-2.63354 0.9689,-2.67681 1.0116,-0.6452 0.1267,6.04304 29.7637,-3.01403 32.8102,-10.02682 0.6607,-1.52073 1.174,-2.06115 1.1921,-1.25486 0.047,2.10529 2.0897,1.73264 7.1929,-1.31225 2.515,-1.50063 6.2784,-3.68678 8.363,-4.85811 2.0847,-1.17133 4.0213,-2.85755 4.3036,-3.74714 0.372,-1.17218 0.9995,-1.49985 2.2791,-1.19027 2.1467,0.51935 14.3091,-7.00858 14.3091,-8.85664 0,-1.64871 -4.9849,-2.50831 -7.3148,-1.26138 -1.4325,0.76667 -2.5,0.75004 -5.0089,-0.078 -2.328,-0.7683 -3.5665,-0.81619 -4.5892,-0.17747 -0.7963,0.49727 -1.9146,0.58726 -2.5914,0.20853 -1.8574,-1.0395 -21.2478,-2.38862 -22.1203,-1.53907 -0.4592,0.44705 -1.3145,0.23389 -2.1707,-0.54098 -0.7803,-0.70615 -4.6081,-1.77613 -8.5486,-2.38958 -3.9246,-0.61098 -9.1385,-1.69689 -11.5865,-2.41316 -2.448,-0.71626 -6.0896,-1.41293 -8.0925,-1.54817 -2.0028,-0.13524 -8.7149,-0.69035 -14.9156,-1.23358 -10.058,-0.88117 -16.0995,-0.81776 -26.7605,0.28084 -15.7372,1.6217 -19.9,2.13961 -23.0635,2.86936 -2.002903,0.46203 -5.331003,0.84897 -7.395903,0.85984 -4.4115,0.0232 -6.474296,1.45855 -8.751296,6.08913 -0.9154,1.86167 -1.6054,2.61821 -1.624,1.78061 -0.018,-0.80099 0.5127,-2.5101 1.1787,-3.79799 1.4261,-2.75776 0.5713,-3.6661 -2.6731,-2.84043 -1.1987,0.30506 -7.5504,0.80712 -14.1148,1.11569 -14.3933,0.67658 -13.9845,0.39329 -15.6523,10.8459 -1.87,11.71982 -1.638,12.6782 3.7149,15.34346 11.2526,5.60274 23.0012,9.29445 24.8076,7.79523 0.8841,-0.73372 1.3595,-0.66861 2.1252,0.29105 1.2042,1.50942 25.039199,4.88072 35.324899,4.99649 6.8244,0.0768 6.8244,0.0768 7.794,-3.96943 0.9697,-4.04623 0.9697,-4.04623 1.0658,0.10322 0.1059,4.57086 0.9227,5.67185 4.547,6.12937 4.9766,0.62822 29.9914,-0.371 31.9652,-1.27685 z m -80.766799,-30.8516 c 0.017,-1.33526 0.1979,-1.78353 0.403,-0.99616 0.2052,0.78737 0.1917,1.87986 -0.03,2.42774 -0.2216,0.54788 -0.3895,-0.0963 -0.373,-1.43158 z m -32.4792,5.55761 c 2.0537,-15.75804 3.0831,-14.1101 -8.635,-13.82233 -19.7765,0.48567 -19.7105,7.11136 0.1725,17.30381 7.4504,3.81923 7.5144,3.79286 8.4625,-3.48148 z M 218.81153,397.80078 c 19.2571,-9.00736 14.9493,-39.36312 -5.5861,-39.36312 -17.9792,0 -26.5005,23.23101 -13.7067,37.36794 3.4637,3.82733 13.2189,4.83618 19.2928,1.99518 z m -15.4566,-13.79096 c -4.2093,-4.20928 -2.9887,-11.2022 2.7332,-15.6589 3.0362,-2.36491 8.71,0.0219 11.1171,4.67678 4.1425,8.01061 -7.5504,17.28204 -13.8503,10.98212 z M 62.958131,395.07907 c 23.0751,-9.55261 11.6198,-42.42061 -12.1132,-34.7557 -2.3012,0.7432 -4.7599,1.35127 -5.4637,1.35127 -4.1442,0 -9.5322,6.12292 -10.6707,12.12618 -3.2368,17.06774 11.5366,28.19624 28.2476,21.27825 z m -8.4235,-8.14767 c -3.8371,-0.78645 -7.6221,-7.0727 -6.4611,-10.73081 3.03,-9.54677 15.3325,-9.52309 18.8487,0.0363 1.899,5.1626 -6.0203,11.99955 -12.3876,10.69453 z"
       style="fill:#6d6c5b"
       sodipodi:nodetypes="csssssssssssscsssscssssssscsssssssssssssssssssssssssssssssssssssssssssscsssssssscsssssssssssssssssssssssssssssssssssssscsssssssssssssssssssssssssssscccsssscssssssssssssssscsscsssssscsscsssssssssssssssssscssssssssssssscssssssssscscsssssssssssssscsscsscccssssssssscsssssssssssssssssssssssssssssssssscsssssssssssssssscssccssssssssssssscssssssssscssssssssssscccccccssssssssssssssssscsscc" />
    <path
       inkscape:connector-curvature="0"
       id="path4446"
       d="m 525.56278,853.29038 c -7.27058,-2.7635 -17.88859,-9.5823 -22.28544,-14.3115 -5.13532,-5.5234 -11.70286,-13.4424 -11.70286,-14.111 0,-0.3344 -1.8208,-2.7014 -4.04624,-5.2601 -2.22542,-2.5586 -4.04623,-5.1373 -4.04623,-5.7304 0,-0.9928 -2.2755,-7.652 -7.55609,-22.1129 -4.50161,-12.3276 -4.99728,-23.922 -1.333,-31.1809 1.47084,-2.9138 2.63959,-6.7407 2.94188,-9.6328 0.59468,-5.6897 1.16833,-6.6373 9.58882,-15.8397 8.03677,-8.7831 14.61009,-11.927 29.94208,-14.3208 8.39655,-1.3109 7.946,-1.3626 8.4931,0.9745 0.39923,1.7054 1.29449,2.2304 5.70121,3.3433 2.87517,0.7261 7.23048,2.2326 9.67845,3.3477 2.44797,1.1151 6.91804,3.1612 9.93351,4.5468 3.01549,1.3856 5.77218,2.5193 6.12599,2.5193 1.62827,0 7.40862,5.9268 7.40862,7.5962 0,2.3202 1.09372,3.6059 6.124,7.199 17.73008,12.6646 31.71641,51.8951 25.89641,72.6374 -0.71279,2.5404 -1.06889,5.2107 -0.79133,5.934 0.33112,0.8629 0.0765,1.3152 -0.74069,1.3152 -0.68493,0 -2.04275,1.1198 -3.01737,2.4886 -5.09443,7.1544 -22.09362,16.9523 -29.36096,16.9229 -2.36615,-0.01 -5.49845,0.569 -20.07548,3.7081 -6.57275,1.4155 -13.10136,1.4027 -16.87837,-0.033 z m 28.3236,-8.521 c 2.44797,-0.7825 7.59384,-2.3855 11.43527,-3.5621 9.68185,-2.9656 16.53141,-7.4821 17.6506,-11.6385 4.58108,-17.0128 3.45002,-22.87 -5.88004,-30.45 -6.15601,-5.0012 -8.77833,-5.285 -9.4984,-1.0277 -1.22395,7.2363 -6.22056,6.379 -8.94861,-1.5353 -2.67271,-7.7538 -13.98767,-6.2822 -11.71834,1.524 1.90212,6.543 1.74739,7.8471 -0.93062,7.8435 -2.23249,0 -7.46303,-2.6694 -7.51125,-3.829 -0.14612,-3.5132 -2.39684,-3.593 -6.20771,-0.22 -2.13517,1.8899 -4.71864,3.823 -5.74105,4.2959 -1.56383,0.7234 -1.82078,1.3825 -1.61849,4.1519 0.2276,3.1165 0.12536,3.2844 -1.9173,3.1489 -5.86513,-0.3889 -3.23955,31.1236 2.7058,32.4753 6.48465,1.4743 21.90022,0.8305 28.18014,-1.1769 z m -36.17698,-29.7173 c 0.39296,-4.6429 0.15307,-6.2725 -1.56388,-10.6225 -2.54514,-6.4484 -3.95454,-14.588 -2.73682,-15.8058 1.88766,-1.8876 6.85239,3.9904 9.14596,10.8285 0.6718,2.0029 1.78899,3.7562 2.48266,3.8962 1.68361,0.3398 10.40349,-8.1521 9.88973,-9.6312 -1.57103,-4.523 -3.74114,-16.0664 -3.53967,-18.8285 0.59715,-8.187 9.23435,-1.0163 12.06115,10.0133 1.03288,4.03 1.03288,4.03 7.70394,4.03 7.46714,0 6.90708,0.492 8.29186,-7.2832 1.62282,-9.1116 5.28307,-14.5924 7.95859,-11.9169 1.76299,1.763 2.87717,10.7594 1.89798,15.3253 -1.1746,5.4769 -1.18725,5.4342 2.00379,6.7675 9.934,4.1507 17.756,14.4202 17.09898,22.4493 -0.45309,5.5369 0.80022,6.7235 3.96305,3.7522 2.85336,-2.6806 2.23097,-17.8491 -1.35532,-33.0308 -3.39908,-14.3893 -20.0384,-36.5256 -27.45534,-36.5256 -2.15602,0 -2.73314,-1.4818 -1.48526,-3.8135 1.03409,-1.9322 -3.34852,-7.4521 -5.95789,-7.5039 -0.3332,-0.01 -3.84082,-1.4687 -7.79472,-3.2491 -11.60584,-5.2258 -16.56268,-4.5582 -25.96042,3.4965 -2.87546,2.4645 -5.53164,4.2934 -5.90262,4.0641 -2.01693,-1.2465 -10.57907,9.3551 -12.87538,15.9423 -0.92818,2.6626 -0.92818,2.6626 -2.39791,0.8476 -2.3856,-2.9461 -3.13343,-1.3173 -3.13343,6.8248 0,6.6407 -0.19545,7.7162 -1.53234,8.4317 -2.91206,1.5585 -3.927,13.7043 -1.98749,23.7844 0.35729,1.8569 0.77265,2.2133 2.18285,1.8733 1.50922,-0.3638 2.15286,0.4448 4.82371,6.0601 3.20772,6.744 8.85373,13.646 11.16282,13.646 0.73546,0 1.7872,0.5423 2.33721,1.205 1.59583,1.9228 2.17874,0.8271 2.67421,-5.0271 z m 3.48572,-11.6204 c -0.62329,-3.8978 -4.62444,-12.1408 -5.1485,-10.6067 -0.19925,0.5833 0.0668,2.7682 0.59119,4.8555 2.013,8.012 5.65347,12.6062 4.55731,5.7512 z m 23.78956,-1.9266 c 0,-5.9617 -5.55205,-21.9449 -8.62612,-24.8329 -3.29921,-3.0994 -1.32707,9.8525 3.09093,20.2995 1.99806,4.7248 5.53519,7.6217 5.53519,4.5334 z m 21.52513,-10.7096 c 1.82264,-13.6997 0.77967,-21.8166 -2.10962,-16.4179 -1.86602,3.4867 -4.00206,18.4562 -3.04156,21.3155 2.31471,6.8906 3.76648,5.5103 5.15118,-4.8976 z m 171.66044,62.8069 c -15.2068,-2.0445 -25.1894,-8.4088 -29.7906,-18.9924 -0.9568,-2.201 -2.4879,-4.8211 -3.4023,-5.8225 -0.9145,-1.0015 -1.4376,-1.8208 -1.1625,-1.8208 0.2751,0 -0.2324,-1.6562 -1.1279,-3.6805 -3.5576,-8.0427 -2.317,-26.2656 2.4722,-36.3114 0.866,-1.8165 3.2394,-7.4188 5.2743,-12.4496 4.9915,-12.3407 7.0673,-16.2773 11.3652,-21.554 2.0063,-2.4632 3.6478,-4.877 3.6478,-5.3641 0,-1.8262 12.6837,-16.0995 17.3179,-19.4882 2.5174,-1.8409 4.0121,-2.3079 7.3864,-2.3079 2.8522,0 4.573,-0.4128 5.2821,-1.2672 2.7983,-3.3718 8.9714,-4.5297 14.1555,-2.6551 2.2021,0.7963 3.1086,0.6776 6.1799,-0.8093 6.8125,-3.2978 19.2516,-0.2885 28.7737,6.9612 1.5066,1.1471 3.1665,1.7871 3.9025,1.5046 3.4537,-1.3252 8.0089,5.7343 9.2384,14.3173 0.3948,2.7566 1.3138,7.0149 2.0422,9.4628 2.0938,7.0376 2.5244,17.0335 0.876,20.3358 -0.7488,1.5003 -1.5507,4.3341 -1.782,6.2975 -0.2313,1.9634 -1.6734,6.0578 -3.2047,9.0987 -1.9349,3.8421 -2.8914,6.9861 -3.1354,10.3055 -0.3818,5.1933 -2.0919,10.0561 -4.4388,12.6218 -0.8198,0.8962 -2.4133,3.4742 -3.5409,5.7287 -9.3482,18.6896 -28.9353,33.5355 -46.4088,35.1753 -4.8242,0.4527 -10.0458,0.9644 -11.6036,1.1372 -1.5578,0.1727 -5.3003,-0.018 -8.3166,-0.4234 z m 24.1292,-8.4667 c 13.0611,-3.3928 17.2904,-11.5065 12.8881,-24.7254 -3.1095,-9.3372 -3.3042,-9.4934 -8.0689,-6.4717 -6.4531,4.0924 -9.028,3.0966 -5.9864,-2.3151 2.099,-3.7347 1.5996,-4.808 -3.4319,-7.3748 -4.7798,-2.4385 -6.8066,-2.0697 -9.2957,1.6915 -3.7177,5.6178 -7.5825,5.37 -7.5825,-0.4863 0,-6.249 -12.3718,-7.8008 -15.5893,-1.9553 -2.8798,5.2319 -4.6733,6.6031 -8.2702,6.3227 -4.5002,-0.3509 -5.0455,15.578 -0.8225,24.024 5.0365,10.0731 28.6296,15.8439 46.1593,11.2904 z m 29.7329,-21.2037 c 2.8065,-4.5627 6.2306,-13.9934 6.7872,-18.6931 0.3655,-3.0861 0.8321,-4.1691 1.7971,-4.1718 3.3406,-0.01 6.5134,-4.6317 6.0228,-8.7739 -0.4946,-4.1763 0.6124,-7.4073 2.5378,-7.4073 0.622,0 1.3633,-0.7323 1.6474,-1.6274 0.2841,-0.895 1.5832,-2.1789 2.8869,-2.8531 1.3158,-0.6804 2.3704,-1.8871 2.3704,-2.7122 0,-0.8175 1.119,-2.8945 2.4866,-4.6155 1.8281,-2.3003 2.3663,-3.6693 2.0322,-5.169 -0.2499,-1.122 -1.015,-4.9533 -1.7001,-8.514 -0.6851,-3.5607 -1.7548,-7.7486 -2.3771,-9.3064 -0.6223,-1.5577 -1.3203,-4.7192 -1.5511,-7.0255 -0.6532,-6.5268 -3.2972,-11.0699 -6.1146,-10.5064 -1.8157,0.3631 -2.9223,-0.1638 -5.7858,-2.7553 -7.6235,-6.8991 -22.1516,-10.4138 -27.0662,-6.5479 -1.8603,1.4633 -2.9437,1.7321 -5.3449,1.3265 -2.6003,-0.4393 -3.147,-0.2518 -4.0026,1.3728 -0.5449,1.0349 -4.082,5.0519 -7.8602,8.9266 -6.7757,6.949 -6.8632,7.0907 -6.4207,10.3901 0.3995,2.9783 0.1455,3.6806 -2.3163,6.4056 -1.5208,1.6833 -2.7651,3.5146 -2.7651,4.0695 0,0.5549 -1.1275,2.2931 -2.5055,3.8626 -2.0195,2.3001 -2.4113,3.3248 -2.0199,5.282 0.4076,2.0379 0.03,2.8713 -2.3499,5.1823 -3.1731,3.0817 -3.6479,5.5461 -1.2171,6.3176 1.9541,0.6203 2.0016,1.1161 0.3344,3.4963 -1.4013,2.0007 -0.45,4.1916 1.82,4.1916 0.6309,0 2.6551,0.7693 4.4983,1.7096 3.3809,1.7249 5.486,0.9798 5.486,-1.9417 0,-1.8796 3.4762,-5.4327 5.3152,-5.4327 2.7024,0 2.6719,5.0766 -0.071,11.7341 -1.1001,2.6705 -2.0019,4.9295 -2.004,5.0199 -0.01,0.4522 8.0756,3.7515 10.7599,4.3903 2.8253,0.6724 3.2368,0.5405 5.0547,-1.62 6.8781,-8.1741 13.5742,-3.1571 8.5026,6.3705 -1.5071,2.8313 -1.5071,2.8313 2.0571,6.6416 2.8502,3.0472 3.5641,4.3952 3.5641,6.7306 0,7.4347 4.4867,11.17 7.511,6.2531 z m -19.4494,-16.2928 c 3.4576,-2.4142 6.9731,-8.6204 5.6389,-9.9546 -1.9319,-1.9319 -6.2343,2.3668 -11.3617,11.3516 -1.3966,2.4474 1.0845,1.8417 5.7228,-1.397 z m -49.8255,-4.541 c 2.2781,-4.0612 5.3091,-15.16 4.9289,-18.0483 -0.2879,-2.1871 -0.2879,-2.1871 -1.2271,-0.164 -1.3478,2.9031 -8.296,20.8905 -8.296,21.4765 0,1.6307 3.0733,-0.5528 4.5942,-3.2642 z m 27.587,-5.4667 c 4.8894,-9.0882 6.7762,-14.3641 5.1368,-14.3641 -0.4647,0 -1.2581,0.8194 -1.763,1.8208 -0.5049,1.0015 -2.9118,4.7684 -5.3487,8.371 -2.9471,4.357 -4.5817,7.6762 -4.8817,9.9133 -0.8117,6.0518 1.5974,4.0347 6.8566,-5.741 z m -291.01478,-11.5738 c 0.15378,-0.7933 0.76958,-1.6055 1.36844,-1.8049 0.69646,-0.2319 0.98809,0.1572 0.80924,1.0798 -0.15377,0.7933 -0.76957,1.6055 -1.36843,1.8049 -0.69646,0.2319 -0.98809,-0.1572 -0.80925,-1.0798 z m -9.68086,-27.9376 c 0.15948,-0.4785 0.63593,-0.8699 1.05876,-0.8699 0.42283,0 0.89927,0.3914 1.05876,0.8699 0.1595,0.4785 -0.31694,0.87 -1.05876,0.87 -0.7418,0 -1.21825,-0.3915 -1.05876,-0.87 z m 390.44074,-9.3805 c -0.8395,-0.8395 -0.6343,-3.5067 0.2698,-3.5067 0.4451,0 0.8092,0.9104 0.8092,2.0231 0,2.1186 -0.1869,2.3757 -1.079,1.4836 z m 5.9469,-2.4474 c 0.028,-1.493 1.5806,-3.1626 1.5937,-1.714 0.01,0.7526 -0.3518,1.5935 -0.7969,1.8685 -0.4451,0.2751 -0.8036,0.2056 -0.7968,-0.1545 z m -405.7142,-3.2173 c -0.29673,-0.2967 -0.5395,-0.9158 -0.5395,-1.3757 0,-0.5071 0.37692,-0.4593 0.95761,0.1214 0.52669,0.5266 0.76946,1.1457 0.5395,1.3757 -0.22997,0.2299 -0.66089,0.1753 -0.95761,-0.1214 z m -12.67818,-2.6975 c 0,-1.3353 0.33745,-2.4277 0.74991,-2.4277 0.41245,0 0.90642,-0.4552 1.09772,-1.0116 0.19129,-0.5563 0.22297,-0.2832 0.0704,0.6069 -0.15258,0.8902 -0.2824,2.4379 -0.28848,3.4393 -0.006,1.0015 -0.37521,1.8208 -0.82029,1.8208 -0.44509,0 -0.80925,-1.0924 -0.80925,-2.4277 z m 408.30948,1.6915 c -0.6463,-1.0457 0.384,-3.3904 1.2536,-2.853 0.9636,0.5956 0.9327,3.5892 -0.037,3.5892 -0.4189,0 -0.9663,-0.3313 -1.2165,-0.7362 z m 0.677,-8.2411 c 0.3151,-2.4064 0.7527,-6.5602 0.9724,-9.2307 0.2197,-2.6705 0.7555,-8.315 1.1907,-12.5433 2.1618,-21.006 3.4414,-36.7907 3.5753,-44.1039 0.082,-4.4508 0.4223,-11.3699 0.7573,-15.3756 0.3642,-4.3534 0.2695,-9.3444 -0.2353,-12.407 -0.5943,-3.6059 -0.5887,-5.5333 0.019,-6.5064 0.6279,-1.0054 0.4831,-3.6921 -0.5306,-9.8473 -1.5914,-9.6618 -2.3736,-19.3594 -1.3029,-16.1525 1.3361,4.0022 2.7013,10.212 3.3802,15.3757 0.3804,2.893 0.9377,6.8159 1.2385,8.7175 0.4255,2.6902 0.2356,3.8014 -0.8555,5.0071 -1.2132,1.3405 -1.2697,1.9514 -0.4193,4.5282 0.7699,2.3327 0.7715,4.8946 0.01,11.8132 -0.5366,4.859 -0.7376,10.5645 -0.4468,12.6791 0.5987,4.3533 -0.6622,26.2655 -2.3834,41.4164 -2.5719,22.6411 -2.4323,23.8395 2.1322,18.3019 1.8933,-2.2968 2.9935,-2.9262 5.1155,-2.9262 5.2028,0 12.6318,-10.8783 16.653,-24.3852 1.5578,-5.2327 7.4077,-19.8369 14.5437,-36.3082 2.1051,-4.8589 3.117,-8.2393 6.0558,-20.2312 2.1756,-8.8774 2.292,-17.4862 0.3554,-26.3004 -1.3719,-6.2442 -1.6688,-9.532 -1.3,-14.3951 0.3827,-5.0466 0.1707,-7.1431 -1.0639,-10.5202 -0.848,-2.3197 -1.9521,-7.0196 -2.4534,-10.4442 -1.9821,-13.5411 -8.5094,-39.076 -11.3385,-44.3566 -0.5946,-1.1097 -3.1701,-7.0331 -5.7235,-13.163 -5.983,-14.3635 -12.3186,-25.4954 -18.4879,-32.4839 -2.7045,-3.0637 -4.9173,-5.9818 -4.9173,-6.4847 0,-1.8135 -5.657,-12.6644 -9.8148,-18.8259 -3.8147,-5.6531 -8.738,-11.1914 -27.4787,-30.911 -3.179,-3.3451 -5.8777,-6.9595 -6.127,-8.206 -0.4582,-2.2911 -8.6914,-3.8801 -17.0166,-3.2842 -3.8332,0.2744 -6.0697,-1.2104 -5.7672,-3.8287 0.2508,-2.171 0.2508,-2.171 9.5022,-2.2086 10.1524,-0.041 10.4768,-0.2115 8.9908,-4.7142 -0.9052,-2.7428 -0.9052,-2.7428 -13.4176,-3.3292 -18.1368,-0.85 -18.6583,-3.767 -0.9209,-5.1513 9.6634,-0.7542 9.852,-0.8314 9.1244,-3.7304 -1.4713,-5.8622 -4.5502,-7.277 -11.0518,-5.0785 -8.6332,2.9195 -11.6651,3.3351 -13.1918,1.8084 -2.0446,-2.0446 -0.8313,-3.2425 6.8103,-6.7232 6.2918,-2.8659 7.2376,-3.5601 7.2376,-5.3128 0,-2.7186 -4.5146,-16.5625 -6.2761,-19.2456 -1.4862,-2.2639 -7.7306,-10.7254 -12.0754,-16.363 -1.4142,-1.8349 -4.0982,-5.7977 -5.9645,-8.8062 -1.8663,-3.0085 -6.2874,-8.1926 -9.8247,-11.5202 -7.01,-6.5945 -7.2664,-7.6918 -1.7976,-7.6918 2.4706,0 3.7671,-0.3852 4.085,-1.2138 0.2562,-0.6677 0.9731,-1.2139 1.5931,-1.2139 1.9421,0 1.2583,-1.1004 -2.9193,-4.6981 -5.8992,-5.0803 -5.0366,-9.2725 2.0728,-10.0739 14.0753,-1.58644 22.3823,-32.91048 18.0798,-68.17567 -0.8962,-7.34579 -4.5487,-17.95839 -6.8332,-19.85438 -2.4325,-2.01874 -20.2666,20.44623 -25.3443,31.92515 -6.1215,13.83882 -7.4774,32.85148 -2.6254,36.81676 2.748,2.24588 2.748,2.24588 0.9311,4.70339 -1.443,1.95175 -1.6403,2.78758 -0.9586,4.06128 0.6428,1.20113 0.5679,1.98739 -0.2985,3.13174 -1.9411,2.56396 -1.5974,11.47363 0.5084,13.17873 1.5829,1.2818 1.6144,1.4922 0.4046,2.702 -0.7216,0.7215 -1.312,2.2268 -1.312,3.3451 0,3.3055 -1.2668,3.2021 -7.0569,-0.576 -5.1504,-3.3607 -5.759,-3.5571 -9.9372,-3.2081 -2.7976,0.2337 -8.9599,-0.4246 -16.5896,-1.7721 -32.00545,-5.6526 -66.73354,-4.6306 -84.1615,2.4769 -11.15836,4.5506 -15.63834,4.3045 -11.18671,-0.6145 0.98528,-1.0887 1.11334,-1.7423 0.46786,-2.3877 -0.48881,-0.4888 -0.69809,-1.3856 -0.46509,-1.9928 0.25713,-0.67 -0.4039,-1.4186 -1.68172,-1.9045 -2.83394,-1.0774 -2.69343,-3.35139 0.42666,-6.90498 2.4639,-2.80623 2.49254,-2.92751 1.06393,-4.50611 -1.4109,-1.55902 -1.41271,-1.84995 -0.0464,-7.4622 3.46929,-14.25105 2.56487,-26.42141 -2.92969,-39.42362 -1.78683,-4.2283 -4.3529,-12.23983 -5.70238,-17.8034 -3.28148,-13.52867 -8.89643,-21.04038 -15.72753,-21.04038 -3.34042,0 -7.10145,9.57017 -7.95072,20.23114 -0.30138,3.78322 -1.08528,7.73191 -1.74199,8.77487 -0.65671,1.04296 -1.39367,4.68456 -1.63771,8.09246 -0.24403,3.40789 -1.00297,7.16841 -1.68653,8.35671 -1.12784,1.96064 -1.10698,2.73744 0.22542,8.39529 1.18265,5.02194 1.37656,8.17554 0.99684,16.2119 -0.47142,9.97716 -0.47142,9.97716 3.11875,17.35356 1.97459,4.05701 3.59016,7.82076 3.59016,8.36386 0,0.5431 0.72832,2.416 1.61849,4.162 0.89017,1.746 1.6185,3.7695 1.6185,4.4966 0,0.727 0.69557,1.9514 1.5457,2.7208 0.85015,0.7693 1.78983,2.3714 2.08818,3.5602 0.9103,3.6269 5.16705,6.6212 9.41287,6.6212 1.9343,0 1.94538,1.1048 0.0254,2.5314 -0.82185,0.6106 -5.13307,3.8694 -9.58048,7.2418 -4.4474,3.3724 -9.69259,6.77 -11.65596,7.5502 -5.61429,2.2312 -9.02998,6.183 -6.19982,7.1729 1.71537,0.6 -1.79246,3.7876 -7.0809,6.4344 -6.43699,3.2217 -7.77068,4.4689 -7.20192,6.735 0.34142,1.3603 -0.31492,2.6891 -2.55026,5.1634 -3.43319,3.8001 -3.74558,10.7084 -0.71975,15.9168 1.41997,2.4441 1.41269,2.5706 -0.30854,5.3556 -0.96955,1.5688 -1.76302,4.0839 -1.76324,5.5891 -2.2e-4,1.5053 -0.72854,4.6526 -1.61849,6.9941 -0.88995,2.3415 -1.61808,5.5396 -1.61808,7.1069 0,1.5673 -0.54625,4.157 -1.21387,5.7549 -0.66763,1.5978 -1.21387,4.184 -1.21387,5.7471 0,1.5631 -0.4218,4.2498 -0.93734,5.9705 -1.18476,3.9544 -0.0546,8.1318 3.36371,12.4332 1.33601,1.6811 2.4291,3.498 2.4291,4.0374 0,0.5395 2.22721,1.855 4.94935,2.9234 6.97082,2.736 6.92457,2.9137 -3.52266,13.5274 -9.30736,9.4556 -9.30736,9.4556 -9.88988,16.3196 -0.65118,7.6731 -0.80123,8.0693 -4.92605,13.0064 -1.61623,1.9345 -4.21662,6.0551 -5.77863,9.1568 -1.56201,3.1018 -3.7493,7.0136 -4.86064,8.6929 -3.53894,5.3477 -1.31808,5.3244 9.86669,-0.1034 1.78034,-0.8639 5.78611,-2.6032 8.9017,-3.865 4.53231,-1.8357 5.89299,-2.8024 6.80661,-4.8362 0.62804,-1.398 1.72052,-2.7726 2.42773,-3.0547 4.31924,-1.7224 39.54843,-9.9787 44.58049,-10.4479 4.15664,-0.3875 6.5794,-1.0341 7.68784,-2.0517 1.07047,-0.9828 3.26253,-1.6012 6.47396,-1.8262 2.67051,-0.1871 8.315,-0.9264 12.54331,-1.6429 23.98016,-4.0632 37.43558,-4.7372 46.05601,-2.3071 5.87724,1.6568 6.04882,1.6606 8.49708,0.1863 2.06675,-1.2446 5.66311,-2.4794 15.44661,-5.3034 0.4451,-0.1285 1.3555,0.215 2.0231,0.7634 0.6677,0.5483 5.4018,1.8307 10.5202,2.8498 10.0815,2.0072 21.5173,5.1823 22.9675,6.3769 0.4979,0.41 5.0328,1.3515 10.0776,2.0921 9.745,1.4306 21.1786,5.8796 26.4345,10.2861 1.3352,1.1195 3.7594,2.6606 5.387,3.4247 3.6944,1.7346 13.958,10.4863 17.5123,14.9328 2.019,2.5258 3.2373,3.3379 5.0073,3.3379 2.7117,0 14.0215,11.0182 18.1213,17.6539 1.2882,2.0851 2.9097,4.1219 3.6032,4.5262 0.6935,0.4043 2.7786,2.134 4.6336,3.8439 1.855,1.7099 3.8115,3.1089 4.3478,3.1089 2.0757,0 6.7118,4.514 12.5267,12.197 3.3346,4.4057 6.2321,7.7367 6.4388,7.4022 0.8203,-1.3273 -3.1608,-17.3871 -5.3782,-21.6964 -4.7514,-9.2336 -6.4387,-31.1527 -2.4992,-32.4658 1.5618,-0.5206 1.827,1.7945 0.8953,7.8139 -1.0818,6.989 -0.1696,12.3737 3.8447,22.6939 5.1595,13.2646 5.6681,15.732 5.7617,27.9539 0.073,9.57 0.3732,12.1614 1.9073,16.4824 1.447,4.0756 1.6402,5.5224 0.9419,7.055 -1.3213,2.8999 -2.6953,2.4094 -2.1024,-0.7506 0.3419,-1.8226 -0.076,-4.2145 -1.309,-7.4855 -0.9963,-2.6439 -1.7748,-6.0369 -1.73,-7.54 0.2123,-7.1298 -15.507,-30.0415 -20.611,-30.0415 -0.984,0 -2.4657,-0.9781 -3.3714,-2.2255 -0.8887,-1.2239 -3.2517,-3.3179 -5.2512,-4.6531 -2.2679,-1.5145 -3.7921,-3.2046 -4.0518,-4.493 -0.7103,-3.5238 -13.9881,-16.952 -16.7621,-16.952 -1.6843,0 -3.0681,-0.843 -4.9818,-3.0347 -6.3595,-7.2836 -15.3203,-14.998 -18.6384,-16.0459 -0.9981,-0.3153 -3.2987,-1.7873 -5.1125,-3.2712 -6.9389,-5.6768 -17.9931,-9.4674 -32.7098,-11.2164 -2.4458,-0.2907 -4.9983,-1.0275 -5.672,-1.6372 -1.9836,-1.7951 -17.1305,-5.6097 -30.6052,-7.7075 -5.5229,-0.8598 -15.10778,1.2196 -17.19087,3.7296 -1.26517,1.5244 -2.56363,1.4561 -10.13437,-0.5334 -8.43221,-2.216 -37.10746,-0.3097 -49.70961,3.3046 -1.54429,0.4429 -4.42545,0.8052 -6.40259,0.8052 -2.35128,0 -4.17271,0.5166 -5.26544,1.4934 -1.17026,1.046 -4.09448,1.7887 -9.7631,2.4796 -4.45086,0.5424 -13.91903,2.4593 -21.04039,4.2597 -7.12136,1.8003 -14.98408,3.7227 -17.47271,4.2718 -5.75476,1.2699 -6.50186,1.7611 -5.98144,3.9324 0.36544,1.5247 -0.22546,2.0432 -4.24557,3.726 -6.70872,2.8082 -17.05919,7.2472 -21.03867,9.023 -9.00582,4.0185 -18.38216,12.8949 -13.62128,12.8949 2.35972,0 3.31794,1.196 1.88634,2.3544 -0.56613,0.4581 -3.2143,2.5309 -5.88481,4.6063 -10.73308,8.3411 -13.63269,11.8909 -11.17883,13.6852 1.23241,0.9011 1.01006,1.4189 -2.29728,5.3493 -2.01397,2.3933 -4.77659,5.9903 -6.13915,7.9932 -1.36256,2.0028 -3.60623,4.7111 -4.98592,6.0184 -2.89052,2.7387 -3.22914,4.5017 -0.86466,4.5017 2.88644,0 2.60183,2.12 -0.99341,7.3995 -3.9081,5.7389 -6.94581,12.6609 -9.53767,21.7334 -2.69752,9.4423 -3.96233,12.6639 -8.89593,22.6589 -5.62196,11.3895 -6.04814,13.8669 -7.72634,44.9131 -1.30875,24.2115 -1.44816,25.47 -3.46917,31.3176 -1.37961,3.9917 -0.99001,5.5856 0.96806,3.9606 1.73369,-1.4388 2.25659,0.1153 1.38612,4.1199 -1.94709,8.9574 -1.99933,15.8309 -0.12482,16.4258 3.03013,0.9617 2.08596,7.3852 -1.03677,7.0534 -1.26214,-0.1341 -2.80552,0.1801 -3.42971,0.6981 -1.16418,0.9662 -1.12902,1.0093 -2.33731,-2.8684 -0.20569,-0.6601 -0.89717,-0.9994 -1.53663,-0.754 -0.63945,0.2454 -1.40305,0.057 -1.69688,-0.4183 -0.29383,-0.4754 -1.46562,-0.8644 -2.60398,-0.8644 -1.67098,0 -1.98823,-0.3117 -1.6467,-1.6177 0.5844,-2.2348 -0.83353,-2.8694 -2.67916,-1.1991 -1.46023,1.3214 -1.68058,1.2707 -4.60217,-1.0595 -7.85113,-6.262 -14.86161,-19.2916 -18.81398,-34.9675 -1.29053,-5.1185 -3.11682,-11.4913 -4.05843,-14.1618 -7.31361,-20.7422 -8.06971,-40.2683 -2.27186,-58.6703 0.49081,-1.5578 0.82903,-5.7456 0.7516,-9.3063 -0.31814,-14.6291 3.32671,-31.0055 9.67061,-43.4502 0.83771,-1.6433 1.3233,-3.5085 1.0791,-4.1449 -2.02895,-5.2873 12.01768,-38.321 20.0883,-47.2419 1.06034,-1.1721 1.67943,-3.1592 1.82505,-5.8582 0.34468,-6.3882 11.1426,-21.1151 19.57891,-26.7031 4.04129,-2.6769 6.66216,-5.8232 9.57208,-11.4911 1.25568,-2.4458 3.83077,-5.2451 7.42159,-8.0677 19.14349,-15.0479 23.25363,-21.6036 12.98425,-20.7097 -27.1436,2.3626 -43.04061,4.1855 -54.39308,6.2372 -11.04865,1.9968 -11.71972,2.023 -10.09079,0.394 1.70701,-1.707 34.74111,-7.1164 59.32666,-9.7148 14.5732,-1.5403 15.61282,-2.5109 15.45295,-14.4272 -0.10213,-7.6126 0.0282,-7.5009 -9.61387,-8.2393 -4.04698,-0.3099 -9.36103,-1.0827 -11.809,-1.7173 -2.44796,-0.6346 -8.63869,-1.3111 -13.75717,-1.5034 -5.11848,-0.1923 -11.85545,-0.7205 -14.97104,-1.1739 -3.1156,-0.4534 -11.20506,-1.0701 -17.97658,-1.3704 -19.84592,-0.8801 -13.51371,-1.6949 11.67997,-1.5028 21.7043,0.1654 24.38104,0.351 39.29716,2.7241 19.67942,3.131 22.01377,2.4178 27.65125,-8.4485 2.91908,-5.6265 -7.22514,-8.789 -42.8484,-13.358 -7.74882,-0.9938 -27.27227,-3.1608 -28.57367,-3.1714 -0.58869,-0.01 -0.8049,-0.4203 -0.48665,-0.9353 1.33956,-2.1674 46.02445,2.3486 65.07175,6.5764 4.22831,0.9386 8.63173,1.9061 9.7854,2.1501 2.27755,0.4818 5.44359,-2.7509 8.43169,-8.6091 0.79457,-1.5578 2.31703,-3.9801 3.38323,-5.3829 1.35261,-1.7796 1.78978,-3.1433 1.44634,-4.5117 -0.55629,-2.2164 5.12462,-9.6108 11.02922,-14.3559 2.80774,-2.2563 3.17611,-2.9186 2.73657,-4.9198 -0.66,-3.005 4.64645,-7.2783 17.17798,-13.8335 9.41895,-4.927 10.64383,-6.5245 5.49695,-7.1695 -4.31371,-0.5405 -4.64216,-2.4914 -0.81742,-4.8552 6.32451,-3.9088 6.46124,-7.6227 0.31679,-8.6053 -5.08786,-0.8136 -6.16008,-2.0098 -4.90716,-5.4747 1.01102,-2.7959 0.88746,-3.2255 -3.46207,-12.03544 -6.00046,-12.15389 -6.50629,-17.96275 -3.29291,-37.81519 1.18871,-7.3439 2.49581,-15.87254 2.90465,-18.95252 1.51401,-11.4053 12.99979,-31.49425 19.76354,-34.56695 11.48882,-5.21926 21.4735,2.92857 25.91761,21.14965 1.24839,5.11847 3.53328,12.2196 5.07752,15.78029 5.70463,13.15361 7.15665,25.40246 4.5243,38.16566 -1.80674,8.76015 -1.79594,10.03088 0.0943,11.09577 0.89017,0.50149 1.7769,1.00951 1.97053,1.12896 0.19362,0.11944 -1.03872,1.64143 -2.73854,3.3822 -3.4219,3.50435 -3.43989,5.70697 -0.0466,5.70697 2.54257,0 4.31341,3.5762 2.89977,5.856 -2.3214,3.7439 0.14586,3.8502 8.43503,0.3632 13.35711,-5.6187 54.82795,-7.24697 76.06909,-2.9866 20.6908,4.1499 25.0593,4.0483 21.8931,-0.5097 -1.6449,-2.3678 -0.6539,-6.68666 1.668,-7.26942 2.508,-0.62947 2.4435,-2.14977 -0.2036,-4.79683 -2.7152,-2.71519 -2.4074,-11.25642 0.7621,-21.15261 9.99,-31.19152 14.0823,-41.77142 18.8954,-48.85096 1.3464,-1.98042 3.6633,-5.9026 5.1488,-8.71595 20.8357,-39.46241 42.3898,35.36929 22.568,78.35191 -1.3341,2.89305 -3.2282,5.91428 -4.2089,6.71384 -3.8073,3.10382 -5.6722,4.10122 -8.5292,4.56132 -5.4272,0.874 -4.7199,4.6306 1.843,9.7881 5.8816,4.6222 6.42,5.6418 2.9789,5.6418 -1.2807,0 -2.7692,0.5308 -3.3076,1.1796 -0.6311,0.7604 -1.7815,1.019 -3.2379,0.7277 -3.7547,-0.751 -3.9211,1.2473 -0.358,4.2975 5.0627,4.3339 5.1248,4.4078 9.5031,11.3 4.5284,7.1285 6.9823,10.6437 12.8173,18.3605 6.7069,8.87 11.1373,17.6211 11.7139,23.1379 0.6694,6.4041 1.3817,6.9252 6.8392,5.0031 2.4036,-0.8464 8.936,-3.1652 14.5165,-5.1528 8.997,-3.2044 26.4506,-7.5938 36.1829,-9.0996 4.08,-0.6313 4.7897,0.8169 0.8092,1.6513 -1.4465,0.3032 -6.9999,1.9214 -12.341,3.5958 -5.341,1.6745 -13.5346,4.069 -18.208,5.3211 -8.073,2.163 -22.6589,8.6361 -22.6589,10.056 0,0.3654 1.0658,1.8052 2.3683,3.1996 1.3025,1.3944 2.6005,3.5927 2.8844,4.8851 0.7822,3.5614 2.1604,4.2808 7.0456,3.6775 6.8375,-0.8444 51.4691,-0.8726 57.7015,-0.037 7.1548,0.9598 -4.5665,2.0982 -38.0346,3.6938 -24.555,1.1708 -21.6978,0.3269 -20.8871,6.169 0.6575,4.7383 0.6575,4.7383 3.8937,4.9702 10.492,0.7517 34.7158,4.5043 42.4847,6.5814 3.3381,0.8925 8.2543,2.212 10.9248,2.9321 8.7279,2.3536 7.7894,3.5168 -1.6185,2.0059 -2.6705,-0.4289 -7.9508,-1.1525 -11.7341,-1.6081 -3.7832,-0.4556 -10.8843,-1.555 -15.7802,-2.4433 -25.6264,-4.6493 -28.7505,-3.1676 -17.891,8.485 2.4887,2.6705 8.4468,9.0433 13.2401,14.1618 11.9619,12.7734 18.4217,22.0799 22.4362,32.3238 1.1675,2.979 3.5159,6.6935 5.8408,9.2382 4.2128,4.6114 10.9849,15.2539 14.2334,22.3684 5.573,12.2049 11.8964,27.6309 13.1033,31.9652 0.7436,2.6705 2.2161,7.5867 3.2722,10.9248 1.0562,3.3382 2.6796,10.4393 3.6078,15.7803 0.9281,5.341 2.408,12.8063 3.2887,16.5895 0.9566,4.1094 1.598,9.7327 1.5931,13.9681 0,4.2916 0.6588,10.0402 1.6818,14.5664 2.6735,11.8289 -0.1187,32.8315 -6.1582,46.3208 -5.8725,13.1162 -13.4316,31.9772 -14.8805,37.1289 -2.7739,9.8624 -5.9724,15.7974 -12.1884,22.6165 -5.1301,5.6277 -5.5784,6.3913 -4.8605,8.2796 0.9684,2.547 0.9757,2.7839 0.085,2.7839 -0.3882,0 -0.9387,-1.4566 -1.2234,-3.2369 -0.3349,-2.0946 -0.9427,-3.237 -1.7219,-3.237 -1.2563,0 -1.4606,0.6643 -1.2487,4.0617 0.1191,1.9095 -0.1015,2.0309 -3.4838,1.917 -3.4871,-0.1174 -3.6284,-0.029 -4.119,2.5862 -0.904,4.8189 -2.3881,4.3531 -1.7463,-0.5481 z m -3.1407,-309.9167 c -1.3302,-0.3967 -4.6076,-0.897 -7.2832,-1.1117 -4.8646,-0.3903 -4.8646,-0.3903 0.8001,0.6816 6.6322,1.255 9.9973,1.4783 6.4831,0.4301 z m -17.6271,-2.8654 c -0.2689,-0.2689 -0.9669,-0.2976 -1.551,-0.064 -0.6456,0.2583 -0.4538,0.4501 0.4889,0.4889 0.8531,0.035 1.331,-0.1561 1.0621,-0.425 z m -12.9216,-1.6856 c -0.7737,-0.2025 -2.2304,-0.2099 -3.237,-0.016 -1.0066,0.1936 -0.3736,0.3593 1.4067,0.3683 1.7804,0.01 2.604,-0.1494 1.8303,-0.3519 z m -285.47082,-5.9179 c -3.01264,-0.9648 -5.88685,-0.9648 -3.64161,0 0.89017,0.3825 2.52889,0.6848 3.64161,0.6717 2.02311,-0.024 2.02311,-0.024 0,-0.6717 z m 292.54222,-8.9017 c 0.3139,-0.5078 -1.4592,-0.8093 -4.7599,-0.8093 -2.8931,0 -5.4852,0.3642 -5.7602,0.8093 -0.3139,0.5078 1.4593,0.8092 4.7599,0.8092 2.8931,0 5.4852,-0.3641 5.7602,-0.8092 z m 20.2312,-0.7628 c 3.237,-0.6696 3.237,-0.6696 -0.8093,-0.7503 -2.2254,-0.044 -4.5924,0.2724 -5.2601,0.7038 -1.5448,0.9984 1.3597,1.0206 6.0694,0.046 z m -296.80768,-7.8186 c -0.26891,-0.2689 -0.96689,-0.2977 -1.55106,-0.064 -0.64556,0.2583 -0.4538,0.4501 0.48893,0.4889 0.85307,0.035 1.33103,-0.1561 1.06213,-0.425 z m -17.17961,-4.3666 c -0.89017,-0.3825 -2.71097,-0.6954 -4.04623,-0.6954 -2.06974,0 -2.18907,0.1025 -0.80924,0.6954 0.89017,0.3826 2.71097,0.6955 4.04622,0.6955 2.06975,0 2.18908,-0.1025 0.80925,-0.6955 z m 264.21869,-1.7689 c 2.0029,-0.9076 3.2432,-1.8027 2.7563,-1.9891 -0.4869,-0.1864 -3.2181,0.7981 -6.0693,2.1877 -5.6015,2.73 -2.7757,2.5606 3.313,-0.1986 z m -350.24201,342.866 c 0,-0.8902 0.29156,-2.5289 0.64791,-3.6416 0.51304,-1.602 0.64791,-1.6862 0.64791,-0.4047 0,0.8902 -0.29156,2.5289 -0.64791,3.6416 -0.51304,1.602 -0.64791,1.6862 -0.64791,0.4047 z m 60.27306,-129.6035 c -0.53204,-0.532 0.75851,-2.9321 5.59015,-10.396 1.44058,-2.2254 3.52798,-5.767 4.63865,-7.8701 6.5841,-12.4673 11.96879,-15.2509 22.43128,-11.5955 20.19968,7.0574 21.32614,22.1193 1.21707,16.2734 -5.27593,-1.5337 -7.73915,-1.0539 -12.2494,2.3863 -1.45645,1.1108 -3.26327,2.0198 -4.01514,2.0198 -0.75187,0 -3.70278,2.1849 -6.55756,4.8554 -5.01041,4.687 -9.09583,6.286 -11.05505,4.3267 z m 5.76162,-2.2401 c 1.20188,-0.6327 3.99235,-2.9997 6.20104,-5.2601 2.20869,-2.2603 4.67459,-4.1097 5.47976,-4.1097 0.80518,0 2.86174,-0.925 4.57015,-2.0556 4.16422,-2.7557 7.78621,-3.2224 12.99812,-1.6746 6.7104,1.9928 13.50221,0.2296 11.64156,-3.0222 -2.59729,-4.5392 -16.6172,-11.8602 -22.7126,-11.8602 -1.41024,0 -11.54194,9.9631 -11.54194,11.3499 0,0.4533 -2.18497,4.4207 -4.85548,8.8163 -5.94042,9.778 -5.99946,10.0372 -1.78061,7.8162 z m 296.05703,-8.9108 c -1.7168,-1.0551 -4.448,-3.1831 -6.0694,-4.7289 -10.2662,-9.788 -14.4566,-10.7931 -31.6762,-7.598 -12.3767,2.2965 -10.9778,-1.6984 3.045,-8.6957 17.489,-8.7269 26.6777,-6.9268 36.1179,7.0756 8.1256,12.0524 7.3834,19.3556 -1.4173,13.947 z m 5.1444,-2.3445 c 0,-0.9844 -1.6286,-4.5135 -3.6191,-7.8423 -9.2741,-15.5095 -18.0826,-17.7985 -35.365,-9.19 -9.2912,4.628 -9.8463,5.6228 -2.6144,4.6858 16.566,-2.1465 21.0553,-0.9635 31.0784,8.1894 6.8402,6.2464 10.5201,7.7006 10.5201,4.1571 z M 571.01,581.94328 c -7.79661,-2.5989 19.93767,-24.0681 31.02649,-24.0177 13.2382,0.06 32.69315,13.6197 24.21118,16.8745 -2.76454,1.0609 -20.07001,0.4881 -24.72626,-0.8184 -4.66748,-1.3097 -4.66748,-1.3097 -14.61951,3.1718 -9.35606,4.2131 -13.69703,5.5214 -15.8919,4.7898 z m 15.09073,-6.3751 c 10.19758,-4.5785 10.19758,-4.5785 14.68516,-3.6553 13.22335,2.7203 26.46223,1.9219 24.09813,-1.4533 -5.20294,-7.4282 -22.74877,-13.8039 -28.97831,-10.53 -7.48796,3.9354 -23.40668,17.3775 -23.40668,19.7651 0,1.3284 4.47819,-0.03 13.6017,-4.1265 z m 66.24386,-2.4349 c -3.06763,-3.0676 10.58982,-15.7899 20.33249,-18.9403 1.65037,-0.5337 4.41797,-1.6831 6.15017,-2.5543 3.1872,-1.603 3.6831,-1.5946 11.417,0.193 9.883,2.2842 27.6548,13.3303 25.9319,16.118 -0.7474,1.2093 -4.7722,1.063 -10.9609,-0.3985 -11.6302,-2.7465 -24.0519,-1.4488 -39.90352,4.1687 -5.24477,1.8587 -11.80663,2.5739 -12.96714,1.4134 z m 11.94297,-3.0407 c 18.69469,-6.4055 22.96129,-6.7849 44.77169,-3.982 9.7784,1.2566 -5.5035,-8.3927 -19.5868,-12.3676 -5.6421,-1.5924 -6.6908,-1.6799 -8.497,-0.7088 -1.1334,0.6093 -3.8037,1.661 -5.9342,2.3371 -8.01995,2.5452 -20.80842,12.0696 -20.80842,15.4973 0,1.7498 3.46304,1.4825 10.05473,-0.776 z m -155.30398,-15.8249 c -1.63601,-2.6472 19.26749,-25.1034 23.3676,-25.1034 0.46133,0 -1.51461,2.2851 -4.39098,5.0781 -8.84901,8.5923 -16.15459,16.4895 -16.15459,17.4628 0,2.2297 4.7562,-0.1175 12.32007,-6.0799 5.25291,-4.1407 16.94375,-11.3472 21.11699,-13.017 3.12341,-1.2498 4.88479,-1.2258 22.19857,0.302 9.00607,0.7947 6.84707,-1.8396 -6.70944,-8.1865 -9.05304,-4.2385 -13.93987,-4.6304 -18.40634,-1.4761 -6.87773,4.8571 -7.57399,4.5232 -1.18469,-0.5682 6.05272,-4.8232 10.59388,-4.5125 22.71091,1.5541 18.17423,9.0992 17.05318,11.6567 -4.30057,9.8111 -9.39453,-0.8119 -11.3299,-0.7733 -13.81672,0.2759 -4.31333,1.8198 -15.85299,9.1037 -21.50124,13.5717 -7.18204,5.6814 -13.93392,8.5041 -15.24956,6.3754 z m 250.85577,-22.838 c -12.2941,-5.6426 -17.9253,-6.0652 -29.4614,-2.2108 -8.2431,2.7541 -12.1924,2.6768 -12.2269,-0.2396 -0.018,-1.4827 16.8807,-17.3744 20.0986,-18.9013 4.5383,-2.1536 8.6479,-0.1425 22.4404,10.9816 16.8825,13.6163 16.4957,18.3316 -0.8507,10.3701 z m 10.1156,1.0012 c 0,-2.0851 -22.2835,-19.7295 -26.1388,-20.6971 -3.3978,-0.8528 -7.7377,1.6093 -15.5035,8.7955 -10.3879,9.6125 -10.082,10.4325 2.4352,6.5298 10.5509,-3.2896 18.3829,-2.6686 29.0915,2.3067 8.3297,3.87 10.1156,4.4112 10.1156,3.0651 z m -154.97053,-4.3667 c -2.87781,-2.1572 2.36064,-9.2525 13.00972,-17.6213 2.85907,-2.2469 5.19831,-4.4068 5.19831,-4.7998 0,-2.8946 8.55302,-3.247 17.87585,-0.7367 6.11884,1.6477 22.57736,13.5115 24.37175,17.5679 2.9643,6.7014 -1.30522,7.0957 -15.13787,1.3982 -12.10621,-4.9865 -20.32585,-4.3124 -34.29105,2.8121 -4.53647,2.3143 -9.02978,2.8765 -11.0267,1.3796 z m 10.11557,-3.0375 c 16.10013,-7.4024 22.86972,-7.9257 36.17269,-2.7962 8.42113,3.2471 13.19127,4.3093 13.19127,2.9375 0,-1.8386 -2.47305,-5.6816 -4.2569,-6.615 -0.99683,-0.5216 -5.27195,-3.2207 -9.50026,-5.9979 -16.89214,-11.0949 -25.21341,-9.5718 -40.32297,7.3808 -6.172,6.9248 -4.11114,9.1494 4.71617,5.0908 z m 62.31186,-63.8644 c 0,-1.1256 2.1253,-1.8756 3.2847,-1.1591 0.6818,0.4214 0.6376,0.7656 -0.1636,1.2732 -1.506,0.9543 -3.1211,0.8952 -3.1211,-0.1141 z m -78.69908,-3.7476 c 0.55635,-0.2245 1.46675,-0.2245 2.02311,0 0.55636,0.2245 0.10116,0.4082 -1.01156,0.4082 -1.11271,0 -1.56791,-0.1837 -1.01155,-0.4082 z m -6.27166,-1.0347 c 0,-1.402 1.42436,-1.6614 2.43514,-0.4435 0.8322,1.0027 0.71178,1.2049 -0.71756,1.2049 -0.94467,0 -1.71758,-0.3426 -1.71758,-0.7614 z m 112.08054,-3.675 c 4.0057,-2.0507 7.4046,-4.0764 7.5529,-4.5015 0.1484,-0.4252 1.2344,-0.773 2.4133,-0.773 2.8834,0 -1.91,3.3629 -8.6508,6.0691 -8.2192,3.2998 -8.7211,2.9967 -1.3154,-0.7946 z m -120.17299,2.2853 c -0.66763,-0.2226 -1.7212,-0.5666 -2.34126,-0.7644 -0.62006,-0.1977 -0.95242,-0.5345 -0.73859,-0.7483 0.21384,-0.2139 1.81364,0.1332 3.55513,0.7712 2.85967,1.0478 2.43402,1.7118 -0.47528,0.7415 z m -6.92623,-3.0687 c -1.51551,-1.1323 -1.50626,-1.1574 0.26256,-0.7116 1.00838,0.2542 2.03131,0.7823 2.27319,1.1736 0.68447,1.1075 -0.79603,0.8378 -2.53575,-0.462 z m -15.32803,-6.7594 c -3.56068,-2.136 -8.1316,-4.682 -10.15762,-5.6578 -3.49748,-1.6844 -12.93811,-9.0681 -11.5943,-9.0681 0.34896,0 1.75672,1.0877 3.12834,2.4172 1.37162,1.3294 5.96777,4.1751 10.21366,6.3239 4.24589,2.1487 9.14965,4.9556 10.89722,6.2376 6.72625,4.9341 6.04341,4.8647 -2.4873,-0.2528 z m 158.20755,-0.5476 c 0,-0.6444 6.5996,-3.8022 7.0354,-3.3664 0.2225,0.2226 -1.0728,1.1584 -2.8786,2.0796 -3.3699,1.7192 -4.1568,1.9628 -4.1568,1.2868 z m 12.9479,-8.1089 c 1.0453,-1.1127 2.5894,-2.0231 3.4312,-2.0231 0.8419,0 2.279,-0.4005 3.1936,-0.89 3.1808,-1.7023 0.6771,0.7252 -2.9254,2.8364 -4.5476,2.6651 -6.1625,2.6985 -3.6994,0.077 z m 16.3872,-8.9654 c 3.7392,-4.4416 -1.8126,-8.2325 -7.5554,-5.159 -0.8701,0.4657 -1.9776,0.6022 -2.461,0.3035 -1.667,-1.0303 1.2212,-1.9344 6.2201,-1.947 7.9128,-0.02 9.4626,2.4719 4.2759,6.8752 -1.8958,1.6095 -1.8958,1.6095 -0.4796,-0.073 z m -213.56387,-1.5897 c -0.26357,-0.6868 -0.29839,-1.4296 -0.0774,-1.6506 0.221,-0.221 0.59606,0.3409 0.83346,1.2488 0.50428,1.9283 -0.056,2.2261 -0.75608,0.4018 z m 193.87227,-4.7294 c -0.1855,-0.1724 -5.4845,-0.4864 -11.7755,-0.6979 -9.118,-0.3065 -11.8267,-0.6676 -13.3526,-1.78 -1.9142,-1.3954 -1.9142,-1.3954 0.5135,-0.9124 5.1757,1.0298 14.8188,2.0389 20.2312,2.1171 5.6143,0.081 11.4965,1.4023 6.8111,1.5297 -1.1498,0.031 -2.2423,-0.084 -2.4277,-0.2565 z m -165.38875,-1.2491 c -0.85216,-1.3789 0.89539,-1.6527 15.85778,-2.4844 8.17245,-0.4543 16.08891,-1.0523 17.59214,-1.3288 2.12338,-0.3908 2.64244,-0.2534 2.32658,0.6156 -0.22361,0.6152 -0.85006,1.0162 -1.39211,0.8912 -2.0519,-0.4734 -29.62678,1.5746 -30.96867,2.3 -1.77861,0.9616 -2.82418,0.9635 -3.41572,0.01 z m -9.49262,-0.6088 c 0.58417,-0.2337 1.28216,-0.205 1.55106,0.064 0.2689,0.2689 -0.20906,0.4602 -1.06214,0.4251 -0.94273,-0.039 -1.13448,-0.2306 -0.48892,-0.4889 z m 137.31887,-2.6841 c -2.2453,-0.9649 0.629,-0.9649 3.6416,0 2.0231,0.6479 2.0231,0.6479 0,0.6717 -1.1127,0.013 -2.7514,-0.2892 -3.6416,-0.6717 z m -87.46705,-0.6059 c 0.83471,-0.8347 10.68584,-2.5073 14.63494,-2.4849 2.50657,0.014 1.68487,0.3567 -3.64161,1.5176 -7.20893,1.5711 -12.02053,1.9945 -10.99333,0.9673 z m 24.34589,-3.4404 c 3.63468,-0.9248 7.00776,-0.9248 4.85547,0 -0.89017,0.3826 -2.89305,0.678 -4.45085,0.6567 -2.83236,-0.039 -2.83236,-0.039 -0.40462,-0.6567 z m 45.52006,0.2733 c 0.5564,-0.2245 1.4668,-0.2245 2.0231,0 0.5564,0.2245 0.1012,0.4082 -1.0115,0.4082 -1.1128,0 -1.568,-0.1837 -1.0116,-0.4082 z m -14.76873,-1.0825 c -0.58256,-0.9426 2.99291,-0.9576 8.90173,-0.037 3.935,0.6129 3.8751,0.6332 -2.1777,0.7383 -3.42313,0.06 -6.44895,-0.256 -6.72403,-0.7011 z m -96.29839,-12.945 c -0.30156,-0.4879 0.70174,-0.8122 2.51302,-0.8122 3.36134,0 3.40994,0.3253 0.16479,1.103 -1.19671,0.2868 -2.40173,0.1559 -2.67781,-0.2908 z m 167.10742,0.4586 c 0,-0.2225 0.7283,-0.7944 1.6184,-1.2708 0.8902,-0.4764 1.6185,-0.6841 1.6185,-0.4616 0,0.2226 -0.7283,0.7945 -1.6185,1.2709 -0.8901,0.4764 -1.6184,0.6841 -1.6184,0.4615 z m -176.41558,-2.1656 c -3.53368,-2.1184 -7.28904,-5.6034 -7.26521,-6.7421 0.01,-0.4731 0.64718,-0.1 1.41618,0.8302 1.94338,2.3495 6.01864,5.0396 9.65812,6.3754 2.5843,0.9484 2.7497,1.135 1.04638,1.1805 -1.11271,0.03 -3.29767,-0.7101 -4.85547,-1.644 z m 18.61265,-0.4397 c 2.00288,-0.6915 4.73409,-2.0656 6.06934,-3.0534 3.71003,-2.7448 5.15036,-3.2706 2.42774,-0.8863 -3.27079,2.8643 -8.022,5.2828 -10.28564,5.2356 -1.22255,-0.025 -0.61399,-0.4664 1.78856,-1.2959 z m 135.20273,-1.607 c -0.9225,-1.1727 -1.6661,-2.5383 -1.6526,-3.0347 0.014,-0.4963 0.4287,-0.1741 0.9225,0.7161 0.4939,0.8902 1.4496,2.2558 2.1239,3.0347 0.6744,0.7789 1.014,1.4162 0.7548,1.4162 -0.2593,0 -1.2261,-0.9596 -2.1486,-2.1323 z m -61.56138,-5.2377 c -2.00289,-0.9183 -5.89197,-2.1476 -8.64243,-2.7316 -10.3151,-2.1904 -8.41889,-7.3987 3.14347,-8.6342 15.51662,-1.6579 30.33254,2.6689 24.71854,7.2187 -0.7143,0.5789 -15.22243,6.0234 -15.5474,5.8346 -0.0168,-0.01 -1.6693,-0.7692 -3.67218,-1.6875 z m 93.90148,1.7052 c -0.012,-0.2225 0.8867,-2.1961 1.9975,-4.3856 1.7019,-3.3546 2.0197,-3.6482 2.0197,-1.866 0,1.6734 -3.9327,7.7935 -4.0172,6.2516 z m -153.33041,-6.5718 c 0.8252,-1.5958 1.32297,-4.6497 1.35199,-8.2948 0.0464,-5.8378 1.19836,-4.8779 1.33131,1.1095 0.059,2.6559 -2.50151,9.7109 -3.52439,9.7109 -0.25573,0 0.12277,-1.1365 0.84109,-2.5256 z m -22.93869,0.4534 c -4.61294,-3.2311 -5.34384,-8.7321 -1.71009,-12.8707 4.72643,-5.3831 13.33961,-3.003 15.66675,4.3291 1.71724,5.4105 -9.03337,11.99 -13.95666,8.5416 z m -19.85344,-0.6649 c -0.30421,-0.7928 -0.51654,-2.5952 -0.47183,-4.0053 0.0791,-2.4974 0.10064,-2.4813 0.82735,0.6188 0.80149,3.4191 0.55565,5.7609 -0.35551,3.3865 z m 171.06904,-0.9764 c -5.3158,-4.473 -1.1214,-15.6583 5.8859,-15.696 6.1364,-0.033 9.7256,8.1061 5.6897,12.9025 -4.2501,5.0509 -7.858,5.9216 -11.5756,2.7935 z m -94.37073,-2.8114 c -1.89666,-3.0689 13.89637,-10.2256 17.56363,-7.9591 1.63495,1.0105 0.1157,1.9408 -6.27544,3.8428 -3.15562,0.9391 -6.67258,2.443 -7.81548,3.342 -2.38533,1.8763 -2.74243,1.9559 -3.47271,0.7743 z m 81.51843,-1.1629 c 0.016,-1.3353 0.1979,-1.7835 0.4031,-0.9962 0.2051,0.7874 0.1916,1.8799 -0.03,2.4278 -0.2217,0.5478 -0.3896,-0.096 -0.3731,-1.4316 z m -34.1855,-0.8512 c -3.1564,-3.3599 -8.36641,-5.2182 -14.62983,-5.2182 -4.21451,0 -5.56185,-0.273 -5.56185,-1.1272 0,-4.8289 17.46778,-1.8176 22.31658,3.8471 3.8386,4.4846 1.8917,6.7737 -2.1249,2.4983 z m 34.9049,-4.8135 c -0.1357,-7.975 10.7084,-18.2804 19.0596,-18.1129 4.7453,0.095 4.7453,0.095 0.9892,0.7296 -8.2075,1.3863 -17.0555,8.8433 -18.9809,15.997 -0.8558,3.1796 -1.0334,3.4102 -1.0679,1.3863 z m -115.79001,-4.2879 c 0,-0.5037 -1.13424,-2.2077 -2.52053,-3.7866 -1.3863,-1.5789 -1.93991,-2.648 -1.23025,-2.3756 1.54561,0.5931 4.9544,5.8746 4.24771,6.5813 -0.27331,0.2733 -0.49693,0.085 -0.49693,-0.4191 z m -13.35255,-10.3258 c -3.23698,-1.1368 -3.23698,-1.1368 -0.0698,-0.7765 1.74194,0.1982 3.54452,0.7377 4.00577,1.199 1.09164,1.0916 0.0605,0.9809 -3.93592,-0.4225 z m -16.14445,-0.2741 c 0.42283,-0.3993 2.4075,-0.9694 4.41039,-1.267 3.6416,-0.541 3.6416,-0.541 1.32367,0.726 -2.47911,1.3551 -7.05317,1.7866 -5.73406,0.541 z"
       style="fill:#474538"
       sodipodi:nodetypes="csssssssssssssssssssscsccssssssscssscssssssscssssssssssssscsscsssssssssssscssssssssscsssssssssssssssssssssssssccssssssssssscscsssssssssssssscssssssssssssssssssssccsssscsssccsscsssssccscscscssssccsccsscccssccsccccscccssssscsssssscssssssssssssscsssssssssssssssssssssssssssssssssssssssscsssssssssssssssssssssssssssssssssssssssssssssssssssssscsssssssssssscsssssssssssssssssssssssssssssssssssssssssssssssssssccssssssssscssssssssssssssssssscssssssssssssssssssssscsssssssssssssssssssssssssssssssssssssssssssssssssscsssssssssssccsssssccscccccsssscssscccscccccccsssssscssssssssssssssssssssssssssssssssssssssssssssssssssssssssssssssssscsssssssssssssccsscssssssssscssssssccsssssssssssssssssssscssscccscsssssssssssssssssssscssssccccscccsssscccssssscccccccsscsscsssssscssccssccssssssssssccssssssssscsssssssscsssssccsscssssccsccscsssssssccccccsssccsssssssscscssccssss" />
  </g>
</svg>
