<?xml version="1.0" encoding="UTF-8" standalone="no"?>
<!-- Created with Inkscape (http://www.inkscape.org/) -->

<svg
   xmlns:dc="http://purl.org/dc/elements/1.1/"
   xmlns:cc="http://creativecommons.org/ns#"
   xmlns:rdf="http://www.w3.org/1999/02/22-rdf-syntax-ns#"
   xmlns:svg="http://www.w3.org/2000/svg"
   xmlns="http://www.w3.org/2000/svg"
   xmlns:sodipodi="http://sodipodi.sourceforge.net/DTD/sodipodi-0.dtd"
   xmlns:inkscape="http://www.inkscape.org/namespaces/inkscape"
   width="210mm"
   height="297mm"
   viewBox="0 0 744.09448819 1052.3622047"
   id="svg4371"
   version="1.1"
   inkscape:version="0.91 r13725"
   sodipodi:docname="totoro1.svg">
  <defs
     id="defs4373" />
  <sodipodi:namedview
     id="base"
     pagecolor="#ffffff"
     bordercolor="#666666"
     borderopacity="1.0"
     inkscape:pageopacity="0.0"
     inkscape:pageshadow="2"
     inkscape:zoom="0.35"
     inkscape:cx="1601.5955"
     inkscape:cy="197.55566"
     inkscape:document-units="px"
     inkscape:current-layer="layer1"
     showgrid="false"
     inkscape:window-width="1920"
     inkscape:window-height="1005"
     inkscape:window-x="0"
     inkscape:window-y="0"
     inkscape:window-maximized="1" />
  <metadata
     id="metadata4376">
    <rdf:RDF>
      <cc:Work
         rdf:about="">
        <dc:format>image/svg+xml</dc:format>
        <dc:type
           rdf:resource="http://purl.org/dc/dcmitype/StillImage" />
        <dc:title></dc:title>
      </cc:Work>
    </rdf:RDF>
  </metadata>
  <g
     inkscape:label="Layer 1"
     inkscape:groupmode="layer"
     id="layer1">
    <path
       inkscape:connector-curvature="0"
       id="path4452"
       d="m 266.96663,847.50288 c -9.85929,-2.44019 -23.62494,-11.74688 -30.66291,-20.73063 -2.94844,-3.76359 -5.71731,-6.84289 -6.15304,-6.84289 -0.43573,0 -1.30569,-1.22883 -1.93323,-2.73074 -1.74681,-4.18071 -16.91893,-18.30964 -19.66151,-18.30964 -2.35143,0 -3.79805,-2.08613 -5.89227,-8.49708 -2.30552,-7.05777 -3.04845,-8.49708 -4.38596,-8.49708 -2.21151,0 -3.72333,-3.1872 -6.71873,-14.16438 -1.79567,-6.58056 -3.51434,-11.36924 -4.10155,-11.42801 -0.5559,-0.0557 -1.33535,-0.14667 -1.73211,-0.20231 -1.43341,-0.201 -3.32485,-6.71296 -3.32485,-11.44697 0,-4.08914 -0.22188,-4.8391 -1.4317,-4.8391 -2.93493,0 -7.05886,-9.33278 -7.06232,-15.9826 -0.004,-7.81778 -0.61574,-7.39473 -2.34011,1.61849 -3.2565,17.02159 -8.31695,15.22567 -8.05837,-2.85987 0.12478,-8.72691 0.12478,-8.72691 -4.04623,-12.6884 -6.08671,-5.78096 -12.49381,-18.93196 -16.19194,-33.235 -1.5573,-6.02307 -3.72661,-13.32925 -4.82069,-16.23595 -6.37331,-16.93233 -6.88508,-36.15192 -1.51709,-56.97454 0.45897,-1.78034 0.8427,-5.96819 0.85274,-9.30633 0.0487,-16.17407 2.60941,-28.06548 9.02295,-41.9001 0.88244,-1.90352 1.60444,-4.53761 1.60444,-5.85354 0,-9.69036 12.05489,-37.8874 20.23583,-47.33271 0.77101,-0.89017 1.61213,-3.51076 1.86916,-5.82353 0.79279,-7.13353 9.75406,-19.34903 20.23928,-27.58904 3.48194,-2.73635 6.20621,-5.71352 7.74804,-8.46732 3.65865,-6.53454 4.5229,-7.50121 11.35866,-12.70483 11.62552,-8.84976 18.43574,-16.96931 13.20194,-15.74015 -0.7789,0.18292 -7.97107,0.87721 -15.9826,1.54287 -18.47452,1.53501 -30.90392,3.07055 -42.36971,5.23439 -9.4511,1.78362 -10.63588,1.70096 -10.63588,-0.7421 0,-3.99558 14.71807,-7.03774 64.23229,-13.27654 11.5798,-1.45906 11.36335,-1.27123 11.71073,-10.1621 0.32027,-8.19669 0.38024,-8.13554 -7.99868,-8.1562 -2.46573,-0.006 -6.48314,-0.53199 -8.92759,-1.16868 -2.44444,-0.6367 -10.43664,-1.57288 -17.76044,-2.0804 -7.3238,-0.50753 -15.1416,-1.26935 -17.37289,-1.69292 -2.2313,-0.42359 -9.13804,-0.94514 -15.34832,-1.15902 -11.61333,-0.39996 -12.94008,-0.75529 -12.44397,-3.33271 0.65714,-3.41399 47.02677,-2.26998 69.93858,1.72551 12.38341,2.15948 13.35833,1.97021 17.66795,-3.42996 6.83767,-8.56794 0.0115,-10.75327 -53.75557,-17.20923 -15.98087,-1.91886 -15.75832,-1.86603 -16.03514,-3.80743 -0.43327,-3.03866 6.51896,-3.79196 20.48599,-2.21971 5.78611,0.65133 16.893,1.88194 24.68199,2.73467 7.78899,0.85274 14.70804,1.76223 15.37567,2.02109 1.84678,0.71607 16.28169,3.71188 17.88521,3.71188 0.79545,0 2.40731,-1.596 3.69869,-3.6623 1.25887,-2.01426 3.31799,-5.28173 4.57584,-7.26103 1.54251,-2.42725 2.11352,-4.14533 1.75407,-5.27784 -0.62134,-1.95766 1.3985,-4.85333 9.0235,-12.93622 3.55768,-3.77132 4.95502,-5.83658 4.69027,-6.93211 -0.65976,-2.73003 5.30437,-7.7648 16.29486,-13.75572 7.76459,-4.23247 7.50371,-3.88136 4.68514,-6.30579 -2.63635,-2.26768 -1.95489,-4.0017 2.89294,-7.36125 4.31427,-2.98979 4.19612,-4.24862 -0.46434,-4.9475 -4.50495,-0.67556 -7.16167,-2.95863 -6.37536,-5.47871 1.4671,-4.70203 1.31016,-5.4934 -2.70622,-13.64599 -5.10081,-10.35377 -6.32452,-16.52773 -5.05736,-25.51548 5.54809,-39.35124 10.11946,-53.78324 20.13324,-63.5614 12.64248,-12.34503 28.81166,-4.11629 33.83662,17.21997 1.20546,5.11847 3.64018,12.76584 5.41048,16.99415 5.62717,13.4403 7.11175,28.36176 4.12729,41.48339 -1.30191,5.72407 -1.29719,5.80476 0.40463,6.93473 2.2854,1.51746 2.17578,3.80249 -0.30124,6.27953 -2.44041,2.44039 -2.57171,3.56803 -0.41549,3.56803 1.67095,0 4.48447,5.12776 3.59933,6.55993 -0.69634,1.12671 0.84916,0.86437 5.34307,-0.90697 14.38228,-5.66896 55.94012,-7.01492 78.06236,-2.52823 16.74444,3.39598 17.80341,3.30699 17.80341,-1.4961 0,-3.35713 0.359,-4.49007 1.78999,-5.64881 1.76815,-1.43176 1.77081,-1.46682 0.21814,-2.87196 -3.05883,-2.7682 -2.82165,-11.35606 0.58071,-21.02683 0.62635,-1.78034 1.86934,-5.96819 2.76218,-9.30632 9.41836,-35.213 28.12794,-65.68491 38.27417,-62.33636 24.35237,8.03702 21.53897,104.25314 -3.05357,104.42952 -2.96522,0.0213 -4.05085,1.15213 -2.99678,3.12168 0.50669,0.94677 1.19791,1.7214 1.53603,1.7214 0.3381,0 2.52138,1.76203 4.85171,3.91564 4.39886,4.06528 4.98854,6.60455 1.53371,6.60455 -5.3623,0 -8.93795,3.45054 -5.44658,5.256 1.33089,0.68822 3.16578,2.60942 4.07754,4.26932 2.86591,5.21753 5.02288,8.57624 7.65483,11.91969 1.40147,1.78034 3.76884,5.05778 5.2608,7.28321 1.49197,2.22542 3.91716,5.40405 5.3893,7.06361 3.76734,4.24695 8.85973,14.75523 10.02788,20.69279 0.54298,2.75993 1.15108,5.01804 1.35134,5.01804 0.38093,0 8.90707,-3.01989 20.27879,-7.18258 15.48572,-5.66865 39.83995,-9.78679 39.83995,-6.73668 0,1.89041 -2.80719,4.20832 -5.09665,4.20832 -0.82475,0 -6.47925,1.59953 -12.56555,3.55452 -6.08632,1.95498 -14.67049,4.54063 -19.07595,5.74587 -11.19839,3.06365 -20.15182,8.06641 -17.43809,9.74359 0.46886,0.28977 1.67708,2.2231 2.68494,4.29629 1.14036,2.34576 2.27021,3.65851 2.99145,3.47571 0.63744,-0.16156 7.53179,-0.39485 15.32078,-0.51843 7.78899,-0.12357 15.67829,-0.48815 17.53177,-0.81015 1.85348,-0.32201 7.68005,-0.19084 12.94792,0.2915 5.26789,0.48234 12.37216,1.09857 15.78729,1.36942 9.81477,0.77837 9.64747,4.36731 -0.22206,4.76395 -7.52821,0.30255 -31.33032,1.88811 -43.72675,2.91283 -5.17873,0.42809 -10.57348,0.54682 -11.98835,0.26385 -2.57247,-0.51449 -2.57247,-0.51449 -2.31817,3.03635 0.18106,2.5283 0.57983,3.48117 1.38475,3.3089 0.62176,-0.13308 3.71712,0.1366 6.87859,0.59926 3.16147,0.46266 11.02845,1.59131 17.48219,2.50811 6.45373,0.91679 13.91902,2.23794 16.58953,2.93589 9.48815,2.47973 20.21518,6.06147 20.7512,6.92878 1.01921,1.64911 -0.28296,3.0502 -2.83207,3.0472 -4.05254,-0.005 -31.05437,-3.68492 -44.21961,-6.0268 -13.12362,-2.33449 -14.40043,-1.68372 -8.42341,4.29331 2.04341,2.04341 5.50347,5.96253 7.68904,8.70918 2.18557,2.74663 6.06714,6.94446 8.62572,9.32848 9.072,8.45309 19.75086,24.1764 22.45539,33.0628 0.33865,1.11271 2.03186,3.57025 3.76268,5.46119 9.80445,10.71141 23.4179,38.4322 30.70082,62.51544 3.23158,10.68618 4.32901,15.57866 6.80702,30.34671 0.67215,4.00576 1.81541,8.87955 2.54056,10.83062 0.99756,2.68401 1.20792,5.14608 0.86429,10.11557 -0.34672,5.01398 -0.0681,8.19579 1.17776,13.44674 3.39174,14.29614 0.71168,32.84379 -7.60064,52.60097 -1.77896,4.2283 -4.97913,11.69359 -7.1115,16.58953 -2.13238,4.89594 -4.67242,11.81499 -5.64453,15.37567 -2.73795,10.02856 -6.70078,17.5523 -12.48585,23.70525 -5.10306,5.42759 -5.10306,5.42759 -4.72117,9.92323 0.76824,9.04372 -3.47178,19.2416 -7.57229,18.21243 -1.49016,-0.374 -1.8343,-0.009 -2.29154,2.42793 -0.95724,5.10249 -4.45537,4.44979 -4.48259,-0.83639 -0.0124,-2.40548 -0.0124,-2.40548 -1.27215,-0.60694 -0.69286,0.98921 -1.78534,1.79856 -2.42773,1.79856 -0.6424,0 -1.16799,0.20336 -1.16799,0.45192 0,3.62099 -2.32858,13.01498 -4.50582,18.17741 -1.85533,4.39915 -2.77739,7.86715 -2.77739,10.44617 0,4.68535 -2.89586,9.12614 -7.95308,12.19602 -3.04778,1.85009 -3.33469,2.31467 -3.35459,5.43206 -0.0249,3.90636 -2.71908,11.72529 -4.56921,13.26076 -0.68714,0.57027 -2.27184,3.06242 -3.52156,5.53808 -20.79593,41.19651 -83.52267,52.62967 -99.32877,18.10458 -2.5434,-5.55551 -2.97551,-5.73454 -6.9751,-2.88982 -3.59008,2.55345 -11.41744,3.74349 -25.32777,3.85071 -3.83472,0.0295 -6.2513,0.44393 -7.2038,1.23524 -3.10302,2.57792 -36.34718,0.71164 -42.0828,-2.36247 -2.22522,-1.19265 -3.96514,-1.52338 -6.37183,-1.21118 -3.26164,0.42311 -22.04608,-1.5625 -22.90472,-2.42114 -0.24255,-0.24255 -3.39842,2.29113 -7.01304,5.63041 -5.99236,5.5359 -9.37065,7.64343 -19.13666,11.93837 -1.56951,0.69024 -5.75736,1.64976 -9.30632,2.13226 -8.84692,1.20276 -14.63705,2.23889 -17.66115,3.1604 -3.70273,1.12831 -11.87273,1.66945 -14.68736,0.97282 z M 582.70374,731.51929 c -0.22449,-0.55636 -0.40818,-0.10116 -0.40818,1.01155 0,1.11272 0.18368,1.56792 0.40818,1.01156 0.2245,-0.55636 0.2245,-1.46676 0,-2.02311 z m -399.25746,-5.65002 c 0.20381,-2.10607 0.0519,-3.63226 -0.33762,-3.39154 -0.38951,0.24073 -0.67944,2.32804 -0.64429,4.63847 0.0729,4.7947 0.44272,4.32508 0.98192,-1.24693 z M 478.11636,388.27549 c 21.03022,-8.78699 12.10746,-42.39119 -9.53426,-35.90717 -12.82185,3.84152 -15.94217,30.78588 -4.15985,35.92086 3.22509,1.40556 10.31434,1.39847 13.69411,-0.0137 z m -14.79155,-11.43456 c -4.95622,-4.17037 -5.07903,-8.65078 -0.41278,-15.06053 4.22109,-5.79825 9.44119,-5.69913 14.46787,0.27473 6.80691,8.08955 -6.00076,21.56308 -14.05509,14.7858 z m -138.09249,6.96379 c 14.32618,-7.95707 12.86946,-25.99322 -2.45927,-30.44941 -13.11078,-3.8114 -25.4597,3.17863 -25.4597,14.41133 0,14.91932 14.71454,23.37212 27.91897,16.03808 z m -14.08509,-6.1877 c -6.98866,-5.88056 -3.79158,-17.24942 5.23128,-18.60248 8.1846,-1.22736 15.32859,9.10158 10.37051,14.99391 -4.68982,5.57353 -11.41734,7.12956 -15.60179,3.60857 z"
       style="fill:#dfd99b"
       sodipodi:nodetypes="ssssssssccssssssssssssssssssssssscssssssssssssssssssssssssssssssssssssssssscssssssssssssssssssssssssssscsssscsssssssssscsssssscsssssssssssscssssssssscsscccsccssssssssssssssss" />
    <rect
       style="color:#000000;clip-rule:nonzero;display:inline;overflow:visible;visibility:visible;opacity:1;isolation:auto;mix-blend-mode:normal;color-interpolation:sRGB;color-interpolation-filters:linearRGB;solid-color:#000000;solid-opacity:1;fill:#ffffff;fill-opacity:1;fill-rule:evenodd;stroke:none;stroke-width:4.5;stroke-linecap:round;stroke-linejoin:miter;stroke-miterlimit:4;stroke-dasharray:none;stroke-dashoffset:0;stroke-opacity:1;color-rendering:auto;image-rendering:auto;shape-rendering:auto;text-rendering:auto;enable-background:accumulate"
       id="rect4621"
       width="233.34525"
       height="63.63961"
       x="277.79196"
       y="400.81378" />
    <path
       inkscape:connector-curvature="0"
       id="path4450"
       d="m 266.92064,846.69404 c -3.17776,-0.77135 -12.41196,-5.41988 -18.30896,-9.21677 -4.61267,-2.96996 -20.0842,-19.87724 -20.0842,-21.94801 0,-2.06348 -18.24018,-18.20466 -20.0401,-17.73397 -2.01265,0.52633 -2.50161,-0.28565 -5.42468,-9.00848 -2.40818,-7.18635 -3.22591,-8.51048 -5.25575,-8.51048 -1.8638,0 -2.64249,-1.93086 -5.80646,-14.39778 -2.47511,-9.75268 -2.85438,-10.63717 -4.65494,-10.85562 -4.10384,-0.49791 -4.62356,-5.85295 -3.04685,-31.39379 0.0811,-1.31433 -0.30037,-2.02311 -1.08898,-2.02311 -0.99424,0 -1.23573,1.53733 -1.33472,8.49708 -0.1442,10.13731 -1.0515,10.84988 -4.70844,3.69785 -2.06406,-4.03678 -2.45391,-5.7294 -2.45391,-10.65423 0,-10.51678 -1.5804,-9.37069 -4.13412,2.99803 -3.1097,15.06164 -7.7602,10.62403 -6.31207,-6.02311 0.5515,-6.33986 0.5515,-6.33986 -3.54696,-9.9251 -6.03999,-5.28363 -12.83699,-18.99545 -16.62089,-33.52988 -1.56806,-6.02307 -3.74616,-13.32925 -4.84024,-16.23595 -6.37361,-16.93311 -6.88432,-36.05147 -1.52197,-56.97454 0.45628,-1.78034 0.85642,-6.33235 0.88919,-10.11557 0.11826,-13.64893 1.9541,-23.82935 6.12915,-33.98832 2.10355,-5.11848 4.10164,-11.12712 4.44019,-13.35255 2.29709,-15.09935 10.00705,-33.05948 19.8015,-46.127 1.08862,-1.45241 2.02254,-4.17204 2.32468,-6.76956 0.81692,-7.02332 10.62171,-20.18334 19.87165,-26.6718 3.49598,-2.4523 5.43765,-4.67555 8.21109,-9.40189 3.12804,-5.33062 4.90516,-7.2092 12.79889,-13.52959 12.05097,-9.64903 16.71805,-15.98616 11.38438,-15.45812 -1.06603,0.10553 -8.31104,0.72547 -16.10003,1.37762 -18.1564,1.5202 -32.20628,3.2561 -42.85577,5.29493 -9.28629,1.77785 -11.41878,1.32808 -8.33315,-1.75757 2.10225,-2.10223 28.19909,-6.60209 61.60047,-10.62172 12.59058,-1.51518 12.56571,-1.49327 12.92843,-11.39091 0.31455,-8.58315 0.31196,-8.58548 -9.53708,-8.58548 -2.53409,0 -6.40329,-0.5258 -8.59823,-1.16846 -2.19494,-0.64265 -9.81737,-1.56483 -16.93873,-2.04927 -7.12136,-0.48445 -15.28941,-1.25065 -18.15122,-1.70267 -2.86181,-0.45202 -9.59878,-0.96992 -14.97105,-1.15088 -5.37225,-0.18096 -10.22295,-0.34559 -10.7793,-0.36585 -0.55636,-0.0202 -1.01156,-0.74397 -1.01156,-1.60825 0,-1.51813 0.76147,-1.57119 22.45657,-1.5648 22.21967,0.006 30.01946,0.59152 46.63762,3.49781 12.67784,2.21719 13.54345,2.04476 18.27483,-3.64059 7.80656,-9.38051 2.94229,-11.1889 -47.71599,-17.73922 -21.90109,-2.8319 -21.445,-2.74537 -21.445,-4.06839 0,-2.02198 7.73484,-2.46179 19.82651,-1.12736 32.152,3.5483 38.82382,4.39862 42.89002,5.46634 9.77785,2.56751 15.20133,3.28709 16.52089,2.19194 2.61367,-2.16915 9.47328,-14.65726 8.95247,-16.2982 -0.59492,-1.8744 5.84656,-10.31742 11.08049,-14.52352 2.74796,-2.20833 3.12395,-2.88705 2.69108,-4.85787 -0.64972,-2.95818 5.87462,-8.32639 17.78511,-14.63355 8.01179,-4.24261 8.05394,-4.28063 5.48268,-4.94692 -3.71876,-0.96362 -4.82294,-3.39709 -2.44762,-5.39424 1.0132,-0.85189 2.90461,-2.4392 4.20313,-3.52733 3.04928,-2.55524 2.38207,-4.33286 -1.89769,-5.05592 -4.98239,-0.84177 -7.13722,-2.89468 -5.89656,-5.61764 1.50536,-3.3039 1.2674,-4.32058 -2.99786,-12.80831 -4.97981,-9.90966 -6.27229,-16.49991 -5.00222,-25.50602 5.60072,-39.7152 10.5894,-55.19771 20.52607,-63.70312 12.82265,-10.97571 26.93705,-2.888 32.10738,18.39791 1.37735,5.67045 3.95406,13.65257 5.72602,17.73802 5.65922,13.04796 6.788,25.43536 3.58773,39.37196 -1.52051,6.62159 -1.48613,7.22684 0.44554,7.83993 2.31772,0.73561 2.00031,2.766 -0.90022,5.75858 -2.61536,2.69837 -2.56342,4.35699 0.13642,4.35699 1.99166,0 4.10239,4.62012 3.05011,6.67627 -0.9567,1.86939 -0.25889,1.79429 5.65438,-0.60848 10.80882,-4.39202 40.56106,-6.92936 61.67938,-5.26016 5.54984,0.43866 13.55014,1.52055 17.77845,2.4042 14.22817,2.97344 21.3388,3.07499 18.5284,0.26461 -0.92499,-0.925 -0.25865,-7.51145 0.76231,-7.53506 2.365,-0.0547 2.56216,-1.52944 0.59252,-4.43188 -2.77139,-4.08386 -2.32744,-11.88181 1.20547,-21.17405 0.45626,-1.20007 1.56401,-4.93986 2.46164,-8.31064 3.87696,-14.55869 11.65878,-33.65539 17.38797,-42.67035 1.74106,-2.73959 4.15836,-6.82108 5.37177,-9.06999 13.78037,-25.54027 32.46664,0.84934 31.15118,43.99315 -0.83105,27.25632 -9.75595,48.95936 -20.13346,48.95936 -2.14854,0 -3.91759,1.34137 -3.91759,2.97047 0,0.56556 2.36704,2.92512 5.26009,5.24346 5.78943,4.63937 6.82189,7.16174 2.93145,7.16174 -1.28076,0 -2.78199,0.54624 -3.33607,1.21386 -0.55408,0.66763 -2.14636,1.2302 -3.53838,1.25014 -2.53096,0.0362 -2.53096,0.0362 1.31957,3.4889 2.11778,1.89894 5.75939,6.39128 8.09245,9.98297 4.67997,7.20471 6.96824,10.4442 13.4788,19.08188 6.32326,8.38918 10.32695,16.27866 11.48965,22.64099 1.23214,6.74226 -1.25987,6.9338 22.3812,-1.72018 14.7422,-5.39648 39.45723,-9.79164 38.9039,-6.91842 -0.16145,0.83834 -1.20041,1.77725 -2.3088,2.08646 -1.10838,0.30921 -7.29557,2.18781 -13.74931,4.17467 -6.45373,1.98686 -15.25867,4.57709 -19.56652,5.75607 -6.26652,1.71503 -14.54958,5.23128 -19.43363,8.24979 -0.33665,0.20806 0.47121,1.87376 1.79525,3.70154 1.32404,1.82779 2.40734,3.78884 2.40734,4.35789 0,2.6227 2.12055,3.32691 7.81262,2.59448 3.04697,-0.39207 7.90698,-0.50083 10.80003,-0.2417 2.89305,0.25914 8.9017,0.063 13.35255,-0.43573 5.99382,-0.67171 10.92562,-0.66937 19.01728,0.009 18.54597,1.55482 19.42189,1.68424 19.42189,2.8695 0,1.23957 -2.80283,2.38326 -4.0109,1.63664 -0.43362,-0.268 -4.53367,-0.11533 -9.11125,0.33926 -10.16804,1.00975 -38.61231,2.73972 -46.34037,2.81838 -5.6477,0.0575 -5.6477,0.0575 -5.38596,3.6986 0.25134,3.49649 1.3189,5.20392 2.71443,4.34143 0.36287,-0.22426 3.29354,-0.0216 6.5126,0.45034 3.21907,0.47196 11.13317,1.61201 17.58691,2.53345 18.08693,2.58239 36.01143,7.62068 36.01143,10.12224 0,0.86367 -0.36417,1.5652 -0.80925,1.55894 -3.70905,-0.0521 -39.72458,-5.25191 -47.60492,-6.87301 -14.66493,-3.01678 -14.25618,-2.02514 9.63128,23.36624 11.37535,12.09155 23.0026,29.57843 23.0026,34.59493 0,0.54404 1.75557,2.93034 3.90127,5.3029 7.47249,8.26254 12.95652,17.81487 20.93303,36.46208 7.97946,18.65407 12.51205,34.27486 16.03163,55.2502 0.67215,4.00576 1.8154,8.87955 2.54056,10.83062 0.99613,2.68018 1.20844,5.15271 0.8684,10.11372 -0.34391,5.01756 -0.063,8.18913 1.19129,13.44674 1.96595,8.24109 1.7416,22.25083 -0.49247,30.75319 -3.10737,11.82597 -4.189,14.8529 -10.98848,30.75133 -3.90229,9.12424 -7.89737,19.50282 -8.87796,23.0635 -2.65259,9.63196 -6.56032,17.08183 -12.23698,23.32915 -5.02101,5.52577 -5.02101,5.52577 -5.11581,12.54331 -0.0773,5.72188 -0.46574,7.76462 -2.10384,11.06378 -2.76966,5.57812 -4.52336,5.43479 -4.16327,-0.34029 0.31679,-5.08068 -0.47839,-11.39377 -1.43513,-11.39377 -0.3618,0 -0.81883,4.0968 -1.01559,9.10401 -0.43065,10.95843 -3.82302,18.446 -3.87974,8.56327 -0.0153,-2.6711 -0.76072,-4.71935 -1.71746,-4.71935 -0.39746,0 -0.72266,1.09248 -0.72266,2.42773 0,1.86364 -0.36497,2.42774 -1.57073,2.42774 -2.10258,0 -2.3204,0.48369 -3.28696,7.29879 -0.46327,3.26647 -2.08257,8.75369 -3.65203,12.37533 -1.7985,4.15017 -2.81972,7.78855 -2.81972,10.04602 0,5.31314 -3.91303,11.03763 -9.50864,13.91049 -1.47329,0.75641 -1.8208,1.6186 -1.8208,4.5176 0,3.9345 -2.63466,11.84713 -4.445,13.34958 -0.6308,0.52351 -2.48009,3.37894 -4.10953,6.34538 -7.19494,13.09859 -20.34116,25.89331 -33.30546,32.41496 -3.97439,1.99932 -18.27532,3.72708 -29.75824,3.59525 -15.60676,-0.17919 -28.20284,-6.92231 -33.77882,-18.08301 -3.52147,-7.04844 -4.2702,-7.40002 -8.89894,-4.17874 -3.71611,2.58615 -11.07618,3.6892 -25.05255,3.75461 -3.86485,0.018 -6.61279,0.41294 -7.24275,1.0407 -2.43497,2.42648 -35.58009,0.61802 -41.19758,-2.24781 -2.46038,-1.2552 -4.16387,-1.5941 -6.14475,-1.22249 -2.81687,0.52845 -17.23239,-0.77331 -21.94994,-1.98213 -2.46341,-0.63122 -2.94464,-0.38805 -6.92597,3.49976 -9.05505,8.84234 -18.9886,14.3588 -27.93633,15.51405 -6.42332,0.82933 -18.22911,2.94691 -20.35141,3.65039 -3.09322,1.02531 -11.43547,1.52647 -14.2078,0.85352 z m 141.06774,-65.672 c 12.51906,-4.75553 12.6321,-4.77129 11.95012,-1.66626 -0.85471,3.89151 4.38338,3.49591 16.56509,-1.25108 6.77421,-2.63978 7.56788,-3.40494 9.76548,-9.41473 3.55863,-9.73181 8.60341,-19.62695 12.3435,-24.21132 2.08278,-2.55295 3.78688,-5.10964 3.78688,-5.68154 0,-5.50346 19.26985,-22.67984 25.80248,-22.9993 2.95193,-0.14436 4.946,-0.71949 6.08586,-1.75528 3.864,-3.51123 7.66225,-4.18434 13.58993,-2.40837 2.69233,0.80664 3.53515,0.74355 5.48958,-0.41095 5.37055,-3.17247 13.9814,-2.15224 23.70561,2.80868 4.56058,2.32664 7.66253,0.15005 14.86292,-10.4291 0.73445,-1.07909 1.16396,-1.1584 2.09385,-0.38666 1.90855,1.58396 4.22489,-1.76476 7.15113,-10.33832 3.11948,-9.1398 3.46634,-9.62901 5.51352,-7.77634 1.77582,1.6071 1.59396,1.78046 7.10149,-6.7697 5.41609,-8.4082 5.42547,-8.44296 5.58172,-20.65614 0.0797,-6.23119 0.40206,-13.33232 0.71631,-15.78029 0.31731,-2.47178 0.17287,-6.91725 -0.32485,-9.99769 -0.64912,-4.0175 -0.65208,-5.84102 -0.0107,-6.61381 1.01295,-1.22054 0.44549,-8.588 -1.24492,-16.16295 -0.59595,-2.67051 -1.31131,-6.85835 -1.5897,-9.30632 -0.27839,-2.44797 -1.05646,-6.59626 -1.72905,-9.21842 -0.68616,-2.67507 -1.00979,-6.04928 -0.73735,-7.68784 0.33654,-2.02417 -0.12463,-4.70652 -1.50291,-8.74149 -1.09364,-3.20168 -1.81145,-6.49804 -1.59513,-7.32525 1.11644,-4.26928 -13.50247,-26.32311 -18.17151,-27.41323 -1.19674,-0.2794 -3.63253,-1.85104 -5.41287,-3.49252 -1.78034,-1.64148 -4.60258,-3.98187 -6.27165,-5.20087 -1.68557,-1.23105 -3.03467,-2.90789 -3.03467,-3.77191 0,-2.47874 -12.853,-15.64973 -15.95554,-16.3503 -1.80104,-0.40667 -5.11022,-3.07356 -10.67298,-8.60143 -4.50746,-4.47919 -9.66872,-8.78951 -11.70513,-9.77532 -2.0034,-0.96983 -5.03168,-2.8843 -6.72951,-4.2544 -6.90513,-5.5722 -17.93618,-9.24656 -32.38543,-10.78733 -2.76161,-0.29448 -5.4298,-1.02785 -5.92931,-1.62973 -1.10788,-1.33492 -6.33341,-3.01733 -14.94544,-4.81183 -3.56068,-0.74194 -7.93061,-1.66495 -9.71095,-2.05113 -9.22314,-2.00063 -16.30187,-1.16451 -21.56993,2.54778 -2.70275,1.90457 -3.33216,1.89252 -10.99317,-0.2102 -8.12302,-2.22953 -36.92393,-0.28602 -49.5892,3.34634 -1.54429,0.44289 -4.45904,0.80526 -6.47722,0.80526 -2.53118,0 -4.05604,0.45155 -4.9158,1.45568 -0.92943,1.08549 -3.45222,1.71208 -9.92048,2.46396 -4.77075,0.55456 -14.21418,2.4621 -20.98541,4.23897 -6.77121,1.77687 -14.40521,3.64564 -16.96445,4.15284 -3.97604,0.78797 -4.65316,1.18136 -4.65316,2.70335 0,2.41902 -6.73523,6.05671 -22.25426,12.01949 -3.98172,1.52987 -6.1428,2.94349 -5.66982,3.70878 0.24467,0.39589 -1.0055,2.06169 -2.77813,3.7018 -2.11192,1.95401 -3.69123,4.41189 -4.58126,7.12976 -0.74704,2.28126 -2.76413,6.72794 -4.48241,9.8815 -3.69421,6.77998 -3.69899,6.80955 -1.10105,6.80955 2.43019,0 2.4697,0.295 0.47491,3.54609 -6.32656,10.31099 -9.10786,22.07554 -5.12807,21.69107 3.47605,-0.3358 3.40458,-0.0608 -2.07961,7.999 -10.30547,15.14553 -19.17183,59.1075 -10.08912,50.0248 1.89605,-1.89606 2.66034,0.27759 2.68097,7.62462 0.0357,12.71097 2.01749,28.90745 6.25717,51.13702 1.39873,7.33387 11.97349,31.15596 13.83031,31.15596 0.91794,0 1.74127,-1.97257 1.74127,-4.17175 0,-3.11062 2.62563,-1.16669 4.26842,3.16019 1.61305,4.24854 1.61305,4.24854 5.53549,4.24854 3.5013,0 3.97655,0.21562 4.42647,2.00827 0.44986,1.79238 4.01536,3.63143 7.08023,3.65193 6.85368,0.0458 32.0996,14.82023 32.0996,18.7853 0,1.58365 1.37422,3.08782 6.19337,6.77898 8.07994,6.18874 11.32978,10.43421 17.24339,22.5262 5.40929,11.06079 5.57468,11.26533 10.11108,12.50405 3.19919,0.87358 3.8,0.63164 4.76716,-1.91971 0.16872,-0.44509 1.17609,-0.0139 2.23858,0.9582 6.92329,6.33423 24.21417,10.5946 24.84929,6.1227 0.3091,-2.17649 0.92922,-2.21608 7.56618,-0.48309 16.1523,4.21756 19.82281,4.24377 30.42277,0.21724 z M 227.767,595.05024 c -0.66133,-1.23571 0.044,-2.89684 3.69411,-8.69939 2.48134,-3.94462 5.35696,-8.83341 6.39027,-10.86396 1.03331,-2.03056 3.5178,-5.49008 5.5211,-7.68783 2.00329,-2.19776 4.21678,-4.6332 4.91886,-5.4121 3.75405,-4.16479 19.77475,1.20404 28.18393,9.44496 7.79224,7.63632 -0.35401,14.18743 -13.28831,10.68627 -5.78349,-1.56551 -7.70801,-1.20255 -12.33462,2.32633 -1.45812,1.11217 -3.1859,2.02212 -3.83952,2.02212 -0.65361,0 -2.25796,1.13938 -3.56522,2.53195 -6.36062,6.77573 -13.66923,9.40993 -15.6806,5.65165 z m 302.36691,-10.59096 c -2.08781,-1.32405 -5.34551,-3.80353 -7.23933,-5.50996 -9.73986,-8.77605 -11.64894,-9.20416 -29.47409,-6.60957 -14.53177,2.11521 -13.14346,-4.16403 2.60278,-11.77229 15.5259,-7.50178 25.6638,-6.62804 33.83309,2.91594 12.51351,14.61923 12.70187,28.85516 0.27755,20.97588 z M 307.56379,574.18846 c -3.58605,-3.58605 18.5897,-24.97465 27.65752,-26.67579 14.61231,-2.74128 39.6972,13.17817 30.69784,19.48157 -2.54869,1.78517 -19.40217,1.75262 -25.82625,-0.0498 -4.66748,-1.30963 -4.66748,-1.30963 -14.61951,3.23767 -9.52609,4.35268 -16.09408,5.82196 -17.9096,4.00642 z m 82.43768,-9.13884 c -3.79551,-4.194 9.44262,-17.4705 21.01088,-21.07177 1.78034,-0.55423 4.56629,-1.73829 6.191,-2.63125 1.91705,-1.05364 3.76353,-1.46576 5.2601,-1.17401 7.01433,1.36741 11.07736,2.66944 17.19232,5.50942 19.6415,9.12211 22.67528,19.12727 4.53564,14.95814 -13.08746,-3.00797 -22.20404,-2.10017 -40.12655,3.99567 -7.25618,2.46799 -12.07603,2.60981 -14.06339,0.4138 z m -143.23565,-18.3259 c -1.43583,-1.43585 -1.05209,-3.69703 1.09255,-6.43772 5.08612,-6.49968 16.59059,-17.8239 21.41515,-21.07962 3.18206,-2.14732 7.73596,-5.32189 10.11978,-7.05459 5.58509,-4.05956 11.15404,-4.03463 19.70252,0.0882 2.96931,1.43207 5.62376,2.60377 5.89877,2.60377 1.1619,0 10.15304,6.63807 10.91204,8.05625 2.58947,4.83849 -1.38074,5.66919 -19.00768,3.97702 -9.43039,-0.90531 -9.82919,-0.87857 -13.35255,0.89536 -6.31327,3.17855 -15.6219,9.12706 -19.86287,12.69298 -7.21046,6.06276 -14.43916,8.73685 -16.91771,6.25832 z m 250.8358,-22.59208 c -12.23735,-5.55774 -17.23123,-5.9018 -28.52743,-1.96545 -16.95648,5.90879 -18.33438,-0.25568 -3.10556,-13.89375 12.16553,-10.89477 14.49299,-11.31661 24.57773,-4.45458 26.03612,17.71594 30.66204,31.03506 7.05526,20.31378 z m -144.17686,-2.7761 c -5.81484,-2.46676 -0.45517,-10.65698 15.7794,-24.11284 8.97512,-7.43894 17.8905,-5.88974 35.73884,6.2102 19.45433,13.1887 14.6749,22.3125 -6.87858,13.13102 -11.10424,-4.73025 -19.75684,-3.93859 -33.4818,3.06336 -3.85306,1.96568 -8.77479,2.7192 -11.15786,1.70826 z m 71.06769,-70.1056 c 3.88985,-1.15459 4.18509,-21.80578 0.57999,-40.56956 -1.01034,-5.25859 -0.76808,-5.19809 -21.48608,-5.36595 -17.15314,-0.13898 -15.42826,-3.91828 -14.70015,32.20879 0.27651,13.71956 0.27651,13.71956 2.29962,14.29139 2.13845,0.60444 31.01737,0.11483 33.30662,-0.56467 z m -38.05102,-7.01283 c 1.92996,-10.61654 0.73232,-38.64829 -1.65058,-38.63339 -2.07133,0.0129 -20.90475,2.33481 -28.2841,3.48698 -10.26019,1.60197 -10.9864,3.0581 -11.83763,23.73583 -0.53801,13.06911 -0.53801,13.06911 2.96052,13.58412 1.92419,0.28326 5.6835,0.86732 8.35401,1.29793 24.65026,3.97469 29.19839,3.45631 30.45778,-3.47147 z m 53.30482,3.16019 c 19.40276,-5.35709 23.67918,-10.01676 19.86401,-21.64422 -4.53666,-13.82637 -4.84017,-14.24361 -10.82231,-14.87744 -2.5281,-0.26787 -8.18179,-1.40901 -12.56378,-2.53588 -9.08113,-2.33532 -10.67586,-2.16003 -9.86167,1.08392 1.32247,5.26915 2.85787,21.56505 2.85787,30.33182 0,11.19937 -0.65002,10.72745 10.52588,7.6418 z m -97.78207,-6.19486 c 0.30082,-2.00288 0.58992,-7.82945 0.64245,-12.94793 0.087,-8.4815 0.50162,-10.86201 2.87035,-16.48168 0.59651,-1.41516 0.28369,-1.48007 -4.94848,-1.02669 -3.07188,0.26617 -9.48881,0.71558 -14.25984,0.99868 -10.75523,0.63819 -10.87925,0.73069 -12.37025,9.22648 -2.35516,13.41979 -1.70768,15.00191 7.28768,17.80744 1.78034,0.55527 5.05778,1.84808 7.28321,2.87293 9.97748,4.59481 12.75116,4.50248 13.49488,-0.44923 z m 129.75235,-8.57217 c 10.8984,-5.89266 11.71854,-7.14964 9.34911,-14.32907 -1.3301,-4.03023 -2.12485,-4.32157 -13.60841,-4.98856 -11.55997,-0.67143 -11.52041,-0.71179 -7.90561,8.06328 1.10008,2.67051 2.01083,5.76588 2.02388,6.87859 0.0998,8.51193 1.42983,9.08582 10.14103,4.37576 z m -161.95481,-2.15033 c 0.47254,-2.52668 2.11804,-15.44768 2.11804,-16.63154 0,-2.8134 -23.55324,-0.44343 -24.11221,2.42622 -0.37189,1.90913 8.58154,9.56899 14.13951,12.09667 2.7491,1.25025 5.22868,2.64583 5.51017,3.10131 0.86394,1.39787 1.98628,0.92267 2.34449,-0.99266 z M 492.40213,420.583 c 7.87521,-5.09444 7.52282,-5.92145 -2.48834,-5.83994 -4.45085,0.0362 -8.09246,0.21284 -8.09246,0.39246 0,8.32717 3.41297,10.08433 10.5808,5.44748 z m -13.10027,-31.93472 c 20.29764,-10.35508 11.82887,-42.61795 -9.99751,-38.0868 -15.08637,3.13191 -20.49877,28.15162 -8.00757,37.01629 4.33437,3.07599 13.05741,3.59463 18.00509,1.07051 z m -15.18935,-11.88662 c -8.46252,-5.92739 -0.36436,-21.97197 8.74442,-17.32501 3.49596,1.7835 5.72742,5.11159 5.72742,8.54208 0,6.5283 -9.47821,12.2806 -14.47184,8.78293 z m -143.9968,10.19502 c 20.31471,-5.64232 21.07954,-30.36413 1.07786,-34.84031 -9.06896,-2.02955 -21.12249,2.15802 -24.50361,8.51291 -7.91239,14.87155 6.47097,31.03651 23.42575,26.3274 z m -7.5661,-8.90501 c -9.43645,-5.50623 -2.16822,-21.69918 8.11627,-18.08233 2.60571,0.91639 7.39879,7.11514 7.39879,9.56864 0,5.5423 -10.62011,11.36994 -15.51506,8.51369 z"
       style="fill:#a49f59"
       sodipodi:nodetypes="cssssssscssssssssssssssssssssssssssssscscsssssssssssssssssssssssssssssssssssssssssscsssssssssssssscsscssscssscsssssssscssssssssscsssssssssssssscssssssscccsssssssssssssssssscsssssssssssssssssssssssssssssssssssssssssssssssssssssccssssssssssssssssscsscsccsssssssscsssssssssccsssssssssssssssssscssssssssssssssssssssssssssssssscssssscssccssssssssssss" />
    <path
       inkscape:connector-curvature="0"
       id="path4448"
       d="m 265.75276,846.07326 c -10.38771,-3.70909 -22.27226,-11.97224 -28.36351,-19.72071 -2.82809,-3.59752 -5.79685,-6.89142 -6.59725,-7.31978 -0.80041,-0.42836 -1.45529,-1.5002 -1.45529,-2.38185 0,-2.66305 -18.42624,-20.2673 -20.63371,-19.71326 -1.41193,0.35438 -1.95399,-0.0264 -2.61318,-1.83545 -0.45744,-1.25541 -1.89106,-5.19586 -3.18582,-8.75654 -1.78309,-4.90364 -2.69931,-6.44523 -3.77728,-6.35552 -2.24036,0.18646 -3.48867,-2.58604 -6.24747,-13.87562 -1.41394,-5.7861 -2.70337,-10.98433 -2.86541,-11.55162 -0.18579,-0.65045 -1.0037,-0.85347 -2.21429,-0.54963 -3.3146,0.83191 -4.20792,-4.53332 -3.22025,-19.34074 0.66723,-10.00349 0.61754,-12.47409 -0.27023,-13.43645 -2.17335,-2.35596 -3.1174,0.33782 -3.12001,8.90282 -0.002,9.00168 -0.55381,9.54226 -3.62798,3.55894 -1.56981,-3.05537 -2.05754,-5.27636 -2.11889,-9.64887 -0.10758,-7.66711 -0.11606,-7.70305 -1.81923,-7.70305 -1.25353,0 -1.80992,1.50574 -3.4534,9.34578 -1.0775,5.14017 -2.31692,9.37821 -2.75425,9.41783 -2.07057,0.18767 -2.90627,-3.90546 -2.55596,-12.51872 0.3549,-8.72615 0.3549,-8.72615 -4.00136,-12.88377 -5.68291,-5.42378 -12.32982,-18.21716 -15.28515,-29.41947 -1.16738,-4.42505 -3.70827,-12.9617 -5.64642,-18.97035 -7.27924,-22.56712 -7.54953,-34.69225 -1.33851,-60.04455 0.40325,-1.64601 0.56998,-4.55929 0.37052,-6.47397 -1.17122,-11.24254 2.35945,-27.64397 9.22192,-42.83975 1.13288,-2.50854 1.83148,-4.93034 1.55248,-5.38178 -0.43457,-0.70314 1.64937,-9.80385 4.2405,-18.51862 1.48251,-4.98615 12.13036,-24.14043 16.07976,-28.92569 1.14978,-1.39312 1.78126,-2.98994 1.54289,-3.90147 -1.3305,-5.08787 9.35271,-20.76316 19.06579,-27.97491 5.38895,-4.00118 6.36334,-5.11118 9.69575,-11.04519 1.68679,-3.00365 4.37634,-6.15278 7.14296,-8.3635 19.51837,-15.59655 23.35213,-20.98398 14.35071,-20.16648 -38.58389,3.50417 -44.23474,4.14529 -55.05776,6.24666 -9.69533,1.88242 -11.09807,1.95706 -11.09807,0.59054 0,-2.88511 18.93057,-6.42071 64.73826,-12.09096 10.30348,-1.27541 11.2866,-2.39959 10.91752,-12.48394 -0.27859,-7.61145 0.0188,-7.35098 -9.09646,-7.96881 -4.33896,-0.29409 -8.98149,-0.90179 -10.31675,-1.35044 -1.33525,-0.44865 -7.36425,-1.13793 -13.39777,-1.53173 -6.03352,-0.39379 -15.24722,-1.27669 -20.47489,-1.96197 -5.22768,-0.68529 -13.28841,-1.24598 -17.91274,-1.24598 -7.66519,0 -10.50356,-0.69732 -8.99182,-2.20906 2.18089,-2.18089 49.00818,-0.3532 66.38901,2.59119 15.93599,2.69964 15.35694,2.7529 19.55087,-1.79831 11.01688,-11.95538 4.03125,-14.42276 -61.91798,-21.86996 -6.34519,-0.71651 -7.35614,-2.2667 -2.00184,-3.06963 6.46804,-0.96994 47.82531,3.60572 63.03453,6.97399 11.68651,2.58811 11.53762,2.60712 14.4714,-1.8478 7.46844,-11.34079 7.80593,-11.98043 7.32722,-13.88775 -0.50072,-1.99502 6.39877,-10.99272 11.51558,-15.01761 1.57669,-1.24023 2.24493,-2.50958 2.26464,-4.30179 0.0366,-3.32775 6.0209,-8.22663 17.35415,-14.20649 8.73228,-4.60749 9.62932,-5.55912 5.61662,-5.95841 -3.75342,-0.37349 -4.89073,-2.74023 -2.30704,-4.80097 7.45995,-5.95004 7.89063,-7.07239 3.17359,-8.27024 -7.45423,-1.89292 -8.31457,-2.91154 -6.26268,-7.41494 0.85661,-1.88005 0.51459,-2.96779 -3.25617,-10.35595 -6.47399,-12.68473 -6.97951,-17.76684 -3.75918,-37.79274 1.10938,-6.89881 2.39912,-15.42681 2.86607,-18.95111 5.33687,-40.27971 38.23662,-50.28688 47.34188,-14.40005 1.46081,5.75753 4.08733,13.88713 5.83672,18.06579 5.3705,12.82821 6.48064,27.13046 3.08473,39.74159 -1.38246,5.13392 -1.11844,6.74608 1.20424,7.35348 2.28965,0.59875 1.92162,2.03603 -1.26984,4.95929 -3.41062,3.124 -3.56695,4.31029 -0.61291,4.6511 2.90454,0.3351 4.96664,4.19003 3.49871,6.54056 -1.58747,2.54195 -0.3558,2.60934 5.00268,0.27372 16.15878,-7.04318 54.28612,-8.18146 85.37583,-2.54887 13.97787,2.5324 19.59947,1.90331 13.98724,-1.56523 -1.92351,-1.1888 0.64073,-6.98251 3.51437,-7.94039 0.4928,-0.16426 -0.13691,-1.50734 -1.42382,-3.03674 -2.16427,-2.5721 -2.28467,-3.09651 -1.94087,-8.45366 0.76256,-11.88258 14.60523,-51.97041 21.39379,-61.95561 1.3464,-1.98042 3.64707,-5.87204 5.11258,-8.64803 7.2681,-13.76737 16.1504,-15.99985 22.24967,-5.59224 17.05786,29.10705 10.53061,91.24722 -10.05285,95.70431 -3.74933,0.81186 -4.08181,1.05398 -4.08181,2.97235 0,1.37242 1.48025,3.0895 5.30707,6.15612 5.30362,4.25006 6.19779,6.13254 2.93382,6.17653 -0.95299,0.0129 -2.1774,0.46804 -2.72092,1.01156 -0.54351,0.54351 -2.18993,0.9882 -3.65871,0.9882 -3.70375,0 -3.4605,1.84531 0.63423,4.81153 1.90535,1.38022 4.69443,4.72345 6.58657,7.89522 1.80501,3.0257 4.4396,6.95791 5.85465,8.73825 1.41506,1.78035 3.79751,5.05779 5.29434,7.28321 1.49683,2.22543 3.88516,5.42502 5.30741,7.11019 3.97579,4.7108 8.99874,15.15214 9.66238,20.08547 0.90561,6.73203 0.91499,6.73458 11.18801,3.03986 4.97446,-1.78909 11.4295,-4.08815 14.34454,-5.10903 5.42144,-1.89864 24.87352,-6.3831 31.65116,-7.29681 6.02096,-0.81171 5.90895,1.94583 -0.13056,3.21387 -1.5578,0.32707 -7.0202,1.96336 -12.13868,3.63621 -5.11848,1.67284 -12.94793,4.01237 -17.39878,5.19895 -8.15216,2.17333 -21.44501,8.16708 -21.44501,9.66955 0,0.44534 0.72147,1.57767 1.60325,2.5163 0.88179,0.93862 2.10563,3.14705 2.71963,4.90763 1.05593,3.02769 1.28683,3.19417 4.26378,3.07417 13.10678,-0.52834 53.09002,-0.39093 58.98535,0.20271 7.70761,0.77614 9.7522,2.21225 3.6416,2.55786 -2.00288,0.11328 -10.19649,0.73769 -18.20802,1.38759 -8.01154,0.6499 -21.06663,1.42237 -29.01134,1.71658 -14.44492,0.53496 -14.44492,0.53496 -13.95948,2.96211 0.26698,1.33493 0.48542,3.2383 0.48542,4.22972 0,1.6852 0.46106,1.83795 7.0809,2.34585 23.833,1.8286 58.85708,10.09635 55.78489,13.16854 -0.56225,0.56225 -18.67551,-1.75159 -36.72911,-4.69188 -28.38022,-4.62213 -28.34906,-5.01936 -1.80944,23.06667 11.19949,11.85205 18.77779,23.09754 21.74756,32.27128 0.53789,1.66158 2.05505,4.02862 3.37146,5.26009 10.10842,9.45614 23.93357,38.25107 32.54662,67.78792 1.55746,5.34102 3.43915,13.35255 4.18152,17.8034 0.74237,4.45085 1.917,10.4595 2.6103,13.35255 0.69329,2.89305 1.51504,9.99418 1.82609,15.78029 0.31107,5.7861 1.21073,12.88723 1.99926,15.78029 3.53213,12.95919 -0.39029,31.16532 -13.07611,60.69341 -3.53751,8.23408 -7.25146,17.88433 -8.25322,21.44501 -2.7638,9.82379 -6.09209,16.08117 -11.76024,22.10993 -5.08113,5.40442 -5.08113,5.40442 -5.08815,11.06914 -0.01,7.86279 -2.61477,16.58953 -4.95213,16.58953 -0.36064,0 -0.65572,-3.28958 -0.65572,-7.31018 0,-7.51746 -0.91261,-10.17405 -2.83475,-8.25191 -0.60383,0.60383 -0.88769,3.46793 -0.78401,7.91064 0.17614,7.54893 -0.45674,12.50693 -1.59652,12.50693 -0.39555,0 -0.71918,-0.85606 -0.71918,-1.90236 0,-2.99648 -1.66508,-6.99934 -2.91153,-6.99934 -0.78925,0 -1.1347,1.01184 -1.1347,3.32356 0,2.54611 -0.27011,3.21991 -1.1547,2.88046 -1.81839,-0.69778 -2.6527,1.02655 -3.65459,7.55315 -0.51243,3.33814 -2.18942,8.99837 -3.72665,12.57831 -1.81562,4.22826 -2.75098,7.63133 -2.66945,9.71213 0.19813,5.05633 -2.95717,9.70384 -9.22806,13.59224 -1.93228,1.19816 -2.22543,1.89705 -2.22543,5.30576 0,4.7163 -1.72397,9.93789 -4.28666,12.98347 -1.03328,1.22797 -2.84204,4.19911 -4.01949,6.60252 -8.56062,17.47402 -29.46461,33.41371 -45.10405,34.39269 -4.22831,0.26469 -8.82922,0.76901 -10.22424,1.1207 -14.39289,3.62866 -35.09857,-6.24875 -41.49981,-19.797 -2.84604,-6.02364 -3.60835,-6.28891 -8.43245,-2.9342 -3.74805,2.60639 -12.31169,3.81241 -25.35908,3.5713 -5.05397,-0.0934 -6.71825,0.14909 -7.05551,1.02796 -0.91941,2.39595 -35.17885,0.8928 -40.29683,-1.76804 -1.84129,-0.95729 -4.96136,-1.45362 -9.96393,-1.58501 -4.00576,-0.10521 -10.53138,-0.57563 -14.50137,-1.04539 -7.21817,-0.8541 -7.21817,-0.8541 -12.26291,3.86501 -9.74211,9.11327 -17.73181,13.30403 -27.8598,14.613 -4.73815,0.61238 -11.40764,1.84514 -21.84963,4.03858 -3.93176,0.8259 -10.98457,0.97527 -12.94793,0.27423 z m 136.76251,-20.8838 c 0,-2.38447 0.38047,-2.42823 6.25753,-0.71972 3.83739,1.11556 5.60463,1.17015 12.26323,0.37885 4.27884,-0.5085 9.11968,-1.05694 10.7574,-1.21875 1.63773,-0.16181 4.36893,-1.319 6.06934,-2.57154 1.70042,-1.25253 3.23627,-2.37598 3.41303,-2.49656 0.17675,-0.12057 -0.46054,-2.60103 -1.41618,-5.51213 -3.00966,-9.16808 -1.61262,-24.7428 3.12124,-34.79639 1.25744,-2.67051 3.64051,-8.315 5.29569,-12.54331 4.6655,-11.91839 10.78242,-22.61747 14.10494,-24.67089 0.45496,-0.28118 0.8272,-1.03958 0.8272,-1.68534 0,-1.46294 8.86021,-12.46576 13.59668,-16.88468 4.91465,-4.58516 8.02654,-6.12307 12.38977,-6.12307 2.42304,0 4.13096,-0.45004 4.80916,-1.26723 2.80414,-3.37878 8.01303,-4.39111 13.74998,-2.67227 2.64105,0.79127 3.54238,0.68111 6.62106,-0.80925 6.61045,-3.20006 24.60252,1.36925 29.73296,7.55106 0.731,0.88079 1.79397,1.16172 3.21491,0.84962 3.9711,-0.87219 8.41616,5.92618 9.78194,14.96072 0.37006,2.44797 1.2388,6.42053 1.93052,8.82791 2.80706,9.76932 3.30304,17.34491 1.39382,21.28884 -0.9514,1.96532 -1.7417,4.2777 -1.75624,5.13862 -0.0146,0.86092 -0.71639,3.56429 -1.5597,6.00751 -1.6644,4.82211 -1.57852,5.67387 0.40606,4.02681 2.24147,-1.86025 3.85948,-5.92056 3.72942,-9.35883 -0.0868,-2.2959 0.75787,-5.23664 2.7307,-9.50657 2.02164,-4.37558 3.14562,-8.34651 3.84596,-13.58748 0.79473,-5.94727 1.30818,-7.58132 2.60804,-8.30016 0.89017,-0.49228 1.80057,-1.0161 2.02311,-1.16406 0.22254,-0.14796 0.62461,-2.87916 0.89349,-6.06934 0.49232,-5.84134 1.31172,-13.6175 3.55314,-33.7193 2.09859,-18.82086 3.17437,-31.77136 3.09227,-37.2253 -0.0435,-2.89305 0.24946,-9.55651 0.65112,-14.80768 0.48085,-6.28641 0.44079,-11.35981 -0.11728,-14.85316 -0.60688,-3.79894 -0.5961,-5.60856 0.038,-6.37255 1.02266,-1.23224 0.48356,-8.54597 -1.2212,-16.56757 -2.68019,-12.61139 -4.43492,-24.20924 -3.99534,-26.40713 0.30435,-1.52177 -0.25309,-4.46175 -1.54959,-8.17263 -1.11373,-3.18772 -1.84253,-6.49342 -1.61958,-7.346 1.32133,-5.0528 -14.99868,-28.4786 -19.84015,-28.4786 -0.75808,0 -2.6167,-1.31291 -4.13027,-2.91758 -1.51356,-1.60467 -4.1015,-3.81069 -5.75099,-4.90227 -1.8454,-1.22122 -3.16848,-2.83179 -3.43949,-4.18683 -0.77387,-3.86938 -12.88333,-16.01139 -16.5538,-16.59833 -2.49288,-0.39863 -3.79222,-1.33661 -6.55315,-4.73067 -4.08241,-5.01854 -11.50188,-11.42817 -15.51496,-13.40325 -1.57701,-0.77615 -4.36987,-2.60203 -6.20635,-4.05751 -7.24052,-5.73843 -18.25912,-9.45641 -32.97612,-11.12707 -2.65347,-0.30122 -5.20259,-1.01703 -5.66472,-1.5907 -1.49518,-1.85606 -15.98637,-5.56492 -30.23528,-7.7384 -5.81557,-0.88709 -12.48576,0.50131 -16.66738,3.4693 -2.36318,1.67732 -2.36318,1.67732 -10.05587,-0.17722 -9.68462,-2.33473 -36.40099,-0.62586 -50.21744,3.21209 -1.60182,0.44496 -4.52766,0.81105 -6.50186,0.81352 -2.35462,0.003 -4.16417,0.52193 -5.26009,1.50855 -1.19991,1.08025 -4.05697,1.78331 -10.13974,2.49519 -4.658,0.54514 -14.12617,2.45938 -21.04038,4.25386 -6.91422,1.7945 -14.3921,3.63776 -16.61753,4.09614 -4.8428,0.99751 -6.02774,1.79684 -5.52328,3.72589 0.35551,1.35951 -19.87664,11.43924 -22.96097,11.43924 -1.2623,0 -14.80699,9.09017 -16.75958,11.24776 -1.51342,1.6723 -1.51271,1.70017 0.0435,1.70017 1.56716,0 3.52426,1.402 3.52426,2.52466 0,0.32035 -2.5004,2.4011 -5.55645,4.62388 -9.56284,6.95543 -14.24367,12.1326 -12.60578,13.94244 1.26924,1.40251 1.25948,1.61886 -0.15478,3.42862 -0.83023,1.06241 -4.12593,5.41212 -7.32377,9.66604 -3.19785,4.25392 -6.20218,7.97412 -6.67628,8.26714 -1.3453,0.83144 -1.01759,1.89728 0.75648,2.46035 2.23051,0.70793 2.03027,2.34686 -0.787,6.44163 -4.21515,6.12651 -7.81469,14.30961 -10.8712,24.71432 -1.75421,5.97154 -5.08342,14.42536 -8.1266,20.63576 -5.92058,12.08251 -6.32293,14.12915 -7.71594,39.24841 -1.73941,31.36561 -1.74518,31.42471 -3.69463,37.83223 -0.41858,1.37578 -0.22801,1.8208 0.77967,1.8208 1.95072,0 2.33052,1.78814 1.40756,6.62689 -1.94475,10.19568 -1.9628,14.23473 -0.0663,14.83665 1.90394,0.60429 1.90394,0.66075 -0.002,15.76176 -0.85089,6.74284 -1.12509,21.04038 -0.40353,21.04038 0.25433,0 1.02124,-0.5588 1.70422,-1.2418 1.93043,-1.93041 3.3191,-0.11346 3.93026,5.14235 0.51149,4.39878 1.12429,7.07042 3.96039,17.26625 1.0812,3.88695 1.51378,4.51435 2.86825,4.16015 1.79071,-0.46828 1.68731,-0.66086 5.95411,11.0891 2.15911,5.9458 3.16358,7.74446 4.43283,7.93772 0.90262,0.13743 3.5829,2.59121 5.95617,5.45284 4.1972,5.06087 5.5289,6.11488 5.5289,4.37601 0,-0.79504 -5.25213,-15.59131 -7.74274,-21.81279 -3.48111,-8.69576 -3.66427,-22.25687 -0.39398,-29.17187 1.3109,-2.77191 2.6239,-7.08349 2.91779,-9.5813 0.87873,-7.46868 13.36039,-22.88429 20.736,-25.61024 9.67183,-3.5746 12.54734,-4.3566 19.19815,-5.22101 8.21775,-1.06806 9.79329,-0.82226 9.79329,1.52786 0,1.61788 0.65216,1.95696 5.66472,2.94529 12.24953,2.41526 33.08835,14.21029 33.15334,18.7652 0.0181,1.27191 1.87567,3.25752 6.29738,6.73164 17.26346,13.56378 31.70692,52.10391 26.37057,70.36576 -1.24965,4.2765 -1.38725,7.80805 -0.32971,8.46166 1.51347,0.93537 19.10312,2.85985 21.6949,2.37363 1.86573,-0.35001 3.94685,0.0487 6.90385,1.32262 8.20867,3.53651 37.81659,4.47183 37.81659,1.19464 z M 228.52909,593.94754 c 8.1e-4,-1.00144 1.67848,-4.36993 3.72797,-7.48552 2.04949,-3.1156 4.60738,-7.40111 5.68419,-9.52336 1.07682,-2.12226 3.78618,-5.94594 6.0208,-8.49708 2.23462,-2.55114 4.42445,-5.09364 4.86628,-5.64999 2.92708,-3.68579 18.8054,1.71594 26.43307,8.99241 7.84452,7.48333 0.93728,13.25196 -11.90607,9.94343 -5.97723,-1.53977 -7.33932,-1.29748 -12.53769,2.23023 -1.70178,1.15485 -3.63419,2.09974 -4.29426,2.09974 -0.66008,0 -3.53586,2.18496 -6.39064,4.85547 -5.9083,5.52691 -11.60721,7.01733 -11.60365,3.03467 z m 301.84699,-10.16387 c -2.00289,-1.28526 -4.36994,-3.17589 -5.26011,-4.20138 -6.59634,-7.59916 -17.14279,-11.23264 -25.70324,-8.85533 -16.7326,4.64678 -18.86755,-1.7276 -3.13884,-9.3717 16.48962,-8.0139 26.23367,-6.67516 34.66018,4.76197 10.44208,14.17284 10.1154,24.51559 -0.55799,17.66644 z M 308.37304,573.37921 c -4.91263,-4.91263 21.01668,-24.95609 32.26844,-24.94362 13.95006,0.0155 32.76476,13.85623 24.7017,18.17144 -2.53183,1.355 -19.89581,1.03047 -25.25027,-0.47191 -4.66748,-1.30963 -4.66748,-1.30963 -14.61951,3.23767 -9.40863,4.29901 -15.4033,5.70349 -17.10036,4.00642 z m 82.16539,-8.52405 c -3.49188,-3.49188 9.96299,-16.64666 20.52328,-20.06556 1.75319,-0.5676 4.60487,-1.74479 6.33706,-2.61598 3.33716,-1.67838 4.37838,-1.63289 12.22623,0.53423 21.90449,6.04872 35.13013,21.50447 14.68257,17.15834 -14.03927,-2.98405 -23.37529,-2.06002 -40.42435,4.00101 -5.94575,2.11374 -11.78658,2.54616 -13.34479,0.98796 z M 247.18836,546.05787 c -2.53285,-3.0519 11.5472,-18.50297 26.25224,-28.8085 12.60201,-8.83168 15.07754,-9.17695 26.57102,-3.70599 22.47292,10.69724 21.40988,15.07414 -3.04084,12.52022 -6.97837,-0.72892 -9.43671,-0.70742 -11.67526,0.10205 -4.1517,1.50127 -16.8322,9.32887 -21.97048,13.56226 -7.33901,6.04652 -14.15343,8.71963 -16.13668,6.32996 z m 251.22251,-22.49294 c -11.99945,-5.65191 -18.20099,-6.12854 -29.38016,-2.25806 -15.95011,5.52227 -17.14087,0.5734 -2.93398,-12.1938 13.90728,-12.49797 14.86663,-12.41377 33.93263,2.97844 17.19939,13.88527 16.346,19.93495 -1.61849,11.47342 z M 354.1449,520.47665 c -4.8806,-1.96023 0.25668,-10.62377 11.14497,-18.79493 2.44802,-1.83713 5.46587,-4.41424 6.70632,-5.72691 7.65178,-8.09727 43.44994,9.22183 43.46398,21.02782 0.005,4.24292 -5.4967,3.86087 -17.39575,-1.20796 -11.45321,-4.8789 -16.1385,-4.41348 -34.79756,3.45668 -5.26517,2.22078 -6.33093,2.36628 -9.12196,1.2453 z m 159.17828,274.66159 c 1.87578,-2.38468 2.36837,-5.11799 0.66567,-3.69378 -1.6014,1.33949 -4.01882,5.82603 -3.13916,5.82603 0.43794,0 1.55101,-0.95952 2.47349,-2.13225 z m -27.51297,-3.93709 c 0,-0.44509 -0.52043,0.10115 -1.15652,1.21386 -0.63608,1.11272 -1.15651,2.38728 -1.15651,2.83236 0,0.44509 0.52043,-0.10115 1.15651,-1.21386 0.63609,-1.11272 1.15652,-2.38728 1.15652,-2.83236 z m -206.7172,-11.25069 c -1.03226,-4.93368 -2.53729,-8.3191 -3.34104,-7.51535 -0.15969,0.15969 0.6541,3.29098 1.80842,6.95841 2.50061,7.94473 3.12589,8.17195 1.53262,0.55694 z m 25.43427,-7.36196 c 0.0318,-2.89565 -0.17858,-3.70105 -0.73997,-2.83236 -0.43146,0.66763 -0.76445,3.21675 -0.73998,5.66472 0.057,5.7006 1.4147,3.10215 1.47995,-2.83236 z M 424.36491,451.41828 c 1.16932,-0.53666 2.43074,-2.11981 2.98899,-3.75137 0.9011,-2.63354 0.96894,-2.67681 1.01155,-0.6452 0.12676,6.04304 29.76376,-3.01403 32.81028,-10.02682 0.66064,-1.52073 1.174,-2.06115 1.19204,-1.25486 0.0471,2.10529 2.0897,1.73264 7.1929,-1.31225 2.51506,-1.50063 6.27844,-3.68678 8.36305,-4.85811 2.08463,-1.17133 4.02124,-2.85755 4.30359,-3.74714 0.37203,-1.17218 0.99946,-1.49985 2.27912,-1.19027 2.1467,0.51935 14.30906,-7.00858 14.30906,-8.85664 0,-1.64871 -4.98488,-2.50831 -7.31479,-1.26138 -1.43252,0.76667 -2.50001,0.75004 -5.00893,-0.078 -2.32795,-0.7683 -3.56645,-0.81619 -4.5892,-0.17747 -0.79625,0.49727 -1.91458,0.58726 -2.59134,0.20853 -1.85748,-1.0395 -21.24779,-2.38862 -22.12038,-1.53907 -0.45916,0.44705 -1.31447,0.23389 -2.17069,-0.54098 -0.78029,-0.70615 -4.60809,-1.77613 -8.5486,-2.38958 -3.92459,-0.61098 -9.1385,-1.69689 -11.58647,-2.41316 -2.44797,-0.71626 -6.08957,-1.41293 -8.09246,-1.54817 -2.00288,-0.13524 -8.71493,-0.69035 -14.91568,-1.23358 -10.05796,-0.88117 -16.09949,-0.81776 -26.76046,0.28084 -15.73722,1.6217 -19.90004,2.13961 -23.0635,2.86936 -2.00288,0.46203 -5.33103,0.84897 -7.39588,0.85984 -4.41151,0.0232 -6.47432,1.45855 -8.75131,6.08913 -0.91545,1.86167 -1.60543,2.61821 -1.62397,1.78061 -0.0177,-0.80099 0.51266,-2.5101 1.17865,-3.79799 1.4261,-2.75776 0.57127,-3.6661 -2.67307,-2.84043 -1.19869,0.30506 -7.55037,0.80712 -14.11486,1.11569 -14.39329,0.67658 -13.98447,0.39329 -15.65229,10.8459 -1.87001,11.71982 -1.63797,12.6782 3.71498,15.34346 11.2526,5.60274 23.00113,9.29445 24.80758,7.79523 0.88409,-0.73372 1.3595,-0.66861 2.12513,0.29105 1.20421,1.50942 25.03924,4.88072 35.32497,4.99649 6.82436,0.0768 6.82436,0.0768 7.79401,-3.96943 0.96965,-4.04623 0.96965,-4.04623 1.06579,0.10322 0.10589,4.57086 0.92265,5.67185 4.54698,6.12937 4.97661,0.62822 29.99142,-0.371 31.9652,-1.27685 z m -80.7668,-30.8516 c 0.0165,-1.33526 0.19786,-1.78353 0.40303,-0.99616 0.20518,0.78737 0.19169,1.87986 -0.03,2.42774 -0.22168,0.54788 -0.38955,-0.0963 -0.37306,-1.43158 z m -32.47924,5.55761 c 2.05368,-15.75804 3.08316,-14.1101 -8.63493,-13.82233 -19.77652,0.48567 -19.7105,7.11136 0.17246,17.30381 7.45036,3.81923 7.51443,3.79286 8.46247,-3.48148 z m 167.87011,-37.00348 c 19.25715,-9.00736 14.94935,-39.36312 -5.58604,-39.36312 -17.97925,0 -26.5005,23.23101 -13.70676,37.36794 3.46369,3.82733 13.21895,4.83618 19.2928,1.99518 z m -15.45659,-13.79096 c -4.20928,-4.20928 -2.98872,-11.2022 2.73316,-15.6589 3.03626,-2.36491 8.71005,0.0219 11.11716,4.67678 4.14244,8.01061 -7.5504,17.28204 -13.85032,10.98212 z M 323.13555,386.3991 c 23.07514,-9.55261 11.61989,-42.42061 -12.11315,-34.7557 -2.30119,0.7432 -4.75986,1.35127 -5.46372,1.35127 -4.14421,0 -9.53221,6.12292 -10.6707,12.12618 -3.23683,17.06774 11.53661,28.19624 28.24757,21.27825 z m -8.42342,-8.14767 c -3.83716,-0.78645 -7.62215,-7.0727 -6.46112,-10.73081 3.03003,-9.54677 15.33247,-9.52309 18.84872,0.0363 1.89898,5.1626 -6.02035,11.99955 -12.3876,10.69453 z"
       style="fill:#6d6c5b"
       sodipodi:nodetypes="csssssssssssscsssscssssssscsssssssssssssssssssssssssssssssssssssssssssscsssssssscsssssssssssssssssssssssssssssssssssssscsssssssssssssssssssssssssssscccsssscssssssssssssssscsscsssssscsscsssssssssssssssssscssssssssssssscssssssssscscsssssssssssssscsscsscccssssssssscsssssssssssssssssssssssssssssssssscsssssssssssssssscssccssssssssssssscssssssssscssssssssssscccccccssssssssssssssssscsscc" />
    <path
       inkscape:connector-curvature="0"
       id="path4446"
       d="m 264.13427,844.63461 c -7.27058,-2.76351 -17.88859,-9.58228 -22.28544,-14.31147 -5.13532,-5.52345 -11.70286,-13.44245 -11.70286,-14.11102 0,-0.33442 -1.8208,-2.70147 -4.04624,-5.2601 -2.22542,-2.55862 -4.04623,-5.13732 -4.04623,-5.73042 0,-0.9928 -2.2755,-7.65205 -7.55609,-22.11291 -4.50161,-12.3276 -4.99728,-23.92203 -1.333,-31.18093 1.47084,-2.91372 2.63959,-6.74062 2.94188,-9.63275 0.59468,-5.68967 1.16833,-6.63727 9.58882,-15.83972 8.03677,-8.78311 14.61009,-11.92702 29.94208,-14.32079 8.39655,-1.31093 7.946,-1.36263 8.4931,0.97445 0.39923,1.70543 1.29449,2.23043 5.70121,3.34331 2.87517,0.72611 7.23048,2.23259 9.67845,3.34772 2.44797,1.11514 6.91804,3.16121 9.93351,4.54683 3.01549,1.38563 5.77218,2.51931 6.12599,2.51931 1.62827,0 7.40862,5.92673 7.40862,7.59622 0,2.32017 1.09372,3.60587 6.124,7.19899 17.73008,12.66458 31.71641,51.89509 25.89641,72.63739 -0.71279,2.54039 -1.06889,5.21069 -0.79133,5.93401 0.33112,0.8629 0.0765,1.31512 -0.74069,1.31512 -0.68493,0 -2.04275,1.11987 -3.01737,2.4886 -5.09443,7.15444 -22.09362,16.95236 -29.36096,16.92292 -2.36615,-0.01 -5.49845,0.56899 -20.07548,3.70815 -6.57275,1.41545 -13.10136,1.40272 -16.87837,-0.0329 z m 28.3236,-8.52106 c 2.44797,-0.7825 7.59384,-2.38544 11.43527,-3.56209 9.68185,-2.9656 16.53141,-7.48206 17.6506,-11.63842 4.58108,-17.01284 3.45002,-22.87009 -5.88004,-30.45003 -6.15601,-5.00126 -8.77833,-5.28499 -9.4984,-1.02771 -1.22395,7.23628 -6.22056,6.37902 -8.94861,-1.5353 -2.67271,-7.75376 -13.98767,-6.28224 -11.71834,1.52399 1.90212,6.54305 1.74739,7.84711 -0.93062,7.84347 -2.23249,-0.003 -7.46303,-2.66938 -7.51125,-3.82899 -0.14612,-3.5132 -2.39684,-3.59295 -6.20771,-0.21994 -2.13517,1.88984 -4.71864,3.823 -5.74105,4.29591 -1.56383,0.72333 -1.82078,1.38243 -1.61849,4.15185 0.2276,3.11649 0.12536,3.2844 -1.9173,3.14895 -5.86513,-0.38893 -3.23955,31.12356 2.7058,32.47524 6.48465,1.4743 21.90022,0.83047 28.18014,-1.17693 z m -36.17698,-29.71726 c 0.39296,-4.64288 0.15307,-6.27245 -1.56388,-10.6225 -2.54514,-6.44844 -3.95454,-14.58804 -2.73682,-15.80576 1.88766,-1.88766 6.85239,3.99039 9.14596,10.82849 0.6718,2.00289 1.78899,3.75617 2.48266,3.89618 1.68361,0.33984 10.40349,-8.15206 9.88973,-9.63117 -1.57103,-4.52304 -3.74114,-16.06644 -3.53967,-18.82851 0.59715,-8.18701 9.23435,-1.01636 12.06115,10.01325 1.03288,4.03006 1.03288,4.03006 7.70394,4.03006 7.46714,0 6.90708,0.49193 8.29186,-7.28321 1.62282,-9.11167 5.28307,-14.5924 7.95859,-11.91689 1.76299,1.763 2.87717,10.7594 1.89798,15.32522 -1.1746,5.47697 -1.18725,5.43426 2.00379,6.76755 9.934,4.1507 17.756,14.4202 17.09898,22.44925 -0.45309,5.53692 0.80022,6.72356 3.96305,3.75224 2.85336,-2.68059 2.23097,-17.84908 -1.35532,-33.03082 -3.39908,-14.38926 -20.0384,-36.52562 -27.45534,-36.52562 -2.15602,0 -2.73314,-1.48177 -1.48526,-3.81345 1.03409,-1.93221 -3.34852,-7.45209 -5.95789,-7.50394 -0.3332,-0.006 -3.84082,-1.46869 -7.79472,-3.24903 -11.60584,-5.22583 -16.56268,-4.55822 -25.96042,3.49647 -2.87546,2.46452 -5.53164,4.29337 -5.90262,4.0641 -2.01693,-1.24653 -10.57907,9.35513 -12.87538,15.94232 -0.92818,2.66259 -0.92818,2.66259 -2.39791,0.84755 -2.3856,-2.94609 -3.13343,-1.31728 -3.13343,6.8248 0,6.64074 -0.19545,7.71621 -1.53234,8.43169 -2.91206,1.55849 -3.927,13.70437 -1.98749,23.78439 0.35729,1.85691 0.77265,2.21337 2.18285,1.87337 1.50922,-0.36386 2.15286,0.44474 4.82371,6.06007 3.20772,6.74404 8.85373,13.64603 11.16282,13.64603 0.73546,0 1.7872,0.54223 2.33721,1.20496 1.59583,1.92284 2.17874,0.82707 2.67421,-5.02709 z m 3.48572,-11.62041 c -0.62329,-3.89778 -4.62444,-12.14076 -5.1485,-10.6067 -0.19925,0.58327 0.0668,2.76823 0.59119,4.85548 2.013,8.01205 5.65347,12.60625 4.55731,5.75122 z m 23.78956,-1.92655 c 0,-5.96171 -5.55205,-21.94497 -8.62612,-24.83291 -3.29921,-3.09944 -1.32707,9.85251 3.09093,20.29952 1.99806,4.72473 5.53519,7.62168 5.53519,4.53339 z m 21.52513,-10.70965 c 1.82264,-13.69973 0.77967,-21.81654 -2.10962,-16.41786 -1.86602,3.4867 -4.00206,18.4562 -3.04156,21.3155 2.31471,6.8906 3.76648,5.51029 5.15118,-4.89764 z m 171.66048,62.80694 c -15.20688,-2.04457 -25.18948,-8.40879 -29.79065,-18.99246 -0.95683,-2.20092 -2.48787,-4.82104 -3.40232,-5.82248 -0.91445,-1.00145 -1.43755,-1.82081 -1.16245,-1.82081 0.27511,0 -0.23244,-1.65622 -1.12788,-3.68049 -3.55768,-8.04272 -2.317,-26.26562 2.4722,-36.31141 0.86599,-1.81651 3.23939,-7.41881 5.27424,-12.44956 4.99156,-12.34068 7.0673,-16.27729 11.36527,-21.55403 2.00626,-2.46315 3.64775,-4.87697 3.64775,-5.36405 0,-1.82621 12.68373,-16.09953 17.31788,-19.48826 2.51743,-1.84087 4.01214,-2.30789 7.38644,-2.30789 2.85223,0 4.57296,-0.41282 5.28205,-1.26723 2.79833,-3.37178 8.97147,-4.52965 14.1555,-2.65507 2.20211,0.79629 3.10859,0.67759 6.17998,-0.80925 6.81248,-3.29786 19.25154,-0.28849 28.77364,6.96117 1.50663,1.14707 3.16656,1.78706 3.90255,1.50463 3.45364,-1.32528 8.00886,5.73423 9.23834,14.31726 0.39487,2.75659 1.31386,7.01487 2.04219,9.46284 2.09385,7.03756 2.52447,17.03343 0.87607,20.33581 -0.74885,1.50023 -1.55076,4.3341 -1.78202,6.29749 -0.23127,1.9634 -1.67341,6.0578 -3.20476,9.09865 -1.93483,3.84207 -2.89139,6.9861 -3.13538,10.30547 -0.38175,5.19339 -2.09186,10.05616 -4.43879,12.62183 -0.81983,0.89625 -2.41324,3.47417 -3.54092,5.7287 -9.34817,18.68962 -28.93523,33.53553 -46.40881,35.17532 -4.82417,0.45273 -10.04578,0.96444 -11.60357,1.13715 -1.5578,0.17271 -5.30024,-0.0178 -8.31654,-0.42333 z m 24.12912,-8.46673 c 13.06115,-3.39277 17.29048,-11.50652 12.88819,-24.7254 -3.10958,-9.33721 -3.30428,-9.49337 -8.06891,-6.47173 -6.4531,4.09244 -9.02803,3.09666 -5.98645,-2.31509 2.09902,-3.7347 1.59958,-4.80794 -3.43191,-7.37482 -4.77982,-2.43848 -6.80659,-2.06967 -9.29563,1.69152 -3.71772,5.61786 -7.58259,5.37 -7.58259,-0.4863 0,-6.24901 -12.37179,-7.80077 -15.58925,-1.95532 -2.87978,5.23198 -4.67333,6.60317 -8.27024,6.32274 -4.50014,-0.35085 -5.04548,15.578 -0.8225,24.02397 5.03657,10.07315 28.62962,15.84394 46.15929,11.29043 z m 29.73297,-21.20369 c 2.80645,-4.56272 6.2306,-13.99338 6.7872,-18.69307 0.3655,-3.08611 0.83203,-4.16909 1.79711,-4.17186 3.34056,-0.01 6.51336,-4.63169 6.02278,-8.77391 -0.49462,-4.17626 0.61236,-7.40726 2.53783,-7.40726 0.62197,0 1.36329,-0.73232 1.64737,-1.62737 0.28408,-0.89505 1.58318,-2.17896 2.88689,-2.85314 1.3158,-0.68043 2.3704,-1.88708 2.3704,-2.71221 0,-0.81753 1.11897,-2.89449 2.48663,-4.61546 1.82804,-2.30029 2.36627,-3.66932 2.0322,-5.16905 -0.24993,-1.12202 -1.015,-4.95332 -1.70011,-8.514 -0.68512,-3.56068 -1.75483,-7.74853 -2.37713,-9.30633 -0.62231,-1.55779 -1.32029,-4.71929 -1.5511,-7.02555 -0.65315,-6.5268 -3.29719,-11.06991 -6.1146,-10.50644 -1.81574,0.36315 -2.92229,-0.16379 -5.7858,-2.75523 -7.62351,-6.89917 -22.15155,-10.41382 -27.06624,-6.54791 -1.86026,1.46326 -2.94365,1.73213 -5.34487,1.32645 -2.60028,-0.43931 -3.14702,-0.25178 -4.00254,1.37281 -0.54496,1.03489 -4.08207,5.05189 -7.86022,8.92666 -6.77571,6.949 -6.86324,7.09065 -6.42069,10.39008 0.39946,2.97824 0.14549,3.68061 -2.31638,6.40558 -1.52077,1.68331 -2.76503,3.51459 -2.76503,4.06953 0,0.55492 -1.1275,2.29309 -2.50554,3.8626 -2.01946,2.30004 -2.41132,3.32475 -2.01986,5.28202 0.40757,2.03785 0.0297,2.87125 -2.34993,5.18228 -3.17307,3.08165 -3.64787,5.54612 -1.21712,6.31761 1.95416,0.62023 2.00158,1.11604 0.33438,3.4963 -1.4013,2.00064 -0.44997,4.19153 1.82005,4.19153 0.63087,0 2.65508,0.76935 4.49826,1.70967 3.38093,1.72482 5.48599,0.97975 5.48599,-1.94173 0,-1.87957 3.47627,-5.43266 5.3152,-5.43266 2.70246,0 2.67192,5.07654 -0.0706,11.73406 -1.10009,2.67051 -2.00185,4.92947 -2.00391,5.01992 -0.0103,0.45221 8.0756,3.75145 10.75981,4.39026 2.82535,0.6724 3.23683,0.54053 5.05478,-1.61997 6.87809,-8.17416 13.5742,-3.15716 8.50259,6.37049 -1.5071,2.83127 -1.5071,2.83127 2.05703,6.64161 2.85028,3.04718 3.56413,4.39523 3.56413,6.73057 0,7.43467 4.48671,11.16998 7.511,6.25312 z m -19.44939,-16.29281 c 3.45759,-2.41422 6.97308,-8.62039 5.63883,-9.95464 -1.93184,-1.93184 -6.23428,2.36682 -11.36163,11.35166 -1.39661,2.44734 1.08445,1.84167 5.7228,-1.39702 z m -49.82557,-4.54096 c 2.27812,-4.06128 5.30917,-15.16004 4.92897,-18.04832 -0.28789,-2.18712 -0.28789,-2.18712 -1.22713,-0.16401 -1.34777,2.9031 -8.29602,20.89054 -8.29602,21.47649 0,1.63074 3.07331,-0.55284 4.59419,-3.26416 z m 27.58706,-5.46671 c 4.88942,-9.08818 6.77617,-14.36411 5.13682,-14.36411 -0.46479,0 -1.25817,0.81936 -1.76308,1.8208 -0.5049,1.00145 -2.9118,4.76839 -5.34866,8.37098 -2.94713,4.35698 -4.58168,7.67623 -4.88173,9.91326 -0.81171,6.05181 1.5974,4.03471 6.85665,-5.74093 z m -291.01481,-11.5738 c 0.15378,-0.79328 0.76958,-1.60548 1.36844,-1.80489 0.69646,-0.23191 0.98809,0.1572 0.80924,1.07975 -0.15377,0.79327 -0.76957,1.60547 -1.36843,1.80489 -0.69646,0.23191 -0.98809,-0.1572 -0.80925,-1.07975 z m -9.68086,-27.93761 c 0.15948,-0.47847 0.63593,-0.86994 1.05876,-0.86994 0.42283,0 0.89927,0.39147 1.05876,0.86994 0.1595,0.47846 -0.31694,0.86994 -1.05876,0.86994 -0.7418,0 -1.21825,-0.39148 -1.05876,-0.86994 z m 390.44076,-9.38051 c -0.83948,-0.83949 -0.63432,-3.50673 0.26974,-3.50673 0.4451,0 0.80925,0.9104 0.80925,2.02311 0,2.11866 -0.18692,2.37568 -1.07899,1.48362 z m 5.94686,-2.44741 c 0.0282,-1.49304 1.5806,-3.16255 1.59371,-1.71401 0.006,0.75263 -0.35177,1.59348 -0.79685,1.86856 -0.44509,0.27508 -0.80367,0.20553 -0.79686,-0.15455 z m -405.71418,-3.21731 c -0.29673,-0.29672 -0.5395,-0.91579 -0.5395,-1.37572 0,-0.50707 0.37692,-0.45929 0.95761,0.12139 0.52669,0.52669 0.76946,1.14576 0.5395,1.37572 -0.22997,0.22996 -0.66089,0.17534 -0.95761,-0.12139 z m -12.67818,-2.69748 c 0,-1.33526 0.33745,-2.42774 0.74991,-2.42774 0.41245,0 0.90642,-0.4552 1.09772,-1.01156 0.19129,-0.55635 0.22297,-0.28323 0.0704,0.60694 -0.15258,0.89017 -0.2824,2.43785 -0.28848,3.43929 -0.006,1.00144 -0.37521,1.8208 -0.82029,1.8208 -0.44509,0 -0.80925,-1.09248 -0.80925,-2.42773 z m 408.30952,1.69151 c -0.64629,-1.04573 0.38392,-3.39043 1.25353,-2.85297 0.96364,0.59555 0.93274,3.58919 -0.0371,3.58919 -0.41882,0 -0.96624,-0.33129 -1.2165,-0.73622 z m 0.67697,-8.24109 c 0.31511,-2.40638 0.75269,-6.5602 0.9724,-9.23071 0.21971,-2.67051 0.7555,-8.315 1.19066,-12.54331 2.16182,-21.00601 3.44144,-36.79075 3.57533,-44.10388 0.0815,-4.45085 0.4223,-11.3699 0.75735,-15.37567 0.36412,-4.35336 0.26946,-9.34435 -0.23532,-12.40696 -0.59432,-3.60594 -0.58871,-5.53334 0.019,-6.50639 0.62789,-1.00541 0.4831,-3.69206 -0.53067,-9.84729 -1.59133,-9.66182 -2.37355,-19.35942 -1.30289,-16.15248 1.33615,4.00216 2.70135,10.21196 3.38026,15.37566 0.38038,2.89305 0.93769,6.81595 1.23847,8.71755 0.42551,2.69013 0.23565,3.80136 -0.85548,5.00705 -1.21317,1.34053 -1.26973,1.95143 -0.41931,4.52825 0.76986,2.33269 0.77147,4.89458 0.007,11.81316 -0.53657,4.85897 -0.73764,10.56454 -0.44682,12.67906 0.59873,4.35332 -0.66222,26.26552 -2.38334,41.41647 -2.57198,22.64105 -2.43237,23.83948 2.13218,18.3019 1.89323,-2.29683 2.99352,-2.92623 5.11545,-2.92623 5.20287,0 12.63184,-10.87833 16.65299,-24.38519 1.55785,-5.23274 7.40777,-19.83696 14.54376,-36.30823 2.10505,-4.85886 3.11693,-8.23933 6.05578,-20.23114 2.17563,-8.87745 2.29197,-17.48623 0.35541,-26.30048 -1.37189,-6.24416 -1.66881,-9.53196 -1.3,-14.39507 0.38273,-5.04664 0.17071,-7.14309 -1.06392,-10.52019 -0.84804,-2.31967 -1.95205,-7.01959 -2.45336,-10.44425 -1.98214,-13.54105 -8.50945,-39.07597 -11.33853,-44.35651 -0.59458,-1.10978 -3.17015,-7.03314 -5.7235,-13.16301 -5.98297,-14.36347 -12.31861,-25.49538 -18.48794,-32.48389 -2.70442,-3.06368 -4.91725,-5.98179 -4.91725,-6.48468 0,-1.81354 -5.65706,-12.66446 -9.81477,-18.82595 -3.81471,-5.65313 -8.73804,-11.19143 -27.4787,-30.91102 -3.17905,-3.34511 -5.87775,-6.95951 -6.12706,-8.20601 -0.45821,-2.29107 -8.69141,-3.88006 -17.01661,-3.28417 -3.83318,0.27436 -6.06967,-1.21037 -5.76718,-3.82866 0.2508,-2.171 0.2508,-2.171 9.50225,-2.20868 10.15237,-0.0413 10.4768,-0.21145 8.99079,-4.71415 -0.90522,-2.74282 -0.90522,-2.74282 -13.41764,-3.32924 -18.13684,-0.85001 -18.65832,-3.76698 -0.92092,-5.15131 9.66342,-0.75418 9.85207,-0.83131 9.12446,-3.73033 -1.47132,-5.8622 -4.55027,-7.27703 -11.05179,-5.07848 -8.63328,2.91941 -11.66519,3.33503 -13.19185,1.80838 -2.04464,-2.04464 -0.83126,-3.24251 6.81029,-6.72321 6.2918,-2.86588 7.23757,-3.56015 7.23757,-5.31286 0,-2.71851 -4.51453,-16.56241 -6.27604,-19.24558 -1.48622,-2.26385 -7.7306,-10.72538 -12.07542,-16.36295 -1.41416,-1.83491 -4.09816,-5.7977 -5.96446,-8.8062 -1.86631,-3.00849 -6.28743,-8.19259 -9.82471,-11.52021 -7.01004,-6.59454 -7.26647,-7.69178 -1.79764,-7.69178 2.47059,0 3.76708,-0.38525 4.08505,-1.21387 0.2562,-0.66763 0.97308,-1.21387 1.5931,-1.21387 1.94204,0 1.25828,-1.10037 -2.91934,-4.69805 -5.89922,-5.0803 -5.03662,-9.27256 2.07282,-10.0739 14.07531,-1.58649 22.38228,-32.91053 18.07983,-68.17572 -0.89621,-7.34579 -4.54875,-17.95839 -6.83329,-19.85438 -2.43243,-2.01874 -20.26656,20.44623 -25.34423,31.92515 -6.12157,13.83882 -7.47739,32.85148 -2.62546,36.81676 2.74806,2.24588 2.74806,2.24588 0.93114,4.70339 -1.44299,1.95175 -1.64028,2.78758 -0.95861,4.06128 0.64282,1.20113 0.56789,1.98739 -0.29846,3.13174 -1.94109,2.56396 -1.59743,11.47359 0.50832,13.17874 1.5829,1.28175 1.61441,1.49217 0.40463,2.70195 -0.72158,0.72158 -1.31196,2.22689 -1.31196,3.34512 0,3.30552 -1.26679,3.20211 -7.05696,-0.57601 -5.15035,-3.36064 -5.75893,-3.55711 -9.9372,-3.20808 -2.79754,0.23369 -8.95988,-0.42456 -16.58953,-1.77207 -32.00549,-5.65266 -66.73358,-4.63061 -84.16154,2.47687 -11.15836,4.55061 -15.63834,4.30453 -11.18671,-0.61446 0.98528,-1.08873 1.11334,-1.74228 0.46786,-2.38776 -0.48881,-0.4888 -0.69809,-1.38554 -0.46509,-1.99275 0.25713,-0.67005 -0.4039,-1.41864 -1.68172,-1.90447 -2.83394,-1.07746 -2.69343,-3.35144 0.42666,-6.90503 2.4639,-2.80623 2.49254,-2.92751 1.06393,-4.50611 -1.4109,-1.55902 -1.41271,-1.84995 -0.0464,-7.4622 3.46929,-14.25105 2.56487,-26.42141 -2.92969,-39.42362 -1.78683,-4.2283 -4.3529,-12.23983 -5.70238,-17.8034 -3.28148,-13.52867 -8.89643,-21.04038 -15.72753,-21.04038 -3.34042,0 -7.10145,9.57017 -7.95072,20.23114 -0.30138,3.78322 -1.08528,7.73191 -1.74199,8.77487 -0.65671,1.04296 -1.39367,4.68456 -1.63771,8.09246 -0.24403,3.40789 -1.00297,7.16841 -1.68653,8.35671 -1.12784,1.96064 -1.10698,2.73744 0.22542,8.39529 1.18265,5.02194 1.37656,8.17554 0.99684,16.2119 -0.47142,9.97716 -0.47142,9.97716 3.11875,17.35356 1.97459,4.05701 3.59016,7.82075 3.59016,8.36385 0,0.54311 0.72832,2.41602 1.61849,4.16204 0.89017,1.74602 1.6185,3.76946 1.6185,4.49654 0,0.72708 0.69557,1.95144 1.5457,2.72081 0.85015,0.76937 1.78983,2.37145 2.08818,3.56019 0.9103,3.62695 5.16705,6.62124 9.41287,6.62124 1.9343,0 1.94538,1.10478 0.0254,2.53135 -0.82185,0.61064 -5.13307,3.86947 -9.58048,7.24184 -4.4474,3.37237 -9.69259,6.76998 -11.65596,7.55024 -5.61429,2.23116 -9.02998,6.18295 -6.19982,7.1729 1.71537,0.60001 -1.79246,3.78755 -7.0809,6.43436 -6.43699,3.22166 -7.77068,4.46888 -7.20192,6.73499 0.34142,1.36031 -0.31492,2.68916 -2.55026,5.16343 -3.43319,3.80012 -3.74558,10.70841 -0.71975,15.91674 1.41997,2.44419 1.41269,2.57063 -0.30854,5.35562 -0.96955,1.56878 -1.76302,4.08391 -1.76324,5.58917 -2.2e-4,1.50527 -0.72854,4.65259 -1.61849,6.99406 -0.88995,2.34148 -1.61808,5.53957 -1.61808,7.1069 0,1.56731 -0.54625,4.157 -1.21387,5.75486 -0.66763,1.59786 -1.21387,4.18407 -1.21387,5.74715 0,1.56308 -0.4218,4.24981 -0.93734,5.97051 -1.18476,3.9544 -0.0546,8.13178 3.36371,12.43316 1.33601,1.68115 2.4291,3.498 2.4291,4.03743 0,0.53945 2.22721,1.85497 4.94935,2.9234 6.97082,2.73602 6.92457,2.91365 -3.52266,13.52734 -9.30736,9.45564 -9.30736,9.45564 -9.88988,16.31963 -0.65118,7.67314 -0.80123,8.06933 -4.92605,13.00641 -1.61623,1.9345 -4.21662,6.05507 -5.77863,9.15682 -1.56201,3.10174 -3.7493,7.01354 -4.86064,8.6929 -3.53894,5.3477 -1.31808,5.32443 9.86669,-0.10337 1.78034,-0.86397 5.78611,-2.60326 8.9017,-3.86509 4.53231,-1.83561 5.89299,-2.80239 6.80661,-4.83614 0.62804,-1.39805 1.72052,-2.77265 2.42773,-3.05468 4.31924,-1.72244 39.54843,-9.97877 44.58049,-10.44791 4.15664,-0.38752 6.5794,-1.03412 7.68784,-2.05177 1.07047,-0.9828 3.26253,-1.60114 6.47396,-1.82616 2.67051,-0.18713 8.315,-0.92643 12.54331,-1.64287 23.98016,-4.06322 37.43558,-4.73724 46.05601,-2.3071 5.87724,1.65682 6.04882,1.66059 8.49708,0.18624 2.06675,-1.2446 5.66307,-2.47934 15.44665,-5.30337 0.44508,-0.12847 1.35549,0.21503 2.02311,0.76336 0.66763,0.54832 5.40172,1.83075 10.5202,2.84984 10.08146,2.00722 21.51722,5.18233 22.96748,6.37686 0.49789,0.41009 5.03279,1.35157 10.07753,2.09216 9.74502,1.43063 21.17864,5.87963 26.43454,10.28609 1.33525,1.11946 3.75941,2.6606 5.38701,3.42474 3.6944,1.73452 13.958,10.48629 17.51231,14.93275 2.01898,2.52577 3.23729,3.33792 5.00724,3.33792 2.7117,0 14.02155,11.01812 18.12134,17.65391 1.28824,2.0851 2.90966,4.12187 3.60316,4.52614 0.6935,0.40427 2.77863,2.13403 4.63364,3.84391 1.855,1.70989 3.8115,3.10888 4.34778,3.10888 2.07568,0 6.71179,4.51405 12.52677,12.19698 3.33457,4.40573 6.23201,7.73671 6.43876,7.4022 0.82026,-1.32721 -3.16076,-17.38704 -5.37824,-21.69638 -4.75135,-9.23353 -6.43862,-31.15262 -2.49912,-32.46579 1.56172,-0.52057 1.82697,1.79456 0.89525,7.81395 -1.0818,6.989 -0.16955,12.37367 3.84469,22.69389 5.15951,13.26461 5.66808,15.73202 5.76171,27.95384 0.0733,9.57004 0.37319,12.16148 1.90731,16.48245 1.44702,4.07562 1.64018,5.52243 0.94192,7.05495 -1.32131,2.89995 -2.69528,2.40944 -2.10246,-0.75058 0.34194,-1.82263 -0.0763,-4.21446 -1.30896,-7.48552 -0.99629,-2.64388 -1.77481,-6.03685 -1.73004,-7.53994 0.21237,-7.12984 -15.50694,-30.04156 -20.61097,-30.04156 -0.98396,0 -2.46574,-0.97811 -3.37136,-2.22542 -0.88869,-1.22399 -3.25174,-3.31791 -5.25124,-4.65316 -2.26794,-1.51452 -3.79206,-3.2046 -4.05177,-4.49298 -0.71033,-3.52384 -13.98814,-16.95203 -16.76217,-16.95203 -1.68429,0 -3.06808,-0.84294 -4.98175,-3.03467 -6.35955,-7.28359 -15.32035,-14.998 -18.63842,-16.04593 -0.99806,-0.31521 -3.29869,-1.78723 -5.11251,-3.27114 -6.93885,-5.67681 -17.99303,-9.46738 -32.70975,-11.21646 -2.44586,-0.29068 -4.99829,-1.02741 -5.67207,-1.63718 -1.98358,-1.79511 -17.13048,-5.60964 -30.60519,-7.70748 -5.52286,-0.85984 -15.10775,1.21963 -17.19084,3.72959 -1.26517,1.52444 -2.56363,1.45609 -10.13437,-0.53343 -8.43221,-2.21591 -37.10746,-0.30962 -49.70961,3.30463 -1.54429,0.44289 -4.42545,0.80526 -6.40259,0.80526 -2.35128,0 -4.17271,0.51657 -5.26544,1.49331 -1.17026,1.04603 -4.09448,1.78873 -9.7631,2.47961 -4.45086,0.54247 -13.91903,2.45933 -21.04039,4.25969 -7.12136,1.80036 -14.98408,3.72271 -17.47271,4.27187 -5.75476,1.26991 -6.50186,1.76107 -5.98144,3.93234 0.36544,1.52469 -0.22546,2.04328 -4.24557,3.72605 -6.70872,2.80816 -17.05919,7.24722 -21.03867,9.02295 -9.00582,4.01858 -18.38216,12.89495 -13.62128,12.89495 2.35972,0 3.31794,1.19597 1.88634,2.35436 -0.56613,0.4581 -3.2143,2.53093 -5.88481,4.6063 -10.73308,8.34113 -13.63269,11.89086 -11.17883,13.68516 1.23241,0.90116 1.01006,1.41891 -2.29728,5.34931 -2.01397,2.39337 -4.77659,5.9903 -6.13915,7.99319 -1.36256,2.00288 -3.60623,4.71117 -4.98592,6.01843 -2.89052,2.73874 -3.22914,4.50176 -0.86466,4.50176 2.88644,0 2.60183,2.11991 -0.99341,7.39944 -3.9081,5.73895 -6.94581,12.66094 -9.53767,21.7334 -2.69752,9.44227 -3.96233,12.66388 -8.89593,22.65887 -5.62196,11.38954 -6.04814,13.86694 -7.72634,44.91313 -1.30875,24.21152 -1.44816,25.47004 -3.46917,31.31763 -1.37961,3.99172 -0.99001,5.58563 0.96806,3.96058 1.73369,-1.43884 2.25659,0.11535 1.38612,4.11987 -1.94709,8.95742 -1.99933,15.8309 -0.12482,16.42585 3.03013,0.96172 2.08596,7.38519 -1.03677,7.05341 -1.26214,-0.1341 -2.80552,0.18003 -3.42971,0.69807 -1.16418,0.96618 -1.12902,1.00933 -2.33731,-2.86835 -0.20569,-0.66012 -0.89717,-0.99945 -1.53663,-0.75408 -0.63945,0.24539 -1.40305,0.0571 -1.69688,-0.41826 -0.29383,-0.47543 -1.46562,-0.86441 -2.60398,-0.86441 -1.67098,0 -1.98823,-0.31167 -1.6467,-1.61769 0.5844,-2.23478 -0.83353,-2.86942 -2.67916,-1.19914 -1.46023,1.32148 -1.68058,1.27075 -4.60217,-1.05948 -7.85113,-6.26201 -14.86161,-19.29163 -18.81398,-34.96748 -1.29053,-5.11848 -3.11682,-11.49129 -4.05843,-14.1618 -7.31361,-20.74225 -8.06971,-40.26832 -2.27186,-58.6703 0.49081,-1.5578 0.82903,-5.74564 0.7516,-9.30633 -0.31814,-14.62912 3.32671,-31.00544 9.67061,-43.45013 0.83771,-1.64333 1.3233,-3.50855 1.0791,-4.14495 -2.02895,-5.28734 12.01768,-38.32095 20.0883,-47.24189 1.06034,-1.17207 1.67943,-3.15923 1.82505,-5.8582 0.34468,-6.38816 11.1426,-21.11513 19.57891,-26.70312 4.04129,-2.67683 6.66216,-5.82312 9.57208,-11.49105 1.25568,-2.44581 3.83077,-5.24507 7.42159,-8.06767 19.14349,-15.04798 23.25363,-21.60361 12.98425,-20.70976 -27.1436,2.36261 -43.04061,4.1855 -54.39308,6.23719 -11.04865,1.99678 -11.71972,2.02299 -10.09079,0.39406 1.70701,-1.70701 34.74111,-7.11641 59.32666,-9.71486 14.5732,-1.54025 15.61282,-2.51085 15.45295,-14.42716 -0.10213,-7.61265 0.0282,-7.50096 -9.61387,-8.23935 -4.04698,-0.30991 -9.36103,-1.08269 -11.809,-1.7173 -2.44796,-0.6346 -8.63869,-1.31111 -13.75717,-1.50337 -5.11848,-0.19226 -11.85545,-0.72052 -14.97104,-1.17392 -3.1156,-0.4534 -11.20506,-1.07006 -17.97658,-1.37037 -19.84592,-0.88011 -13.51371,-1.69486 11.67997,-1.50284 21.7043,0.16543 24.38104,0.35099 39.29716,2.72415 19.67942,3.13101 22.01377,2.41778 27.65125,-8.44847 2.91908,-5.62654 -7.22514,-8.789 -42.8484,-13.35802 -7.74882,-0.99386 -27.27227,-3.16081 -28.57367,-3.17145 -0.58869,-0.005 -0.8049,-0.42032 -0.48665,-0.93526 1.33956,-2.16745 46.02445,2.34858 65.07175,6.57641 4.22831,0.93853 8.63173,1.90608 9.7854,2.15011 2.27755,0.48177 5.44359,-2.75092 8.43169,-8.60917 0.79457,-1.5578 2.31703,-3.98009 3.38323,-5.38287 1.35261,-1.7796 1.78978,-3.14329 1.44634,-4.51166 -0.55629,-2.21643 5.12462,-9.61083 11.02922,-14.35591 2.80774,-2.25636 3.17611,-2.91862 2.73657,-4.91984 -0.66,-3.00499 4.64645,-7.2783 17.17798,-13.83345 9.41895,-4.927 10.64383,-6.52458 5.49695,-7.1695 -4.31371,-0.54052 -4.64216,-2.49144 -0.81742,-4.85526 6.32451,-3.90876 6.46124,-7.62272 0.31679,-8.60525 -5.08786,-0.81358 -6.16008,-2.0098 -4.90716,-5.47469 1.01102,-2.79595 0.88746,-3.22552 -3.46207,-12.03548 -6.00046,-12.15389 -6.50629,-17.96275 -3.29291,-37.81519 1.18871,-7.3439 2.49581,-15.87254 2.90465,-18.95252 1.51401,-11.4053 12.99979,-31.49425 19.76354,-34.56695 11.48882,-5.21926 21.4735,2.92857 25.91761,21.14965 1.24839,5.11847 3.53328,12.2196 5.07752,15.78029 5.70463,13.15361 7.15665,25.40246 4.5243,38.16566 -1.80674,8.76015 -1.79594,10.03088 0.0943,11.09577 0.89017,0.50149 1.7769,1.00951 1.97053,1.12896 0.19362,0.11944 -1.03872,1.64143 -2.73854,3.3822 -3.4219,3.50435 -3.43989,5.70695 -0.0466,5.70695 2.54257,0 4.31341,3.57618 2.89977,5.85605 -2.3214,3.74389 0.14586,3.85013 8.43503,0.36322 13.35711,-5.61877 54.82795,-7.24702 76.06909,-2.98667 20.69078,4.14997 25.05933,4.04828 21.89308,-0.50965 -1.64486,-2.36784 -0.65387,-6.68669 1.66805,-7.26945 2.508,-0.62947 2.44347,-2.14977 -0.20359,-4.79683 -2.7152,-2.71519 -2.40748,-11.25642 0.76207,-21.15261 9.99,-31.19152 14.08226,-41.77142 18.89536,-48.85096 1.34641,-1.98042 3.66337,-5.9026 5.14879,-8.71595 20.83577,-39.46241 42.38988,35.36929 22.56806,78.35191 -1.33415,2.89305 -3.22818,5.91428 -4.20896,6.71384 -3.80728,3.10384 -5.6722,4.10118 -8.52915,4.5613 -5.42717,0.87406 -4.71986,4.63062 1.84299,9.78815 5.88161,4.62219 6.41999,5.64181 2.97891,5.64181 -1.28075,0 -2.76916,0.53078 -3.30756,1.17952 -0.63111,0.76044 -1.78153,1.019 -3.23792,0.72772 -3.75468,-0.75093 -3.92116,1.24735 -0.35805,4.29753 5.06273,4.33393 5.12486,4.40781 9.50312,11.3 4.52837,7.12847 6.98232,10.6437 12.81729,18.36052 6.7069,8.86993 11.13734,17.62112 11.71395,23.13787 0.66936,6.40411 1.38163,6.92517 6.83918,5.00315 2.40354,-0.84647 8.93597,-3.16525 14.5165,-5.15286 8.997,-3.20443 26.45054,-7.59381 36.18288,-9.0996 4.08004,-0.63127 4.78974,0.81694 0.80925,1.65134 -1.44653,0.30322 -6.99998,1.92134 -12.341,3.59582 -5.34102,1.67449 -13.53463,4.06896 -18.20802,5.32108 -8.073,2.16293 -22.65888,8.63611 -22.65888,10.05594 0,0.36543 1.06571,1.80527 2.36825,3.19964 1.30254,1.39436 2.6005,3.59268 2.88438,4.88513 0.7822,3.56134 2.16046,4.28073 7.04558,3.67746 6.83752,-0.84436 51.46915,-0.8726 57.70153,-0.0365 7.1548,0.95984 -4.56647,2.09819 -38.03454,3.69385 -24.55507,1.17071 -21.69781,0.32682 -20.88715,6.169 0.65748,4.73823 0.65748,4.73823 3.89372,4.97011 10.49195,0.75176 34.71576,4.50438 42.48467,6.58149 3.33814,0.8925 8.2543,2.21191 10.92481,2.93205 8.72793,2.3536 7.7894,3.51677 -1.61849,2.00589 -2.67051,-0.42888 -7.95084,-1.15251 -11.73406,-1.60808 -3.78322,-0.45556 -10.88435,-1.55504 -15.78029,-2.4433 -25.62631,-4.64928 -28.75042,-3.16763 -17.89095,8.48498 2.48873,2.67052 8.44678,9.04332 13.2401,14.1618 11.96194,12.77341 18.42169,22.07995 22.43623,32.32384 1.16744,2.97896 3.51587,6.69343 5.84073,9.23822 4.21282,4.61133 10.9849,15.25388 14.23347,22.36834 5.57294,12.20492 11.89641,27.63088 13.10329,31.9652 0.74361,2.67051 2.21611,7.58668 3.27222,10.92482 1.05612,3.33813 2.67959,10.43926 3.60771,15.78028 0.92813,5.34103 2.40806,12.80632 3.28875,16.58954 0.95661,4.1094 1.59796,9.73267 1.59311,13.96805 -0.005,4.29164 0.65879,10.04022 1.68179,14.56642 2.67352,11.8289 -0.1187,32.83153 -6.15817,46.32074 -5.87249,13.11626 -13.43162,31.97729 -14.88056,37.12895 -2.77385,9.86235 -5.97233,15.79738 -12.18838,22.61645 -5.1301,5.62777 -5.57837,6.39137 -4.86046,8.27962 0.96839,2.54706 0.97562,2.78397 0.085,2.78397 -0.3882,0 -0.93875,-1.45664 -1.22343,-3.23698 -0.33492,-2.09452 -0.94267,-3.23698 -1.72192,-3.23698 -1.25632,0 -1.46055,0.6643 -1.24866,4.0617 0.11909,1.9095 -0.10151,2.03089 -3.48385,1.91703 -3.48708,-0.11738 -3.62842,-0.0286 -4.11896,2.58619 -0.90404,4.81889 -2.3881,4.35311 -1.74631,-0.54808 z m -3.14066,-309.91666 c -1.33021,-0.39674 -4.60765,-0.89702 -7.28321,-1.11172 -4.86465,-0.39037 -4.86465,-0.39037 0.80007,0.68156 6.63216,1.255 9.99725,1.47827 6.48314,0.43016 z m -17.62712,-2.86544 c -0.26891,-0.2689 -0.96689,-0.29764 -1.55106,-0.0639 -0.64556,0.25833 -0.45381,0.45009 0.48892,0.48892 0.85308,0.0351 1.33104,-0.15613 1.06214,-0.42502 z m -12.92164,-1.68558 c -0.77371,-0.20255 -2.23035,-0.2099 -3.23698,-0.0163 -1.00663,0.19357 -0.3736,0.35929 1.40674,0.36827 1.78034,0.009 2.60395,-0.14939 1.83024,-0.35194 z m -285.47081,-5.91795 c -3.01264,-0.96481 -5.88685,-0.96481 -3.64161,0 0.89017,0.38252 2.52889,0.68478 3.64161,0.6717 2.02311,-0.0238 2.02311,-0.0238 0,-0.6717 z m 292.54227,-8.9017 c 0.31384,-0.50779 -1.45929,-0.80925 -4.75995,-0.80925 -2.89306,0 -5.48516,0.36416 -5.76024,0.80925 -0.31383,0.50779 1.4593,0.80924 4.75996,0.80924 2.89305,0 5.48516,-0.36416 5.76023,-0.80924 z m 20.23114,-0.76282 c 3.23699,-0.66955 3.23699,-0.66955 -0.80924,-0.75022 -2.22543,-0.0444 -4.59247,0.27234 -5.2601,0.70379 -1.54488,0.99838 1.35964,1.0206 6.06934,0.0464 z m -296.80767,-7.81856 c -0.26891,-0.2689 -0.96689,-0.29765 -1.55106,-0.0639 -0.64556,0.25833 -0.4538,0.45009 0.48893,0.48892 0.85307,0.0351 1.33103,-0.15613 1.06213,-0.42504 z m -17.17961,-4.36655 c -0.89017,-0.38252 -2.71097,-0.69549 -4.04623,-0.69549 -2.06974,0 -2.18907,0.10256 -0.80924,0.69549 0.89017,0.38252 2.71097,0.69549 4.04622,0.69549 2.06975,0 2.18908,-0.10256 0.80925,-0.69549 z m 264.21868,-1.76892 c 2.00288,-0.90764 3.24322,-1.80275 2.75632,-1.98914 -0.48692,-0.18637 -3.21812,0.79807 -6.06935,2.18768 -5.60148,2.72999 -2.77566,2.56064 3.31303,-0.19854 z m -350.242,342.86592 c 0,-0.89017 0.29156,-2.52889 0.64791,-3.6416 0.51304,-1.60197 0.64791,-1.6862 0.64791,-0.40462 0,0.89017 -0.29156,2.52889 -0.64791,3.6416 -0.51304,1.60197 -0.64791,1.6862 -0.64791,0.40462 z m 60.27306,-129.60343 c -0.53204,-0.53205 0.75851,-2.93211 5.59015,-10.39605 1.44058,-2.22542 3.52798,-5.76696 4.63865,-7.87009 6.5841,-12.46734 11.96879,-15.25086 22.43128,-11.59548 20.19968,7.05734 21.32614,22.11928 1.21707,16.27341 -5.27593,-1.53374 -7.73915,-1.0539 -12.2494,2.38623 -1.45645,1.11089 -3.26327,2.0198 -4.01514,2.0198 -0.75187,0 -3.70278,2.18496 -6.55756,4.85547 -5.01041,4.68699 -9.09583,6.28593 -11.05505,4.32671 z m 5.76162,-2.2401 c 1.20188,-0.63271 3.99235,-2.99975 6.20104,-5.26009 2.20869,-2.26036 4.67459,-4.10973 5.47976,-4.10973 0.80518,0 2.86174,-0.92501 4.57015,-2.05558 4.16422,-2.75574 7.78621,-3.22239 12.99812,-1.67462 6.7104,1.99278 13.50221,0.22959 11.64156,-3.02221 -2.59729,-4.53922 -16.6172,-11.86023 -22.7126,-11.86023 -1.41024,0 -11.54194,9.96311 -11.54194,11.34989 0,0.45332 -2.18497,4.42069 -4.85548,8.81636 -5.94042,9.77794 -5.99946,10.03715 -1.78061,7.81621 z m 296.057,-8.91087 c -1.71675,-1.05505 -4.44795,-3.18306 -6.06934,-4.72891 -10.26625,-9.78793 -14.45664,-10.79306 -31.6762,-7.59799 -12.37671,2.29649 -10.97783,-1.69834 3.04498,-8.69564 17.48897,-8.72688 26.67771,-6.92679 36.11792,7.07557 8.12559,12.05242 7.38341,19.3556 -1.41736,13.94697 z m 5.14448,-2.34443 c 0,-0.98448 -1.62861,-4.51355 -3.61914,-7.84238 -9.27413,-15.50945 -18.08262,-17.79844 -35.36498,-9.18998 -9.29125,4.62802 -9.8463,5.62284 -2.61444,4.6858 16.56599,-2.14647 21.05531,-0.96349 31.07837,8.18942 6.84026,6.24643 10.52019,7.70059 10.52019,4.15714 z m -226.4593,-7.64744 c -7.79661,-2.59886 19.93767,-24.06805 31.02649,-24.01769 13.2382,0.0601 32.69315,13.61966 24.21118,16.8745 -2.76454,1.06086 -20.07001,0.48805 -24.72626,-0.81842 -4.66748,-1.30964 -4.66748,-1.30964 -14.61951,3.17179 -9.35606,4.21308 -13.69703,5.52145 -15.8919,4.78982 z m 15.09073,-6.37508 c 10.19758,-4.57856 10.19758,-4.57856 14.68516,-3.65536 13.22335,2.72034 26.46223,1.92196 24.09813,-1.45326 -5.20294,-7.42824 -22.74877,-13.80393 -28.97831,-10.52996 -7.48796,3.93535 -23.40668,17.37744 -23.40668,19.76507 0,1.32843 4.47819,-0.0302 13.6017,-4.12649 z m 66.24386,-2.4349 c -3.06763,-3.06762 10.58982,-15.78995 20.33249,-18.94034 1.65042,-0.53368 4.41801,-1.68311 6.1502,-2.5543 3.18716,-1.60295 3.68309,-1.59457 11.41698,0.19298 9.88303,2.28426 27.65483,13.33037 25.93194,16.11806 -0.7474,1.20932 -4.7722,1.063 -10.9609,-0.39849 -11.63027,-2.74655 -24.05197,-1.44886 -39.90357,4.1687 -5.24477,1.85867 -11.80663,2.5739 -12.96714,1.41339 z m 11.94297,-3.04075 c 18.69474,-6.40543 22.9613,-6.78491 44.77166,-3.98198 9.77841,1.25666 -5.50346,-8.39269 -19.58672,-12.36754 -5.6421,-1.59241 -6.69081,-1.6799 -8.49708,-0.70884 -1.13333,0.60929 -3.80369,1.66098 -5.93413,2.33709 -8.01999,2.54523 -20.80846,12.06957 -20.80846,15.49732 0,1.74976 3.46304,1.48248 10.05473,-0.77605 z M 247.55507,545.61185 c -1.63601,-2.64714 19.26749,-25.10334 23.3676,-25.10334 0.46133,0 -1.51461,2.28512 -4.39098,5.07805 -8.84901,8.5923 -16.15459,16.4895 -16.15459,17.46279 0,2.2297 4.7562,-0.11743 12.32007,-6.07983 5.25291,-4.14072 16.94375,-11.34725 21.11699,-13.01706 3.12341,-1.24974 4.88479,-1.22577 22.19857,0.30203 9.00607,0.79471 6.84707,-1.8396 -6.70944,-8.18653 -9.05304,-4.23849 -13.93987,-4.63039 -18.40634,-1.4761 -6.87773,4.85715 -7.57399,4.52323 -1.18469,-0.56816 6.05272,-4.8232 10.59388,-4.51245 22.71091,1.5541 18.17423,9.09915 17.05318,11.65667 -4.30057,9.8111 -9.39453,-0.81195 -11.3299,-0.77331 -13.81672,0.27588 -4.31333,1.81981 -15.85299,9.10373 -21.50124,13.57176 -7.18204,5.68132 -13.93392,8.50404 -15.24956,6.37531 z m 250.8558,-22.83797 c -12.29412,-5.64263 -17.92537,-6.0652 -29.46142,-2.21081 -8.24313,2.75417 -12.19239,2.6768 -12.2269,-0.23953 -0.0176,-1.4827 16.88069,-17.3744 20.09855,-18.90137 4.53838,-2.1536 8.64798,-0.1425 22.44049,10.98164 16.88245,13.61628 16.49564,18.33154 -0.85072,10.37007 z m 10.11557,1.00123 c 0,-2.08511 -22.28346,-19.72948 -26.13884,-20.69712 -3.39778,-0.85279 -7.73766,1.60934 -15.5035,8.79553 -10.38781,9.61246 -10.082,10.43243 2.43522,6.52977 10.55095,-3.28962 18.38293,-2.66862 29.09155,2.30669 8.32971,3.87003 10.11557,4.41117 10.11557,3.06513 z m -154.97053,-4.3667 c -2.87781,-2.1572 2.36064,-9.25254 13.00972,-17.62133 2.85907,-2.24686 5.19831,-4.40676 5.19831,-4.79978 0,-2.89457 8.55302,-3.24703 17.87585,-0.73665 6.11884,1.64763 22.57736,13.51144 24.37173,17.56789 2.96432,6.70134 -1.3052,7.09566 -15.13785,1.39811 -12.10621,-4.98644 -20.32585,-4.31238 -34.29105,2.81214 -4.53647,2.31433 -9.02978,2.87651 -11.0267,1.37962 z m 10.11557,-3.0375 c 16.10013,-7.40237 22.86972,-7.92567 36.17269,-2.79618 8.42113,3.24709 13.19129,4.30931 13.19129,2.93742 0,-1.83857 -2.47307,-5.68157 -4.25692,-6.61497 -0.99683,-0.5216 -5.27195,-3.22062 -9.50026,-5.99783 -16.89214,-11.09497 -25.21341,-9.57185 -40.32297,7.3807 -6.172,6.92482 -4.11114,9.14941 4.71617,5.09086 z m 62.31191,-63.86443 c 0,-1.1256 2.12528,-1.87554 3.28463,-1.15902 0.68184,0.4214 0.63763,0.76552 -0.16356,1.27318 -1.50604,0.95428 -3.12107,0.8952 -3.12107,-0.11416 z m -78.69913,-3.74753 c 0.55635,-0.22449 1.46675,-0.22449 2.02311,0 0.55636,0.22449 0.10116,0.40817 -1.01156,0.40817 -1.11271,0 -1.56791,-0.18368 -1.01155,-0.40817 z m -6.27166,-1.03478 c 0,-1.40199 1.42436,-1.66138 2.43514,-0.44348 0.8322,1.00275 0.71178,1.20496 -0.71756,1.20496 -0.94467,0 -1.71758,-0.34267 -1.71758,-0.76148 z m 112.08052,-3.67496 c 4.00576,-2.05071 7.40459,-4.0764 7.55295,-4.50154 0.14837,-0.42513 1.23434,-0.77297 2.41329,-0.77297 2.88339,0 -1.91002,3.36292 -8.6508,6.06915 -8.21926,3.2998 -8.72111,2.99664 -1.31544,-0.79464 z m -120.17297,2.28532 c -0.66763,-0.22266 -1.7212,-0.56665 -2.34126,-0.7644 -0.62006,-0.19776 -0.95242,-0.53451 -0.73859,-0.74835 0.21384,-0.21384 1.81364,0.13324 3.55513,0.77127 2.85967,1.04772 2.43402,1.7118 -0.47528,0.74148 z m -6.92623,-3.06872 c -1.51551,-1.13228 -1.50626,-1.15735 0.26256,-0.71157 1.00838,0.25413 2.03131,0.78226 2.27319,1.17362 0.68447,1.10749 -0.79603,0.83772 -2.53575,-0.46205 z m -15.32803,-6.75941 c -3.56068,-2.13602 -8.1316,-4.68203 -10.15762,-5.65778 -3.49748,-1.68442 -12.93811,-9.06807 -11.5943,-9.06807 0.34896,0 1.75672,1.08771 3.12834,2.41713 1.37162,1.32943 5.96777,4.17518 10.21366,6.32391 4.24589,2.14872 9.14965,4.95564 10.89722,6.2376 6.72625,4.93414 6.04341,4.86474 -2.4873,-0.25279 z m 158.20751,-0.54761 c 0,-0.64436 6.59961,-3.80215 7.03543,-3.36633 0.22254,0.22254 -1.0728,1.15834 -2.87854,2.07956 -3.36991,1.7192 -4.15689,1.96281 -4.15689,1.28677 z m 12.94793,-8.1089 c 1.04535,-1.11271 2.5894,-2.02311 3.43125,-2.02311 0.84185,0 2.27895,-0.4005 3.19358,-0.88999 3.18076,-1.70229 0.67712,0.72521 -2.92538,2.83641 -4.54761,2.66509 -6.16256,2.69856 -3.69945,0.0767 z m 16.38723,-8.96542 c 3.73918,-4.4416 -1.81262,-8.23242 -7.55545,-5.15896 -0.87011,0.46567 -1.97753,0.60223 -2.46093,0.30347 -1.66707,-1.0303 1.22114,-1.93436 6.2201,-1.94699 7.91276,-0.02 9.46253,2.47193 4.27585,6.87525 -1.89575,1.60944 -1.89575,1.60944 -0.47957,-0.0728 z m -213.56389,-1.58968 c -0.26357,-0.68682 -0.29839,-1.42959 -0.0774,-1.65058 0.221,-0.22101 0.59606,0.34094 0.83346,1.24877 0.50428,1.92837 -0.056,2.22614 -0.75608,0.40181 z m 193.87225,-4.72935 c -0.18546,-0.17238 -5.48444,-0.48644 -11.77551,-0.69792 -9.11794,-0.30651 -11.82665,-0.6676 -13.35256,-1.77998 -1.91423,-1.39547 -1.91423,-1.39547 0.51351,-0.91243 5.17569,1.02979 14.81881,2.03892 20.23114,2.11714 5.6143,0.0811 11.49659,1.40224 6.81115,1.52971 -1.1498,0.0313 -2.24229,-0.0841 -2.42773,-0.25652 z m -165.38873,-1.24917 c -0.85216,-1.37883 0.89539,-1.65261 15.85778,-2.48432 8.17245,-0.4543 16.08891,-1.05229 17.59214,-1.32888 2.12338,-0.39071 2.64244,-0.25336 2.32658,0.61563 -0.22361,0.6152 -0.85006,1.01623 -1.39211,0.89118 -2.0519,-0.47336 -29.62678,1.57466 -30.96867,2.30008 -1.77861,0.96151 -2.82418,0.96344 -3.41572,0.006 z m -9.49262,-0.60872 c 0.58417,-0.23377 1.28216,-0.20502 1.55106,0.0639 0.2689,0.2689 -0.20906,0.46017 -1.06214,0.42503 -0.94273,-0.0388 -1.13448,-0.23058 -0.48892,-0.48891 z m 137.31886,-2.68418 c -2.24524,-0.96481 0.62897,-0.96481 3.64161,0 2.02311,0.64792 2.02311,0.64792 0,0.6717 -1.11272,0.0131 -2.75144,-0.28918 -3.64161,-0.6717 z m -87.46704,-0.60586 c 0.83471,-0.8347 10.68584,-2.50731 14.63494,-2.48485 2.50657,0.0142 1.68487,0.35669 -3.64161,1.51756 -7.20893,1.57112 -12.02053,1.99449 -10.99333,0.96729 z m 24.34589,-3.44037 c 3.63468,-0.92487 7.00776,-0.92487 4.85547,0 -0.89017,0.38253 -2.89305,0.67801 -4.45085,0.65663 -2.83236,-0.0389 -2.83236,-0.0389 -0.40462,-0.65663 z m 45.52006,0.2733 c 0.55636,-0.22449 1.46676,-0.22449 2.02311,0 0.55636,0.2245 0.10116,0.40818 -1.01155,0.40818 -1.11271,0 -1.56792,-0.18368 -1.01156,-0.40818 z m -14.76873,-1.08254 c -0.58256,-0.94261 2.99291,-0.95756 8.9017,-0.0372 3.93499,0.6129 3.87512,0.63321 -2.17766,0.73836 -3.42314,0.0595 -6.44896,-0.25605 -6.72404,-0.70113 z m -96.29839,-12.94496 c -0.30156,-0.48794 0.70174,-0.81222 2.51302,-0.81222 3.36134,0 3.40994,0.32531 0.16479,1.103 -1.19671,0.28679 -2.40173,0.15594 -2.67781,-0.29078 z m 167.10738,0.4586 c 0,-0.22254 0.72832,-0.79441 1.61849,-1.27082 0.89017,-0.4764 1.61849,-0.68411 1.61849,-0.46156 0,0.22254 -0.72832,0.79441 -1.61849,1.27081 -0.89017,0.4764 -1.61849,0.68411 -1.61849,0.46157 z m -176.41554,-2.1656 c -3.53368,-2.1184 -7.28904,-5.60339 -7.26521,-6.74214 0.01,-0.47308 0.64718,-0.0995 1.41618,0.83024 1.94338,2.34952 6.01864,5.03962 9.65812,6.37534 2.5843,0.94848 2.7497,1.13508 1.04638,1.18054 -1.11271,0.0297 -3.29767,-0.71008 -4.85547,-1.64398 z m 18.61265,-0.43976 c 2.00288,-0.6915 4.73409,-2.06552 6.06934,-3.05337 3.71003,-2.74478 5.15036,-3.27062 2.42774,-0.88632 -3.27079,2.86433 -8.022,5.2828 -10.28564,5.2356 -1.22255,-0.0255 -0.61399,-0.46642 1.78856,-1.29591 z m 135.20275,-1.60695 c -0.92248,-1.17273 -1.66616,-2.53834 -1.65262,-3.03467 0.0135,-0.49633 0.42867,-0.1741 0.92252,0.71607 0.49386,0.89017 1.44963,2.25577 2.12393,3.03467 0.67431,0.7789 1.01392,1.41618 0.75471,1.41618 -0.25923,0 -1.22607,-0.95952 -2.14854,-2.13225 z m -61.5614,-5.23771 c -2.00289,-0.91833 -5.89197,-2.14756 -8.64243,-2.73162 -10.3151,-2.19042 -8.41889,-7.39872 3.14347,-8.63416 15.51662,-1.65794 30.33258,2.66884 24.71854,7.21869 -0.71427,0.57887 -15.22243,6.02343 -15.5474,5.83456 -0.0168,-0.01 -1.6693,-0.76914 -3.67218,-1.68747 z m 93.90145,1.70524 c -0.0122,-0.22254 0.88669,-2.19611 1.99754,-4.38569 1.70187,-3.35455 2.01972,-3.6482 2.01972,-1.86593 0,1.67339 -3.93272,7.79345 -4.01726,6.25162 z M 335.80313,376.3649 c 0.8252,-1.59574 1.32297,-4.64971 1.35199,-8.29477 0.0464,-5.83783 1.19836,-4.8779 1.33131,1.10946 0.059,2.65589 -2.50151,9.71094 -3.52439,9.71094 -0.25573,0 0.12277,-1.13653 0.84109,-2.52563 z m -22.93869,0.4534 c -4.61294,-3.23104 -5.34384,-8.73204 -1.71009,-12.87065 4.72643,-5.3831 13.33961,-3.00308 15.66675,4.32908 1.71724,5.41052 -9.03337,11.98996 -13.95666,8.54157 z M 293.011,376.15338 c -0.30421,-0.79279 -0.51654,-2.59519 -0.47183,-4.00531 0.0791,-2.49732 0.10064,-2.48125 0.82735,0.61881 0.80149,3.41912 0.55565,5.76093 -0.35551,3.3865 z m 171.06903,-0.97639 c -5.31581,-4.47295 -1.12137,-15.65831 5.88587,-15.69596 6.13645,-0.0329 9.72561,8.10612 5.68971,12.90251 -4.25005,5.0509 -7.85801,5.92158 -11.57558,2.79345 z m -94.37072,-2.81141 c -1.89666,-3.06886 13.89637,-10.22556 17.56363,-7.95906 1.63495,1.01045 0.1157,1.94077 -6.27544,3.84275 -3.15562,0.9391 -6.67258,2.443 -7.81548,3.342 -2.38533,1.8763 -2.74243,1.95592 -3.47271,0.77431 z m 81.51846,-1.16288 c 0.0165,-1.33526 0.19787,-1.78353 0.40303,-0.99616 0.20518,0.78737 0.19169,1.87986 -0.03,2.42774 -0.22168,0.54788 -0.38955,-0.0963 -0.37306,-1.43158 z m -34.18552,-0.85122 c -3.15638,-3.35983 -8.36642,-5.21812 -14.62984,-5.21812 -4.21451,0 -5.56185,-0.27308 -5.56185,-1.12729 0,-4.82884 17.46779,-1.81754 22.31659,3.84719 3.83862,4.48457 1.89165,6.77362 -2.12489,2.49822 z m 34.90493,-4.8135 c -0.13569,-7.97495 10.70833,-18.28035 19.05952,-18.11284 4.7453,0.0952 4.7453,0.0952 0.98922,0.72959 -8.20747,1.38627 -17.05543,8.84331 -18.98089,15.99703 -0.85579,3.17958 -1.03341,3.41015 -1.06785,1.38622 z m -115.79005,-4.28782 c 0,-0.50378 -1.13424,-2.20778 -2.52053,-3.78669 -1.3863,-1.5789 -1.93991,-2.64792 -1.23025,-2.3756 1.54561,0.5931 4.9544,5.87463 4.24771,6.58133 -0.27331,0.2733 -0.49693,0.0847 -0.49693,-0.41904 z m -13.35255,-10.32588 c -3.23698,-1.13676 -3.23698,-1.13676 -0.0698,-0.77643 1.74194,0.19818 3.54452,0.7377 4.00577,1.19895 1.09164,1.09165 0.0605,0.98095 -3.93592,-0.42252 z m -16.14445,-0.27405 c 0.42283,-0.39928 2.4075,-0.96942 4.41039,-1.26698 3.6416,-0.54102 3.6416,-0.54102 1.32367,0.72596 -2.47911,1.35508 -7.05317,1.78665 -5.73406,0.54102 z"
       style="fill:#474538"
       sodipodi:nodetypes="csssssssssssssssssssscsccssssssscssscssssssscssssssssssssscsscsssssssssssscssssssssscsssssssssssssssssssssssssccssssssssssscscsssssssssssssscssssssssssssssssssssccsssscsssccsscsssssccscscscssssccsccsscccssccsccccscccssssscsssssscssssssssssssscsssssssssssssssssssssssssssssssssssssssscsssssssssssssssssssssssssssssssssssssssssssssssssssssscsssssssssssscsssssssssssssssssssssssssssssssssssssssssssssssssssccssssssssscssssssssssssssssssscssssssssssssssssssssscsssssssssssssssssssssssssssssssssssssssssssssssssscsssssssssssccsssssccscccccsssscssscccscccccccsssssscssssssssssssssssssssssssssssssssssssssssssssssssssssssssssssssssscsssssssssssssccsscssssssssscssssssccsssssssssssssssssssscssscccscsssssssssssssssssssscssssccccscccsssscccssssscccccccsscsscsssssscssccssccssssssssssccssssssssscsssssssscsssssccsscssssccsccscsssssssccccccsssccsssssssscscssccssss" />
  </g>
</svg>
