<?xml version="1.0" encoding="UTF-8" standalone="no"?>
<!-- Created with Inkscape (http://www.inkscape.org/) -->

<svg
   xmlns:dc="http://purl.org/dc/elements/1.1/"
   xmlns:cc="http://creativecommons.org/ns#"
   xmlns:rdf="http://www.w3.org/1999/02/22-rdf-syntax-ns#"
   xmlns:svg="http://www.w3.org/2000/svg"
   xmlns="http://www.w3.org/2000/svg"
   xmlns:sodipodi="http://sodipodi.sourceforge.net/DTD/sodipodi-0.dtd"
   xmlns:inkscape="http://www.inkscape.org/namespaces/inkscape"
   id="svg4206"
   version="1.1"
   inkscape:version="0.91 r13725"
   width="216"
   height="133.8"
   viewBox="0 0 216 133.8"
   sodipodi:docname="trumpBicolored.svg">
  <metadata
     id="metadata4212">
    <rdf:RDF>
      <cc:Work
         rdf:about="">
        <dc:format>image/svg+xml</dc:format>
        <dc:type
           rdf:resource="http://purl.org/dc/dcmitype/StillImage" />
        <dc:title></dc:title>
      </cc:Work>
    </rdf:RDF>
  </metadata>
  <defs
     id="defs4210" />
  <sodipodi:namedview
     pagecolor="#ffffff"
     bordercolor="#666666"
     borderopacity="1"
     objecttolerance="10"
     gridtolerance="10"
     guidetolerance="10"
     inkscape:pageopacity="0"
     inkscape:pageshadow="2"
     inkscape:window-width="1920"
     inkscape:window-height="1005"
     id="namedview4208"
     showgrid="false"
     inkscape:zoom="4.4973681"
     inkscape:cx="113.9541"
     inkscape:cy="56.471591"
     inkscape:window-x="0"
     inkscape:window-y="0"
     inkscape:window-maximized="1"
     inkscape:current-layer="g4216" />
  <g
     id="g4216"
     transform="translate(0.15722683,1.4150407)">
    <path
       style="fill:#996a43"
       d="m 9.1801812,133.49982 c 0.1650996,-0.1651 1.7783498,-0.95232 3.5849998,-1.74938 1.806651,-0.79707 4.471242,-2.13385 5.921313,-2.97063 3.681554,-2.12448 9.412499,-4.65383 12.963506,-5.72144 2.994747,-0.90036 12.243693,-4.25822 14.906658,-5.41191 0.773664,-0.33518 2.668872,-1.41267 4.211571,-2.39442 1.542702,-0.98176 6.444705,-3.64326 10.893342,-5.91446 4.448637,-2.2712 8.658618,-4.51782 9.355515,-4.99249 l 1.267089,-0.86303 -0.598374,-1.51808 c -0.329106,-0.83495 -0.782865,-1.87716 -1.008354,-2.316034 -0.394401,-0.767622 -1.88109,-5.440425 -2.564649,-8.060913 C 67.823001,90.476061 67.658676,90.300675 66.74739,90.129717 65.213259,89.841912 63.6,87.948309 63.6,86.435388 63.6,85.795803 63.276828,84.547443 62.881836,83.661252 62.486847,82.775064 61.995858,80.9025 61.790748,79.5 c -0.20511,-1.4025 -0.616128,-3.034584 -0.913371,-3.626853 -0.297246,-0.592269 -0.805044,-2.077269 -1.128438,-3.3 -0.738714,-2.793009 -1.275687,-4.245141 -2.797755,-7.565928 -0.807678,-1.762161 -1.265529,-3.240759 -1.37403,-4.437342 -0.117909,-1.300302 -0.309936,-1.873347 -0.697215,-2.080614 -1.147173,-0.613947 -4.46232,-0.34974 -5.228778,0.416718 -0.248361,0.248361 -1.227723,0.610158 -2.176362,0.803997 -0.948639,0.193836 -1.972257,0.571953 -2.274702,0.840261 -0.539625,0.47871 -4.844196,1.055394 -5.408475,0.724572 -0.338433,-0.198411 -2.480607,-0.419571 -3.718542,-0.383904 -0.980031,0.02823 -2.157744,-0.427347 -2.513292,-0.972237 -0.104619,-0.160329 -1.049619,-0.339399 -2.1,-0.397938 -1.050384,-0.05854 -2.226451,-0.182961 -2.613484,-0.276498 -0.710482,-0.171711 -1.65721,0.333609 -1.401176,0.747882 0.302708,0.489792 -4.615295,2.047143 -5.241859,1.659903 -0.189273,-0.116976 -1.916733,-0.194352 -3.8388,-0.171948 -2.88609,0.03364 -3.653123,0.141219 -4.404569,0.617727 -0.500445,0.317343 -1.341281,0.775194 -1.868525,1.017444 -0.527244,0.242253 -1.133468,0.720426 -1.347164,1.062609 C 10.530514,64.520034 10.067176,64.8 9.7145694,64.8 9.3619629,64.8 8.8968444,65.012817 8.6809728,65.272926 8.4023544,65.608641 8.0068032,65.69301 7.3176336,65.563722 6.7836687,65.463549 6.2729076,65.50113 6.1826088,65.647239 6.09231,65.793345 5.1713256,66.221754 4.135977,66.599262 3.1006284,66.97677 2.1177318,67.459533 1.9517624,67.672074 1.6563535,68.050371 1.1248003,68.206614 0.375,68.135544 c -0.54983567,-0.05212 -0.54983567,-43.724169 0,-43.917186 0.5985738,-0.210126 10.026943,0.08424 12.825,0.400411 1.4025,0.158479 9.2325,0.484164 17.4,0.723745 21.637764,0.63471 26.462319,0.705492 27.3,0.400527 0.715359,-0.260433 1.459605,-1.134079 2.621382,-3.077158 0.290739,-0.486265 1.289307,-1.633765 2.21904,-2.55 1.227624,-1.209806 1.743111,-1.965548 1.882884,-2.760449 0.105855,-0.602011 0.440358,-1.412011 0.743343,-1.8 0.302985,-0.387989 0.84486,-1.284434 1.204164,-1.9921 C 67.22697,12.27101 68.924259,10.53085 70.541346,9.4925103 71.174349,9.0860568 71.69274,8.988144 72.454785,9.1311042 73.593603,9.344748 73.859838,10.035921 72.9,10.286925 c -0.668925,0.174927 -0.792165,1.093459 -0.27609,2.057754 0.251424,0.46979 0.214986,0.725596 -0.162828,1.143075 -0.455763,0.503612 -0.418368,0.578183 0.58755,1.171689 l 1.074291,0.633847 -0.643899,0.870919 c -0.354144,0.479005 -1.034301,1.159556 -1.51146,1.512336 C 71.490405,18.029324 71.1,18.558664 71.1,18.852854 c 0,0.29419 -0.402531,0.920541 -0.894513,1.39189 -0.697032,0.667799 -0.819513,0.947372 -0.554781,1.266354 0.254712,0.306909 0.242022,0.591934 -0.05071,1.138902 -0.308724,0.576857 -0.313608,0.822125 -0.02334,1.171886 0.201912,0.243286 0.341715,0.686638 0.310677,0.985226 -0.09394,0.903703 -0.02118,0.960707 0.892044,0.6988 0.615966,-0.176657 1.042824,-0.128309 1.425,0.161401 0.885951,0.671599 0.99441,0.504716 0.529101,-0.81411 C 72.491541,24.167465 72.343206,23.556787 72.403851,23.496142 72.593193,23.306808 73.5,23.750189 73.5,24.032097 73.5,24.179444 73.8375,24.3 74.25,24.3 74.716668,24.3 75,24.13 75,23.85 75,23.6025 74.865,23.4 74.7,23.4 c -0.165,0 -0.3,-0.212674 -0.3,-0.47261 0,-0.328762 0.251106,-0.456053 0.825,-0.418211 0.45375,0.02992 1.28028,0.04009 1.836732,0.02261 0.85023,-0.02671 0.953859,-0.101525 0.649173,-0.468648 C 77.201994,21.44994 77.581299,21 78.607149,21 c 0.588723,0 0.985386,0.212348 1.221786,0.654066 0.321078,0.599941 0.380547,0.612354 0.718629,0.15 0.751122,-1.027222 1.97139,-0.305315 3.781962,2.237401 0.336231,0.472193 0.71553,0.858533 0.842883,0.858533 0.127356,0 0.40977,-0.54 0.627591,-1.2 0.303684,-0.920169 0.551166,-1.2 1.061283,-1.2 0.365889,0 0.83331,0.2025 1.038717,0.45 0.205407,0.2475 0.622239,0.45 0.926295,0.45 0.304056,0 1.02918,0.418243 1.61139,0.929429 0.873927,0.76732 1.09017,0.847051 1.239798,0.457128 0.15354,-0.40012 0.34089,-0.350531 1.225863,0.32447 0.833697,0.635892 1.095735,0.714066 1.297773,0.387163 0.20913,-0.33838 0.335379,-0.341365 0.726015,-0.01717 C 95.18721,25.696868 95.4,26.059437 95.4,26.286734 95.4,26.556185 95.752614,26.7 96.413268,26.7 c 0.557295,0 1.169604,0.188378 1.360686,0.418618 0.191082,0.23024 0.844197,0.511813 1.451367,0.625719 0.60717,0.113906 1.473159,0.398028 1.924419,0.631382 1.01491,0.524836 1.84092,0.549093 1.67811,0.04928 -0.0672,-0.20625 -0.48344,-0.551116 -0.925,-0.76637 -0.44157,-0.215253 -0.80285,-0.519003 -0.80285,-0.675 0,-0.489466 1.62265,-0.309366 2.84988,0.316311 0.64722,0.329967 1.51951,0.594115 1.93843,0.586995 2.70475,-0.04597 6.01263,1.45467 5.38647,2.443607 C 110.86431,30.978816 110.94704,31.2 111.6,31.2 c 0.33,0 0.6,-0.119256 0.6,-0.265011 0,-0.145755 0.27,-0.335616 0.6,-0.421914 0.3352,-0.08765 0.6,-0.409203 0.6,-0.728572 0,-0.727916 1.54661,-1.884503 2.51999,-1.884503 0.52222,0 1.11317,0.437463 1.98059,1.466174 0.96298,1.142041 1.54725,1.546456 2.64286,1.829314 0.77361,0.199728 1.57531,0.413214 1.78156,0.474411 0.83278,0.247104 0.29697,-0.511092 -0.9,-1.27353 -1.52272,-0.969936 -2.925,-2.205062 -2.925,-2.576333 0,-0.14724 0.37806,-0.184673 0.84014,-0.08318 0.90547,0.198876 2.86271,-0.461914 2.70526,-0.913334 -0.14569,-0.417702 2.48115,-0.510696 3.22225,-0.114072 0.49399,0.264377 1.05549,0.266009 2.30457,0.0067 1.4211,-0.295019 1.81369,-0.269402 2.81461,0.183652 1.47099,0.665825 2.21317,1.275525 2.21317,1.818126 0,0.233713 0.21118,0.636111 0.46929,0.894218 0.30975,0.30975 0.3683,0.570269 0.17223,0.766337 -0.19606,0.196065 0.0523,0.656808 0.73072,1.355304 C 134.57078,32.350093 135,33.096748 135,33.521671 l 0,0.729627 -1.39562,-0.780027 c -0.76759,-0.429015 -1.44101,-0.73464 -1.49648,-0.679167 -0.0555,0.05548 0.23505,0.556173 0.64562,1.112664 0.41056,0.556491 0.74648,1.120572 0.74648,1.253517 0,0.39669 -1.76964,0.273807 -2.48555,-0.172593 -1.26177,-0.786765 -2.23871,-0.841899 -2.87206,-0.162081 -0.4698,0.504276 -0.70291,0.565113 -1.18228,0.308559 -0.4507,-0.241206 -0.68211,-0.21714 -0.94377,0.09814 -0.37322,0.4497 -0.33703,0.498429 1.25866,1.694727 1.05784,0.793074 1.10912,1.774962 0.0927,1.774962 -0.40277,0 -0.81573,-0.135 -0.91771,-0.3 -0.26764,-0.433059 -1.65178,-0.36978 -1.64046,0.075 0.005,0.20625 0.20775,0.637053 0.45,0.957339 1.01588,1.343106 0.1886,2.406168 -1.17645,1.511754 -1.03039,-0.675135 -2.43438,-3.717621 -2.02334,-4.384629 0.2299,-0.373077 0.14057,-0.642465 -0.37307,-1.125 C 121.31524,35.085507 120.83711,34.8 120.62417,34.8 c -0.21293,0 -0.98725,-0.405 -1.7207,-0.9 -0.83105,-0.560868 -1.71686,-0.9 -2.35081,-0.9 -0.55948,0 -1.10205,-0.137202 -1.20568,-0.304893 -0.34348,-0.555753 -0.76451,0.01158 -0.44779,0.603378 C 115.31455,34.074597 115.28128,34.2 114.66,34.2 c -0.297,0 -0.68753,0.147531 -0.86785,0.327846 -0.46792,0.467922 -4.34139,0.542964 -3.95435,0.07661 0.19273,-0.232233 0.16951,-0.426333 -0.0686,-0.573504 -0.2185,-0.135039 -0.66632,0.145038 -1.13956,0.712716 -0.5996,0.719235 -0.89283,0.869388 -1.26991,0.650274 -0.35163,-0.204333 -0.69832,-0.121263 -1.22591,0.293739 -0.4046,0.318255 -1.07789,0.62448 -1.4962,0.680499 -1.0664,0.142809 -2.7518,1.5036 -3.32638,2.685708 -0.41891,0.861849 -0.42659,1.054062 -0.057,1.426059 0.37068,0.373119 0.50846,0.356349 1.04243,-0.126891 0.60085,-0.543762 0.64367,-0.540897 1.82298,0.121914 0.77249,0.434163 1.39195,0.595836 1.71904,0.44865 0.28125,-0.126558 1.01899,-0.248316 1.63942,-0.270573 0.6639,-0.02382 1.46627,-0.312264 1.95,-0.701016 0.45207,-0.363297 1.15944,-0.808152 1.57194,-0.988566 0.4125,-0.180414 0.99174,-0.453075 1.2872,-0.60591 0.83785,-0.433401 1.18939,-0.0099 0.96861,1.167009 -0.17626,0.939543 -0.13792,1.031247 0.34805,0.8325 0.80098,-0.32757 3.09614,-0.569499 3.09614,-0.326358 0,0.526524 -0.66629,1.369293 -1.08255,1.369293 -0.71963,0 -0.35681,1.036359 0.40069,1.144566 0.47778,0.06825 0.71248,0.363582 0.84336,1.06125 0.32054,1.70862 2.24082,2.087292 3.41434,0.673296 0.25053,-0.301866 0.66388,-0.396168 1.23546,-0.28185 0.47244,0.09448 1.27067,0.02829 1.77384,-0.147129 0.80949,-0.282189 0.91486,-0.253653 0.91486,0.247767 0,0.697248 0.54531,1.07679 0.95642,0.665679 0.20552,-0.205521 0.68343,0.06395 1.47386,0.831033 0.64335,0.624348 1.16972,1.218474 1.16972,1.320282 0,0.101808 -0.675,0.185106 -1.5,0.185106 -1.55542,0 -2.00135,0.389061 -0.825,0.719805 0.61119,0.171846 0.62601,0.218745 0.15669,0.496152 -0.37439,0.221301 -0.76593,0.17832 -1.4101,-0.154794 C 123.13715,47.600376 123,47.591991 123,48.086472 c 0,0.212559 0.61855,0.903513 1.37455,1.535451 0.756,0.631938 1.26225,1.250274 1.125,1.374081 -0.13725,0.123804 -0.92455,0.46023 -1.74955,0.747612 -0.825,0.287382 -1.7025,0.596565 -1.95,0.687075 -0.2475,0.09051 -0.57984,0.133602 -0.73854,0.09576 -0.15869,-0.03785 -0.45822,0.163257 -0.66562,0.446889 -0.30937,0.423084 -0.45909,0.447636 -0.83374,0.136707 -0.31459,-0.261084 -0.89595,-0.31311 -1.86876,-0.167229 -1.28703,0.193002 -1.37591,0.168153 -1.00349,-0.280584 0.53408,-0.643533 -0.0393,-1.267128 -1.41887,-1.543035 -0.95355,-0.19071 -0.97098,-0.174432 -0.97098,0.906939 0,1.440237 -0.986,2.430792 -2.72686,2.739474 -1.06558,0.188943 -1.1883,0.268656 -0.63043,0.409503 1.0466,0.26424 0.84043,0.739179 -0.46662,1.074888 -0.64242,0.165 -1.4961,0.532605 -1.89706,0.8169 -0.71632,0.507888 -0.71881,0.52494 -0.14289,0.977781 0.86714,0.681831 2.42229,1.065402 5.11386,1.26132 1.76677,0.128601 2.53852,0.319044 2.925,0.721803 0.7203,0.75063 0.66669,0.872196 -0.38464,0.872196 -0.50029,0 -1.39428,0.2025 -1.98663,0.45 -2.34809,0.981093 -4.53578,0.392268 -7.21228,-1.941201 -3.60683,-3.144567 -3.94576,-3.336813 -4.56575,-2.589768 -0.19127,0.230466 -0.59677,0.35391 -0.90112,0.27432 -0.71765,-0.187668 -1.918342,1.062678 -1.628761,1.696116 C 100.2056,59.685843 100.07834,61.35 99.6,61.35 c -0.344424,0 -0.461772,-0.422298 -0.500172,-1.8 -0.0276,-0.99 -0.148065,-2.70801 -0.267711,-3.8178 -0.147693,-1.369953 -0.107544,-2.150331 0.125049,-2.430588 0.248685,-0.299646 0.255219,-0.663414 0.02385,-1.327146 -0.346911,-0.995151 -1.412232,-1.502757 -1.681452,-0.80118 -0.207099,0.539691 -0.968847,0.555807 -1.172607,0.02481 -0.08483,-0.221046 -0.618087,-0.419343 -1.18503,-0.440655 -1.159263,-0.04358 -1.802166,0.725049 -1.543629,1.845501 0.204183,0.884883 -0.254184,6.039822 -0.684405,7.697058 -0.192756,0.7425 -0.626376,1.643757 -0.963603,2.002791 -0.337227,0.359037 -0.522696,0.799131 -0.412155,0.977991 0.110541,0.178857 -0.08359,0.897603 -0.431412,1.597209 -0.57858,1.163766 -0.597141,1.374126 -0.218127,2.472009 0.529761,1.534554 1.567758,2.100702 3.083946,1.682064 0.640725,-0.176913 1.358349,-0.191415 1.767852,-0.03572 0.379125,0.144144 1.396419,0.226323 2.26065,0.182619 1.251525,-0.06329 1.685634,-0.226965 2.132943,-0.80421 0.476893,-0.615432 0.606503,-0.656877 0.859223,-0.274752 0.16369,0.2475 0.29968,0.55125 0.30221,0.675 0.002,0.12375 0.18617,0.225 0.4081,0.225 0.22192,0 0.66035,0.283821 0.97429,0.630714 0.65513,0.723915 2.20308,1.588413 2.43281,1.358679 C 105.34385,70.556145 101.58546,66.3 100.76963,66.3 100.30242,66.3 99.9,65.733348 99.9,65.075463 99.9,64.92396 100.23275,64.8 100.63945,64.8 c 0.4324,0 0.87277,-0.249135 1.06055,-0.6 0.17661,-0.33 0.44366,-0.6 0.59345,-0.6 0.5419,0 3.90655,3.378588 3.90655,3.922734 0,0.306957 0.32851,0.731166 0.73002,0.942684 0.40151,0.211521 1.68164,1.299 2.84473,2.41662 1.80959,1.738848 2.2261,2.004081 2.88675,1.838268 0.59132,-0.148413 1.03939,0.02109 1.91417,0.724068 1.16713,0.937935 1.81157,0.857331 1.83387,-0.229374 0.005,-0.25575 0.20546,-0.723924 0.44492,-1.040388 0.33608,-0.444156 0.3554,-0.671739 0.0847,-0.997863 -0.27025,-0.325629 -0.25906,-0.479067 0.0488,-0.669336 0.21968,-0.135771 0.32135,-0.4503 0.22594,-0.698949 -0.0954,-0.248661 0.0874,-0.688185 0.40628,-0.976773 0.31887,-0.288576 0.57977,-0.68973 0.57977,-0.891453 0,-0.712959 0.86826,-1.155951 1.58523,-0.808797 1.06557,0.515949 2.26268,0.695538 2.46409,0.36966 0.1024,-0.165606 0.48713,-0.301101 0.855,-0.301101 0.36788,0 1.20366,-0.273015 1.8573,-0.606699 0.77367,-0.394962 1.47635,-0.54369 2.01343,-0.426162 0.67247,0.147156 0.825,0.0758 0.825,-0.385965 0,-0.311571 0.19821,-0.828549 0.44046,-1.148835 0.51641,-0.682752 0.58274,-1.74159 0.15873,-2.533854 -0.31008,-0.57939 -0.0115,-0.961626 0.8533,-1.092537 0.65565,-0.09925 0.71809,-0.315186 0.30515,-1.055253 -0.35067,-0.628455 -1.11069,-3.041283 -1.1444,-3.63312 -0.007,-0.127833 0.32426,-0.360744 0.73676,-0.517575 0.4125,-0.156831 0.75,-0.474462 0.75,-0.70584 0,-0.594681 -0.74029,-1.136613 -1.27326,-0.932094 -0.51294,0.196833 -0.89565,-0.533415 -0.63523,-1.212066 0.23306,-0.607347 0.59233,-0.56616 1.30849,0.15 0.64589,0.645891 1.2,0.784419 1.2,0.3 0,-0.165 0.11561,-0.3 0.25692,-0.3 0.14131,0 0.34747,0.974289 0.45815,2.165088 0.2318,2.494164 0.81872,3.659838 1.70162,3.379614 0.41794,-0.132645 0.58331,-0.04386 0.58331,0.313167 0,0.274068 -0.27,0.568908 -0.6,0.655206 -0.61298,0.160299 -0.86011,1.286925 -0.28229,1.286925 0.17473,0 0.21593,0.164673 0.0915,0.365943 -0.2816,0.455628 -0.43989,3.493416 -0.22025,4.226547 0.23573,0.786795 1.43476,0.54228 1.55687,-0.31749 0.0527,-0.37125 0.28897,-0.675 0.525,-0.675 0.45116,0 0.55581,0.452007 0.45575,1.968324 -0.0555,0.840366 0.94285,4.068735 1.47864,4.781676 0.124,0.165 0.32044,0.744072 0.43653,1.286826 0.17556,0.820752 0.31391,0.954189 0.8221,0.792897 1.23028,-0.390477 1.60884,1.65858 0.40754,2.205927 -0.69544,0.316863 -0.72857,0.458907 -0.72859,3.123156 -1e-5,2.125572 0.11328,2.916393 0.47507,3.316194 0.88198,0.974646 3.09758,0.49962 4.4043,-0.944286 C 142.6361,80.683821 143.1255,80.4 143.40972,80.4 c 0.28423,0 0.65071,-0.16875 0.81441,-0.375 0.83513,-1.052202 1.87632,-6.677976 1.84612,-9.975 l -0.0192,-2.1 -0.4392,1.006413 c -0.32658,0.748341 -0.58357,0.968661 -1.00217,0.859197 -0.78583,-0.205503 -2.01529,1.176372 -2.26759,2.548701 -0.23471,1.276671 -0.74992,1.828977 -1.45407,1.558767 -0.31898,-0.1224 -0.48802,-0.542439 -0.48802,-1.2126 0,-0.817644 -0.15192,-1.083087 -0.75,-1.310478 -0.4125,-0.156831 -0.75593,-0.524742 -0.76317,-0.817575 -0.0223,-0.902184 -0.78632,-2.755131 -1.64966,-4.000929 -0.76303,-1.10106 -0.80905,-1.335207 -0.63353,-3.223734 0.1041,-1.120038 0.0733,-2.440959 -0.0685,-2.93538 -0.26326,-0.917901 -1.73135,-2.585187 -2.76204,-3.1368 -0.33225,-0.177792 -0.5731,-0.62562 -0.5731,-1.065522 0,-0.979287 -1.17177,-3.709329 -1.61194,-3.755586 -0.18593,-0.01953 -0.45259,-0.01512 -0.59257,0.0098 -0.13997,0.02496 -0.16305,-0.619506 -0.0513,-1.432119 0.13037,-0.947901 0.0869,-1.549371 -0.12131,-1.678041 -0.22978,-0.142014 -0.23185,-0.373707 -0.007,-0.793686 0.17459,-0.32622 0.23126,-0.864636 0.12593,-1.196484 -0.11021,-0.347253 0.0101,-0.910989 0.28338,-1.328112 0.59988,-0.915522 0.6127,-2.128788 0.0249,-2.354355 C 130.69519,43.478613 130.64613,42 131.19387,42 c 0.48743,0 2.00613,1.549923 2.00613,2.047377 0,0.200499 0.3375,0.899181 0.75,1.552623 0.4125,0.653442 0.7561,1.35951 0.76356,1.569039 0.007,0.209529 0.33265,0.988461 0.72266,1.730961 0.66711,1.27002 0.71864,1.305567 0.86984,0.6 0.0884,-0.4125 0.22251,-1.425 0.29802,-2.25 0.40625,-4.438605 0.91794,-7.851654 1.23684,-8.25 0.19815,-0.2475 0.53973,-0.9225 0.75908,-1.5 0.46958,-1.236297 1.18239,-2.146296 1.51849,-1.93857 0.13107,0.08101 0.31631,-0.09093 0.41164,-0.382074 0.0953,-0.291147 0.72899,-1.126782 1.40814,-1.856967 1.18927,-1.278648 1.22887,-1.385142 1.07381,-2.887617 -0.17982,-1.742277 0.41283,-3.105886 1.63392,-3.759393 1.17322,-0.627883 8.14121,-1.134142 18.66132,-1.355836 11.99127,-0.252695 12.02717,-0.261094 13.49483,-3.157959 0.8306,-1.639448 0.84571,-1.750966 0.52079,-3.845132 -0.18405,-1.186194 -0.72364,-2.927355 -1.19911,-3.869247 -0.91347,-1.809569 -1.21112,-3.239654 -0.80953,-3.889436 0.1332,-0.215529 0.16204,-0.711208 0.0641,-1.1015095 -0.18644,-0.7428228 -1.32812,-1.2440208 -3.00423,-1.3188522 -0.86898,-0.038797 -1.28934,-0.2235069 -1.04915,-0.4610034 0.0688,-0.067978 1.745,-0.416019 3.725,-0.7734249 1.98,-0.3574059 4.17375,-0.9016968 4.875,-1.2095349 C 181.01221,5.2161744 181.2,5.002812 181.2,4.2448047 181.2,3.5455338 180.87996,3.0879186 179.7,2.1 178.875,1.4092709 178.2,0.65419998 178.2,0.42206451 178.2,0.06377812 181.05598,0 197.1,0 l 18.9,0 0,41.7 0,41.7 -0.825,-0.0102 c -0.7979,-0.0099 -1.89573,-0.138372 -12.225,-1.430958 -7.01103,-0.87735 -10.98827,-1.231089 -17.55,-1.560912 -13.01033,-0.653958 -19.5681,-0.215007 -31.35,2.098446 -3.66859,0.720351 -7.40299,1.272432 -8.94072,1.321767 -1.99976,0.06416 -2.76432,0.208137 -3.15,0.593199 -0.2801,0.279663 -1.11678,1.752771 -1.85928,3.27357 -1.03265,2.11509 -1.49105,2.765091 -1.95,2.765091 -0.46294,0 -0.60384,0.205596 -0.61679,0.9 -0.009,0.495 -0.17799,1.194876 -0.375,1.555278 C 136.96119,93.26568 136.8,94.230075 136.8,95.048376 l 0,1.48782 1.875,0.747582 c 1.03125,0.411171 4.17,1.382955 6.975,2.159517 6.63707,1.837475 14.24785,4.327745 19.5,6.380465 7.59244,2.96739 14.94859,5.25092 28.65,8.8937 4.0425,1.07478 7.9575,2.17261 8.7,2.43963 0.7425,0.26702 3.33535,1.01016 5.7619,1.65142 4.21343,1.11348 6.48653,1.99706 7.34429,2.85483 0.29825,0.29824 0.39381,1.81854 0.39381,6.26523 l 0,5.87143 -41.25,0 c -22.6875,0 -41.24715,-0.10125 -41.24366,-0.225 0.003,-0.12375 0.48474,-2.3175 1.06947,-4.875 2.86116,-12.51431 2.63963,-11.06805 2.61929,-17.1 -0.0279,-8.26881 -0.97233,-10.85153 -2.35863,-6.45 -1.7918,5.68896 -4.55818,10.02617 -8.99334,14.1 -1.79635,1.65 -4.59632,4.37343 -6.22217,6.05206 -3.98295,4.11228 -5.58992,5.29691 -8.25142,6.08277 -1.19926,0.35411 -2.33811,0.5464 -2.53079,0.42732 -0.19268,-0.11909 -1.68865,-0.32019 -3.32438,-0.44689 -3.37353,-0.26132 -3.66609,-0.38461 -9.094496,-3.83263 -6.216129,-3.94837 -11.867484,-8.52425 -15.689658,-12.70387 -0.714831,-0.78168 -1.436886,-1.33644 -1.604568,-1.23281 -0.373221,0.23067 -0.09828,3.92775 0.543828,7.31265 0.557877,2.94088 1.903683,7.368 3.119424,10.26155 0.501105,1.19267 0.9111,2.27229 0.9111,2.39917 0,0.12687 -16.8345,0.23068 -37.41,0.23068 -24.955048,0 -37.3100604,-0.0999 -37.1098188,-0.30018 z M 108.24583,104.4 c -0.0112,-0.81319 -0.15021,-1.2 -0.43119,-1.2 -0.38355,0 -0.51498,-0.2959 -0.4664,-1.05 0.0106,-0.165 -0.63662,-0.60823 -1.43832,-0.98494 -1.41523,-0.66502 -3.0277,-0.76031 -3.88631,-0.22965 -0.20324,0.12561 -0.79795,0.27645 -1.32157,0.33521 -2.334764,0.26199 -3.156323,0.49945 -3.013721,0.87106 0.190206,0.49567 -0.679413,1.35832 -1.36929,1.35832 -0.295962,0 -0.881364,-0.27 -1.30089,-0.6 -0.971307,-0.76403 -1.013526,-0.75765 -1.251153,0.18913 -0.146832,0.58503 -0.0273,0.97089 0.462177,1.49191 0.586719,0.62454 0.922488,0.70108 3.015537,0.6874 1.828764,-0.0119 2.3553,-0.11074 2.3553,-0.44191 0,-0.23459 -0.2025,-0.42653 -0.45,-0.42653 -0.604698,0 -0.575454,-0.87069 0.03714,-1.10576 0.298491,-0.11454 0.600798,0.0162 0.780639,0.33752 0.611631,1.09292 3.998831,1.59694 6.307221,0.93851 0.64223,-0.18318 0.825,-0.13395 0.825,0.22221 0,0.40962 0.37508,0.71709 0.9562,0.78384 0.11341,0.013 0.19874,-0.51632 0.18963,-1.17632 z m 2.6591,-0.35625 c -0.0958,-0.23932 -0.16685,-0.16823 -0.18124,0.18125 -0.013,0.31625 0.0579,0.49344 0.15756,0.39375 0.0997,-0.0997 0.11034,-0.35844 0.0237,-0.575 z M 109.95,102.9 c -0.10198,-0.165 -0.37198,-0.3 -0.6,-0.3 -0.22802,0 -0.49802,0.135 -0.6,0.3 -0.10557,0.17082 0.15279,0.3 0.6,0.3 0.44721,0 0.70557,-0.12918 0.6,-0.3 z M 98.7,94.65 c -0.166515,-0.33303 -5.09976,-0.422265 -5.099907,-0.09225 -1.11e-4,0.24618 2.002182,0.462579 3.899907,0.421485 0.79143,-0.01713 1.287936,-0.15336 1.2,-0.329235 z m 5.69542,-1.43835 c 1.88265,-0.896229 1.91941,-0.934449 0.99868,-1.038642 -0.52574,-0.0595 -1.36279,0.10224 -1.8601,0.359409 C 103.03669,92.789589 102.42831,93 102.18205,93 101.70613,93 99.6,94.153128 99.6,94.413696 c 0,0.395295 3.04149,-0.367101 4.79542,-1.202046 z m -0.0573,-9.43665 c -0.0626,-0.372936 0.0781,-0.496203 0.48594,-0.425577 0.31575,0.05468 0.89222,-0.07084 1.28106,-0.278937 0.54314,-0.290682 0.78899,-0.296343 1.06091,-0.02442 0.60278,0.602778 0.80294,0.395364 0.63243,-0.655347 -0.14394,-0.887025 -0.0736,-1.031916 0.58059,-1.196109 0.53414,-0.134061 0.79822,-0.456087 0.93505,-1.140261 0.15702,-0.7851 -0.006,-1.23903 -0.92334,-2.570952 -0.98351,-1.428021 -1.20345,-1.593687 -1.8774,-1.414143 -0.41987,0.111855 -1.50426,0.288282 -2.40977,0.392061 -1.32814,0.152217 -1.66781,0.304665 -1.75728,0.788688 -0.061,0.33 -0.25663,0.779253 -0.43473,0.99834 -0.26332,0.323925 -0.41141,0.290175 -0.79271,-0.180675 -0.36695,-0.45312 -0.7396,-0.549807 -1.7139,-0.44469 -1.186734,0.128037 -1.245,0.181569 -1.245,1.14384 0,0.555231 0.189,1.16637 0.42,1.358082 0.564321,0.468345 0.530073,0.790533 -0.18,1.693242 -1.037004,1.318335 -0.818607,1.515195 1.68095,1.515195 1.69743,0 2.4046,0.123648 2.76429,0.483333 0.65967,0.65967 1.60623,0.633252 1.49291,-0.04167 z m -5.475337,-4.55427 c -0.09493,-0.1536 -0.04955,-0.355323 0.100857,-0.448278 0.150402,-0.09295 0.350868,0.03272 0.445479,0.27927 0.18651,0.486039 -0.264228,0.62547 -0.546336,0.169008 z m -2.380716,4.004733 C 96.381942,82.964469 96.3,82.641603 96.3,82.507986 c 0,-0.133617 -0.32802,-0.325269 -0.728934,-0.425892 -0.66384,-0.166614 -0.704124,-0.269982 -0.451095,-1.157523 0.152811,-0.536013 0.480831,-1.124454 0.728934,-1.307643 C 96.468093,79.15974 96.414093,78.682173 95.7,78.3 c -0.707157,-0.378459 -1.8,0.07255 -1.8,0.742851 0,0.617274 -0.562155,0.862023 -1.05,0.457149 -0.233043,-0.19341 -0.556767,-0.269424 -0.719382,-0.168921 -0.32868,0.203133 -0.287808,2.11173 0.05251,2.452047 0.11928,0.11928 0.216873,0.437373 0.216873,0.706875 0,0.876966 0.685908,1.209999 2.492097,1.209999 1.492668,0 1.743384,-0.07483 1.59,-0.474537 z M 110.7,81.6 c 0,-0.165 -0.23625,-0.297933 -0.525,-0.295407 -0.44866,0.0039 -0.45957,0.04688 -0.075,0.295407 0.56616,0.365883 0.6,0.365883 0.6,0 z M 65.779329,81.420669 C 66.019665,81.180336 65.705115,80.4 65.367903,80.4 65.220558,80.4 65.1,80.67 65.1,81 c 0,0.584757 0.318201,0.7818 0.679329,0.420669 z m 49.365601,-5.318805 c 0.0979,-0.826893 -0.19333,-0.958164 -1.22236,-0.551001 -0.48826,0.193194 -0.49175,0.259632 -0.047,0.894585 0.59927,0.855573 1.14489,0.707886 1.26937,-0.343584 z M 82.756908,68.836323 c 0.43077,0.136722 0.758388,-0.05562 1.235115,-0.725121 C 84.348882,67.61004 84.834165,67.2 85.070427,67.2 c 0.483741,0 0.503565,-0.05811 0.247476,-0.725463 -0.100152,-0.260997 -0.538902,-0.483675 -0.975,-0.494841 L 83.55,65.959386 84.3,65.612991 c 0.4125,-0.190518 0.849183,-0.48513 0.970407,-0.654696 0.308808,-0.431958 0.285084,-2.558301 -0.02853,-2.558301 -0.141975,0 -0.770115,0.347436 -1.395864,0.772083 -1.253877,0.850905 -4.886535,1.626816 -7.619643,1.627506 -2.048598,6e-4 -4.128408,-1.103526 -4.39962,-2.335488 -0.09857,-0.447756 -0.209601,-0.940665 -0.246729,-1.095351 -0.03713,-0.154689 -0.339057,-0.0097 -0.67095,0.322191 -0.456177,0.456177 -0.583719,0.927474 -0.522627,1.93125 0.04444,0.730296 0.09245,1.530309 0.106671,1.777809 0.01422,0.2475 0.357456,0.826875 0.762741,1.287501 0.644319,0.7323 0.820611,0.792693 1.40343,0.480777 0.366603,-0.1962 1.751988,-0.380277 3.078636,-0.409059 1.326651,-0.0288 2.604114,-0.110133 2.83881,-0.180777 0.284166,-0.08553 0.540102,0.259401 0.766122,1.032531 0.464856,1.59009 1.198656,2.106714 2.127699,1.497981 0.386643,-0.253338 0.962571,-0.375399 1.286367,-0.272631 z m 6.160917,-7.584261 C 89.153916,60.870057 88.76625,59.68545 88.465893,59.871078 88.110012,60.091026 88.124199,61.5 88.482303,61.5 c 0.155262,0 0.351252,-0.111573 0.435531,-0.247938 z m -6.314499,-1.251156 c 0.634332,-0.189615 1.646832,-0.803733 2.25,-1.364712 1.006263,-0.935874 1.041027,-1.02063 0.421674,-1.028076 -0.37125,-0.0045 -0.921564,-0.254682 -1.222917,-0.556035 -0.301356,-0.301356 -0.773856,-0.634617 -1.05,-0.740586 -0.276147,-0.105966 -0.514257,-0.433152 -0.52914,-0.727083 C 82.458063,55.290486 82.327629,55.455 82.183095,55.95 c -0.216099,0.740085 -0.437463,0.912195 -1.245825,0.96864 -0.540666,0.03775 -1.037679,0.232584 -1.104468,0.432957 -0.464475,1.393419 -3.211605,2.455485 -4.528443,1.750737 -0.822474,-0.440175 -0.665472,-1.26087 0.297216,-1.553619 0.451443,-0.13728 0.212733,-0.160587 -0.601575,-0.05873 -1.654992,0.207009 -2.139051,0.635166 -2.201676,1.947408 L 72.75,60.45 l 3.199203,0 c 1.759563,0 3.285072,0.08551 3.390018,0.19002 0.189981,0.189186 1.068678,0.01713 3.264105,-0.639114 z m 54.282374,-2.10558 c -0.15919,-0.608751 -0.62021,-1.060815 -0.84876,-0.832266 -0.12265,0.122652 0.70234,1.43694 0.90198,1.43694 0.0577,0 0.0337,-0.272103 -0.0532,-0.604674 z m 10.65222,-1.159086 c 0.0855,-0.256557 -0.12874,-0.302451 -0.73356,-0.157122 -1.08456,0.260601 -1.1174,0.293598 -0.88774,0.892086 0.16954,0.441807 0.26358,0.448731 0.84562,0.06226 0.36018,-0.239151 0.70924,-0.597903 0.77568,-0.797229 z m -11.73299,-6.09249 c -0.0958,-0.239319 -0.16685,-0.168234 -0.18125,0.181251 -0.013,0.316248 0.0579,0.493437 0.15757,0.39375 0.0997,-0.09969 0.11034,-0.35844 0.0237,-0.575001 z m -17.7859,-1.266282 c -0.31336,-0.816606 -3.84974,-1.669911 -4.77492,-1.152156 -0.36859,0.206274 0.0479,0.424908 1.70927,0.897198 2.69478,0.76608 3.28047,0.814791 3.06565,0.254958 z M 59.817714,47.796666 c 0.778896,-0.606834 1.95309,-1.777668 2.609316,-2.601855 L 63.620169,43.69629 62.69025,42.846942 c -0.653046,-0.596466 -0.875718,-1.020117 -0.747882,-1.4229 0.302679,-0.953655 -0.395907,-1.016658 -1.295709,-0.116856 C 59.197332,42.756513 57.177861,48.9 58.150767,48.9 c 0.137922,0 0.888048,-0.4965 1.666947,-1.103334 z M 73.2,45.45 c 0.23256,-0.611679 0.487899,-0.75 1.384503,-0.75 0.684915,0 1.238796,-0.190701 1.469247,-0.505863 0.344088,-0.470565 0.480018,-0.460098 1.94808,0.15 2.704527,1.12395 6.89817,0.769089 6.89817,-0.583713 0,-0.35229 0.317655,-0.625581 0.903621,-0.77742 0.832974,-0.215847 0.859551,-0.261675 0.339924,-0.586188 -0.440349,-0.275001 -0.741522,-0.259776 -1.376361,0.06958 -0.736647,0.382176 -1.056426,0.338595 -3.418533,-0.465915 -1.433229,-0.488142 -3.009243,-0.881412 -3.50226,-0.873933 -0.493014,0.0075 -1.57281,-0.077 -2.399544,-0.18774 -1.241466,-0.16629 -1.629822,-0.09877 -2.23074,0.387822 l -0.727584,0.589164 0.831063,0.831063 c 0.734073,0.734073 0.779199,0.882927 0.386658,1.275468 -0.244422,0.244422 -1.065819,0.514446 -1.825323,0.600054 -1.582836,0.17841 -1.729164,0.469533 -0.555921,1.106028 1.168533,0.633939 1.549641,0.57735 1.875,-0.278409 z m 27.6,-3.417903 c 0,-0.304107 -0.913737,-0.718362 -1.122978,-0.509118 -0.07541,0.07541 -0.04812,0.281085 0.06064,0.457062 0.239343,0.387264 1.062338,0.427593 1.062338,0.05206 z M 101.7,36.45 C 101.49459,36.2025 101.20806,36 101.06327,36 100.91847,36 100.8,36.2025 100.8,36.45 c 0,0.258654 0.27075,0.45 0.63673,0.45 0.53197,0 0.57529,-0.07404 0.26327,-0.45 z m 29.1,-2.982294 c 0,-0.07276 -0.135,-0.21573 -0.3,-0.317706 -0.165,-0.101976 -0.3,-0.04244 -0.3,0.132294 0,0.174738 0.135,0.317706 0.3,0.317706 0.165,0 0.3,-0.05953 0.3,-0.132294 z M 114.3,33 c 0,-0.165 -0.135,-0.3 -0.3,-0.3 -0.165,0 -0.3,0.135 -0.3,0.3 0,0.165 0.135,0.3 0.3,0.3 0.165,0 0.3,-0.135 0.3,-0.3 z m 5.7,-0.881601 c 0,-0.09951 -0.59826,-0.507741 -1.32946,-0.907179 -1.14719,-0.626676 -1.43833,-0.676641 -2.12356,-0.364428 -0.97376,0.443673 -0.82647,1.137093 0.21494,1.011882 0.55157,-0.06632 0.80241,0.07251 0.91603,0.506985 0.1413,0.540375 0.26131,0.566133 1.23925,0.265992 C 119.51274,32.448876 120,32.217912 120,32.118399 Z m 9.9,0.717276 c 0,-0.350577 -1.58977,-1.615605 -1.83774,-1.46235 -0.47282,0.292221 -0.27615,0.686622 0.56274,1.128483 0.92096,0.485091 1.275,0.577797 1.275,0.333867 z m -22.05,-2.485674 c 0,-0.542598 -0.58719,-0.44354 -0.70365,0.118704 -0.0648,0.312813 0.0477,0.449958 0.3,0.365844 0.22201,-0.074 0.40365,-0.29205 0.40365,-0.484548 z m 1.65,103.284689 c 0,-0.25334 2.00654,-1.03469 2.65713,-1.03469 0.31702,0 0.8951,0.26551 1.28464,0.59002 l 0.70823,0.59002 -2.325,0.01 c -1.27875,0.005 -2.325,-0.0644 -2.325,-0.15533 z M 0,100.70589 c 0,-4.441818 -0.15549648,-4.277985 3.64833,-3.843921 1.3759185,0.157011 3.7683945,0.302169 5.3166132,0.322575 1.5482188,0.0204 3.0424018,0.158832 3.3204068,0.307614 0.530917,0.284139 5.806627,0.704385 8.11465,0.646386 1.380068,-0.03468 3,0.439875 3,0.878844 0,0.134529 0.43875,0.286899 0.975,0.338604 0.813386,0.07843 0.975,0.217656 0.975,0.839968 0,0.49985 -0.24744,0.86452 -0.75,1.10534 -0.696283,0.33365 -5.567346,1.05674 -12.75,1.89267 -1.65,0.19204 -3.675,0.46801 -4.5,0.61327 -0.825,0.14527 -2.81625,0.35412 -4.425,0.46412 L 0,104.47135 0,100.70589 Z M 0,84.579057 0,81.6 0.825,81.604 c 0.45375,0.0021 1.8343574,0.326025 3.0680166,0.719592 2.2690695,0.723888 3.2414202,1.532745 2.9029335,2.414826 C 6.6127779,85.215777 4.7253645,86.170053 3,86.657673 2.4225,86.820885 1.51125,87.090252 0.975,87.256269 L 0,87.558117 0,84.579057 Z M 11.090756,84.525 C 10.739537,84.150249 10.100478,83.85 9.6540699,83.85 7.6889433,83.85 9.4201911,82.873815 11.55,82.780956 c 0.785949,-0.03427 2.85,0.424899 2.85,0.634008 0,0.12978 0.07272,0.42546 0.161591,0.657063 C 14.748568,84.559281 13.547745,85.2 12.447571,85.2 c -0.398309,0 -1.008875,-0.30375 -1.356815,-0.675 z M 114.3,72.035409 c 0,-0.165 0.135,-0.383433 0.3,-0.485409 0.165,-0.101976 0.3,-0.05041 0.3,0.114591 0,0.165 -0.135,0.383433 -0.3,0.485409 -0.165,0.101976 -0.3,0.05041 -0.3,-0.114591 z m 19.9273,-9.801756 c 0.0955,-0.380607 0.038,-1.048869 -0.12782,-1.485027 -0.25411,-0.668355 -0.22396,-0.777732 0.19184,-0.695817 0.28232,0.05562 0.65071,0.630834 0.86127,1.344813 0.35711,1.210908 0.34636,1.25175 -0.36552,1.387833 -0.6405,0.122439 -0.71145,0.0525 -0.55977,-0.551802 z M 122.85,53.782917 C 121.43946,53.436201 121.19982,52.5 122.52161,52.5 c 0.90856,0 2.63057,0.872868 2.41384,1.223547 -0.17783,0.287727 -1.05485,0.312696 -2.08545,0.05937 z m -3.90131,-15.385035 c -0.10269,-0.166167 0.0302,-0.385344 0.29524,-0.487062 0.57439,-0.220416 0.89451,0.02247 0.61841,0.469221 -0.24912,0.403074 -0.67048,0.411303 -0.91365,0.01785 z M 112.425,28.166409 c -0.28875,-0.162922 -0.525,-0.424515 -0.525,-0.581316 0,-0.393596 1.1183,-0.359996 1.36615,0.04105 0.31258,0.505762 -0.25556,0.870679 -0.84115,0.540269 z M 124.5,25.2 c 0,-0.165 0.135,-0.3 0.3,-0.3 0.165,0 0.3,0.135 0.3,0.3 0,0.165 -0.135,0.3 -0.3,0.3 -0.165,0 -0.3,-0.135 -0.3,-0.3 z m -3.43009,-1.485789 c -0.31905,-0.11589 -0.45405,-0.284605 -0.3,-0.374921 0.15405,-0.09032 0.54113,-0.06939 0.86018,0.0465 0.31905,0.11589 0.45405,0.284605 0.3,0.374921 -0.15405,0.09032 -0.54113,0.06939 -0.86018,-0.0465 z m 17.49879,0.06241 c -1.41749,-0.08764 -1.85592,-0.263908 -2.79424,-1.123372 -0.61212,-0.56068 -1.56484,-1.168559 -2.11717,-1.350844 C 132.81424,21.024174 132.3,20.502489 132.3,19.925464 c 0,-0.307892 1.29405,-0.07691 2.46697,0.440342 3.02649,1.334659 3.59691,1.534194 4.38587,1.534194 1.08006,0 1.94109,0.641657 1.80478,1.344969 -0.12638,0.652086 -0.1948,0.667314 -2.38892,0.531652 z M 84.137664,22.180041 C 84.028905,22.004063 84.015114,21.784885 84.107022,21.692979 84.353814,21.446187 85.2,21.831435 85.2,22.190585 c 0,0.407176 -0.809133,0.399145 -1.062336,-0.01054 z M 74.908155,20.808156 C 74.628183,20.528183 74.966511,20.1 75.467706,20.1 75.705468,20.1 75.9,20.3025 75.9,20.55 c 0,0.451869 -0.633297,0.616703 -0.991845,0.258156 z M 126.9,18.6 c -0.38457,-0.248528 -0.37366,-0.29148 0.075,-0.295406 0.28875,-0.0025 0.525,0.130406 0.525,0.295406 0,0.365883 -0.0338,0.365883 -0.6,0 z M 0.675,13.894417 0,13.758269 0,6.8791347 0,0 52.250001,0 c 28.737498,0 52.177929,0.0720673 52.089849,0.16014955 -0.0881,0.0880823 -0.81933,0.16495187 -1.625,0.17082137 C 101.90918,0.33684039 100.5075,0.5541147 99.6,0.81380268 98.493693,1.1303809 96.368349,1.3159711 93.15,1.3770325 90.51,1.427121 86.865,1.5988062 85.05,1.7585552 83.235,1.9183043 80.0625,2.0505672 78,2.0524728 75.9375,2.0543778 72.36,2.1936711 70.05,2.3620122 67.74,2.5303533 60.18,2.6740453 53.25,2.6813278 40.674879,2.6945425 24.833569,3.1202361 24.284297,3.459705 24.124751,3.5583099 22.121806,3.6715143 19.833308,3.71127 16.314649,3.7723959 15.539476,3.8720895 14.811202,4.3571529 L 13.95,4.9307526 15.3,5.1448392 c 1.702738,0.2700246 10.748416,0.8578275 18,1.1696691 5.268789,0.2265753 9.727203,0.6236301 13.05,1.1621994 l 1.5,0.2431245 -2.1,0.04445 c -1.155,0.024447 -2.655867,0.2381595 -3.335259,0.4749159 -0.691938,0.241128 -3.133074,0.5218434 -5.55,0.6382155 -2.373108,0.1142622 -4.591845,0.310116 -4.93053,0.4352304 C 31.595529,9.4377587 31.099971,9.4178729 30.832974,9.268453 30.212847,8.9214126 28.8,9.4357368 28.8,10.008525 c 0,0.436018 -1.021865,0.728126 -3.15,0.900451 -0.66,0.05344 -1.63875,0.282884 -2.175,0.509868 -0.769248,0.325608 -1.169913,0.339127 -1.898639,0.06406 -0.780809,-0.294722 -1.100061,-0.256679 -2.064503,0.246017 -0.627476,0.327058 -1.595588,0.581199 -2.151361,0.564758 -1.322982,-0.03914 -4.634609,0.728373 -5.212637,1.208093 -0.308876,0.256344 -0.859484,0.306968 -1.72573,0.158667 C 9.7224582,13.540659 8.88,13.435829 8.55,13.427488 c -1.0165281,-0.02569 -5.9648803,0.325288 -6.6,0.468131 -0.33,0.07422 -0.90375,0.07368 -1.275,-0.0012 z M 77.85225,8.4036384 C 77.603502,8.0011584 81.388311,6.3 82.532514,6.3 c 1.558143,0 0.831012,0.6627537 -1.701873,1.5511935 -2.708184,0.9499284 -2.73021,0.9540138 -2.978391,0.5524449 z m 27.0915,-8.30857261 c 0.21656,-0.08666118 0.47531,-0.07600329 0.575,0.02368422 0.0997,0.0996875 -0.0775,0.1705921 -0.39375,0.15756579 -0.34948,-0.0143952 -0.42057,-0.0854821 -0.18125,-0.18125 z"
       id="path4220"
       inkscape:connector-curvature="0" />
    <path
       style="fill:#3c3620"
       d="m 9.7826169,133.49738 c 0.1664394,-0.16644 1.4207941,-0.76716 2.7874531,-1.33494 1.36666,-0.56779 4.203172,-1.98426 6.30336,-3.14772 4.566947,-2.52999 9.653701,-4.8231 12.312077,-5.55028 2.281332,-0.62404 12.577218,-4.35172 15.164493,-5.49039 0.99,-0.43571 3.063105,-1.58783 4.606902,-2.56027 1.543797,-0.97245 7.000836,-3.91216 12.126753,-6.53269 5.125917,-2.62052 9.453141,-4.89789 9.616053,-5.0608 0.194937,-0.19493 -0.174168,-1.40287 -1.079649,-3.53324 C 69.769632,95.933439 68.749752,91.8 69.525975,91.8 c 0.550953,0 1.938411,1.907997 2.863938,3.938421 1.250166,2.742609 2.81514,4.508689 3.773256,4.258134 0.457242,-0.119571 0.85776,0.02746 1.264683,0.464225 0.327537,0.35157 0.734904,0.63922 0.905262,0.63922 0.170358,0 0.50019,0.19045 0.732957,0.42321 0.232767,0.23277 0.591138,0.47919 0.796377,0.54761 0.213606,0.0712 0.34269,0.52429 0.301893,1.05968 -0.08707,1.14274 1.097718,2.4695 2.205258,2.4695 0.777117,0 2.254755,0.83557 4.475922,2.53102 1.155807,0.88225 1.533642,1.00456 3.061506,0.99106 1.357674,-0.012 2.284704,0.21964 4.193607,1.04781 2.435877,1.05681 2.456004,1.05994 3.342267,0.52097 0.490398,-0.29822 0.981831,-0.68817 1.092072,-0.86655 0.284688,-0.46063 1.065027,-0.40261 1.065027,0.0792 0,0.22193 0.259425,0.63828 0.5765,0.92523 0.54205,0.49055 0.63974,0.49171 1.63492,0.0195 0.58213,-0.27624 1.18692,-0.42283 1.34399,-0.32576 0.36851,0.22775 4.76361,-0.67323 5.74998,-1.17873 0.41546,-0.21292 1.11974,-0.31747 1.56506,-0.23235 0.60892,0.11641 1.12829,-0.0947 2.09462,-0.8515 0.70671,-0.55346 1.5217,-1.29905 1.8111,-1.65688 0.80764,-0.99862 3.14495,-2.04192 3.64493,-1.62697 0.28648,0.23776 0.64308,0.24671 1.21194,0.0304 1.23604,-0.46995 1.45254,-0.38828 1.2379,0.46692 -0.18757,0.74733 -0.15079,0.77128 1.09248,0.71123 0.70762,-0.0342 1.51636,0.0348 1.79721,0.15321 0.6689,0.2821 1.13937,-0.0299 1.13937,-0.75552 0,-0.32026 0.10522,-0.58229 0.23382,-0.58229 0.1286,0 1.01098,-0.75879 1.96083,-1.68619 1.27695,-1.24676 1.82134,-2.03888 2.08899,-3.03961 0.25837,-0.966007 0.5773,-1.446004 1.11418,-1.676857 0.4137,-0.177891 1.20853,-0.711396 1.76629,-1.185567 0.8767,-0.745311 1.07192,-0.804327 1.44071,-0.435537 0.4833,0.483309 0.20848,1.337094 -1.02701,3.190621 -0.3728,0.55928 -0.67781,1.21407 -0.67781,1.45509 0,0.24102 -0.6075,1.05442 -1.35,1.80756 -0.7425,0.75314 -1.35,1.62611 -1.35,1.93993 0,0.31382 -0.3375,1.01307 -0.75,1.55389 -0.4125,0.54082 -0.75,1.07149 -0.75,1.17929 0,0.29788 -2.08968,3.14277 -2.3886,3.25184 -0.14401,0.0525 -0.30219,0.76992 -0.3515,1.59416 -0.0769,1.28479 -0.21924,1.58594 -0.99771,2.11055 -0.97437,0.65663 -1.31346,1.50956 -0.80304,2.01998 0.22056,0.22056 0.44791,0.20546 0.75596,-0.0502 0.2423,-0.20109 0.97534,-0.32362 1.62898,-0.27229 l 1.18845,0.0933 -0.34127,0.93964 c -0.19053,0.52459 -1.29745,1.78349 -2.50594,2.85 -1.19057,1.0507 -2.60844,2.53798 -3.15084,3.30508 -1.13816,1.6097 -5.50862,5.72399 -6.74537,6.35001 -1.66269,0.84163 -3.91418,1.19537 -5.33354,0.83797 -0.7267,-0.18299 -1.94083,-0.3327 -2.69806,-0.3327 -1.76181,0 -2.48649,-0.31533 -7.160534,-3.1157 C 90.182799,122.82281 84.623523,118.65943 81.210981,114.88844 80.320833,113.9048 79.436709,113.1 79.246266,113.1 c -0.509814,0 -0.438105,3.85395 0.134382,7.22213 0.505788,2.97578 1.707813,7.05654 3.154917,10.71068 0.47544,1.20055 0.864435,2.31429 0.864435,2.475 0,0.18801 -13.178553,0.29219 -36.96,0.29219 -24.853087,0 -36.8608722,-0.0991 -36.6573831,-0.30262 z M 118.2,124.5 c 0,-0.165 -0.12703,-0.3 -0.28229,-0.3 -0.15527,0 -0.36573,0.135 -0.46771,0.3 -0.10198,0.165 0.025,0.3 0.28229,0.3 0.25724,0 0.46771,-0.135 0.46771,-0.3 z m -2.76,-14.16 c 0.46032,-0.46032 0.46546,-1.14 0.009,-1.14 -0.41874,0 -1.44862,0.88618 -1.44862,1.2465 0,0.38086 1.02872,0.30478 1.44,-0.1065 z m -5.34,23.31403 c 0,-0.0803 0.49167,-0.35141 1.0926,-0.60249 1.01791,-0.42532 1.15633,-0.41568 2.025,0.14092 l 0.9324,0.59743 -2.025,0.005 c -1.11375,0.003 -2.025,-0.0606 -2.025,-0.14092 z m 23.8614,-1.12153 c 0.11778,-0.69713 0.54014,-2.68838 0.93858,-4.425 2.46563,-10.74665 2.5623,-11.44079 2.42433,-17.4075 -0.10322,-4.46382 -0.24122,-5.87333 -0.70515,-7.20208 -0.53981,-1.54612 -0.5477,-1.77702 -0.12298,-3.600002 0.63105,-2.708631 0.70503,-2.789241 2.04487,-2.228205 0.60992,0.255396 3.47145,1.137114 6.35895,1.959375 7.43162,2.116272 14.31323,4.385222 20.4,6.726122 7.12153,2.73887 12.65432,4.51803 22.95,7.37996 4.785,1.33011 10.5225,2.96237 12.75,3.62726 2.2275,0.66488 5.81483,1.72273 7.97184,2.35076 2.15701,0.62803 4.58701,1.53255 5.4,2.01004 l 1.47816,0.86817 0.0816,5.6043 0.0816,5.6043 -41.13299,0 -41.13299,0 0.21414,-1.2675 z m -4.91677,-22.64911 c -0.23534,-0.43974 -0.0879,-0.79391 0.71962,-1.7283 0.55858,-0.64638 1.06899,-1.11445 1.13424,-1.04016 0.22022,0.25075 -0.84538,3.09069 -1.20318,3.20661 -0.19508,0.0632 -0.48789,-0.13396 -0.65068,-0.43815 z M 127.8,108.6 c 0,-0.165 0.135,-0.3 0.3,-0.3 0.165,0 0.3,0.135 0.3,0.3 0,0.165 -0.135,0.3 -0.3,0.3 -0.165,0 -0.3,-0.135 -0.3,-0.3 z M 81,101.1 c 0,-0.165 0.210468,-0.3 0.467706,-0.3 0.257238,0 0.38427,0.135 0.282294,0.3 -0.101976,0.165 -0.312444,0.3 -0.467706,0.3 C 81.127032,101.4 81,101.265 81,101.1 Z m -2.4,-0.6 c 0,-0.165 0.135,-0.3 0.3,-0.3 0.165,0 0.3,0.135 0.3,0.3 0,0.165 -0.135,0.3 -0.3,0.3 -0.165,0 -0.3,-0.135 -0.3,-0.3 z m 17.274594,-1.160208 c -0.08845,-0.143115 -0.765483,-0.328362 -1.504518,-0.411663 -2.571522,-0.289848 -5.864757,-2.499774 -5.868585,-3.938118 -0.0018,-0.627924 -0.009,-0.629178 3.016335,0.514608 2.295933,0.868014 5.79765,1.076247 9.132174,0.543057 1.155,-0.184686 2.505,-0.332415 3,-0.32829 l 0.9,0.0075 -1.47057,1.317888 c -0.9649,0.864717 -1.86159,1.383948 -2.60773,1.510008 -0.625436,0.105666 -1.296461,0.384069 -1.491164,0.618669 -0.386673,0.465915 -2.839605,0.597282 -3.105942,0.166341 z M 83.7,93.486732 c 0,-0.227295 0.197271,-0.576987 0.438381,-0.77709 0.24111,-0.200103 0.529266,-0.650175 0.640347,-1.000155 0.437226,-1.377579 2.772939,-3.06285 7.471272,-5.390703 1.513188,-0.74973 2.230218,-0.907662 4.5,-0.991176 1.485,-0.05464 3.107676,-0.130617 3.60595,-0.168846 0.91051,-0.06985 4.37754,1.341957 6.50608,2.649354 0.61161,0.375669 1.66837,0.808035 2.34836,0.960816 0.67998,0.152784 1.25957,0.323526 1.28797,0.379428 0.0284,0.0559 0.35298,0.445275 0.72128,0.865272 l 0.66964,0.763629 -2.76969,-0.121137 c -2.31993,-0.101463 -3.18375,0.0015 -5.31964,0.634695 -5.735143,1.699953 -7.912039,1.923126 -11.019535,1.129713 -2.700027,-0.689379 -5.178312,-0.80013 -6.175137,-0.275961 -0.360402,0.189513 -1.036887,0.662013 -1.503297,1.05 C 84.138888,93.995727 83.7,94.087188 83.7,93.486732 Z m 13.981251,-2.805483 c -0.304956,-0.304953 -0.556575,0.154167 -0.306366,0.559014 0.189009,0.305826 0.259674,0.306063 0.36129,0.0012 0.06948,-0.208437 0.04476,-0.460539 -0.05492,-0.560226 z M 66.02094,89.27523 c -0.281481,-0.339165 -0.228966,-0.463989 0.26058,-0.619365 0.728883,-0.231339 1.21848,0.01452 1.21848,0.611841 0,0.555849 -1.019685,0.561036 -1.47906,0.0075 z m 71.67163,-1.24476 C 137.53166,87.60723 137.4,86.927478 137.4,86.519916 c 0,-0.407565 -0.20984,-1.061274 -0.4663,-1.45269 -0.54764,-0.835806 -0.17999,-1.221414 0.84398,-0.885213 0.36978,0.121407 1.0347,0.196152 1.4776,0.166101 0.4429,-0.03005 0.87457,0.05749 0.95927,0.194529 0.16005,0.258957 -0.68754,3.225666 -1.10918,3.882357 -0.3984,0.620478 -1.10155,0.424119 -1.4128,-0.39453 z m 9.38415,-6.07671 c -0.24411,-0.155013 -0.37876,-1.061865 -0.3891,-2.620404 -0.0261,-3.928293 0.0135,-4.597263 0.31959,-5.402304 0.16103,-0.423561 0.29279,-1.538466 0.29279,-2.477562 0,-0.939099 0.13996,-2.179059 0.31103,-2.75547 0.17107,-0.576411 0.3853,-1.85802 0.47606,-2.84802 0.0908,-0.99 0.29996,-2.61 0.46487,-3.6 0.16491,-0.99 0.28855,-2.2725 0.27474,-2.85 -0.0237,-0.991662 -0.22101,-5.264121 -0.29333,-6.351981 -0.0184,-0.276093 -0.37087,-0.903081 -0.78337,-1.393308 -0.4125,-0.49023 -0.75,-1.108086 -0.75,-1.373019 0,-0.529809 -1.04809,-0.670188 -1.3505,-0.180882 -0.12359,0.199977 -0.37274,0.200826 -0.74324,0.0024 -0.66353,-0.355107 -3.62316,-0.445854 -5.12134,-0.157029 -0.92964,0.179223 -1.1032,0.116217 -1.3649,-0.495492 -0.1649,-0.385455 -0.24593,-1.949577 -0.18007,-3.475827 0.10722,-2.484567 0.17942,-2.775 0.6899,-2.775 0.46217,0 0.57015,-0.220299 0.57015,-1.163268 0,-1.169922 0.33627,-1.650354 1.59404,-2.27742 0.34652,-0.172761 0.70929,-0.649821 0.80615,-1.060137 0.18951,-0.802773 1.06386,-1.155129 1.58161,-0.637377 0.64032,0.640323 1.80403,-1.156809 2.20926,-3.411798 0.58281,-3.243198 0.52932,-4.154772 -0.26431,-4.503861 -0.8292,-0.364739 -1.17439,-1.543736 -0.36054,-1.231431 0.33219,0.127476 0.76156,-0.01804 1.1613,-0.393584 1.43671,-1.34972 3.69095,-1.581395 16.91662,-1.738578 l 12.39412,-0.147299 1.22946,-0.942624 c 2.1869,-1.676561 2.48229,-2.635855 2.48229,-8.06119 l 0,-4.718705 1.4507,-1.391373 c 0.79788,-0.765256 1.71144,-1.9996598 2.03012,-2.7431198 0.31869,-0.74346 1.2697,-1.9998063 2.11336,-2.7918807 l 1.53394,-1.4401353 -0.16406,-1.5980405 C 186.12382,2.0691183 185.9555,1.04625 185.84001,0.675 L 185.63002,0 l 9.90948,0 9.90948,0 2.95051,1.2356369 c 1.62278,0.6796003 3.99676,1.6485159 5.27551,2.1531457 l 2.325,0.9175089 0,19.8935945 0,19.893595 -1.725,-0.812511 c -1.6742,-0.788583 -3.8765,-2.170263 -7.275,-4.564191 -0.9075,-0.639252 -3.4725,-2.196441 -5.7,-3.460425 -2.2275,-1.263981 -4.57633,-2.716245 -5.21963,-3.227253 -1.37257,-1.090311 -2.55535,-1.191078 -3.71686,-0.316659 -0.7878,0.593088 -0.81291,0.702855 -0.79454,3.473229 0.0211,3.176013 0.22985,3.627951 2.82267,6.110049 0.66317,0.634854 1.5101,1.753227 1.88206,2.485275 0.37197,0.732045 0.94586,1.474545 1.27531,1.65 0.32946,0.175452 1.03335,0.681861 1.56419,1.125351 0.71802,0.599856 1.28255,0.801963 2.20452,0.78924 1.57367,-0.02172 2.00376,0.420171 2.5607,2.630952 0.66955,2.657793 0.98931,3.312453 1.79788,3.680859 1.1031,0.502608 1.38866,1.603593 1.52835,5.892603 0.11931,3.663477 0.0846,3.972621 -0.57193,5.097456 -0.77866,1.33401 -1.20608,1.499646 -3.1266,1.211643 -1.09534,-0.164253 -1.44641,-0.388971 -2.03689,-1.303779 -0.39239,-0.607926 -1.97474,-2.407857 -3.51634,-3.999849 -1.68036,-1.735296 -3.13929,-3.561351 -3.64286,-4.559535 -1.21804,-2.414427 -2.32292,-2.628024 -2.89725,-0.560097 -0.57981,2.087694 -0.39272,3.106455 0.96222,5.239557 0.70125,1.103988 1.64338,2.652402 2.09363,3.440925 0.45025,0.788523 1.17083,2.041179 1.6013,2.783679 0.85706,1.478322 3.49577,4.322496 4.53777,4.891101 2.24656,1.225914 4.01305,2.387304 5.1923,3.413706 0.7425,0.64626 2.66625,2.100612 4.275,3.231894 1.60875,1.131279 2.925,2.153157 2.925,2.270835 0,0.681618 -4.98944,0.75624 -10.2,0.152547 -5.45999,-0.632592 -17.86886,-1.614426 -24.4999,-1.938516 -7.63657,-0.373239 -13.5613,0.159639 -23.0289,2.071251 -6.03881,1.219299 -7.51505,1.392414 -8.19448,0.960942 z M 89.55,75.9 C 88.646235,74.956674 87.406026,74.713974 86.765001,75.354999 86.099364,76.020636 85.991856,75.295467 86.51169,73.646361 86.797125,72.740862 87.114381,72 87.216708,72 c 0.102327,0 0.445122,0.234459 0.761766,0.521016 0.619509,0.560649 0.672078,0.528243 1.572174,-0.969222 0.278706,-0.46368 0.407145,-0.458349 1.759899,0.07302 1.173675,0.461025 1.678593,0.514656 2.580039,0.274044 0.850737,-0.227073 1.456749,-0.188553 2.515101,0.15987 C 97.172559,72.31119 97.8,72.404724 97.8,72.26658 97.8,71.895384 99.466323,71.1 100.24398,71.1 c 0.37057,0 1.15353,0.307107 1.73989,0.682458 0.58637,0.375351 1.33613,0.827718 1.66613,1.005258 0.33,0.17754 0.64252,0.678435 0.6945,1.113099 0.0776,0.649173 -0.0934,0.8799 -0.95776,1.292082 -0.98114,0.467874 -1.14027,0.468174 -2.35453,0.0044 -1.749622,-0.66819 -2.405668,-0.627156 -3.181813,0.199011 -0.541755,0.576675 -0.992595,0.705681 -2.623146,0.750606 -1.082925,0.02985 -2.220696,0.188979 -2.528382,0.353646 C 91.637553,77.068605 90.453162,76.842699 89.55,75.9 Z M 64.209963,73.366941 c -0.466536,-1.21434 -0.276765,-2.883849 0.373578,-3.286557 1.135935,-0.703404 1.482177,1.340403 0.528495,3.119616 l -0.562812,1.05 -0.339261,-0.883059 z M 60.352056,69.375 C 60.204075,69.08625 59.990853,68.465208 59.87823,67.994904 59.666784,67.111926 58.853064,65.806254 57.700137,64.5 c -1.144209,-1.296378 -1.312416,-2.160963 -0.930378,-4.782141 0.195309,-1.340013 0.506313,-2.434512 0.705357,-2.482329 0.19581,-0.04704 0.814122,-0.689085 1.374027,-1.426761 1.147479,-1.511814 2.625141,-2.156511 3.578352,-1.561221 0.310401,0.193848 0.755289,0.352452 0.988644,0.352452 0.776274,0 0.340584,3.710202 -0.684093,5.825538 -0.865593,1.78692 -0.871224,1.829154 -0.273702,2.05245 0.602034,0.224982 0.616392,0.525438 0.08673,1.81491 -0.16548,0.402864 -0.06305,0.584721 0.39711,0.705057 0.497763,0.130167 0.570759,0.291969 0.369978,0.820068 -0.158358,0.416508 -0.101715,1.010892 0.154371,1.61994 0.425079,1.01097 0.389553,1.06125 -0.688368,0.97419 -0.460488,-0.03719 -0.782358,0.188298 -1.023156,0.716793 -0.406866,0.892977 -1.016607,0.999915 -1.40295,0.246054 z m 27.903786,-1.551897 c 0.102093,-1.113435 0.726282,-1.579353 1.035684,-0.773067 0.119292,0.310869 -0.05807,0.745749 -0.469002,1.149948 l -0.66084,0.650016 0.09416,-1.026897 z m 50.500598,-0.809517 c -1.04239,-1.042392 0.23459,-2.467185 1.326,-1.479477 0.89245,0.807654 0.82704,1.965891 -0.11101,1.965891 -0.40072,0 -0.94746,-0.218886 -1.21499,-0.486414 z M 64.359366,65.912061 c -0.128418,-0.295866 -0.14931,-0.622116 -0.04643,-0.724998 0.304647,-0.30465 0.550227,0.123282 0.41001,0.714456 -0.124305,0.524085 -0.140478,0.524553 -0.363582,0.01053 z m 147.964734,-0.675 c -0.24388,-1.275762 0.32928,-3.180873 1.66002,-5.517768 C 215.80356,56.524209 216,56.604192 216,60.54009 l 0,3.290094 -1.20086,1.084908 c -1.43288,1.294518 -2.26835,1.403202 -2.47504,0.321969 z M 70.249683,55.921032 c -0.428526,-0.30015 -0.649449,-0.720156 -0.591753,-1.125 C 69.735582,54.25116 69.948408,54.15 71.017083,54.15 c 0.950163,0 1.379019,-0.159048 1.714617,-0.635892 C 73.180368,52.876608 74.920098,51.9 75.607071,51.9 c 0.278832,0 0.273402,0.112053 -0.02274,0.468864 -0.343434,0.413814 -0.286107,0.440232 0.488268,0.225 1.860837,-0.517206 4.388916,-0.183966 7.604565,1.002405 3.327087,1.227486 4.141038,1.903731 2.291391,1.903731 -0.67383,0 -1.544781,-0.30663 -2.31078,-0.813546 l -1.229349,-0.813543 -0.548754,0.738543 c -1.360947,1.831647 -1.152603,1.765461 -5.441853,1.728804 -2.193306,-0.01875 -4.144563,-0.154524 -4.336122,-0.301737 -0.210228,-0.161556 -0.425358,-0.142962 -0.542706,0.04691 -0.264264,0.42759 -0.507792,0.397014 -1.30932,-0.1644 z M 0,40.854222 0,25.736128 5.025,25.932426 c 2.76375,0.107963 6.78,0.320067 8.925,0.471341 2.145,0.151274 7.8825,0.355608 12.75,0.454076 4.8675,0.09847 9.66,0.230937 10.65,0.294376 0.99,0.06344 4.793391,0.122642 8.451981,0.131562 l 6.651984,0.01622 0.949866,0.799261 c 0.711486,0.598674 1.008846,0.703835 1.184868,0.419026 0.180606,-0.29223 0.382695,-0.301188 0.87315,-0.03871 0.725751,0.388411 0.806322,0.952817 0.263151,1.843434 -0.328281,0.538272 -0.270138,0.705948 0.466728,1.345929 0.462951,0.402081 1.070451,0.73191 1.35,0.732951 0.279549,9e-4 0.754476,0.434328 1.055391,0.962853 0.522099,0.91701 0.522906,0.978657 0.01767,1.348101 C 58.323588,34.925784 57.911745,35.1 57.699585,35.1 c -0.21216,0 -0.62505,0.37125 -0.917538,0.825 -0.292485,0.45375 -0.801846,1.06125 -1.131915,1.35 -0.597945,0.523095 -0.597552,0.527178 0.108111,1.125 0.866133,0.733764 1.630224,0.758883 2.761248,0.09077 0.474132,-0.280077 0.938499,-0.432789 1.031928,-0.339363 0.09343,0.09343 -0.332445,1.013109 -0.946386,2.043732 -1.006785,1.690098 -1.140183,1.809177 -1.360266,1.214238 -0.134205,-0.362796 -0.365706,-0.614571 -0.51444,-0.559503 -0.569961,0.211023 -2.758119,3.142074 -2.98095,3.993 -0.215175,0.821694 -0.328251,0.886053 -1.418457,0.807339 -1.3707,-0.09897 -3.780975,0.372426 -5.080911,0.993708 -0.495,0.236574 -1.538103,0.511275 -2.318007,0.61044 -0.779904,0.09917 -1.496622,0.307506 -1.592706,0.462972 C 43.243203,47.8728 42.168024,48 40.95,48 c -1.281636,0 -2.300166,0.138468 -2.417727,0.328686 -0.111729,0.180777 -0.625944,0.266613 -1.142706,0.190749 -1.996188,-0.293055 -5.412219,-1.147761 -5.768253,-1.443243 -0.231963,-0.192513 -1.320075,-0.24087 -2.87237,-0.127656 -3.224719,0.235194 -4.070501,0.406119 -5.348944,1.080969 -4.193706,2.21373 -6.495617,2.815473 -7.756957,2.027754 -0.423694,-0.2646 -0.952829,-0.227319 -2.320929,0.163527 C 11.38975,50.772834 6.6,53.091381 6.6,53.474721 6.6,53.605698 6.22875,53.871072 5.775,54.06444 5.32125,54.257808 4.7475,54.569535 4.5,54.757167 3.7831974,55.300584 1.413008,56.087724 0.675,56.027448 L 0,55.972317 0,40.854222 Z m 87.868434,13.336077 c -0.924864,-0.352164 -2.342364,-0.995262 -3.15,-1.429101 -0.807639,-0.433842 -2.007405,-0.88485 -2.666148,-1.002237 C 80.550303,51.49131 80.225589,51.294924 80.742972,50.967093 81.512694,50.479374 83.422332,50.701209 84.9,51.45 c 1.592823,0.807144 2.543319,0.946218 2.868702,0.419739 0.607611,-0.983136 -2.442366,-2.162142 -6.532905,-2.525376 -2.552196,-0.226629 -4.371204,-0.713463 -3.855855,-1.031967 0.193452,-0.119559 0.310854,-0.407508 0.260895,-0.639888 -0.0721,-0.33534 0.49716,-0.440928 2.759163,-0.511797 4.586559,-0.143691 6.682692,-0.06787 7.757475,0.280602 0.554109,0.179661 1.465359,0.252348 2.025,0.161532 C 91.141731,47.447178 91.2,47.487168 91.2,48.301155 c 0,0.474891 0.11277,0.933132 0.250602,1.018314 0.251076,0.155175 -0.355887,4.722768 -0.702003,5.282796 -0.260379,0.421302 -0.951396,0.322461 -2.880165,-0.411966 z m 17.273416,-0.203493 c -0.10646,-0.172254 0.0237,-0.644754 0.28921,-1.05 0.58501,-0.892848 0.21546,-0.939237 -1.09881,-0.137928 -1.18314,0.721365 -2.49868,0.781917 -2.75015,0.126585 -0.46182,-1.203483 -0.17373,-3.255285 0.61735,-4.396812 1.12177,-1.618719 1.74648,-1.409475 1.76491,0.591141 0.008,0.857406 0.10585,1.65042 0.21768,1.762254 0.11184,0.111831 0.93416,-0.421029 1.82739,-1.184136 2.32515,-1.986444 4.55238,-2.716821 2.89057,-0.94791 -0.92894,0.988815 -0.61429,1.215972 1.042,0.752241 1.57893,-0.442074 2.51031,-0.327612 6.00305,0.737739 1.69226,0.516168 2.55495,0.927996 2.55495,1.219662 0,0.62877 -0.71338,0.543813 -1.35115,-0.160908 -0.60447,-0.667935 -2.68246,-1.336977 -3.186,-1.025778 -0.17781,0.109896 -0.25011,0.565737 -0.16066,1.01298 0.10221,0.511065 -0.045,1.154616 -0.39629,1.732236 -0.4635,0.762165 -0.81507,0.954294 -2.05941,1.125435 -1.12153,0.154248 -1.7693,0.07881 -2.56484,-0.298698 -0.97573,-0.463011 -1.10432,-0.46509 -1.54443,-0.02499 -0.54145,0.541455 -1.80184,0.641838 -2.09537,0.166884 z M 141.15,51 c 0.10198,-0.165 0.24494,-0.3 0.31771,-0.3 0.0728,0 0.13229,0.135 0.13229,0.3 0,0.165 -0.14297,0.3 -0.31771,0.3 -0.17473,0 -0.23427,-0.135 -0.13229,-0.3 z M 55.5,48.511734 c 0,-0.761742 0.761532,-1.650201 1.113105,-1.298631 C 56.89536,47.495361 56.323698,48.9765 55.875,49.125486 55.642857,49.202565 55.5,48.968754 55.5,48.511734 Z m 48.31347,-2.206278 c -0.38792,-0.657483 -0.53633,-1.202598 -0.3721,-1.366821 0.4438,-0.443808 3.65863,-0.683853 3.65863,-0.27318 0,0.4719 -1.4438,0.992817 -2.13962,0.771969 -0.38447,-0.122025 -0.56038,-0.03025 -0.56038,0.292359 0,0.258621 0.135,0.470217 0.3,0.470217 0.3737,0 0.39661,0.804879 0.0294,1.03185 -0.14885,0.09199 -0.561,-0.324885 -0.9159,-0.926394 z M 108,44.291088 C 108,44.069592 110.26005,42.9 110.68805,42.9 c 0.68544,0 0.25843,0.836697 -0.51305,1.005279 -0.45375,0.09915 -1.12875,0.266772 -1.5,0.372489 -0.37125,0.105717 -0.675,0.111708 -0.675,0.01332 z M 57.42927,37.46646 c -0.21756,-0.35202 0.362514,-0.854109 0.99573,-0.861867 0.474408,-0.0058 0.48114,0.369267 0.015,0.835407 -0.448572,0.448572 -0.745053,0.456333 -1.01073,0.02646 z M 0,1.0818486 0,0 15.525,0.03070844 C 32.573187,0.06442975 34.46457,0.39932253 20.4,0.89388636 15.6975,1.0592441 10.4325,1.3259341 8.7,1.4865307 6.9675,1.6471273 4.30125,1.8651883 2.775,1.9711108 L 0,2.1636971 0,1.0818486 Z M 32.025,0.08298133 c 0.53625,-0.06654803 1.41375,-0.06654803 1.95,0 0.53625,0.06654804 0.0975,0.12099643 -0.975,0.12099643 -1.0725,0 -1.51125,-0.0544484 -0.975,-0.12099643 z m 30.154125,0.0017442 c 0.456018,-0.06895631 1.131018,-0.06711356 1.5,0.004095 C 64.048107,0.1600291 63.675015,0.2164479 62.85,0.21419564 62.025,0.21194324 61.723107,0.15368183 62.179125,0.08472552 Z"
       id="path4218"
       inkscape:connector-curvature="0" />
  </g>
</svg>
