<?xml version="1.0" encoding="UTF-8" standalone="no"?>
<svg
   xmlns:dc="http://purl.org/dc/elements/1.1/"
   xmlns:cc="http://creativecommons.org/ns#"
   xmlns:rdf="http://www.w3.org/1999/02/22-rdf-syntax-ns#"
   xmlns:svg="http://www.w3.org/2000/svg"
   xmlns="http://www.w3.org/2000/svg"
   viewBox="0 0 2400 1350"
   height="1350"
   width="2400"
   version="1.1"
   id="svg4206">
  <metadata
     id="metadata4212">
    <rdf:RDF>
      <cc:Work
         rdf:about="">
        <dc:format>image/svg+xml</dc:format>
        <dc:type
           rdf:resource="http://purl.org/dc/dcmitype/StillImage" />
        <dc:title></dc:title>
      </cc:Work>
    </rdf:RDF>
  </metadata>
  <defs
     id="defs4210" />
  <path
     id="path4216"
     d="m 0,955.09031 0,-394.90967 6.5625,0.666 c 8.752604,0.88827 12.775116,-2.07246 14.010785,-10.31249 0.475341,-3.1698 0.595572,-6.03196 0.267181,-6.36035 -1.126739,-1.12674 -11.4662641,2.49538 -15.4445636,5.4105 C 3.2073988,551.18794 1.0980237,552.5 0.70840239,552.5 0.31878108,552.5 0,461.375 0,350 0,162.82571 0.15576355,147.5 2.0581183,147.5 c 1.1319649,0 5.0241654,1.96875 8.6493347,4.375 3.625168,2.40625 7.500056,4.375 8.610861,4.375 1.110805,0 3.354017,0.87431 4.984916,1.94292 1.971286,1.29164 3.238307,1.50114 3.779792,0.625 1.344963,-2.1762 4.957653,-1.49078 6.680153,1.26737 1.309927,2.09753 2.361224,2.4213 5.572155,1.71606 2.176686,-0.47809 4.96045,-1.49552 6.186141,-2.26098 1.662671,-1.03836 2.85901,-0.998 4.711568,0.15894 3.253178,2.03165 3.356886,2.00381 4.173793,-1.12004 0.590176,-2.25683 1.31499,-2.54741 4.677039,-1.875 2.188246,0.43766 8.422239,0.79573 13.853318,0.79573 9.276381,0 9.94388,0.18199 11.016646,3.00357 1.594813,4.19468 3.580515,5.07905 6.160857,2.74388 2.573,-2.32854 8.075494,-2.55211 15.680538,-0.63714 4.41782,1.11241 6.1019,0.99853 9.24145,-0.625 2.11154,-1.09192 5.71069,-1.98531 7.99811,-1.98531 2.28742,0 5.43967,-0.89706 7.00501,-1.99346 1.6394,-1.14829 4.04475,-1.6926 5.67334,-1.28387 1.555,0.39029 3.91506,-0.0418 5.24457,-0.95995 1.3295,-0.91826 4.10479,-1.99393 6.16729,-2.39039 2.0625,-0.39646 5.33746,-1.10951 7.27769,-1.58454 2.11231,-0.51718 4.7282,-0.22122 6.51988,0.73767 2.46681,1.32019 3.35965,1.29643 5.08483,-0.13534 1.44392,-1.19836 5.81633,-1.76795 14.1051,-1.83747 11.67301,-0.0979 18.52177,-1.92707 20.757,-5.54376 1.16727,-1.88868 4.52267,-1.51769 7.06255,0.78086 2.08489,1.8868 2.49066,1.88461 5.4115,-0.0292 2.5636,-1.67972 4.97996,-1.91897 12.84454,-1.27174 9.21897,0.7587 10.02836,0.60915 16.75542,-3.0958 7.8844,-4.34237 10.69765,-4.74847 14.25508,-2.05776 3.97267,3.00477 6.43892,2.23522 8.88596,-2.77275 2.14225,-4.38419 2.66101,-4.69114 8.01736,-4.74364 3.94883,-0.0388 6.8149,-0.91192 9.23108,-2.8125 1.98541,-1.56171 5.27055,-2.75636 7.5797,-2.75636 4.36443,0 20.30932,-6.27848 25.78027,-10.15127 1.82488,-1.29175 3.62825,-2.34868 4.00749,-2.34868 0.37925,0 3.38616,-1.58947 6.68204,-3.53215 3.29589,-1.94268 7.86626,-3.90649 10.1564,-4.36402 2.29013,-0.45754 5.59235,-1.95551 7.33825,-3.32884 1.87927,-1.47823 4.26031,-2.23868 5.83611,-1.8639 1.46396,0.34817 5.1202,0.1981 8.12496,-0.3335 4.71644,-0.834422 5.6562,-1.532061 6.875,-5.103705 0.77649,-2.27544 3.09929,-5.181339 5.16179,-6.457555 3.40065,-2.104224 4.2158,-2.156596 8.75,-0.562181 9.3549,3.289576 13.1694,2.480734 19.73449,-4.184585 3.23979,-3.28924 5.89051,-6.908871 5.89051,-8.043625 0,-1.134755 0.57183,-3.567196 1.27071,-5.405428 1.02918,-2.706938 1.60907,-3.061437 3.0507,-1.864982 0.97899,0.81249 1.49412,2.222224 1.14472,3.132742 -0.35458,0.924027 1.34232,3.16387 3.84052,5.069345 3.80104,2.899194 5.27425,3.301515 9.77208,2.668674 10.93287,-1.53825 15.56552,-3.144989 25.29627,-8.773472 5.5,-3.181324 11.42171,-5.788409 13.15936,-5.793522 4.05372,-0.01188 8.55488,-3.173715 10.02578,-7.04247 1.66305,-4.374163 4.57997,-4.99071 8.07544,-1.706895 2.63872,2.478958 3.82121,2.723413 9.6239,1.989543 13.4583,-1.702086 14.4857,-2.063983 15.32228,-5.397223 0.71173,-2.835727 1.25197,-3.084632 5.27728,-2.431413 6.19385,1.005123 15.12564,-1.438872 20.63016,-5.645017 2.53781,-1.939201 5.25015,-3.525821 6.02741,-3.525821 0.77726,0 3.76338,-1.338826 6.6358,-2.97517 2.87243,-1.636344 7.90774,-3.967835 11.1896,-5.181093 C 562.55012,30.891106 570,23.979924 570,20.655276 c 0,-2.985132 2.0773,-3.269137 8.34497,-1.140911 4.84104,1.643804 7.13915,1.787941 11.65503,0.731001 3.09375,-0.724092 7.17081,-1.648469 9.06012,-2.05417 2.15156,-0.462007 4.66579,-2.597285 6.72862,-5.714416 C 607.60015,9.7395507 609.39856,7.5 609.78521,7.5 c 0.38664,0 2.25552,1.4874105 4.15304,3.305357 3.30957,3.170769 3.57778,3.221667 6.58692,1.25 4.2391,-2.777565 6.87323,-2.5864091 10.43347,0.757143 l 2.99476,2.8125 3.89435,-4.357596 c 2.61649,-2.9277277 5.14665,-4.4484085 7.7108,-4.6343514 C 658.03405,5.7283739 664.6085,3.6503438 663.03746,1.1083665 662.64021,0.46560459 748.18149,0 866.66749,0 1054.9253,0 1071.0444,0.16119912 1071.7696,2.0511311 1072.8086,4.758605 1069.2937,10 1066.4391,10 c -5.0985,0 -10.8045,11.632238 -7.8783,16.060491 2.0764,3.142288 5.7704,1.091588 6.4392,-3.574682 0.5227,-3.646817 1.239,-4.482266 4.375,-5.10263 7.4123,-1.46629 9.2722,-2.659042 10.6483,-6.828783 0.9793,-2.9672719 0.9948,-4.9020384 0.053,-6.6610084 C 1078.264,0.50625145 1078.3894,0 1081.0408,0 c 1.2599,0 4.1064,2.2592948 6.3255,5.020655 6.1137,7.607748 9.5104,9.485363 13.3968,7.405464 3.5645,-1.907705 7.0695,-0.519513 7.7776,3.08041 0.7838,3.984691 -2.0922,5.72285 -8.1054,4.898653 -4.9519,-0.678731 -5.6526,-0.469142 -6.2653,1.873908 -0.8659,3.311004 -4.5137,4.543915 -7.9705,2.693905 -3.6357,-1.945766 -6.1995,-0.665801 -6.1995,3.095039 0,3.78649 -8.6612,10.213165 -12.0248,8.922446 -2.2672,-0.869989 -6.7252,2.404521 -6.7252,4.939775 0,0.848531 1.0804,2.870726 2.4009,4.493765 2.3061,2.834601 2.5403,2.870736 5.9375,0.916256 3.2818,-1.888142 4.0109,-1.877807 10.1205,0.143465 6.3583,2.103568 6.7377,2.095764 11.073,-0.227824 3.5227,-1.888061 5.2453,-2.142385 8.002,-1.181396 2.6071,0.908838 4.1032,0.777278 5.802,-0.510197 3.9882,-3.022534 5.4141,-2.168575 5.4141,3.242495 0,3.727272 0.8216,5.878446 3.125,8.181817 3.916,3.916021 3.9293,6.003099 0.065,10.170991 -2.7211,2.934628 -3.4205,3.136439 -6.3088,1.820445 -4.243,-1.93324 -5.059,-1.873303 -7.4818,0.549568 -1.3098,1.309811 -1.7856,3.193935 -1.3415,5.3125 1.0677,5.093954 -0.8889,7.227677 -4.9366,5.38341 -4.1359,-1.884445 -5.0707,-1.305078 -6.9161,4.286502 -1.244,3.769543 -1.9487,4.387169 -4.4582,3.907447 -1.698,-0.324578 -3.6257,0.207408 -4.4795,1.236167 -1.093,1.316928 -2.9373,1.590241 -6.811,1.009339 -4.7742,-0.715943 -5.5281,-0.46702 -7.4447,2.458081 -1.173,1.790081 -3.8497,4.142635 -5.9484,5.227898 -2.0986,1.085261 -4.5865,2.744006 -5.5286,3.686106 -0.9422,0.9421 -2.5497,1.71291 -3.5725,1.71291 -1.0227,0 -1.5118,0.5625 -1.0869,1.25 0.4249,0.6875 1.8514,1.25 3.17,1.25 1.3185,0 3.3524,1.45755 4.5196,3.23899 1.1673,1.78145 3.4911,3.75942 5.1641,4.3955 2.7167,1.03289 2.9512,1.65528 2.1938,5.8235 -1.1434,6.2922 -4.2126,9.09203 -11.4486,10.44387 -4.569,0.85358 -6.8255,2.10758 -9.1599,5.09045 -1.7036,2.17683 -4.9462,5.80658 -7.2058,8.06611 -4.7153,4.71537 -4.8127,5.12947 -2.1132,8.9836 1.5084,2.15357 2.1248,6.95149 2.5271,19.67095 0.478,15.11443 0.2609,17.45308 -2.1386,23.03079 l -2.6707,6.20813 3.5357,6.58656 c 3.0985,5.77201 3.5073,7.77969 3.3053,16.23461 -0.1946,8.14492 0.3472,11.06614 3.4771,18.75 4.0883,10.03675 5.8789,22.35908 3.9642,27.28095 -1.669,4.29037 1.1337,10.8316 5.3236,12.42457 2.7582,1.04867 3.1813,1.95799 3.1813,6.83667 0,4.78924 0.5119,5.94411 3.4375,7.75605 5.2526,3.25309 11.573,9.41647 13.574,13.23691 0.9891,1.88827 3.7536,4.25019 6.1434,5.24871 2.3898,0.99853 4.3451,2.61322 4.3451,3.58819 0,0.97497 2.2363,3.25262 4.9696,5.06143 2.7333,1.80881 5.9555,4.83668 7.1605,6.72861 1.2049,1.89191 4.8748,6.93935 8.1553,11.21651 3.2806,4.27716 5.9646,8.12835 5.9646,8.55819 0,0.42984 2.2365,3.32231 4.97,6.42771 2.9201,3.31745 5.3145,7.52101 5.8053,10.19181 1.0004,5.44387 2.1853,6.37638 8.1342,6.40149 5.3171,0.0224 6.4208,1.17628 8.5061,8.89264 2.151,7.95961 9.5634,17.43974 16.0922,20.58119 2.9487,1.41883 6.3881,4.26813 7.6431,6.3318 1.2549,2.06365 4.7438,5.66887 7.7529,8.0116 3.0092,2.34273 5.921,4.9778 6.4708,5.85571 0.5498,0.87791 1.9561,1.61071 3.125,1.62845 2.123,0.0323 6.5004,7.73158 6.5004,11.43354 0,2.45797 3.9709,6.03421 6.7002,6.03421 3.2874,0 3.8785,3.49259 1.0055,5.94042 -3.1327,2.669 -3.4031,4.20455 -2.1458,12.18458 1.0427,6.61851 3.9596,12.42145 8.1497,16.21348 1.3972,1.26444 2.5404,3.23876 2.5404,4.38736 0,1.14861 1.4063,3.40947 3.125,5.02416 1.7188,1.61469 3.125,3.83758 3.125,4.93976 0,1.10219 0.7953,3.13945 1.7674,4.52727 0.972,1.38781 1.9564,4.18068 2.1875,6.20639 0.2958,2.59296 1.4735,4.18575 3.9792,5.38131 3.0312,1.44633 3.4275,2.18926 2.6721,5.00923 -0.4878,1.82108 -1.1562,6.90042 -1.4854,11.28741 -0.4879,6.50125 -0.1582,8.5818 1.783,11.25 1.6632,2.28623 2.8742,7.48067 4.0149,17.22158 l 1.6333,13.94794 -3.4571,4.53247 c -3.0859,4.04585 -3.2934,4.8969 -1.9327,7.92705 0.8384,1.86703 2.8927,4.80084 4.5652,6.51959 1.6724,1.71875 4.8661,5.27017 7.0972,7.89205 5.083,5.97351 7.3841,5.32978 11.7507,-3.28727 2.6073,-5.1452 3.3086,-8.6019 3.7388,-18.42713 0.3378,-7.71675 1.4174,-14.52306 2.9827,-18.80562 1.3493,-3.69145 2.4532,-8.30353 2.4532,-10.24905 0,-1.94554 0.6062,-4.67002 1.3471,-6.0544 0.7409,-1.38439 1.5537,-6.26929 1.806,-10.85533 0.2524,-4.58604 1.0827,-10.85035 1.8449,-13.9207 0.7623,-3.07036 1.2421,-7.28911 1.0664,-9.375 -0.5385,-6.39389 1.5112,-28.63127 2.9006,-31.46764 1.0991,-2.2439 2.0883,-2.57076 6.1361,-2.02782 4.427,0.5938 5.3107,0.1692 10.6957,-5.13976 4.6196,-4.5544 5.8658,-6.65183 5.8506,-9.84718 -0.013,-2.23309 0.4895,-4.39395 1.1112,-4.80194 1.2379,-0.8122 15.2518,2.71047 16.7523,4.21102 0.5124,0.51238 -0.1063,1.69095 -1.3761,2.61902 -1.4497,1.06003 -2.3453,3.34235 -2.4087,6.13843 -0.096,4.24075 -0.3468,4.48802 -5.3028,5.23465 -5.1097,0.76977 -6.6733,2.35885 -6.6733,6.78205 0,3.19126 6.6583,9.1262 9.1609,8.1658 2.9535,-1.13333 3.9227,2.41297 1.6202,5.92733 -2.2225,3.39207 -1.06,11.02722 2.2329,14.6658 1.0923,1.207 1.986,3.40789 1.986,4.89088 0,1.73864 1.692,3.81606 4.7638,5.84884 2.7426,1.81497 5.6755,5.21915 6.9128,8.02352 1.182,2.67906 3.0218,5.2059 4.0884,5.6152 2.2425,0.86055 12.5055,-7.0256 13.59,-10.44271 0.588,-1.85278 -1.1856,-10.79633 -3.7324,-18.82069 -0.3407,-1.07329 -2.2582,-2.91949 -4.2611,-4.10265 l -3.6417,-2.15122 2.3901,-6.53909 c 3.4526,-9.446 3.1717,-15.15309 -0.9035,-18.35866 -1.8114,-1.4249 -4.3796,-2.59073 -5.7071,-2.59073 -3.8149,0 -7.2352,-2.33225 -6.444,-4.39406 0.3917,-1.02076 2.0363,-1.85594 3.6547,-1.85594 2.8108,0 8.04,-4.2671 8.04,-6.56069 0,-1.80382 8.6471,-12.60881 12.5785,-15.71741 4.6306,-3.6615 4.7873,-8.23045 0.4813,-14.04155 -2.7958,-3.77311 -3.0868,-5.07799 -2.3534,-10.55535 0.4602,-3.4375 1.6554,-7.84789 2.6559,-9.80086 2.7968,-5.4593 1.1038,-12.88963 -3.4768,-15.25833 -1.9995,-1.034 -3.6355,-2.43173 -3.6355,-3.10606 0,-0.67434 -3.2344,-4.51491 -7.1875,-8.53461 -3.9531,-4.0197 -8.3201,-9.21917 -9.7046,-11.55435 -2.1403,-3.61023 -3.3065,-4.30318 -7.7913,-4.62913 -5.7357,-0.41688 -9.0666,-3.56562 -9.0666,-8.57102 0,-1.5252 -0.5625,-3.12074 -1.25,-3.54564 -0.6875,-0.4249 -1.25,-2.35797 -1.25,-4.29571 0,-4.3013 -1.4179,-5.4794 -9.0947,-7.55679 -3.2833,-0.88849 -6.2697,-2.10078 -6.6363,-2.69396 -1.5772,-2.55202 -3.019,-0.71335 -3.019,3.85001 0,2.7107 -1.0681,6.78882 -2.3736,9.0625 -1.463,2.54809 -2.9179,8.90945 -3.7925,16.5825 -0.8408,7.37612 -2.1656,13.27364 -3.2514,14.47342 -2.7837,3.07605 -2.1994,5.83992 1.4273,6.75014 2.7862,0.69933 3.1478,1.30895 2.4902,4.19801 -2.6252,11.53304 -3.3324,19.10194 -2.1467,22.97704 2.5315,8.27308 6.1788,17.98276 8.1338,21.65284 2.4479,4.59556 2.5897,9.84025 0.3169,11.72649 -1.7987,1.49277 -9.0914,0.64766 -11.6437,-1.34934 -2.4505,-1.91731 -3.2417,-10.61039 -1.5622,-17.16389 1.3575,-5.29654 1.2999,-6.55127 -0.4218,-9.17897 -1.0969,-1.67409 -2.3907,-5.2354 -2.8749,-7.91404 -0.4843,-2.67864 -1.4797,-5.99525 -2.2122,-7.37025 -1.4861,-2.78966 -2.0447,-10.38385 -2.0887,-28.39445 -0.016,-6.67945 -0.6016,-13.64885 -1.3007,-15.48758 -0.8678,-2.28251 -0.848,-6.43298 0.062,-13.08263 0.7334,-5.35673 1.5586,-14.8863 1.8336,-21.17683 0.3063,-7.00354 1.1899,-12.49005 2.2795,-14.15294 0.9786,-1.49358 2.0823,-4.6821 2.4525,-7.08558 C 1253.4997,287.51952 1263.2093,270 1268.2017,270 c 0.8036,0 2.9353,-1.15953 4.737,-2.57673 2.9926,-2.35401 4.3307,-2.50445 15.4811,-1.74052 9.7605,0.66871 13.0816,1.4169 16.5802,3.73521 2.4063,1.59445 6.625,3.85219 9.375,5.01719 2.75,1.165 5.8438,2.60655 6.875,3.20342 1.0313,0.59689 3.9159,2.19262 6.4103,3.54608 4.7025,2.55157 14.2372,12.49504 16.3456,17.04626 0.6639,1.43325 2.7281,3.50435 4.587,4.60244 1.8589,1.09809 6.1704,4.77696 9.581,8.17526 3.4106,3.3983 7.961,7.2421 10.112,8.54178 2.1511,1.29966 7.3983,6.29188 11.6606,11.09382 4.2623,4.80194 11.1359,12.54753 15.2747,17.21243 8.613,9.70783 19.3451,16.01245 26.9875,15.85375 6.565,-0.13634 23.13,1.78072 24.8617,2.87725 5.091,3.22341 30.9553,4.90726 71.0546,4.6259 21.9484,-0.154 34.8742,0.72706 39.7349,2.70847 2.8603,1.16593 4.2406,1.01361 7.7006,-0.84969 3.6602,-1.9711 5.0952,-2.08541 10.89,-0.86752 14.2083,2.98606 21.4844,3.16537 24.8292,0.61187 3.45,-2.63386 19.1226,-10.31667 21.0457,-10.31667 0.678,0 2.952,-1.44656 5.0531,-3.21459 2.1012,-1.76802 4.3959,-2.85889 5.0993,-2.42414 0.7035,0.43475 4.2306,1.2586 7.8381,1.83079 4.9676,0.78791 7.4275,0.59231 10.1381,-0.80611 1.9684,-1.01555 6.7497,-2.66874 10.625,-3.67376 3.8753,-1.00504 9.0148,-3.08245 11.421,-4.61649 2.4063,-1.53405 5.5,-3.38906 6.875,-4.12227 1.375,-0.73322 3.625,-1.93078 5,-2.66126 1.375,-0.73047 4.8874,-1.9649 7.8053,-2.74315 3.8522,-1.0275 5.8295,-2.42886 7.2196,-5.11702 1.0529,-2.0361 2.6453,-3.702 3.5388,-3.702 0.8933,0 4.7327,-3.08369 8.5318,-6.85263 3.7992,-3.76895 8.4513,-7.65353 10.3382,-8.63243 1.8867,-0.9789 9.7048,-7.6409 17.3735,-14.80446 7.6685,-7.16357 15.6303,-14.07032 17.6928,-15.34834 2.0625,-1.27803 4.875,-3.27101 6.25,-4.42887 1.375,-1.15785 3.972,-2.45217 5.7712,-2.8763 1.7991,-0.42411 6.145,-2.74792 9.6573,-5.16403 3.5125,-2.41611 7.3842,-4.40318 8.6039,-4.41569 1.2198,-0.0125 4.6929,-1.70001 7.7183,-3.75 3.0252,-2.04999 6.8501,-3.72725 8.4995,-3.72725 1.6495,0 4.7276,-0.8939 6.8403,-1.98645 5.4579,-2.82239 20.4695,-1.35054 24.55,2.40705 4.4413,4.08977 7.642,9.94904 9.6535,17.67157 2.2928,8.80276 2.287,10.60974 -0.05,15.29318 -1.6212,3.24991 -1.6452,4.43931 -0.1741,8.62955 1.4433,4.1109 1.4411,6.30529 -0.014,14.2351 -3.2225,17.5585 -4.1309,24.36903 -4.156,31.16125 -0.014,3.73244 -0.5389,8.51369 -1.1669,10.625 -0.628,2.11131 -1.6946,6.08875 -2.3705,8.83875 -2.4059,9.79043 -8.9715,31.29389 -10.3615,33.93574 -0.8168,1.55236 -1.097,4.98109 -0.6643,8.125 0.4118,2.9916 0.8013,6.00176 0.8654,6.68926 0.064,0.6875 -0.2916,5.89063 -0.7906,11.5625 -1.0106,11.48753 -1.8279,12.22014 -7.9163,7.09703 -3.3913,-2.85358 -3.81,-3.94387 -3.72,-9.6875 0.1113,-7.10918 3.0152,-17.85254 5.6613,-20.94545 2.0371,-2.38129 2.1332,-6.45335 0.3486,-14.77484 -1.1164,-5.20535 -0.9893,-6.98459 0.7626,-10.6764 1.1563,-2.43655 1.763,-5.31403 1.3485,-6.39439 -0.4146,-1.08037 -0.025,-3.47556 0.8645,-5.32264 0.89,-1.84707 1.7765,-8.08525 1.97,-13.86262 0.1935,-5.77738 0.8675,-11.86088 1.4979,-13.51888 2.5484,-6.7029 1.5421,-8.90036 -6.4374,-14.0578 -7.8922,-5.10102 -9.3905,-5.21067 -14.7726,-1.08123 -1.6395,1.25797 -3.7067,2.28722 -4.5937,2.28722 -0.8872,0 -2.9279,2.39063 -4.5353,5.3125 -2.1551,3.91779 -3.8081,5.41515 -6.2964,5.70348 -3.1191,0.36142 -3.3657,0.80973 -3.2628,5.93106 0.1311,6.53581 -1.4495,8.8388 -6.8545,9.98672 -7.6742,1.62987 -10.5585,7.16994 -6.5159,12.51483 2.3136,3.0589 2.4421,6.80141 0.2335,6.80141 -2.8219,0 -5.895,4.43868 -5.719,8.26029 0.091,1.98809 -0.5741,5.4293 -1.4794,7.64712 -1.549,3.79542 -1.4339,4.25362 1.96,7.79598 2.4939,2.60302 3.596,5.02136 3.5741,7.84259 -0.046,6.02562 -3.8246,14.86242 -7.9932,18.69606 -4.334,3.98576 -4.4069,4.646 -1.2049,10.92235 l 2.4563,4.8148 -3.0708,3.31349 c -1.689,1.82241 -3.3939,4.83647 -3.7886,6.6979 -0.3948,1.86143 -1.4519,4.79067 -2.3491,6.50942 -0.8973,1.71875 -2.0173,5.2689 -2.4888,7.88923 -0.7423,4.12422 -0.4428,5.09042 2.2295,7.19246 2.0069,1.57851 3.3925,4.28551 3.96,7.73577 0.4802,2.91915 1.9355,7.6673 3.2341,10.55147 1.2985,2.88415 2.361,5.78727 2.361,6.45137 0,1.8989 7.4516,7.6797 9.8993,7.6797 1.2141,0 4.6028,-1.26665 7.5303,-2.81477 4.3002,-2.27399 5.7788,-4.01516 7.6957,-9.0625 1.305,-3.43625 2.3731,-7.0607 2.3737,-8.05433 5e-4,-0.99364 1.4524,-3.32146 3.2261,-5.17295 3.6882,-3.84956 5.6123,-10.619 4.1453,-14.58441 -0.55,-1.48708 -3.1499,-4.06085 -5.7774,-5.7195 -5.3575,-3.38206 -12.2667,-12.49005 -11.0134,-14.51814 0.4499,-0.72787 3.8097,-1.3234 7.4662,-1.3234 7.358,0 8.5028,0.84 12.5792,9.22969 1.375,2.82992 3.9163,5.81651 5.6471,6.63686 1.731,0.82036 5.2177,3.35161 7.7482,5.625 l 4.601,4.13345 0.8102,22.5 c 0.4458,12.375 0.8965,25.10954 1.0019,28.29896 0.1163,3.50774 1.0445,6.74433 2.3502,8.19159 1.2962,1.43653 2.0914,4.18389 1.9903,6.87529 -0.1112,2.95736 1.1746,6.86263 3.7787,11.47699 2.1712,3.84686 3.9474,8.38825 3.9474,10.09196 0,1.70371 1.1328,5.97156 2.5173,9.48411 3.8992,9.89231 5.8047,24.85314 6.048,47.48474 0.105,9.7734 4.0607,18.2182 9.6223,20.54199 2.3719,0.99098 4.3124,2.33203 4.3124,2.98008 0,0.64805 1.3324,1.51267 2.9608,1.92137 3.5356,0.88738 13.5006,6.6932 25.472,14.84042 4.7983,3.26562 9.1157,5.9375 9.5941,5.9375 1.8361,0 10.7128,7.998 11.4481,10.31507 0.4251,1.33934 3.2473,3.52971 6.2715,4.86748 3.3716,1.49141 6.2374,3.86071 7.4083,6.12488 1.0501,2.03092 2.4575,3.69257 3.1273,3.69257 0.6699,0 3.5443,2.32644 6.3878,5.16986 4.9356,4.93559 15.0381,9.83014 20.2899,9.83014 32.0933,31.12006 40.4955,39.11424 65.6797,50.3949 5.6008,1.07104 12.9765,4.23951 20.657,8.874 4.1591,2.50971 9.1086,4.4906 11.25,4.50254 2.1028,0.0112 6.636,1.68963 10.0735,3.72868 12.0423,11.67509 11.3954,11.56285 28.125,41.97898 0,0.78221 1.4885,3.61007 3.3078,6.28414 2.5398,3.73313 3.5388,7.18366 4.3027,14.86193 0.9421,9.46929 1.242,10.2156 5.6505,14.0625 5.3058,4.63007 5.8122,4.71963 12.7807,2.26097 6.5685,-2.31748 46.6261,-2.99403 51.8506,-0.87573 2.1553,0.87384 7.6957,1.19358 14.3062,0.82561 7.4573,-0.4151 12.7133,-0.029 17.022,1.25055 3.4282,1.01812 8.8627,1.8511 12.0766,1.8511 4.7534,0 6.9121,0.81607 11.5731,4.375 3.468,2.64804 7.143,4.375 9.31,4.375 4.1594,0 13.0534,5.3989 18.4448,11.19645 2.0625,2.21788 5.782,5.07794 8.2655,6.35568 2.8291,1.45556 5.3456,4.09705 6.7382,7.07302 1.2225,2.61242 3.1993,6.1561 4.3928,7.87485 1.2023,1.73164 2.5185,6.74773 2.9516,11.25 0.43,4.46875 1.0794,10.65625 1.4432,13.75 0.5873,4.99292 -0.023,6.88917 -5.429,16.875 -7.9628,14.70858 -13.9183,19.5072 -26.8055,21.59852 -4.9812,0.80836 -12.1506,2.05127 -15.9318,2.76202 -3.7813,0.71075 -12.4723,1.55245 -19.3134,1.87044 -22.437,1.04291 -48.5635,3.25869 -50.5819,4.28982 -3.3471,1.70999 -12.5894,2.8271 -27.3106,3.30102 -8.6443,0.27827 -15.6423,1.15102 -18.125,2.26045 -2.2243,0.99393 -7.9224,2.12785 -12.6624,2.5198 -13.3915,1.10733 -15.9215,4.5734 -16.5307,22.64793 -1.2283,36.43243 -1.1185,35.44213 -4.306,38.83513 -1.6459,1.752 -6.6606,4.8721 -11.1438,6.9337 -4.4831,2.0615 -9.6442,4.56 -11.4691,5.5522 -1.8249,0.9922 -4.0749,1.8066 -5,1.8098 -0.9251,0 -5.0571,1.396 -9.1821,3.0953 -4.125,1.6992 -9.2851,3.1029 -11.4667,3.1192 -2.3735,0.018 -5.4581,1.2847 -7.6803,3.1547 -2.0427,1.7187 -5.0232,3.125 -6.6232,3.125 -2.6951,0 -10.671,2.1068 -27.0895,7.1556 -3.6352,1.1178 -7.854,2.1403 -9.375,2.2722 -1.521,0.1318 -8.3903,0.6648 -15.2653,1.1843 -6.875,0.5195 -17.2035,2.2818 -22.9524,3.9162 -5.7488,1.6344 -12.1048,2.9717 -14.1245,2.9717 -2.0198,0 -5.2696,0.826 -7.2218,1.8355 -1.9522,1.0096 -5.1587,1.8143 -7.1255,1.7884 -7.2162,-0.095 -14.962,2.2428 -20.3258,6.135 -3.0252,2.1951 -6.7029,3.9911 -8.173,3.9911 -4.1969,0 -16.1979,4.6033 -17.5379,6.7272 -0.8806,1.3955 -0.3876,3.0327 1.807,6.0011 3.3437,4.5227 3.5405,9.1895 0.625,14.8274 -2.4589,4.7549 -2.3906,17.7654 0.1187,22.6176 1.7862,3.4541 1.7862,4.1752 0,7.9393 -1.0805,2.2771 -1.9646,5.9483 -1.9646,8.1582 0,3.1319 -1.1714,5.0888 -5.312,8.8736 -2.9215,2.6706 -6.0376,4.8556 -6.9247,4.8556 -0.887,0 -3.981,1.2459 -6.8755,2.7688 -4.2129,2.2164 -7.6318,2.8198 -17.1378,3.0246 -11.7687,0.2536 -23.6577,1.54 -38.125,4.1251 -4.125,0.7371 -11.4375,1.2327 -16.25,1.1012 -4.9987,-0.1365 -9.9566,0.4168 -11.5645,1.2907 -2.0049,1.0896 -7.5787,1.3415 -19.375,0.8756 -20.3604,-0.8043 -16.7311,-0.8406 -39.0605,0.3911 -10.3125,0.5689 -19.7044,1.4516 -20.8707,1.9617 -2.6815,1.1726 -14.9332,-2.2997 -22.0993,-6.2634 -3.0084,-1.664 -7.4816,-3.0254 -9.9404,-3.0254 -3.3102,0 -5.5126,-1.01 -8.4855,-3.8914 -2.6721,-2.59 -6.0363,-4.2797 -10.0595,-5.0527 -9.7001,-1.8636 -19.0696,-2.2821 -22.4362,-1.0021 -2.2594,0.859 -4.1255,0.6698 -6.7431,-0.6838 -2.6069,-1.3481 -4.4228,-1.535 -6.4923,-0.668 -1.5801,0.6621 -9.0605,1.7355 -16.623,2.3855 -7.5625,0.6499 -15.4375,1.8917 -17.5,2.7596 -2.0625,0.8678 -8.5312,1.7523 -14.375,1.9657 -5.8437,0.2133 -16.25,0.6751 -23.125,1.0263 -6.875,0.3511 -15.5937,0.7841 -19.375,0.9622 -3.7812,0.178 -8.2812,1.1287 -10,2.1126 -2.2141,1.2675 -8.0434,1.8625 -20,2.0415 -20.175,0.302 -26.4239,1.5593 -31.4599,6.3298 -3.5601,3.3724 -3.7461,4.0061 -3.0703,10.4648 0.3956,3.7812 1.8581,9.9608 3.2498,13.7323 1.3917,3.7716 2.5304,8.3363 2.5304,10.1439 0,1.8077 1.1026,4.6884 2.4504,6.4018 1.7626,2.2407 2.2672,4.3055 1.7981,7.356 -0.5214,3.3893 8e-4,4.9313 2.6001,7.6785 1.7889,1.8906 4.5489,3.4375 6.1333,3.4375 4.8986,0 7.6336,4.3755 7.6992,12.3175 0.033,3.8816 0.8519,8.8663 1.8217,11.0773 1.6393,3.7378 1.5628,4.233 -1.0904,7.0573 -1.9201,2.044 -2.7201,4.2045 -2.4455,6.6052 0.3514,3.0712 1.017,3.6242 4.7831,3.9733 4.4284,0.4106 10,4.3999 10,7.1597 0,0.8277 -1.22,2.3148 -2.7111,3.3048 -3.2125,2.1331 -3.4533,8.8774 -0.5194,14.5509 1.0156,1.964 1.5473,4.7156 1.1814,6.1147 -0.3659,1.399 0.8226,7.029 2.641,12.5111 2.4487,7.3828 4.2592,10.6722 6.9821,12.6852 2.3424,1.7317 3.676,3.838 3.676,5.8053 l 0,3.0877 -745,0 -745,0 0,-394.90971 z m 1503.9641,136.47209 c 4.0909,-3.9023 5.0844,-4.2846 9.1513,-3.5217 2.5091,0.4708 5.3617,1.1627 6.339,1.5377 1.8637,0.7152 7.7006,-4.4277 23.8407,-21.0063 5.6964,-5.8511 12.7189,-10.8446 17.3299,-12.3227 7.2545,-2.3256 14.375,-8.2841 14.375,-12.0292 0,-3.2986 4.0735,-12.2099 7.2144,-15.7827 1.0577,-1.2031 3.4971,-2.1875 5.421,-2.1875 2.3295,0 4.2481,-1.0651 5.7437,-3.1887 1.2353,-1.7537 4.3553,-5.4559 6.9334,-8.227 2.5781,-2.771 4.6875,-5.4999 4.6875,-6.064 0,-0.5642 1.6308,-1.5942 3.6238,-2.289 3.6677,-1.2786 9.449,-6.97549 18.6281,-18.3563 2.7725,-3.4375 8.4625,-9.8272 12.6445,-14.19933 5.3645,-5.60843 7.6059,-8.92128 7.6114,-11.25 0,-1.81537 0.8478,-4.91185 1.875,-6.88106 2.7298,-5.2343 2.3176,-7.69346 -1.8823,-11.22739 l -3.7495,-3.155 -9.688,4.44438 c -5.3284,2.4444 -10.2505,4.86251 -10.938,5.37357 -0.6875,0.51108 -6.2282,1.29473 -12.3129,1.74145 -6.541,0.48024 -12.1471,1.57172 -13.7156,2.6703 -1.459,1.02194 -3.6064,1.85808 -4.7719,1.85808 -1.1656,0 -5.0298,1.46191 -8.5872,3.24869 -3.6625,1.83961 -7.6379,2.97746 -9.1651,2.62336 -2.3189,-0.53759 -12.6145,-3.44295 -16.4473,-4.64133 -0.6875,-0.21495 -2.8195,0.0494 -4.7379,0.58738 -2.5221,0.70736 -4.1068,0.41805 -5.7233,-1.04495 -1.2297,-1.11274 -4.2642,-2.02315 -6.7433,-2.02315 -2.4793,0 -5.9301,-0.54079 -7.6686,-1.20175 -2.7599,-1.04933 -3.9894,-0.49445 -9.6941,4.375 -9.9691,8.50934 -15.811,8.17896 -35.0554,-1.9824 -2.5425,-1.34248 -6.3513,-2.44085 -8.4639,-2.44085 -2.1126,0 -7.5509,-1.8088 -12.085,-4.01955 l -8.2439,-4.01956 -2.8516,3.31521 c -3.231,3.75637 -4.5441,11.42555 -3.9325,22.96897 0.308,5.81223 1.1606,8.62957 3.594,11.875 1.7548,2.34022 3.598,5.66118 4.0963,7.37993 0.4982,1.71875 2.7632,5.09375 5.0333,7.5 2.27,2.4062 4.719,6.5722 5.4423,9.2577 0.7231,2.6855 2.8424,6.477 4.7093,8.4257 3.1998,3.3399 3.4004,4.2427 3.4986,15.7423 0.058,6.7096 -0.3563,18.2458 -0.919,25.6359 -0.8614,11.3102 -0.7144,13.8776 0.9283,16.223 1.386,1.9787 1.7505,4.4249 1.2576,8.4384 -0.5371,4.374 -0.1162,6.5734 1.8589,9.7267 2.5196,4.0214 2.6472,4.0644 9.7514,3.2824 5.9489,-0.6547 7.9951,-1.5522 11.7876,-5.1697 z M 568.42191,925.43104 c 3.81886,0.61972 5.63493,0.0287 11.1403,-3.62558 3.61771,-2.4013 6.91231,-4.90748 7.32135,-5.56931 0.40903,-0.66181 3.81066,-2.0949 7.55919,-3.18462 3.96414,-1.1524 7.35422,-2.98793 8.10317,-4.38734 0.70822,-1.32331 3.4698,-3.51926 6.13684,-4.87989 3.44813,-1.7591 6.0257,-4.55925 8.92121,-9.69159 2.23962,-3.96974 5.77334,-9.40586 7.85273,-12.08027 2.7466,-3.53258 3.70336,-6.01075 3.49799,-9.06035 -0.17828,-2.64698 0.67516,-5.49338 2.31008,-7.70474 3.30735,-4.47344 4.09329,-14.83789 1.72889,-22.79967 -1.44446,-4.86404 -2.49344,-6.21449 -5.6937,-7.3301 -6.29096,-2.19304 -10.89702,-1.61145 -15.59067,1.96857 -2.40565,1.83488 -5.43791,5.42175 -6.73835,7.97083 -1.30045,2.54907 -3.23215,4.96766 -4.29269,5.37462 -1.06054,0.40696 -1.92825,1.905 -1.92825,3.32896 0,3.39718 -4.45676,12.0612 -6.91069,13.43449 -1.06053,0.59351 -2.37297,2.73305 -2.91652,4.75453 -0.62848,2.33738 -1.86371,3.74081 -3.39303,3.85505 -1.32261,0.0987 -3.03965,0.23942 -3.81561,0.3125 -0.77596,0.0731 -2.12944,1.86769 -3.00771,3.98803 -0.87826,2.12033 -2.91526,4.35642 -4.52665,4.96905 -1.74163,0.66218 -2.92979,2.14032 -2.92979,3.64485 0,4.96245 -3.94422,7.08345 -14.8663,7.99432 -9.2101,0.7681 -10.85886,0.55908 -16.13357,-2.04518 -3.23133,-1.59539 -8.32082,-3.68784 -11.30999,-4.64991 -3.26776,-1.05173 -5.83162,-2.77478 -6.42988,-4.32125 -1.89535,-4.89935 -6.70316,-7.96646 -14.75637,-9.41375 -4.32911,-0.778 -9.0092,-1.05334 -10.40021,-0.61185 -1.89289,0.60079 -2.70094,0.14562 -3.21218,-1.80936 -0.85039,-3.25189 -3.63962,-3.38549 -5.31522,-0.2546 -0.69393,1.29661 -3.29284,3.55588 -5.77537,5.02061 -4.34281,2.56232 -4.48042,2.86004 -3.63498,7.86414 1.00673,5.95882 14.0934,22.84285 21.72921,28.0344 2.46392,1.6752 6.28294,4.36283 8.48669,5.97251 6.02417,4.4002 14.79512,6.65477 26.61817,6.8422 5.84375,0.0926 12.3125,0.63674 14.375,1.2091 2.8091,0.77955 4.93984,0.42588 8.49214,-1.40958 3.35994,-1.73606 6.07201,-2.23442 9.30477,-1.70982 z M 1017.285,755.69265 c 2.2881,-0.3666 5.663,-1.46495 7.5,-2.4408 1.837,-0.97584 6.4338,-3.02559 10.215,-4.55499 3.7813,-1.5294 8.4282,-3.97122 10.3266,-5.4263 14.197,-10.88167 18.3409,-14.93711 20.8928,-20.4468 1.5154,-3.27181 4.8935,-8.19876 7.507,-10.94876 6.7069,-7.05731 8.9766,-12.1486 8.5269,-19.12771 -0.2425,-3.76458 0.2123,-6.33669 1.2671,-7.16615 2.675,-2.10343 3.3506,-11.00963 0.9842,-12.97355 -1.1025,-0.91504 -2.0046,-2.98812 -2.0046,-4.60683 0,-5.77175 -12.938,-10.25435 -17.55,-6.08052 -1.3475,1.21947 -2.45,2.8271 -2.45,3.5725 0,0.74541 -1.418,2.7676 -3.1511,4.49377 -3.9486,3.93281 -9.3489,12.12001 -9.3489,14.17365 0,0.85203 -1.9687,4.60495 -4.375,8.33984 -2.4757,3.84269 -4.3942,8.43696 -4.4193,10.58285 -0.059,5.04822 -1.7416,7.6024 -10.2324,15.5326 -5.4724,5.11109 -7.6738,6.44252 -9.375,5.67029 -1.2228,-0.55506 -5.3171,-1.1175 -9.0983,-1.24987 -3.7813,-0.13236 -10.978,-1.12743 -15.99288,-2.21127 -13.6736,-2.95523 -16.13202,-1.4961 -19.67136,11.6754 -3.50115,13.02944 -3.66946,15.78723 -1.01445,16.62176 1.26703,0.39827 3.70994,1.55399 5.42869,2.56827 7.90815,4.66681 22.0712,6.23998 36.035,4.00262 z m 457.841,-79.61273 c 2.3369,-0.78105 5.686,-2.7498 7.4424,-4.375 1.7564,-1.62521 3.7677,-2.95492 4.4696,-2.95492 2.1621,0 6.2638,-5.23984 10.9661,-14.00897 4.7354,-8.83057 5.6673,-15.24719 3.1689,-21.81842 -1.3947,-3.66861 -10.9754,-14.14708 -12.9496,-14.16321 -0.6334,-0.005 -2.1391,-0.90311 -3.346,-1.99543 -1.207,-1.09231 -4.2736,-2.45493 -6.8148,-3.02805 -3.9813,-0.89794 -5.031,-0.63122 -7.5913,1.92922 -3.3168,3.31673 -3.8344,6.23616 -1.2797,7.21655 2.2178,0.851 7.0584,10.19895 7.0584,13.63056 0,2.52762 -1.4984,8.10614 -3.8625,14.38021 -0.5736,1.52212 -3.8502,4.19009 -7.2815,5.92885 -7.2147,3.65598 -9.8727,3.15596 -15.6511,-2.94423 -3.0101,-3.17778 -3.7505,-5.1673 -4.1173,-11.0633 -0.6163,-9.91215 0.7973,-11.68474 5.8964,-7.39403 2.1768,1.83164 4.3365,3.32258 4.7994,3.31319 6.0786,-0.12325 10.2166,-5.40718 10.2166,-13.04586 0,-4.35522 -0.094,-4.43708 -5.0821,-4.43708 -2.7953,0 -6.2063,0.60154 -7.58,1.33674 -3.3591,1.79781 -6.0879,-0.53104 -6.0879,-5.19581 0,-7.47532 -11.6612,-8.51195 -22.5,-2.00015 -5.9529,3.57646 -7.1965,5.02045 -9.2717,10.76627 -1.9005,5.26215 -2.0947,7.11954 -0.9375,8.97244 0.8026,1.28512 1.4592,3.77392 1.4592,5.53067 0,8.23373 11.367,25.54824 18.125,27.60854 1.375,0.41919 3.9649,2.13195 5.7554,3.80614 1.7905,1.67418 4.8842,3.53138 6.875,4.12712 5.329,1.59468 23.2162,1.51704 28.1206,-0.122 z m 218.8329,-9.64122 c 2.9789,-1.27121 7.4662,-2.69183 9.9719,-3.15693 2.5057,-0.46511 6.6452,-2.50607 9.1988,-4.53548 6.0347,-4.79572 13.1204,-14.81344 13.1204,-18.54943 0,-1.61487 0.9193,-4.49229 2.0428,-6.39425 3.3938,-5.74538 1.4642,-13.55438 -5.0222,-20.32393 -5.8684,-6.12462 -10.8722,-7.88038 -15.7706,-5.53363 -3.43,1.64326 -3.3625,0.89913 -1.8003,19.84729 0.8425,10.21776 0.7099,11.19504 -2.0692,15.2509 -5.2375,7.64359 -12.386,7.22416 -20.818,-1.22144 -2.9219,-2.9266 -5.3125,-6.14475 -5.3125,-7.15145 0,-1.00669 2.2602,-3.39671 5.0229,-5.31116 2.7625,-1.91445 5.367,-4.85243 5.7877,-6.52883 1.09,-4.34271 -2.8112,-8.95615 -9.4773,-11.20757 -7.9688,-2.69141 -13.2839,-0.6103 -22.1317,8.66564 l -7.0466,7.38773 0.7256,7.72443 c 1.0189,10.84592 3.7691,16.49839 11.7656,24.18173 6.0759,5.8379 7.5797,6.67007 12.0842,6.68682 2.8295,0.01 5.9883,0.56441 7.0196,1.23086 2.8251,1.8257 6.7024,1.50191 12.7089,-1.0613 z M 69.375,645.95618 c 9.166755,-3.19416 10.546656,-4.21731 12.728941,-9.43804 0.944175,-2.25878 3.086193,-4.62755 4.760039,-5.26395 1.673846,-0.63639 4.519919,-3.56955 6.324605,-6.51814 1.804686,-2.94858 4.356786,-6.88515 5.671331,-8.74794 1.314544,-1.86279 2.390084,-4.46596 2.390084,-5.78484 0,-3.90536 -3.291769,-10.60343 -6.849409,-13.93716 l -3.317704,-3.10888 -2.256902,2.99203 c -2.08867,2.76901 -2.851151,2.93728 -10.228944,2.25734 -5.657601,-0.5214 -8.62582,-0.25235 -10.223967,0.92676 -1.349994,0.99603 -4.103543,1.4235 -6.875,1.06733 -5.459634,-0.70165 -12.158481,1.85062 -16.652498,6.34465 -1.750306,1.7503 -4.25972,3.62051 -5.576475,4.15601 -5.218351,2.12224 -15.383684,9.8837 -18.059576,13.78891 -2.422956,3.53608 -2.617646,4.59343 -1.35574,7.36301 0.810429,1.77871 1.172229,4.18324 0.803999,5.34344 -1.373748,4.32829 2.303405,6.54988 15.673351,9.46919 14.761591,3.22316 21.733982,3.03121 33.043865,-0.90972 z M 26.25,553.75 c 0,-0.6875 -0.595698,-1.25 -1.323771,-1.25 -0.728074,0 -0.976128,0.5625 -0.551229,1.25 0.424899,0.6875 1.020595,1.25 1.323771,1.25 0.303176,0 0.551229,-0.5625 0.551229,-1.25 z m 1436.4709,687.9161 c 0.6081,-3.136 3.5291,-3.5666 3.5291,-0.5203 0,1.5355 -0.8071,2.6042 -1.9666,2.6042 -1.1641,0 -1.8018,-0.8505 -1.5625,-2.0839 z m 358.1578,-787.454 c -1.3653,-1.36542 -1.0345,-6.4683 0.4802,-7.40441 2.615,-1.6161 3.9514,1.50247 2.132,4.97488 -0.9534,1.81957 -2.1288,2.91284 -2.6122,2.42953 z M 1082.0833,110.41667 c -1.2869,-1.28696 -0.9852,-5.17524 0.4714,-6.07551 1.8275,-1.12939 4.9453,1.74677 4.9453,4.5619 0,2.29607 -3.6221,3.30821 -5.4167,1.51361 z M 32.592674,102.55728 C 30.619545,101.33781 31.88114,98.75 34.448771,98.75 c 1.900014,0 2.50384,3.16822 0.804046,4.21875 -0.548449,0.33896 -1.745515,0.1538 -2.660143,-0.41147 z M 1087.8125,39.224866 c -4.0372,-1.765234 -1.0268,-6.575927 7.9797,-12.752029 l 3.9173,-2.686183 3.2702,2.572398 c 2.525,1.986155 3.2703,3.679742 3.2703,7.431352 0,4.463775 -0.2796,4.860152 -3.4375,4.873677 -1.8906,0.0081 -5.6875,0.291307 -8.4375,0.629354 -2.75,0.338048 -5.7031,0.307193 -6.5625,-0.06857 z M 1112.1929,28.4375 c -0.3161,-0.859375 -0.3215,-2.289103 -0.013,-3.177172 0.7159,-2.055472 4.0693,0.431312 4.0693,3.017728 0,2.149866 -3.2778,2.278684 -4.0571,0.159444 z M 59.428381,25.086372 c -0.853837,-1.381538 1.11801,-2.873315 2.272269,-1.719056 1.188481,1.188483 0.966984,2.882684 -0.376879,2.882684 -0.646926,0 -1.499851,-0.523632 -1.89539,-1.163628 z M 168.75,14.283345 c 0,-1.164049 0.85046,-1.801717 2.08391,-1.5625 3.13596,0.608189 3.56656,3.529155 0.52025,3.529155 -1.53541,0 -2.60416,-0.807111 -2.60416,-1.966655 z M 1116.25,12.5 c 0,-1.388889 0.8333,-2.5 1.875,-2.5 1.0417,0 1.875,1.111111 1.875,2.5 0,1.388889 -0.8333,2.5 -1.875,2.5 -1.0417,0 -1.875,-1.111111 -1.875,-2.5 z"
     style="fill:#212121" />
</svg>
