<?xml version="1.0" encoding="UTF-8" standalone="no"?>
<svg
   xmlns:dc="http://purl.org/dc/elements/1.1/"
   xmlns:cc="http://creativecommons.org/ns#"
   xmlns:rdf="http://www.w3.org/1999/02/22-rdf-syntax-ns#"
   xmlns:svg="http://www.w3.org/2000/svg"
   xmlns="http://www.w3.org/2000/svg"
   viewBox="0 0 1920 1080"
   height="1080"
   width="1920"
   version="1.1"
   id="svg2">
  <metadata
     id="metadata8">
    <rdf:RDF>
      <cc:Work
         rdf:about="">
        <dc:format>image/svg+xml</dc:format>
        <dc:type
           rdf:resource="http://purl.org/dc/dcmitype/StillImage" />
        <dc:title></dc:title>
      </cc:Work>
    </rdf:RDF>
  </metadata>
  <defs
     id="defs6" />
  <path
     id="path4158"
     d="M 0,540 C 0,360 0,180 0,0 c 640,0 1280,0 1920,0 0,360 0,720 0,1080 -640,0 -1280,0 -1920,0 C 0,900 0,720 0,540 Z"
     style="fill:#99d6e1" />
  <path
     id="path4156"
     d="M 0,540 C 0,360 0,180 0,0 c 640,0 1280,0 1920,0 0,360 0,720 0,1080 -640,0 -1280,0 -1920,0 C 0,900 0,720 0,540 Z m 1820.9648,510.0657 c 19.8405,-21.3421 -19.4277,-6.91 0,0 z M 1816.5,1049 c 2.0477,-4.9354 2.0477,4.9354 0,0 z m -0.4185,-4.4018 c -14.0255,-11.4647 15.1216,-0.8139 0,0 z m -12.6236,2.4699 c 1.5465,-24.0738 -19.1426,1.9102 0,0 z M 1650,1040.9096 c 14.7855,-32.8318 -12.64,6.9388 0,0 z m 9.1731,1.5904 c 15.1531,3.6886 -10.562,-10.7711 0,0 z m 12.0816,2.3661 c 4.5251,-4.6986 4.0118,-4.1656 0,0 z m 10.9184,-2.3661 3.5688,-1.7033 -3.5688,1.7033 z m 12.2408,2.8639 c 19.4254,-9.3944 -27.2103,-11.7615 0,0 z m 16.2842,-0.02 c 7.8814,-23.5414 -16.6342,6.7404 0,0 z m 16.7233,-0.887 c 28.6025,8.3693 -13.2237,-24.2295 0,0 z M 1748,1042.3 c -9.7512,-14.1335 -5.0009,17.4552 0,0 z m 6.0153,1.95 c 6.2265,-4.9872 3.7976,-3.0417 0,0 z m 12.9598,0.1845 c 23.5732,-25.5556 -15.5263,-2.3492 0,0 z m 10.0249,1.6766 c 4.5583,-15.9308 -19.0641,6.9971 0,0 z m 7,-2.0521 c 18.6078,-8.4269 -9.6248,-6.3689 0,0 z m 25.8228,-2.1818 c -9.3362,-5.9135 8.1039,19.6839 0,0 z m 17.1772,3.0571 c 17.5013,3.7568 -10.5543,-16.8782 0,0 z m 13.405,-3.4671 c 3.1421,-26.7331 -8.5153,13.3901 0,0 z m 5.6103,2.7828 c 20.9769,17.4622 16.7184,-13.3484 0,0 z m 18.2394,0.6161 2.3085,-3.3485 -2.3085,3.3485 z M 1875,1044.5818 c 16.6675,10.6294 -3.528,-16.0843 0,0 z M 49.026467,1041.9505 c 4.971997,-21.999 -18.492453,11.4467 0,0 z m 1838.958233,-5.7838 c -9.8197,-1.8108 9.0119,12.789 0,0 z m -1836.177828,-7.6932 -0.632186,1.4763 0.632186,-1.4763 z m -9.123758,-1.661 -0.184704,1.8064 0.184704,-1.8064 z m 4.566886,-2.4748 -2.439841,0.048 2.439841,-0.048 z M 1278.4182,695.39301 c 92.6892,-11.93814 -34.0579,-106.56533 -25.0998,-34.8259 6.2307,12.98225 15.6257,24.1216 25.0998,34.8259 z m -180.7265,-3.27088 c 23.8081,-31.77515 -16.5965,6.40593 -4.6427,-0.42821 l 4.6427,0.42821 z"
     style="fill:#5db5ca" />
  <path
     id="path4154"
     d="M 0,540 C 0,360 0,180 0,0 c 640,0 1280,0 1920,0 0,360 0,720 0,1080 -640,0 -1280,0 -1920,0 C 0,900 0,720 0,540 Z m 1820.5454,511.5905 c 21.4118,-18.8796 -23.3678,-5.6066 0,0 z m -4.8459,-7.9312 c -4.7527,-9.8243 8.2911,3.4733 0,0 z m -99.399,2.6814 c -8.2558,-0.5662 7.5759,10.3644 0,0 z m -66.4985,-4.162 c 29.4722,-30.0176 -20.3677,1.69 0,0 z M 1659,1044 c 17.6309,0.7934 -19.0387,-14.9419 0,0 z m 17.8145,-0.3198 c -5.3696,-20.4445 -7.5098,15.7004 0,0 z M 1682,1044 c 15.1356,8.3145 -3.6819,-11.5015 0,0 z m 12.4139,2.3639 c 16.9787,-5.2444 -17.9329,-10.738 0,0 z m 16.3834,0.034 c 8.1539,-25.281 -21.2555,8.3934 0,0 z m 17.2202,-1.4718 c 18.1614,1.4203 -13.4975,-15.7459 0,0 z m 20.4825,-2.3426 c 7.5054,-16.656 -20.5063,11.6148 0,0 z m 5.893,3.8349 c 18.393,4.5729 -2.3695,-15.4316 0,0 z m 13.147,-4.1682 c 6.73,-31.8047 -10.6386,11.8537 0,0 z m 10.448,2.8241 c 33.3088,-3.2087 -18.7852,-7.5666 0,0 z m 26.512,1.4357 c 2.2423,-23.8008 -20.6814,4.7085 0,0 z m 5.3349,-2.0281 c 29.2331,-31.5796 -17.3245,-8.5302 0,0 z M 1828,1044.1312 c 18.6502,-5.7316 -22.8056,-7.9685 0,0 z m 18.2347,2.3688 c 52.4105,10.6107 -20.9557,-20.4101 0,0 z m 29.5757,-2.8273 c 16.5364,10.6482 -4.5289,-13.4568 0,0 z m 11.9395,1.7438 c -5.9321,-3.7736 0.2231,5.9097 0,0 z M 50.568791,1042.7833 c 24.184569,-33.6666 -31.741478,-7.4269 0,0 z M 45.25,1030.2943 c -8.401453,-14.8283 17.529648,7.2046 0,0 z m 1842.75,7.0633 c -7.5261,-11.3548 3.79,22.8424 0,0 z M 1303.75,695.44806 c 79.5854,-65.52033 -116.7702,-64.7972 -31.0659,-4.24675 8.102,8.84504 21.0117,8.37891 31.0659,4.24675 z m -206.8642,-8.06964 c -19.6702,-5.40367 16.5903,20.23221 0,0 z M 1598,427 c -2.202,-11.01897 -2.202,11.01897 0,0 z"
     style="fill:#f5b021" />
  <path
     id="path4152"
     d="M 0,540 C 0,360 0,180 0,0 c 640,0 1280,0 1920,0 0,360 0,720 0,1080 -640,0 -1280,0 -1920,0 C 0,900 0,720 0,540 Z m 1820.5454,511.5905 c 21.4118,-18.8796 -23.3678,-5.6066 0,0 z m -4.8459,-7.9312 c -4.7527,-9.8243 8.2911,3.4733 0,0 z m -99.399,2.6814 c -8.2558,-0.5662 7.5759,10.3644 0,0 z m -66.4985,-4.162 c 29.4722,-30.0176 -20.3677,1.69 0,0 z M 1659,1044 c 17.6309,0.7934 -19.0387,-14.9419 0,0 z m 17.8145,-0.3198 c -5.3696,-20.4445 -7.5098,15.7004 0,0 z M 1682,1044 c 15.1356,8.3145 -3.6819,-11.5015 0,0 z m 12.4139,2.3639 c 16.9787,-5.2444 -17.9329,-10.738 0,0 z m 16.3834,0.034 c 8.1539,-25.281 -21.2555,8.3934 0,0 z m 17.2202,-1.4718 c 18.1614,1.4203 -13.4975,-15.7459 0,0 z m 20.4825,-2.3426 c 7.5054,-16.656 -20.5063,11.6148 0,0 z m 5.893,3.8349 c 18.393,4.5729 -2.3695,-15.4316 0,0 z m 13.147,-4.1682 c 6.73,-31.8047 -10.6386,11.8537 0,0 z m 10.448,2.8241 c 33.3088,-3.2087 -18.7852,-7.5666 0,0 z m 26.512,1.4357 c 2.2423,-23.8008 -20.6814,4.7085 0,0 z m 5.3349,-2.0281 c 29.2331,-31.5796 -17.3245,-8.5302 0,0 z M 1828,1044.1312 c 18.6502,-5.7316 -22.8056,-7.9685 0,0 z m 18.2347,2.3688 c 52.4105,10.6107 -20.9557,-20.4101 0,0 z m 29.5757,-2.8273 c 16.5364,10.6482 -4.5289,-13.4568 0,0 z m 11.9395,1.7438 c -5.9321,-3.7736 0.2231,5.9097 0,0 z M 50.568791,1042.7833 c 24.184569,-33.6666 -31.741478,-7.4269 0,0 z M 1888,1037.3576 c -7.5261,-11.3548 3.79,22.8424 0,0 z M 1303.75,695.44806 c 79.5854,-65.52033 -116.7702,-64.7972 -31.0659,-4.24675 8.102,8.84504 21.0117,8.37891 31.0659,4.24675 z m -206.8642,-8.06964 c -19.6702,-5.40367 16.5903,20.23221 0,0 z M 870,670.57143 c 53.46265,-33.47037 -37.93697,-7.78784 0,0 z m 107.75,-7.5686 c 126.0837,-1.29187 143.3082,-211.23743 29.2794,-247.19123 -81.4664,-29.2609 -181.11804,34.34732 -176.26952,123.90408 3.26651,73.25789 68.98172,145.5976 146.99012,123.28715 z m 7.67901,-74.32724 c -1.01234,-56.82612 57.10269,-22.2527 0,0 z m -62.9186,-24.89369 c -34.72333,-33.70927 31.29491,-13.68436 14.99574,1.38459 l -14.99574,-1.38459 z m 38.01046,-12.97925 c -38.61303,-67.0037 66.10113,-14.18588 0,0 z m 36.99658,-37.00239 c -51.00768,-34.78016 39.30575,-31.77118 0,0 z M 1096,639.5 c -27.2114,-52.08521 -22.8258,44.37659 0,0 z m -262,-6 c -9.5889,-22.79226 -9.66691,21.26939 0,0 z m 11,-12 c -7.29744,-19.1183 -7.30915,18.73614 0,0 z m 375.3616,-115 c 50.4994,-10.05339 -18.8852,-32.21548 -13.6865,-8.0059 l 13.6865,8.0059 z M 1239,470.05152 c -22.699,-30.66882 -34.5321,26.84311 0,0 z M 1598,427 c -2.202,-11.01897 -2.202,11.01897 0,0 z M 996.63347,247 c -2.93939,-37.59944 -39.29861,8.01942 0,0 z M 1007,241.63486 c 23.3109,-65.49257 -70.04296,4.57927 0,0 z"
     style="fill:#2968a5" />
  <path
     id="path4150"
     d="M 0,540 C 0,360 0,180 0,0 c 640,0 1280,0 1920,0 0,360 0,720 0,1080 -640,0 -1280,0 -1920,0 C 0,900 0,720 0,540 Z m 1820.4349,513.0248 c 43.079,2.3359 76.8066,-20.1767 13.5932,-17.6496 -20.5369,-5.3419 -53.5147,9.9988 -13.5932,17.6496 z M 1816,1042.5 c 2.1367,-6.3512 2.1367,6.3512 0,0 z m 25.0789,-0.083 0.4098,1.2335 -0.4098,-1.2335 z m -124.5789,5.0696 c -25.4737,-34.1233 -86.1852,9.4467 -17.7762,1.3961 l 8.3685,-0.5471 9.4077,-0.849 z m -17.1642,-5.0535 c -7.006,-12.6113 8.4725,2.3517 0,0 z M 1727.8,1047.8 c 85.6751,17.7317 -2.5337,-43.0613 0,0 z M 51.471855,1047.0455 c 36.149284,-47.71211 -50.3568852,-13.9788 0,0 z M 1427.5,1032 c -7.0225,-17.9661 -6.9585,17.5496 0,0 z m 147.375,-8.625 c 14.7695,-13.0324 -19.3135,-0.707 0,0 z m -320.4568,-87.98199 c 9.7741,-17.77524 -18.6242,4.58513 0,0 z M 1635.5,850.959 c -8.1297,-18.51897 -6.6865,18.98455 0,0 z M 1099.321,693.75 c 8.8386,-30.20083 -18.2167,11.37172 0,0 z m 205.3476,3.47595 c 68.5842,-64.65004 -82.7824,-63.90819 -41.6621,-10.48466 12.5312,4.51662 27.8398,13.49008 41.6621,10.48466 z M 870,670.57143 c 53.46265,-33.47037 -37.93697,-7.78784 0,0 z m 107.75,-7.5686 c 126.0837,-1.29187 143.3082,-211.23743 29.2794,-247.19123 -81.4664,-29.2609 -181.11804,34.34732 -176.26952,123.90408 3.26651,73.25789 68.98172,145.5976 146.99012,123.28715 z m 7.67901,-74.32724 c -1.01234,-56.82612 57.10269,-22.2527 0,0 z m -62.9186,-24.89369 c -34.72333,-33.70927 31.29491,-13.68436 14.99574,1.38459 l -14.99574,-1.38459 z m 38.01046,-12.97925 c -38.61303,-67.0037 66.10113,-14.18588 0,0 z m 36.99658,-37.00239 c -51.00768,-34.78016 39.30575,-31.77118 0,0 z M 1096,639.5 c -27.2114,-52.08521 -22.8258,44.37659 0,0 z M 717.5,639 c -7.76027,-34.53223 -4.03764,24.69512 0,0 z m 23.50134,4 c 77.48068,-28.46264 -50.75908,-47.5939 0,0 z M 834,633.5 c -9.5889,-22.79226 -9.66691,21.26939 0,0 z M 441,627 c -3.26616,-11.742 -3.26616,11.742 0,0 z m 404,-5.5 c -7.29744,-19.1183 -7.30915,18.73614 0,0 z m 621.75,-13.13029 c 11.5547,-16.23016 -18.3499,2.52228 0,0 z M 1220.3616,506.5 c 50.4994,-10.05339 -18.8852,-32.21548 -13.6865,-8.0059 l 13.6865,8.0059 z M 1239,470.05152 c -22.699,-30.66882 -34.5321,26.84311 0,0 z m 375.4182,-21.65851 c 10.0371,-17.04651 -16.9843,4.26715 0,0 z M 1602.8,430.8 c 7.1628,-23.01722 -21.1959,9.73988 0,0 z M 757.875,362.375 c 14.16036,-13.30035 -18.36967,-0.89547 0,0 z M 996.63347,247 c -2.93939,-37.59944 -39.29861,8.01942 0,0 z M 1007,241.63486 c 23.3109,-65.49257 -70.04296,4.57927 0,0 z M 1782,149 c -3.2662,-11.74203 -3.2662,11.74203 0,0 z M 919.5,131 c -8.12018,-17.97184 -6.77003,18.38782 0,0 z"
     style="fill:#bd5312" />
  <path
     id="path4148"
     d="M 0,540 C 0,360 0,180 0,0 c 640,0 1280,0 1920,0 0,360 0,720 0,1080 -640,0 -1280,0 -1920,0 C 0,900 0,720 0,540 Z m 1820.4349,513.0248 c 43.079,2.3359 76.8066,-20.1767 13.5932,-17.6496 -20.5369,-5.3419 -53.5147,9.9988 -13.5932,17.6496 z M 1816,1042.5 c 2.1367,-6.3512 2.1367,6.3512 0,0 z m 25.0789,-0.083 0.4098,1.2335 -0.4098,-1.2335 z m -124.5789,5.0696 c -25.4737,-34.1233 -86.1852,9.4467 -17.7762,1.3961 l 8.3685,-0.5471 9.4077,-0.849 z m -17.1642,-5.0535 c -7.006,-12.6113 8.4725,2.3517 0,0 z M 1727.8,1047.8 c 85.6751,17.7317 -2.5337,-43.0613 0,0 z M 51.471855,1047.0455 c 36.149284,-47.71211 -50.3568852,-13.9788 0,0 z M 1427.5,1032 c -7.0225,-17.9661 -6.9585,17.5496 0,0 z m 147.375,-8.625 c 14.7695,-13.0324 -19.3135,-0.707 0,0 z m -320.4568,-87.98199 c 9.7741,-17.77524 -18.6242,4.58513 0,0 z M 1635.5,850.959 c -8.1297,-18.51897 -6.6865,18.98455 0,0 z M 1099.321,693.75 c 8.8386,-30.20083 -18.2167,11.37172 0,0 z m 205.3476,3.47595 c 68.5842,-64.65004 -82.7824,-63.90819 -41.6621,-10.48466 12.5312,4.51662 27.8398,13.49008 41.6621,10.48466 z M 1021.5,683.5 c 17.0976,-65.56885 106.5504,-108.47452 60.8461,-188.23695 -26.9179,-116.34531 -216.96324,-112.88511 -245.22144,0.34587 -23.46951,65.39867 4.53843,173.4529 81.92233,169.98453 C 953.38856,644.32114 988.78313,674.27839 1021.5,683.5 Z M 807.79616,659.30992 c 23.26884,-44.25655 -33.58209,13.80746 0,0 z M 1085,658.5 c 43.3361,-38.90533 -44.1453,-18.11024 0,0 z M 717.5,639 c -7.76027,-34.53223 -4.03764,24.69512 0,0 z m 23.50134,4 c 77.48068,-28.46264 -50.75908,-47.5939 0,0 z M 441,627 c -3.26616,-11.742 -3.26616,11.742 0,0 z m 1025.75,-18.63029 c 11.5547,-16.23016 -18.3499,2.52228 0,0 z m -235.0477,-103.0236 c 58.7504,-72.61545 -83.8942,-2.79889 0,0 z m 382.7159,-56.9531 c 10.0371,-17.04651 -16.9843,4.26715 0,0 z M 1602.8,430.8 c 7.1628,-23.01722 -21.1959,9.73988 0,0 z M 884.5,408.5 c -14.08983,-30.801 -10.64172,28.44787 0,0 z M 757.875,362.375 c 14.16036,-13.30035 -18.36967,-0.89547 0,0 z M 1003,247 c 41.6604,-68.35865 -71.88933,4.22747 0,0 z m 779,-98 c -3.2662,-11.74203 -3.2662,11.74203 0,0 z M 919.5,131 c -8.12018,-17.97184 -6.77003,18.38782 0,0 z"
     style="fill:#142342" />
</svg>
